<?xml version="1.0" encoding="utf-8"?><svg version="1.1" xmlns="http://www.w3.org/2000/svg" xmlns:xlink="http://www.w3.org/1999/xlink" x="0px" y="0px" fill="" viewBox="0 0 192 192" style="enable-background:new 0 0 192 192;" xml:space="preserve"><g id="Layer_7"><g><linearGradient id="SVGID_1_" gradientUnits="userSpaceOnUse" x1="89.0192" y1="122.732" x2="142.9808" y2="29.268"><stop  offset="0" style="stop-color:#5500FF"/><stop  offset="0.1715" style="stop-color:#4D09FF"/><stop  offset="0.4511" style="stop-color:#3821FF"/><stop  offset="0.802" style="stop-color:#1649FF"/><stop  offset="1" style="stop-color:#0062FF"/></linearGradient><path class="st5" d="M120,16h-8c0,30.88-25.12,56-56,56v8c30.88,0,56,25.12,56,56h8c0-30.88,25.12-56,56-56v-8 C145.12,72,120,46.88,120,16z"/><linearGradient id="SVGID_00000049207151058930698180000011839073544639225000_" gradientUnits="userSpaceOnUse" x1="35.4115" y1="168.7311" x2="68.5885" y2="111.267"><stop  offset="0" style="stop-color:#5500FF"/><stop  offset="0.1715" style="stop-color:#4D09FF"/><stop  offset="0.4511" style="stop-color:#3821FF"/><stop  offset="0.802" style="stop-color:#1649FF"/><stop  offset="1" style="stop-color:#0062FF"/></linearGradient><path d="M56,104h-4c0,0,0,0,0,0c0,0,0,0,0,0h-4 c0,17.64-14.35,32-32,32v8c17.65,0,32,14.36,32,32h8c0-17.64,14.35-32,32-32v-8C70.35,136,56,121.64,56,104z"/></g></g></svg>