<!-- Generated by IcoMoon.io -->
<svg version="1.1" xmlns="http://www.w3.org/2000/svg" width="32" height="32" viewBox="0 0 32 32">
<title>ci</title>
<path d="M30.667 22.625v0.087c-0.006 4.392-3.565 7.95-7.956 7.955h-0.085c-3.937-0.005-7.205-2.864-7.845-6.62l-0.007-0.047h-3.107l4.333-4.333 4.333 4.333h-2.833c0.6 2.315 2.669 3.998 5.131 4h0.087c2.916-0.009 5.278-2.373 5.282-5.29v-0.085c-0.003-2.921-2.369-5.288-5.29-5.292h-13.42c-4.393-0.004-7.954-3.565-7.957-7.958v-0.087c0.006-4.392 3.565-7.95 7.956-7.955h0.085c4.393 0.004 7.954 3.564 7.958 7.956v2.044h-2.667v-2.043c-0.004-2.921-2.371-5.287-5.291-5.29h-0.087c-2.919 0.005-5.285 2.371-5.288 5.29v0.085c0.003 2.921 2.369 5.288 5.29 5.292h13.42c4.393 0.004 7.954 3.565 7.957 7.958v0z"></path>
</svg>
