<!-- Generated by IcoMoon.io -->
<svg version="1.1" xmlns="http://www.w3.org/2000/svg" width="32" height="32" viewBox="0 0 32 32">
<title>instagram</title>
<path d="M15.966 2.952c4.226 0 4.763 0 6.44 0.067 1.006 0 2.013 0.201 2.952 0.537 1.409 0.537 2.482 1.61 3.019 3.019 0.335 0.939 0.537 1.946 0.537 2.952 0.067 1.677 0.067 2.214 0.067 6.44s0 4.763-0.067 6.44c0 1.006-0.201 2.013-0.537 2.952-0.537 1.409-1.61 2.482-3.019 3.019-0.939 0.335-1.946 0.537-2.952 0.537-1.677 0.067-2.214 0.067-6.44 0.067s-4.763 0-6.44-0.067c-1.006 0-2.013-0.201-2.952-0.537-1.409-0.537-2.482-1.677-3.019-3.019-0.335-0.939-0.537-1.945-0.537-2.952-0.067-1.677-0.067-2.214-0.067-6.44s0-4.763 0.067-6.44c0-1.006 0.201-2.013 0.537-2.952 0.537-1.342 1.61-2.482 3.019-3.019 0.939-0.335 1.946-0.537 2.952-0.537 1.677 0 2.147-0.067 6.44-0.067zM15.966 0.067c-4.361 0-4.897 0-6.574 0.067-1.342 0-2.616 0.268-3.891 0.738-2.147 0.805-3.891 2.549-4.696 4.696-0.47 1.275-0.738 2.549-0.738 3.891-0.067 1.677-0.067 2.281-0.067 6.574s0 4.897 0.067 6.574c0.067 1.342 0.335 2.616 0.805 3.824 0.805 2.147 2.549 3.891 4.696 4.696 1.275 0.47 2.549 0.738 3.891 0.738 1.677 0.067 2.214 0.067 6.574 0.067s4.897 0 6.574-0.067c1.342 0 2.616-0.268 3.891-0.738 2.147-0.805 3.891-2.549 4.696-4.696 0.47-1.275 0.738-2.549 0.738-3.891 0.067-1.677 0.067-2.281 0.067-6.574s0-4.897-0.067-6.574c0-1.342-0.268-2.616-0.738-3.891-0.805-2.147-2.549-3.891-4.696-4.696-1.275-0.47-2.549-0.738-3.891-0.738-1.677 0-2.214 0-6.642 0zM15.968 7.85c-4.495 0-8.184 3.69-8.184 8.184s3.69 8.184 8.184 8.184c4.495 0 8.184-3.69 8.184-8.184s-3.69-8.184-8.184-8.184zM15.968 21.335c-2.952 0-5.3-2.415-5.3-5.3 0-2.952 2.415-5.3 5.3-5.3s5.3 2.415 5.3 5.3c0 2.952-2.348 5.3-5.3 5.3zM24.484 9.46c1.075 0 1.946-0.871 1.946-1.946s-0.871-1.946-1.946-1.946c-1.074 0-1.945 0.871-1.945 1.946s0.871 1.946 1.945 1.946z"></path>
</svg>
