<!-- Generated by IcoMoon.io -->
<svg version="1.1" xmlns="http://www.w3.org/2000/svg" width="32" height="32" viewBox="0 0 32 32">
<title>security-platform</title>
<path d="M16 0.793l-12 6.938v9.604c0.007 4.42 2.392 8.281 5.944 10.372l0.056 0.031 6 3.468 6-3.469c3.608-2.122 5.993-5.983 6-10.402v-9.605zM6.667 10.811l8 4.625v4.42l-8-4.625zM7.997 8.5l6.669-3.856v7.711zM6.723 18.343l7.944 4.593v4.42l-3.333-1.926c-2.521-1.484-4.269-4.050-4.607-7.044l-0.004-0.043zM25.333 17.335c-0.005 3.439-1.86 6.443-4.623 8.070l-0.044 0.024-3.333 1.927v-22.712l8 4.625z"></path>
</svg>
