<svg width="42" height="42" viewBox="0 0 42 42" fill="none" xmlns="http://www.w3.org/2000/svg">
<path d="M35.3752 13.7796C35.0295 12.488 34.0145 11.473 32.7229 11.1273C30.3818 10.5 21 10.5 21 10.5C21 10.5 11.6182 10.5 9.27955 11.1273C7.98798 11.473 6.973 12.488 6.62726 13.7796C6 16.1182 6 21.0005 6 21.0005C6 21.0005 6 25.8828 6.62726 28.2214C6.973 29.513 7.98798 30.528 9.27955 30.8737C11.6182 31.501 21 31.501 21 31.501C21 31.501 30.3818 31.501 32.7204 30.8737C34.012 30.528 35.027 29.513 35.3727 28.2214C36 25.8828 36 21.0005 36 21.0005C36 21.0005 36 16.1182 35.3727 13.7796H35.3752ZM17.9995 25.5V16.501L25.7934 21.0005L17.9995 25.5Z" fill="white"/>
</svg>
