<svg xmlns="http://www.w3.org/2000/svg" viewBox="0 0 192 192" fill="none" width="192" height="192">
    <path d="M164,152a12,12,0,1,1-12-12A12,12,0,0,1,164,152ZM56,124a12,12,0,1,0,12-12A12,12,0,0,0,56,124ZM96,48A48.055,48.055,0,0,0,48,96H64A32.036,32.036,0,0,1,96,64Zm67.623-8.309,14.034-14.034L166.343,14.343l-76,76,11.314,11.314,21.916-21.915A32.014,32.014,0,0,1,96,128v16a48,48,0,0,0,39.122-75.808l17.125-17.125A71.95,71.95,0,0,1,162.7,123.1l12.08,12.08a87.937,87.937,0,0,0-11.157-95.489ZM96,168A72,72,0,0,1,96,24V8a88,88,0,1,0,39.18,166.78L123.1,162.7A71.483,71.483,0,0,1,96,168Z" fill="url(#paint0_linear2)"/>
<defs>
<linearGradient id="paint0_linear2" x1="4.90515e-07" y1="18" x2="18.0421" y2="0.042219" gradientUnits="userSpaceOnUse">
<stop stop-color="#AE25B4"/>
<stop offset="1" stop-color="#632CA6"/>
</linearGradient>
</defs>
</svg>
