<svg width="22" height="22" viewBox="0 0 22 22" fill="none" xmlns="http://www.w3.org/2000/svg">
<path fill-rule="evenodd" clip-rule="evenodd" d="M11 21.9999C17.0751 21.9999 22 17.0751 22 11C22 4.92485 17.0751 0 11 0C4.92487 0 0 4.92485 0 11C0 17.0751 4.92487 21.9999 11 21.9999ZM13.0681 17.7215V15.443C13.0602 15.2714 12.9844 15.1088 12.8557 14.9872C12.7925 14.9274 12.717 14.8804 12.6339 14.849C12.5507 14.8177 12.4616 14.8027 12.3721 14.8049H9.60602C9.42548 14.7927 9.26426 14.8535 9.12236 14.9872C8.98047 15.1209 8.90952 15.2729 8.90952 15.443V17.7215C8.90952 17.8916 8.98047 18.0435 9.12236 18.1772C9.26426 18.3109 9.42548 18.3778 9.60602 18.3778H12.3721C12.5529 18.3656 12.7236 18.2947 12.8552 18.1772C12.9238 18.1205 12.9784 18.0503 13.0152 17.9715C13.0519 17.8928 13.07 17.8074 13.0681 17.7215ZM13.0876 12.527L13.3968 4.70714C13.4102 4.537 13.3459 4.38508 13.204 4.25136C13.0621 4.11764 12.9008 4.05078 12.7203 4.05078H9.25763C9.0901 4.05078 8.93545 4.11764 8.79366 4.25136C8.65188 4.38508 8.5874 4.537 8.60023 4.70714L8.88957 12.527C8.89421 12.6137 8.91715 12.6987 8.95704 12.7769C8.99693 12.8552 9.05297 12.9252 9.12189 12.9828C9.25226 13.0999 9.42546 13.1651 9.60554 13.1651H12.3716C12.552 13.1774 12.7132 13.1167 12.8552 12.9828C12.9901 12.8633 13.0729 12.7009 13.0876 12.527Z" fill="url(#paint0_linear)"/>
<defs>
<linearGradient id="paint0_linear" x1="6.8392" y1="-2.75862" x2="21.6061" y2="22.2714" gradientUnits="userSpaceOnUse">
<stop stop-color="#B025B5"/>
<stop offset="1" stop-color="#3923AE"/>
</linearGradient>
</defs>
</svg>
