<svg width="42" height="42" viewBox="0 0 42 42" fill="none" xmlns="http://www.w3.org/2000/svg">
<path d="M41.7633 30.3138V30.4375C41.7595 33.4406 40.5647 36.3196 38.441 38.4428C36.3172 40.5661 33.438 41.7602 30.4348 41.7633H30.3138C24.6928 41.7633 20.0158 37.6487 19.1358 32.2714H14.7125L20.8816 26.1023L27.0508 32.2714H23.0075C23.4188 33.8979 24.3605 35.3409 25.6837 36.3723C27.0069 37.4036 28.6362 37.9646 30.3138 37.9664H30.4375C32.4338 37.9633 34.3475 37.1688 35.7588 35.7569C37.1701 34.3451 37.964 32.4312 37.9664 30.4348V30.3138C37.964 28.3171 37.1698 26.4028 35.7579 24.9909C34.346 23.5789 32.4316 22.7847 30.4348 22.7823H11.3284C8.32404 22.7795 5.44358 21.5844 3.31957 19.4596C1.19556 17.3348 0.00164904 14.4538 0 11.4494V11.3258C0.0037688 8.32269 1.19859 5.44371 3.32234 3.32046C5.4461 1.19721 8.32533 0.00306105 11.3284 0H11.4494C14.4529 0.00306271 17.3325 1.19761 19.4562 3.32146C21.5799 5.44531 22.7742 8.32497 22.777 11.3284V14.2373H18.9836V11.3284C18.9813 9.33119 18.1866 7.41649 16.7742 6.0045C15.3617 4.59249 13.4467 3.79856 11.4494 3.79691H11.3258C9.32948 3.79997 7.41585 4.59454 6.0045 6.00638C4.59315 7.4182 3.79926 9.33212 3.79691 11.3284V11.4494C3.79926 13.4462 4.59352 15.3605 6.00544 16.7725C7.41734 18.1844 9.33169 18.9786 11.3284 18.9809H30.4348C33.4393 18.9838 36.3197 20.1789 38.4437 22.3037C40.5677 24.4286 41.7617 27.3095 41.7633 30.3138Z" fill="url(#paint0_linear)"/>
<defs>
<linearGradient id="paint0_linear" x1="42" y1="-6.76271" x2="-6.05085" y2="42" gradientUnits="userSpaceOnUse">
<stop stop-color="#AE25B4"/>
<stop offset="1" stop-color="#632CA6"/>
</linearGradient>
</defs>
</svg>
