<svg width="17" height="17" viewBox="0 0 17 17" fill="none" xmlns="http://www.w3.org/2000/svg">
<path d="M2.96347 8.21674C3.9168 8.12539 4.70513 7.79652 4.70513 6.26177V3.19228C4.70513 2.35183 4.9068 1.91333 5.65847 1.91333C6.15346 1.91333 6.41013 2.00469 6.81347 2.22394L7.18013 0.689192C6.59346 0.360318 5.9518 0.232422 5.1268 0.232422C3.22013 0.232422 2.6518 1.34694 2.6518 2.84514V6.02425C2.6518 7.19358 2.08347 7.4311 1.3868 7.4311H0.635132V9.09374H1.3868C2.08347 9.09374 2.6518 9.31299 2.6518 10.5006V13.6614C2.6518 15.1596 3.22013 16.2924 5.1268 16.2924C5.9518 16.2924 6.59346 16.1463 7.18013 15.8357L6.81347 14.3009C6.41013 14.5202 6.15346 14.6115 5.65847 14.6115C4.9068 14.6115 4.70513 14.173 4.70513 13.3143V10.2448C4.70513 8.78314 3.9168 8.39945 2.96347 8.28983V8.21674Z" fill="url(#paint0_linear)"/>
<path d="M14.0185 8.28983C13.0835 8.39945 12.2768 8.78314 12.2768 10.2448V13.3143C12.2768 14.173 12.0751 14.6115 11.3418 14.6115C10.8468 14.6115 10.5718 14.5202 10.1868 14.3009L9.82013 15.8357C10.3885 16.1463 11.0485 16.2924 11.8735 16.2924C13.7801 16.2924 14.3485 15.1596 14.3485 13.6614V10.5006C14.3485 9.31299 14.9168 9.09374 15.6135 9.09374H16.3651V7.4311H15.6135C14.9168 7.4311 14.3485 7.19358 14.3485 6.02425V2.84514C14.3485 1.34694 13.7801 0.232422 11.8735 0.232422C11.0485 0.232422 10.3885 0.360318 9.82013 0.689192L10.1868 2.22394C10.5718 2.00469 10.8468 1.91333 11.3418 1.91333C12.0751 1.91333 12.2768 2.35183 12.2768 3.19228V6.26177C12.2768 7.79652 13.0835 8.12539 14.0185 8.21674V8.28983Z" fill="url(#paint1_linear)"/>
<defs>
<linearGradient id="paint0_linear" x1="0.635132" y1="16.2924" x2="16.7276" y2="0.604268" gradientUnits="userSpaceOnUse">
<stop stop-color="#AE25B4"/>
<stop offset="1" stop-color="#632CA6"/>
</linearGradient>
<linearGradient id="paint1_linear" x1="0.635132" y1="16.2924" x2="16.7276" y2="0.604268" gradientUnits="userSpaceOnUse">
<stop stop-color="#AE25B4"/>
<stop offset="1" stop-color="#632CA6"/>
</linearGradient>
</defs>
</svg>
