<svg width="25" height="19" viewBox="0 0 25 19" fill="none" xmlns="http://www.w3.org/2000/svg">
<path d="M10.4063 18.6812C10.3061 18.6872 10.24 18.7093 10.1859 18.6912C9.73686 18.5489 9.15356 18.5249 8.87895 18.2222C8.53419 17.8413 8.99722 17.3402 9.11949 16.8952C9.70078 14.7886 10.2821 12.6839 10.8934 10.5852C11.611 8.11975 12.3607 5.6663 13.0923 3.20484C13.3729 2.26475 13.6616 1.32667 13.9101 0.378564C14.0123 -0.0102998 14.2328 -0.0363584 14.5475 0.0257795C15.678 0.248274 15.68 0.24627 15.3633 1.35674C14.8502 3.15272 14.325 4.9447 13.8239 6.7447C12.8818 10.1302 11.9578 13.5197 11.0117 16.9053C10.8433 17.5106 10.6068 18.0999 10.4063 18.6812Z" fill="url(#paint0_linear)"/>
<path d="M6.73095 16.1175C6.59064 16.0193 6.44632 15.9491 6.34009 15.8409C4.9911 14.4458 3.65013 13.0427 2.29913 11.6496C1.65571 10.9861 0.992238 10.3427 0.346808 9.68125C-0.118222 9.2062 -0.120227 9.19017 0.368856 8.70109C2.30314 6.76079 4.24544 4.82651 6.18173 2.88622C6.4383 2.62965 6.72895 2.31897 7.07972 2.54948C7.43251 2.78399 7.69709 3.16083 7.9717 3.49757C8.0158 3.55169 7.93963 3.74612 7.86947 3.83632C7.73518 4.01271 7.5668 4.16305 7.41046 4.3214C5.94722 5.78664 4.47796 7.24787 3.01873 8.71913C2.47552 9.26634 2.47753 9.32647 3.02274 9.87568C4.45792 11.3249 5.90512 12.7621 7.34632 14.2053C7.45856 14.3175 7.57683 14.4257 7.68507 14.542C8.11201 15.009 8.09999 15.1133 7.59887 15.5122C7.42449 15.6505 7.26413 15.8048 7.08574 15.9371C6.98552 16.0093 6.86525 16.0493 6.73095 16.1175Z" fill="url(#paint1_linear)"/>
<path d="M24.7124 9.19716C22.4414 11.4782 20.3327 13.6049 18.216 15.7196C17.7229 16.2127 17.6166 16.2107 17.1315 15.7236C16.2736 14.8597 16.2536 15.016 17.0874 14.2063C18.4785 12.8553 19.8837 11.5183 21.2828 10.1733C21.4211 10.041 21.5594 9.90873 21.6877 9.76642C22.0465 9.37555 22.0585 9.36152 21.6997 8.99471C20.8538 8.12879 19.9919 7.27891 19.136 6.42301C18.3262 5.61122 17.5184 4.79541 16.6986 3.99363C16.44 3.74107 16.426 3.53662 16.6886 3.27404C17.7409 2.22171 17.6126 2.24576 18.5928 3.22994C20.3687 5.01389 22.1487 6.79183 23.9347 8.56576C24.1612 8.79026 24.4298 8.96865 24.7124 9.19716Z" fill="url(#paint2_linear)"/>
<defs>
<linearGradient id="paint0_linear" x1="10.8646" y1="-2.34461" x2="23.6667" y2="5.53576" gradientUnits="userSpaceOnUse">
<stop stop-color="#B025B5"/>
<stop offset="1" stop-color="#3923AE"/>
</linearGradient>
<linearGradient id="paint1_linear" x1="2.48417" y1="0.757304" x2="12.9506" y2="11.144" gradientUnits="userSpaceOnUse">
<stop stop-color="#B025B5"/>
<stop offset="1" stop-color="#3923AE"/>
</linearGradient>
<linearGradient id="paint2_linear" x1="19.0357" y1="0.782835" x2="29.4621" y2="11.4866" gradientUnits="userSpaceOnUse">
<stop stop-color="#B025B5"/>
<stop offset="1" stop-color="#3923AE"/>
</linearGradient>
</defs>
</svg>
