<svg width="18" height="18" viewBox="0 0 18 18" fill="none" xmlns="http://www.w3.org/2000/svg">
<path d="M16.9699 7.28387L15.4062 7.15056C15.2733 6.68601 15.0878 6.23816 14.8532 5.81573L15.864 4.61438C16.2645 4.21388 16.3221 3.60356 15.9782 3.26036L14.7199 2.021C14.3768 1.67787 13.7856 1.73525 13.3851 2.13519L12.2028 3.12688C11.7854 2.89566 11.3443 2.7103 10.8871 2.57402L10.7538 1.02938C10.7543 0.458039 10.373 0 9.87685 0H8.12243C7.62687 0 7.2455 0.458039 7.2455 1.02995L7.09306 2.57402C6.61663 2.70733 6.17788 2.91715 5.75826 3.14609L4.5763 2.15495C4.1758 1.77358 3.58462 1.7162 3.2415 2.05989L1.98279 3.29869C1.63967 3.64181 1.69705 4.25213 2.09698 4.65272L3.10778 5.85406C2.89797 6.27369 2.70729 6.69332 2.5931 7.15064L1.02937 7.28395C0.458032 7.28387 0 7.68437 0 8.16081V9.93439C0 10.4108 0.458032 10.8113 1.02993 10.8113L2.61295 10.9446C2.74126 11.3744 2.91374 11.7897 3.12763 12.1838L2.13595 13.3852C1.73546 13.7857 1.67792 14.396 2.02177 14.7392L3.26094 15.9784C3.60407 16.3215 4.21437 16.2642 4.61495 15.8642L5.81628 14.8725C6.22477 15.0894 6.65239 15.2681 7.0937 15.4064L7.22702 16.9701C7.22702 17.5422 7.62751 18.0001 8.12299 18.0001H9.87741C10.373 18.0001 10.7543 17.542 10.7543 16.9701L10.8877 15.4064C11.3174 15.278 11.7327 15.1056 12.1268 14.8917L13.3469 15.9025C13.7474 16.303 14.3386 16.3605 14.6817 16.0167L15.94 14.7583C16.2831 14.4152 16.2257 13.824 15.8258 13.4235L14.8341 12.2411C15.0651 11.8304 15.2505 11.3957 15.3871 10.9447L16.9701 10.8114C17.5421 10.8114 18 10.4109 18 9.93447V8.16081C17.9998 7.68437 17.5418 7.28387 16.9699 7.28387ZM8.99992 11.8604C8.43421 11.8604 7.8812 11.6926 7.41083 11.3784C6.94046 11.0641 6.57385 10.6173 6.35736 10.0947C6.14087 9.57202 6.08423 8.9969 6.19459 8.44205C6.30496 7.8872 6.57737 7.37753 6.97739 6.97751C7.37741 6.57748 7.88706 6.30506 8.44191 6.1947C8.99675 6.08433 9.57185 6.14097 10.0945 6.35747C10.6172 6.57396 11.0639 6.94057 11.3782 7.41095C11.6925 7.88133 11.8602 8.43435 11.8602 9.00007C11.8607 9.37585 11.7871 9.74803 11.6436 10.0953C11.5 10.4426 11.2893 10.7581 11.0236 11.0238C10.7579 11.2895 10.4424 11.5002 10.0951 11.6438C9.74787 11.7873 9.37569 11.8609 8.99992 11.8604Z" fill="url(#paint0_linear)"/>
<defs>
<linearGradient id="paint0_linear" x1="4.90513e-07" y1="18.0001" x2="18.0421" y2="0.0423301" gradientUnits="userSpaceOnUse">
<stop stop-color="#AE25B4"/>
<stop offset="1" stop-color="#632CA6"/>
</linearGradient>
</defs>
</svg>
