<svg width="35" height="38" viewBox="0 0 35 38" fill="none" xmlns="http://www.w3.org/2000/svg">
<path d="M17.2019 16.3907C20.7299 16.3907 24.0307 16.0967 27.1043 15.5087C30.178 14.9207 32.5968 14.051 34.3608 12.8995V16.3907C34.3608 17.3213 33.599 18.1911 32.0756 19C30.5521 19.8089 28.454 20.446 25.7813 20.9113C23.1081 21.3773 20.2483 21.61 17.2019 21.6096C14.3113 21.6226 11.4256 21.3889 8.58231 20.9113C5.88333 20.4452 3.79854 19.8081 2.32795 19C0.857351 18.1919 0.0823193 17.3222 0.00285339 16.3907V12.8995C1.76685 14.0506 4.18567 14.9203 7.25931 15.5087C10.3329 16.0972 13.6471 16.3912 17.2019 16.3907V16.3907ZM17.2019 32.1197C20.7299 32.1197 24.0307 31.8257 27.1043 31.2377C30.178 30.6497 32.5968 29.78 34.3608 28.6285V32.1197C34.3608 33.0752 33.599 33.9572 32.0756 34.7657C30.5521 35.5742 28.454 36.2113 25.7813 36.6771C23.1081 37.143 20.2483 37.3757 17.2019 37.3753C14.3113 37.3884 11.4256 37.1546 8.58231 36.6771C5.88333 36.2111 3.7986 35.574 2.32813 34.7657C0.857649 33.9575 0.082558 33.0755 0.00285339 32.1197V28.6285C1.76685 29.7795 4.18567 30.6493 7.25931 31.2377C10.3329 31.8262 13.6471 32.1202 17.2019 32.1197V32.1197ZM17.2019 24.2552C20.7299 24.2552 24.0307 23.9612 27.1043 23.3732C30.178 22.7852 32.5968 21.9154 34.3608 20.7637V24.2549C34.3608 25.1855 33.599 26.0552 32.0756 26.8642C30.5521 27.6731 28.454 28.3102 25.7813 28.7755C22.9511 29.2546 20.0799 29.5006 17.2019 29.5105C14.1549 29.5354 11.2818 29.2904 8.58231 28.7755C5.88285 28.2605 3.79807 27.6236 2.32795 26.8645C0.857589 26.1046 0.082558 25.2348 0.00285339 24.2552V20.7637C1.76685 21.9147 4.18567 22.7845 7.25931 23.3729C10.3329 23.9613 13.6471 24.2555 17.2019 24.2552V24.2552ZM17.2019 0.625001C20.3017 0.625001 23.1616 0.857751 25.7813 1.32325C28.4003 1.78919 30.4984 2.4263 32.0756 3.23458C33.652 4.04308 34.4137 4.92508 34.3608 5.88058V8.48983C34.3608 9.44532 33.599 10.3273 32.0756 11.1358C30.5521 11.9443 28.454 12.5814 25.7813 13.0472C23.1081 13.5131 20.2483 13.7458 17.2019 13.7454C14.3113 13.7585 11.4256 13.5247 8.58231 13.0472C5.88333 12.5806 3.79854 11.9433 2.32795 11.1355C0.857351 10.3277 0.0823193 9.44565 0.00285339 8.4895V5.88025C0.00285339 4.92475 0.777885 4.04275 2.32795 3.23425C3.87801 2.42575 5.96274 1.78864 8.58213 1.32292C11.201 0.857204 14.0743 0.624563 17.2019 0.625001Z" fill="url(#paint0_linear)"/>
<defs>
<linearGradient id="paint0_linear" x1="34" y1="1" x2="1.26455e-06" y2="37" gradientUnits="userSpaceOnUse">
<stop stop-color="#AE25B4"/>
<stop offset="1" stop-color="#632CA6"/>
</linearGradient>
</defs>
</svg>
