<svg width="42" height="38" viewBox="0 0 42 38" fill="none" xmlns="http://www.w3.org/2000/svg">
<path d="M21.0229 16.3907C25.3349 16.3907 29.3693 16.0967 33.1259 15.5087C36.8826 14.9207 39.8389 14.051 41.9949 12.8995V16.3907C41.9949 17.3213 41.0639 18.1911 39.2019 19C37.3399 19.8089 34.7756 20.446 31.5089 20.9113C28.2417 21.3773 24.7464 21.61 21.0229 21.6096C17.49 21.6226 13.9631 21.3889 10.488 20.9113C7.1892 20.4452 4.64113 19.8081 2.84373 19C1.04634 18.1919 0.0990781 17.3222 0.00195312 16.3907V12.8995C2.15795 14.0506 5.11429 14.9203 8.87095 15.5087C12.6276 16.0972 16.6783 16.3912 21.0229 16.3907V16.3907ZM21.0229 32.1197C25.3349 32.1197 29.3693 31.8257 33.1259 31.2377C36.8826 30.6497 39.8389 29.78 41.9949 28.6285V32.1197C41.9949 33.0752 41.0639 33.9572 39.2019 34.7657C37.3399 35.5742 34.7756 36.2114 31.5089 36.6771C28.2417 37.143 24.7464 37.3758 21.0229 37.3753C17.49 37.3884 13.9631 37.1546 10.488 36.6771C7.1892 36.2111 4.6412 35.574 2.84395 34.7657C1.0467 33.9575 0.0993698 33.0755 0.00195312 32.1197V28.6285C2.15795 29.7796 5.11429 30.6493 8.87095 31.2377C12.6276 31.8262 16.6783 32.1202 21.0229 32.1197V32.1197ZM21.0229 24.2552C25.3349 24.2552 29.3693 23.9612 33.1259 23.3732C36.8826 22.7852 39.8389 21.9154 41.9949 20.7637V24.2549C41.9949 25.1855 41.0639 26.0552 39.2019 26.8642C37.3399 27.6731 34.7756 28.3102 31.5089 28.7755C28.0499 29.2547 24.5405 29.5006 21.0229 29.5105C17.2989 29.5354 13.7873 29.2904 10.488 28.7755C7.18862 28.2606 4.64055 27.6236 2.84373 26.8645C1.04663 26.1046 0.0993698 25.2348 0.00195312 24.2552V20.7637C2.15795 21.9147 5.11429 22.7845 8.87095 23.3729C12.6276 23.9614 16.6783 24.2555 21.0229 24.2552V24.2552ZM21.0229 0.625001C24.8117 0.625001 28.307 0.857751 31.5089 1.32325C34.71 1.78919 37.2743 2.4263 39.2019 3.23458C41.1287 4.04308 42.0597 4.92508 41.9949 5.88058V8.48983C41.9949 9.44533 41.0639 10.3273 39.2019 11.1358C37.3399 11.9443 34.7756 12.5814 31.5089 13.0472C28.2417 13.5131 24.7464 13.7458 21.0229 13.7454C17.49 13.7585 13.9631 13.5247 10.488 13.0472C7.1892 12.5806 4.64113 11.9433 2.84373 11.1355C1.04634 10.3277 0.0990781 9.44566 0.00195312 8.4895V5.88025C0.00195312 4.92475 0.949213 4.04275 2.84373 3.23425C4.73825 2.42575 7.28625 1.78864 10.4877 1.32292C13.6886 0.857204 17.2004 0.624563 21.0229 0.625001Z" fill="url(#paint0_linear)"/>
<defs>
<linearGradient id="paint0_linear" x1="42" y1="1" x2="-1.7684e-06" y2="37" gradientUnits="userSpaceOnUse">
<stop stop-color="#AE25B4"/>
<stop offset="1" stop-color="#632CA6"/>
</linearGradient>
</defs>
</svg>
