<svg width="42" height="42" viewBox="0 0 42 42" fill="none" xmlns="http://www.w3.org/2000/svg">
<path d="M8.98917 31.5268V33.397C8.99431 33.5251 8.97827 33.653 8.94209 33.7727C8.90591 33.8924 8.8504 34.001 8.77915 34.0917C8.7079 34.1823 8.62249 34.2529 8.52844 34.2989C8.43439 34.3449 8.3338 34.3653 8.23317 34.3588H6.76325C6.56187 34.3565 6.36794 34.2616 6.21725 34.0916C6.1367 34.0102 6.07474 33.9029 6.03781 33.7808C6.00088 33.6586 5.99033 33.5261 6.00725 33.397V31.5268C6.00212 31.3987 6.01816 31.2708 6.05433 31.1511C6.09051 31.0315 6.14602 30.9228 6.21727 30.8321C6.28853 30.7415 6.37394 30.6709 6.46799 30.6249C6.56203 30.5789 6.66262 30.5585 6.76325 30.565H8.23317C8.3338 30.5585 8.43439 30.5789 8.52844 30.6249C8.62249 30.6709 8.7079 30.7415 8.77915 30.8321C8.8504 30.9228 8.90591 31.0315 8.94209 31.1511C8.97827 31.2708 8.99431 31.3987 8.98917 31.5268V31.5268ZM8.98917 23.8857V25.8093C8.99047 25.9287 8.9725 26.0473 8.93638 26.1576C8.90026 26.2679 8.84676 26.3676 8.77917 26.4505C8.70732 26.5401 8.62181 26.61 8.5279 26.656C8.434 26.7019 8.33369 26.7229 8.23317 26.7177H6.76325C6.56189 26.7153 6.36798 26.6204 6.21725 26.4505C6.13981 26.3779 6.07935 26.2799 6.04236 26.1669C6.00537 26.054 5.99323 25.9303 6.00725 25.8093V23.8857C6.00911 23.6295 6.08369 23.3828 6.21725 23.191C6.28123 23.0885 6.36561 23.0097 6.46162 22.9627C6.55764 22.9157 6.66178 22.9023 6.76325 22.9238H8.23317C8.33381 22.9173 8.43441 22.9377 8.52846 22.9837C8.62251 23.0297 8.70793 23.1003 8.77918 23.191C8.85044 23.2816 8.90594 23.3903 8.94212 23.51C8.97829 23.6296 8.99432 23.7576 8.98917 23.8857V23.8857ZM8.98917 16.2445V18.1682C8.99047 18.2876 8.97251 18.4062 8.93639 18.5164C8.90027 18.6267 8.84676 18.7264 8.77917 18.8093C8.63144 18.9927 8.43868 19.1059 8.23317 19.1299H6.76325C6.65991 19.1264 6.55822 19.0961 6.46436 19.041C6.37049 18.9859 6.28642 18.9071 6.21725 18.8093C6.04925 18.5957 5.97925 18.382 6.00725 18.1682V16.2445C6.00911 15.9883 6.0837 15.7416 6.21725 15.5499C6.28123 15.4474 6.36561 15.3686 6.46162 15.3216C6.55764 15.2746 6.66178 15.2612 6.76325 15.2827H8.23317C8.3338 15.2762 8.43439 15.2966 8.52844 15.3426C8.62249 15.3886 8.7079 15.4592 8.77915 15.5499C8.8504 15.6405 8.90591 15.7492 8.94209 15.8688C8.97827 15.9885 8.99431 16.1164 8.98917 16.2445ZM35.9942 31.5268V33.397C35.9994 33.5251 35.9833 33.653 35.9472 33.7727C35.911 33.8924 35.8555 34.001 35.7842 34.0917C35.713 34.1823 35.6276 34.2529 35.5335 34.2989C35.4395 34.3449 35.3389 34.3653 35.2382 34.3588H12.769C12.6684 34.3653 12.5678 34.3449 12.4738 34.2989C12.3797 34.2529 12.2943 34.1823 12.2231 34.0916C12.1518 34.001 12.0963 33.8923 12.0602 33.7727C12.024 33.653 12.008 33.5251 12.0131 33.397V31.5268C12.008 31.3987 12.024 31.2708 12.0602 31.1511C12.0963 31.0315 12.1518 30.9228 12.2231 30.8322C12.2943 30.7415 12.3797 30.6709 12.4738 30.6249C12.5678 30.5789 12.6684 30.5585 12.769 30.565H35.2382C35.3389 30.5585 35.4395 30.5789 35.5335 30.6249C35.6276 30.6709 35.713 30.7415 35.7842 30.8321C35.8555 30.9228 35.911 31.0315 35.9472 31.1511C35.9833 31.2708 35.9994 31.3987 35.9942 31.5268ZM35.9942 23.8857V25.8093C35.9955 25.9287 35.9776 26.0473 35.9415 26.1576C35.9053 26.2679 35.8518 26.3676 35.7842 26.4505C35.7124 26.5401 35.6269 26.61 35.533 26.656C35.4391 26.7019 35.3388 26.7229 35.2382 26.7177H12.769C12.6685 26.7229 12.5682 26.7019 12.4743 26.656C12.3804 26.61 12.2949 26.5401 12.2231 26.4505C12.1555 26.3676 12.102 26.2679 12.0659 26.1576C12.0298 26.0473 12.0118 25.9287 12.0131 25.8093V23.8857C12.0149 23.6295 12.0895 23.3828 12.2231 23.191C12.287 23.0885 12.3714 23.0097 12.4674 22.9627C12.5634 22.9157 12.6675 22.9023 12.769 22.9238H35.2382C35.3389 22.9173 35.4395 22.9377 35.5335 22.9837C35.6276 23.0297 35.713 23.1003 35.7843 23.191C35.8555 23.2816 35.911 23.3903 35.9472 23.51C35.9834 23.6296 35.9994 23.7576 35.9942 23.8857V23.8857ZM35.9942 16.2445V18.1682C35.9955 18.2876 35.9776 18.4062 35.9415 18.5164C35.9053 18.6267 35.8518 18.7264 35.7842 18.8093C35.6365 18.9927 35.4438 19.1059 35.2382 19.1299H12.769C12.6647 19.1336 12.5612 19.1066 12.4665 19.051C12.3718 18.9953 12.2885 18.9126 12.2231 18.8093C12.0952 18.6344 12.0207 18.4069 12.0131 18.1682V16.2445C12.0149 15.9883 12.0895 15.7416 12.2231 15.5499C12.287 15.4474 12.3714 15.3686 12.4674 15.3216C12.5634 15.2746 12.6675 15.2612 12.769 15.2827H35.2382C35.3389 15.2762 35.4395 15.2966 35.5335 15.3426C35.6276 15.3886 35.713 15.4592 35.7842 15.5499C35.8555 15.6405 35.911 15.7492 35.9472 15.8688C35.9833 15.9885 35.9994 16.1164 35.9942 16.2445ZM39.0181 37.2443V12.4507C39.021 12.318 38.9997 12.1863 38.956 12.0658C38.9123 11.9453 38.8473 11.8393 38.7661 11.756C38.6285 11.5934 38.4498 11.4986 38.2622 11.4888H3.73934C3.64543 11.4871 3.55225 11.51 3.46556 11.5559C3.37887 11.6019 3.30051 11.67 3.23534 11.756C3.09127 11.944 3.00231 12.1893 2.98334 12.4507V37.2443C2.98389 37.3686 3.00691 37.491 3.0506 37.6022C3.0943 37.7134 3.15751 37.8103 3.23534 37.8855C3.37763 38.0481 3.55174 38.1588 3.73934 38.2061H38.2622C38.3598 38.2053 38.4561 38.176 38.5434 38.1204C38.6308 38.0648 38.707 37.9845 38.7661 37.8855C38.893 37.7037 38.9799 37.4825 39.0181 37.2443V37.2443ZM42 4.80951V37.2443C42.0012 37.8692 41.9054 38.4883 41.718 39.0661C41.5306 39.6438 41.2553 40.1687 40.908 40.6106C40.5607 41.0525 40.1481 41.4028 39.6941 41.6412C39.24 41.8796 38.7534 42.0016 38.2622 42H3.73934C2.73139 42 1.84942 41.5369 1.09342 40.6106C0.337423 39.6844 -0.0265489 38.5623 0.00150576 37.2443V4.80951C-0.00688276 4.18325 0.085678 3.56144 0.273477 2.98245C0.461276 2.40347 0.740331 1.87958 1.09342 1.44312C1.43815 0.992977 1.84933 0.63383 2.30337 0.386265C2.75741 0.1387 3.24539 0.00758604 3.73934 0.000439757H38.2622C38.758 -0.00837788 39.2498 0.115496 39.7056 0.364029C40.1614 0.612562 40.571 0.980205 40.908 1.44312C41.6364 2.40497 42.0004 3.5271 42 4.80951V4.80951Z" fill="url(#paint0_linear)"/>
<defs>
<linearGradient id="paint0_linear" x1="42" y1="0" x2="0" y2="42" gradientUnits="userSpaceOnUse">
<stop stop-color="#AE25B4"/>
<stop offset="1" stop-color="#632CA6" stop-opacity="0.99"/>
</linearGradient>
</defs>
</svg>
