<svg width="18" height="18" viewBox="0 0 512 512" fill="none" xmlns="http://www.w3.org/2000/svg">
    <path d="M369.536 441.438c0 2.144-1.6 5.36-3.744 6.432l-106.048 61.056a9.157 9.157 0 0 1-7.5 0L146.192 447.87c-2.144-1.072-3.744-4.288-3.744-6.432V318.254c0-2.144 1.6-5.36 3.744-6.432l106.576-61.584a9.149 9.149 0 0 1 7.5 0l105.5 60.512c2.144 1.072 3.744 4.288 3.744 6.96zm-141.92-247.424c0 2.672-1.6 5.888-3.744 6.96L117.824 262.03a10.432 10.432 0 0 1-8.032 0L3.744 200.974C1.6 199.9 0 196.686 0 194.014V71.358a7.439 7.439 0 0 1 3.744-6.432L110.32 3.342a10.432 10.432 0 0 1 8.032 0l104.976 60.512c2.144 1.072 4.288 4.288 4.288 6.432zM398.992 2.27a7.655 7.655 0 0 0-3.744 1.072L288.672 64.926c-2.144 1.072-4.288 4.288-4.288 6.432v123.184c0 2.144 2.144 5.36 4.288 6.432L394.72 262.03a7.829 7.829 0 0 0 3.744 1.072 9.761 9.761 0 0 0 3.744-1.072l106.048-61.056c2.144-1.074 3.744-4.288 3.744-6.432V70.83c0-2.672-1.6-5.888-3.744-6.96L402.752 3.358a7.675 7.675 0 0 0-3.76-1.088zm0 25.168L488.96 79.39v106.048l-90.512 52.48-91.04-52.48V79.934l91.584-52.5" fill="url(#paint0_linear1)"/>
<defs>
<linearGradient id="paint0_linear1" x1="4.90513e-07" y1="18" x2="18.0421" y2="0.0422687" gradientUnits="userSpaceOnUse">
<stop stop-color="#AE25B4"/>
<stop offset="1" stop-color="#632CA6"/>
</linearGradient>
</defs>
</svg>
