<svg width="16" height="16" viewBox="0 0 16 16" fill="none" xmlns="http://www.w3.org/2000/svg">
<g clip-path="url(#clip0_66_43)">
<path d="M8 5.33334C8.55228 5.33334 9 4.88562 9 4.33334C9 3.78105 8.55228 3.33334 8 3.33334C7.44772 3.33334 7 3.78105 7 4.33334C7 4.88562 7.44772 5.33334 8 5.33334Z" fill="#C7C7C7"/>
<path d="M7.99999 0.666664C3.95832 0.666664 0.666656 3.95833 0.666656 8C0.666656 12.0417 3.95832 15.3333 7.99999 15.3333C12.0417 15.3333 15.3333 12.0417 15.3333 8C15.3333 3.95833 12.0417 0.666664 7.99999 0.666664ZM7.99999 14C4.69166 14 1.99999 11.3083 1.99999 8C1.99999 4.69166 4.69166 2 7.99999 2C11.3083 2 14 4.69166 14 8C14 11.3083 11.3083 14 7.99999 14Z" fill="#C7C7C7"/>
<path d="M8.83333 6.16666H6.66667V7.5H7.5V10.1667H6V11.5H10V10.1667H8.83333V6.16666Z" fill="#C7C7C7"/>
</g>
<defs>
<clipPath id="clip0_66_43">
<rect width="16" height="16" fill="white"/>
</clipPath>
</defs>
</svg>
