<svg xmlns="http://www.w3.org/2000/svg" viewBox="0 0 448 512" width="448" height="512">
    <path d="M224 32C100.258 32 0 132.258 0 256s100.258 224 224 224 224-100.258 224-224S347.742 32 224 32zm-37.448 56.326a8.958 8.958 0 0 1 9.4-9.4h55.891a8.956 8.956 0 0 1 9.4 9.4v46.489a8.956 8.956 0 0 1-9.4 9.4h-55.888a8.958 8.958 0 0 1-9.4-9.4zM298.335 395.99a9.184 9.184 0 0 1-2.611 6.79 8.548 8.548 0 0 1-6.269 2.612H158.868a8.956 8.956 0 0 1-9.4-9.4V349.5a8.956 8.956 0 0 1 9.4-9.4h27.684v-93.5h-27.684a8.956 8.956 0 0 1-9.4-9.4v-46.494a8.956 8.956 0 0 1 9.4-9.4h92.978a8.956 8.956 0 0 1 9.4 9.4V340.1h28.207a8.552 8.552 0 0 1 6.269 2.612 9.187 9.187 0 0 1 2.611 6.791z"/>
</svg>
