<svg width="18" height="18" viewBox="0 0 18 18" fill="none" xmlns="http://www.w3.org/2000/svg">
<path d="M9.0287 1.58783C11.3551 1.58783 11.6505 1.58784 12.5736 1.62476C13.1275 1.62476 13.6814 1.73554 14.1984 1.92017C14.9738 2.21558 15.5647 2.8064 15.8601 3.58185C16.0447 4.09882 16.1555 4.65272 16.1555 5.20661C16.1924 6.12977 16.1924 6.42518 16.1924 8.75154C16.1924 11.0779 16.1924 11.3733 16.1555 12.2965C16.1555 12.8504 16.0447 13.4043 15.8601 13.9212C15.5647 14.6967 14.9738 15.2875 14.1984 15.5829C13.6814 15.7675 13.1275 15.8783 12.5736 15.8783C11.6505 15.9152 11.3551 15.9152 9.0287 15.9152C6.70234 15.9152 6.40693 15.9152 5.48377 15.8783C4.92988 15.8783 4.37598 15.7675 3.85901 15.5829C3.08356 15.2875 2.49274 14.6597 2.19733 13.9212C2.0127 13.4043 1.90192 12.8504 1.90192 12.2965C1.86499 11.3733 1.86499 11.0779 1.86499 8.75154C1.86499 6.42518 1.86499 6.12977 1.90192 5.20661C1.90192 4.65272 2.0127 4.09882 2.19733 3.58185C2.49274 2.84333 3.08356 2.21558 3.85901 1.92017C4.37598 1.73554 4.92988 1.62476 5.48377 1.62476C6.40693 1.62476 6.66542 1.58783 9.0287 1.58783ZM9.0287 0C6.62849 0 6.33308 2.25325e-06 5.40992 0.0369286C4.67139 0.0369286 3.96979 0.184633 3.26819 0.443117C2.08655 0.886233 1.12647 1.84631 0.68335 3.02796C0.424866 3.72956 0.27716 4.43116 0.27716 5.16968C0.240234 6.09284 0.240234 6.42518 0.240234 8.78846C0.240234 11.1517 0.240234 11.4841 0.27716 12.4072C0.314086 13.1458 0.461792 13.8474 0.720276 14.512C1.16339 15.6937 2.12348 16.6538 3.30512 17.0969C4.00672 17.3554 4.70832 17.5031 5.44685 17.5031C6.37001 17.54 6.66542 17.54 9.06563 17.54C11.4658 17.54 11.7613 17.54 12.6844 17.5031C13.4229 17.5031 14.1245 17.3554 14.8261 17.0969C16.0078 16.6538 16.9679 15.6937 17.411 14.512C17.6695 13.8104 17.8172 13.1088 17.8172 12.3703C17.8541 11.4472 17.8541 11.1148 17.8541 8.75154C17.8541 6.38825 17.8541 6.05592 17.8172 5.13276C17.8172 4.39424 17.6695 3.69263 17.411 2.99103C16.9679 1.80939 16.0078 0.849308 14.8261 0.406192C14.1245 0.147708 13.4229 0 12.6844 0C11.7613 0 11.4658 0 9.0287 0Z" fill="white"/>
<path d="M9.02942 4.28418C6.55536 4.28418 4.52441 6.31513 4.52441 8.78919C4.52441 11.2633 6.55536 13.2942 9.02942 13.2942C11.5035 13.2942 13.5344 11.2633 13.5344 8.78919C13.5344 6.31513 11.5035 4.28418 9.02942 4.28418ZM9.02942 11.7064C7.40467 11.7064 6.11224 10.377 6.11224 8.78919C6.11224 7.16443 7.44159 5.87201 9.02942 5.87201C10.6173 5.87201 11.9466 7.20136 11.9466 8.78919C11.9466 10.4139 10.6542 11.7064 9.02942 11.7064Z" fill="white"/>
<path d="M13.7173 5.17005C14.3088 5.17005 14.7882 4.69061 14.7882 4.09919C14.7882 3.50777 14.3088 3.02832 13.7173 3.02832C13.1259 3.02832 12.6465 3.50777 12.6465 4.09919C12.6465 4.69061 13.1259 5.17005 13.7173 5.17005Z" fill="white"/>
</svg>
