<svg width="18" height="18" viewBox="0 0 18 18" fill="none" xmlns="http://www.w3.org/2000/svg">
<path fill-rule="evenodd" clip-rule="evenodd" d="M16.432 11.792C16.432 12.272 16.2987 12.672 16.032 12.992C15.7653 13.312 15.3973 13.472 14.928 13.472C14.6827 13.472 14.4533 13.4187 14.24 13.312C14.0267 13.2053 13.8507 13.0933 13.712 12.976C13.5733 12.8587 13.4027 12.7467 13.2 12.64C12.9973 12.5333 12.7893 12.48 12.576 12.48C11.9147 12.48 11.584 12.848 11.584 13.584C11.584 13.8187 11.632 14.1653 11.728 14.624C11.824 15.0827 11.8667 15.424 11.856 15.648V15.696H11.568C11.3653 15.7173 11.0773 15.7547 10.704 15.808C10.3307 15.8613 9.984 15.8987 9.664 15.92C9.344 15.9413 9.056 15.9573 8.8 15.968C8.42666 15.968 8.11733 15.888 7.872 15.728C7.62666 15.568 7.504 15.3173 7.504 14.976C7.504 14.7627 7.552 14.5547 7.648 14.352C7.744 14.1493 7.86133 13.9787 8 13.84C8.13866 13.7013 8.25066 13.5253 8.336 13.312C8.42133 13.0987 8.47466 12.8693 8.496 12.624C8.496 12.1547 8.33067 11.7867 8 11.52C7.66933 11.2533 7.26933 11.12 6.8 11.12C6.29866 11.12 5.872 11.2587 5.52 11.536C5.16799 11.8133 4.992 12.192 4.992 12.672C4.992 12.928 5.03999 13.1733 5.136 13.408C5.232 13.6427 5.32799 13.8347 5.424 13.984L5.728 14.464C5.83466 14.6347 5.87733 14.784 5.856 14.912C5.856 15.1787 5.72266 15.4453 5.456 15.712C5.23199 15.9147 4.88533 16.016 4.41599 16.016C3.83999 16.016 3.10933 15.9467 2.22399 15.808C2.17066 15.7973 2.08533 15.7867 1.96799 15.776C1.85066 15.7653 1.77066 15.7493 1.72799 15.728L1.58399 15.712C1.57333 15.712 1.56799 15.7067 1.56799 15.696V6.55999L1.72799 6.59199C1.82399 6.61333 1.92533 6.62399 2.03199 6.62399C2.13866 6.62399 2.20266 6.63466 2.22399 6.65599C3.10933 6.80533 3.83999 6.87999 4.41599 6.87999C4.88533 6.87999 5.23199 6.77333 5.456 6.55999C5.72266 6.30399 5.856 6.04266 5.856 5.77599C5.856 5.63732 5.81333 5.48266 5.728 5.31199C5.64266 5.14132 5.54133 4.98666 5.424 4.84799C5.30666 4.70932 5.21066 4.51733 5.136 4.27199C5.06133 4.02666 5.01333 3.77599 4.992 3.51999C4.992 3.03999 5.16799 2.66133 5.52 2.38399C5.872 2.10666 6.30399 1.97332 6.816 1.98399C7.28533 1.98399 7.68 2.11732 8 2.38399C8.32 2.65066 8.48533 3.01866 8.496 3.48799C8.496 3.73333 8.44266 3.96266 8.336 4.17599C8.22933 4.38933 8.11733 4.56532 8 4.70399C7.88266 4.84266 7.76533 5.00799 7.648 5.19999C7.53066 5.39199 7.48266 5.60532 7.504 5.83999C7.504 6.18133 7.62666 6.43199 7.872 6.59199C8.11733 6.75199 8.42666 6.82933 8.8 6.82399C9.17333 6.81866 9.70666 6.77333 10.4 6.68799C11.0933 6.60266 11.5787 6.55466 11.856 6.54399V6.55999C11.8453 6.57066 11.8347 6.61866 11.824 6.70399L11.744 7.19999C11.6053 8.096 11.536 8.82666 11.536 9.39199C11.536 9.872 11.6373 10.2187 11.84 10.432C12.1067 10.7093 12.3733 10.848 12.64 10.848C12.768 10.848 12.9173 10.8053 13.088 10.72C13.2587 10.6347 13.4187 10.5333 13.568 10.416C13.7173 10.2987 13.9093 10.1973 14.144 10.112C14.3787 10.0267 14.624 9.98399 14.88 9.98399C15.3707 9.98399 15.7493 10.16 16.016 10.512C16.2827 10.864 16.4213 11.2907 16.432 11.792Z" fill="url(#paint0_linear)"/>
<defs>
<linearGradient id="paint0_linear" x1="1.56799" y1="16.016" x2="15.6139" y2="1.20743" gradientUnits="userSpaceOnUse">
<stop stop-color="#AE25B4"/>
<stop offset="1" stop-color="#632CA6"/>
</linearGradient>
</defs>
</svg>
