<svg width="18" height="18" viewBox="0 0 18 18" fill="none" xmlns="http://www.w3.org/2000/svg">
<path fill-rule="evenodd" clip-rule="evenodd" d="M16.4324 11.792C16.4324 12.272 16.299 12.672 16.0324 12.992C15.7657 13.312 15.3977 13.472 14.9284 13.472C14.683 13.472 14.4537 13.4187 14.2404 13.312C14.027 13.2053 13.851 13.0933 13.7124 12.976C13.5737 12.8587 13.403 12.7467 13.2004 12.64C12.9977 12.5333 12.7897 12.48 12.5764 12.48C11.915 12.48 11.5844 12.848 11.5844 13.584C11.5844 13.8187 11.6324 14.1653 11.7284 14.624C11.8244 15.0827 11.867 15.424 11.8564 15.648V15.696H11.5684C11.3657 15.7173 11.0777 15.7547 10.7044 15.808C10.331 15.8613 9.98437 15.8987 9.66436 15.92C9.34436 15.9413 9.05637 15.9573 8.80036 15.968C8.42703 15.968 8.1177 15.888 7.87236 15.728C7.62703 15.568 7.50436 15.3173 7.50436 14.976C7.50436 14.7627 7.55236 14.5547 7.64836 14.352C7.74436 14.1493 7.8617 13.9787 8.00036 13.84C8.13903 13.7013 8.25103 13.5253 8.33636 13.312C8.4217 13.0987 8.47503 12.8693 8.49636 12.624C8.49636 12.1547 8.33103 11.7867 8.00036 11.52C7.66969 11.2533 7.2697 11.12 6.80036 11.12C6.29903 11.12 5.87236 11.2587 5.52036 11.536C5.16836 11.8133 4.99236 12.192 4.99236 12.672C4.99236 12.928 5.04036 13.1733 5.13636 13.408C5.23236 13.6427 5.32836 13.8347 5.42436 13.984L5.72836 14.464C5.83503 14.6347 5.8777 14.784 5.85636 14.912C5.85636 15.1787 5.72303 15.4453 5.45636 15.712C5.23236 15.9147 4.8857 16.016 4.41636 16.016C3.84036 16.016 3.1097 15.9467 2.22436 15.808C2.17103 15.7973 2.08569 15.7867 1.96836 15.776C1.85103 15.7653 1.77103 15.7493 1.72836 15.728L1.58436 15.712C1.57369 15.712 1.56836 15.7067 1.56836 15.696V6.55999L1.72836 6.59199C1.82436 6.61333 1.92569 6.62399 2.03236 6.62399C2.13903 6.62399 2.20303 6.63466 2.22436 6.65599C3.1097 6.80533 3.84036 6.87999 4.41636 6.87999C4.8857 6.87999 5.23236 6.77333 5.45636 6.55999C5.72303 6.30399 5.85636 6.04266 5.85636 5.77599C5.85636 5.63732 5.8137 5.48266 5.72836 5.31199C5.64303 5.14132 5.5417 4.98666 5.42436 4.84799C5.30703 4.70932 5.21103 4.51733 5.13636 4.27199C5.06169 4.02666 5.0137 3.77599 4.99236 3.51999C4.99236 3.03999 5.16836 2.66133 5.52036 2.38399C5.87236 2.10666 6.30436 1.97332 6.81636 1.98399C7.2857 1.98399 7.68036 2.11732 8.00036 2.38399C8.32036 2.65066 8.4857 3.01866 8.49636 3.48799C8.49636 3.73333 8.44303 3.96266 8.33636 4.17599C8.2297 4.38933 8.1177 4.56532 8.00036 4.70399C7.88303 4.84266 7.7657 5.00799 7.64836 5.19999C7.53103 5.39199 7.48303 5.60532 7.50436 5.83999C7.50436 6.18133 7.62703 6.43199 7.87236 6.59199C8.1177 6.75199 8.42703 6.82933 8.80036 6.82399C9.1737 6.81866 9.70703 6.77333 10.4004 6.68799C11.0937 6.60266 11.579 6.55466 11.8564 6.54399V6.55999C11.8457 6.57066 11.835 6.61866 11.8244 6.70399L11.7444 7.19999C11.6057 8.096 11.5364 8.82666 11.5364 9.39199C11.5364 9.872 11.6377 10.2187 11.8404 10.432C12.107 10.7093 12.3737 10.848 12.6404 10.848C12.7684 10.848 12.9177 10.8053 13.0884 10.72C13.259 10.6347 13.419 10.5333 13.5684 10.416C13.7177 10.2987 13.9097 10.1973 14.1444 10.112C14.379 10.0267 14.6244 9.98399 14.8804 9.98399C15.371 9.98399 15.7497 10.16 16.0164 10.512C16.283 10.864 16.4217 11.2907 16.4324 11.792Z" fill="url(#paint0_linear6)"/>
<defs>
<linearGradient id="paint0_linear6" x1="1.56836" y1="16.016" x2="15.6143" y2="1.20743" gradientUnits="userSpaceOnUse">
<stop stop-color="#AE25B4"/>
<stop offset="1" stop-color="#632CA6"/>
</linearGradient>
</defs>
</svg>
