<svg width="20" height="18" viewBox="0 0 20 18" fill="none" xmlns="http://www.w3.org/2000/svg">
<path d="M17.8672 9.92866C16.439 9.92866 15.8205 11.0154 15.0447 11.0154C12.9817 11.0154 14.8594 4.95313 14.8594 4.95313C14.8594 4.95313 8.10774 7.70486 8.10774 4.83972C8.10774 3.60741 9.35593 3.24886 9.35593 1.88211C9.35593 0.660967 8.38889 0 7.24188 0C6.04987 0 4.95908 0.649803 4.95908 1.93801C4.95908 3.36077 6.04983 3.97693 6.04983 4.74993C6.04991 7.14484 0 5.73592 0 5.73592V17.1984C0 17.1984 6.14449 18.6102 6.14449 16.2125C6.14449 15.4395 4.76862 14.8329 4.76862 13.4102C4.76862 12.1218 5.77473 11.4721 6.95547 11.4721C8.11372 11.4719 9.08076 12.1328 9.08076 13.3538C9.08076 14.7205 7.83257 15.0791 7.83257 16.3114C7.83257 18.4027 12.293 17.1964 14.0663 17.1964C14.0663 17.1964 12.8719 13.0654 14.9547 13.0654C16.1917 13.0654 16.5515 14.3089 17.9234 14.3089C19.1491 14.309 19.8126 13.3456 19.8126 12.1917C19.8126 11.0154 19.1604 9.92866 17.8672 9.92866Z" fill="url(#paint0_linear)"/>
<defs>
<linearGradient id="paint0_linear" x1="-1.66677" y1="-1.76111" x2="14.4348" y2="17.8627" gradientUnits="userSpaceOnUse">
<stop stop-color="#B625B5"/>
<stop offset="1" stop-color="#3B23AE"/>
</linearGradient>
</defs>
</svg>
