<svg width="30" height="32" viewBox="0 0 30 32" fill="none" xmlns="http://www.w3.org/2000/svg">
<path d="M15 31.4211C23.2843 31.4211 30 24.5522 30 16.079C30 7.60574 23.2843 0.736816 15 0.736816C6.71573 0.736816 0 7.60574 0 16.079C0 24.5522 6.71573 31.4211 15 31.4211Z" fill="default-fill"/>
<path fill-rule="evenodd" clip-rule="evenodd" d="M8.45203 21.8168H11.2612V12.2399H8.45203V21.8168ZM19.3945 11.9096C18.0309 11.9096 16.8112 12.4187 15.9464 13.5425V12.2102H13.1273V21.8168H15.9464V16.6215C15.9464 15.5241 16.9298 14.4525 18.1627 14.4525C19.395 14.4525 19.6973 15.5241 19.6973 16.5961V21.8173H22.5066V16.3809C22.5066 12.6048 20.7586 11.9096 19.3945 11.9096ZM9.84375 11.2839C10.6205 11.2839 11.25 10.6395 11.25 9.84556C11.25 9.05112 10.6205 8.40723 9.84375 8.40723C9.06703 8.40723 8.4375 9.05112 8.4375 9.84556C8.4375 10.6395 9.06703 11.2839 9.84375 11.2839Z" fill="white"/>
</svg>
