<svg width="18" height="18" viewBox="0 0 18 18" fill="none" xmlns="http://www.w3.org/2000/svg">
<path d="M16.1247 0H2.09285C1.12816 0 0.338867 0.789293 0.338867 1.75398V15.7859C0.338867 16.7505 1.12816 17.5398 2.09285 17.5398H16.1247C17.0894 17.5398 17.8787 16.7505 17.8787 15.7859V1.75398C17.8787 0.789293 17.0894 0 16.1247 0ZM5.60082 14.9089H2.96984V7.01593H5.60082V14.9089ZM4.28533 5.52505C3.40834 5.52505 2.70674 4.82345 2.70674 3.94646C2.70674 3.06947 3.40834 2.36788 4.28533 2.36788C5.16232 2.36788 5.86392 3.06947 5.86392 3.94646C5.86392 4.82345 5.16232 5.52505 4.28533 5.52505ZM15.2477 14.9089H12.6168V10.2608C12.6168 9.55925 12.0029 8.94532 11.3013 8.94532C10.5997 8.94532 9.98578 9.55925 9.98578 10.2608V14.9089H7.3548V7.01593H9.98578V8.06833C10.4243 7.36673 11.389 6.84054 12.1783 6.84054C13.8445 6.84054 15.2477 8.24372 15.2477 9.91001V14.9089Z" fill="white"/>
</svg>
