<svg width="15" height="18" viewBox="0 0 15 18" fill="none" xmlns="http://www.w3.org/2000/svg">
<path d="M4.00849 8.19856H10.3915V5.72514C10.3915 4.8242 10.078 4.05329 9.45102 3.4124C8.82403 2.77151 8.07009 2.45852 7.1892 2.47342C6.30811 2.48874 5.55422 2.80175 4.92753 3.41244C4.30083 4.02313 3.99474 4.79404 4.00924 5.72518L4.00849 8.19856ZM14.3999 9.41234V16.786C14.4031 16.9445 14.3729 17.1019 14.3112 17.2479C14.2495 17.3939 14.1577 17.5253 14.0418 17.6335C13.814 17.8579 13.5102 17.9885 13.1906 17.9996H1.20926C1.04932 18.0038 0.890379 17.9733 0.743409 17.9101C0.596438 17.8469 0.464946 17.7525 0.358018 17.6335C0.140105 17.4036 0.0129352 17.1025 8.4414e-05 16.786V9.41234C-0.00183179 9.25065 0.0288935 9.09023 0.0904214 8.9407C0.151949 8.79116 0.243015 8.65557 0.358168 8.54205C0.59689 8.29798 0.880636 8.1835 1.20941 8.1986H1.59007V5.72514C1.59007 4.16797 2.14247 2.82444 3.24728 1.69456C4.3521 0.564678 5.66607 -0.000174956 7.1892 4.06493e-08C8.71211 4.06493e-08 10.0335 0.564853 11.1532 1.69456C12.273 2.82426 12.818 4.16779 12.7882 5.72514V8.19856H13.1913C13.535 8.19856 13.8187 8.31304 14.0425 8.54202C14.2656 8.7714 14.3855 9.06149 14.3999 9.41234Z" fill="url(#paint0_linear)"/>
<defs>
<linearGradient id="paint0_linear" x1="3.92414e-07" y1="18" x2="17.584" y2="3.99844" gradientUnits="userSpaceOnUse">
<stop stop-color="#AE25B4"/>
<stop offset="1" stop-color="#632CA6"/>
</linearGradient>
</defs>
</svg>
