<svg width="14" height="17" viewBox="0 0 14 17" fill="none" xmlns="http://www.w3.org/2000/svg">
<path d="M3.8971 7.74308H10.1028V5.40708C10.1028 4.55619 9.79797 3.82811 9.1884 3.22283C8.57883 2.61754 7.84584 2.32194 6.98943 2.33601C6.13282 2.35048 5.39988 2.6461 4.7906 3.22286C4.18132 3.79962 3.88373 4.52771 3.89783 5.40711L3.8971 7.74308V7.74308ZM13.9998 8.88943V15.8534C14.0029 16.0031 13.9735 16.1518 13.9135 16.2897C13.8535 16.4276 13.7643 16.5517 13.6516 16.6538C13.4301 16.8658 13.1348 16.9892 12.8241 16.9996H1.17566C1.02017 17.0036 0.865638 16.9748 0.722751 16.9151C0.579865 16.8554 0.452026 16.7662 0.348069 16.6538C0.136212 16.4367 0.0125757 16.1523 8.20684e-05 15.8534V8.88943C-0.00178089 8.73672 0.0280907 8.58522 0.0879088 8.44399C0.147727 8.30276 0.236262 8.17471 0.348215 8.06749C0.580304 7.83698 0.856166 7.72886 1.1758 7.74312H1.54588V5.40708C1.54588 3.93641 2.08294 2.66753 3.15705 1.60042C4.23116 0.533307 5.50862 -0.000165237 6.98943 3.8391e-08C8.47002 3.8391e-08 9.75465 0.533472 10.8433 1.60042C11.932 2.66736 12.4618 3.93625 12.4329 5.40708V7.74308H12.8248C13.1589 7.74308 13.4347 7.85121 13.6523 8.06746C13.8692 8.2841 13.9858 8.55808 13.9998 8.88943Z" fill="url(#paint0_linear7)"/>
<defs>
<linearGradient id="paint0_linear7" x1="3.8151e-07" y1="17" x2="16.7085" y2="3.30436" gradientUnits="userSpaceOnUse">
<stop stop-color="#AE25B4"/>
<stop offset="1" stop-color="#632CA6"/>
</linearGradient>
</defs>
</svg>
