<svg width="15" height="19" viewBox="0 0 15 19" fill="none" xmlns="http://www.w3.org/2000/svg">
<path d="M4.17547 8.54008H10.8244V5.96363C10.8244 5.02516 10.4978 4.22214 9.84472 3.55455C9.19161 2.88697 8.40626 2.56093 7.48868 2.57645C6.57088 2.59242 5.78559 2.91846 5.13279 3.55459C4.47999 4.19072 4.16114 4.99375 4.17625 5.96367C4.17547 5.96425 4.17547 8.54008 4.17547 8.54008ZM14.9998 9.80442V17.4852C15.0031 17.6503 14.9716 17.8143 14.9073 17.9664C14.843 18.1185 14.7475 18.2553 14.6268 18.368C14.3894 18.6018 14.073 18.7379 13.7401 18.7494H1.25963C1.09303 18.7538 0.927469 18.722 0.774377 18.6561C0.621284 18.5903 0.484314 18.492 0.372931 18.368C0.145941 18.1286 0.013474 17.8149 8.79304e-05 17.4852V9.80442C-0.0019081 9.636 0.0300971 9.4689 0.094188 9.31314C0.158279 9.15737 0.253138 9.01614 0.373088 8.89789C0.621754 8.64365 0.917321 8.52439 1.25979 8.54012H1.6563V5.96363C1.6563 4.34159 2.23172 2.9421 3.38255 1.76515C4.53339 0.5882 5.9021 -0.000182244 7.48868 4.23426e-08C9.07502 4.23426e-08 10.4514 0.588383 11.6178 1.76515C12.7843 2.94191 13.352 4.34141 13.3209 5.96363V8.54008H13.7408C14.0988 8.54008 14.3944 8.65934 14.6275 8.89785C14.8598 9.13678 14.9848 9.43896 14.9998 9.80442Z" fill="url(#paint0_linear)"/>
<defs>
<linearGradient id="paint0_linear" x1="4.66309" y1="-2.35108" x2="18.3997" y2="16.276" gradientUnits="userSpaceOnUse">
<stop stop-color="#B025B5"/>
<stop offset="1" stop-color="#3923AE"/>
</linearGradient>
</defs>
</svg>
