<svg width="18" height="18" viewBox="0 0 18 18" fill="none" xmlns="http://www.w3.org/2000/svg">
<path d="M10.1372 3.67922C7.69092 4.05103 5.73402 5.87123 5.12712 8.31749C4.63774 10.1568 5.12712 11.8792 5.98845 13.21L3.28792 15.9105C2.79858 16.3999 2.79858 17.1435 3.28792 17.6328C3.77726 18.1222 4.52092 18.1222 5.01029 17.6328L7.69166 14.9323C9.04222 15.7937 10.764 16.2829 12.5842 15.7937C14.9129 15.1676 16.7528 13.0932 17.1246 10.6468C17.6133 6.61485 14.1883 3.18988 10.1372 3.67922ZM10.9985 14.0706C8.66981 14.0706 6.71298 12.1137 6.71298 9.78511C6.71298 7.4761 8.66988 5.51865 10.9985 5.51865C13.3272 5.51865 15.2841 7.47554 15.2841 9.78511C15.2846 12.1137 13.3271 14.0706 10.9984 14.0706H10.9985ZM8.55211 2.44626H4.89255V0H8.55211V2.44626ZM13.4447 2.44626H9.78507V0H13.4447V2.44626ZM4.03137 12.2313H0V9.78504H3.65955C3.65955 10.6462 3.77712 11.5074 4.03137 12.2313ZM5.49946 4.89252C4.89255 5.63611 4.40374 6.49729 4.03193 7.33878H0V4.89252H5.49946ZM3.65955 2.44626H0V0H3.65955V2.44626ZM12.8383 11.0179H9.2963C9.2963 11.0179 9.15919 10.6461 9.15919 10.411C9.09169 9.08182 10.2746 7.9647 11.6055 7.9647C12.0948 7.9647 12.4668 8.08226 12.8384 8.31682L12.8383 11.0179Z" fill="url(#paint0_linear)"/>
<defs>
<linearGradient id="paint0_linear" x1="5.33806" y1="-2.25705" x2="17.6879" y2="17.7123" gradientUnits="userSpaceOnUse">
<stop stop-color="#B025B5"/>
<stop offset="1" stop-color="#3923AE"/>
</linearGradient>
</defs>
</svg>
