<svg width="18" height="18" viewBox="0 0 18 18" fill="none" xmlns="http://www.w3.org/2000/svg">
<path fill-rule="evenodd" clip-rule="evenodd" d="M12.4778 10.6497H9.58141C9.58141 10.6497 9.46939 10.3457 9.46939 10.1537C9.41439 9.06704 10.382 8.15342 11.4696 8.15342C11.8697 8.15342 12.1742 8.24944 12.4778 8.44146V10.6497ZM1.98047 3.64087H4.97284V1.64062H1.98047V3.64087ZM6.47703 5.64111C5.98096 6.24919 5.58091 6.95327 5.27688 7.64136H1.98047V5.64111H6.47703ZM5.27687 11.6419H1.98047V9.64161H4.97284C4.97284 10.3457 5.06885 11.0498 5.27687 11.6419ZM9.98146 3.64087H12.9738V1.64062H9.98146V3.64087ZM5.98096 3.64087H8.97333V1.64062H5.98096V3.64087ZM10.9736 13.146C9.06934 13.146 7.46914 11.5458 7.46914 9.64161C7.46914 7.75338 9.06934 6.15318 10.9736 6.15318C12.8778 6.15318 14.478 7.75338 14.478 9.64161C14.478 11.5458 12.8778 13.146 10.9736 13.146ZM10.2695 4.64899C8.26924 4.95303 6.66905 6.44121 6.17298 8.44146C5.77293 9.94565 6.17298 11.3538 6.87707 12.442L4.6688 14.6502C4.26875 15.0503 4.26875 15.6583 4.6688 16.0584C5.06885 16.4584 5.67692 16.4584 6.07697 16.0584L8.26924 13.8501C9.37338 14.5542 10.7816 14.9543 12.2697 14.5542C14.1745 14.0421 15.6782 12.3459 15.9822 10.3457C16.3827 7.04929 13.5819 4.24894 10.2695 4.64899Z" fill="url(#paint0_linear8)"/>
<defs>
<linearGradient id="paint0_linear8" x1="1.98047" y1="16.3584" x2="16.713" y2="2.37005" gradientUnits="userSpaceOnUse">
<stop stop-color="#AE25B4"/>
<stop offset="1" stop-color="#632CA6"/>
</linearGradient>
</defs>
</svg>
