<svg width="18" height="18" viewBox="0 0 18 18" fill="none" xmlns="http://www.w3.org/2000/svg">
<path fill-rule="evenodd" clip-rule="evenodd" d="M12.4773 10.6497H9.58092C9.58092 10.6497 9.4689 10.3457 9.4689 10.1537C9.4139 9.06704 10.3815 8.15342 11.4692 8.15342C11.8692 8.15342 12.1737 8.24944 12.4773 8.44146V10.6497ZM1.97998 3.64087H4.97235V1.64062H1.97998V3.64087ZM6.47654 5.64111C5.98048 6.24919 5.58043 6.95327 5.27639 7.64136H1.97998V5.64111H6.47654ZM5.27639 11.6419H1.97998V9.64161H4.97235C4.97235 10.3457 5.06836 11.0498 5.27639 11.6419ZM9.98097 3.64087H12.9733V1.64062H9.98097V3.64087ZM5.98047 3.64087H8.97284V1.64062H5.98047V3.64087ZM10.9731 13.146C9.06885 13.146 7.46866 11.5458 7.46866 9.64161C7.46866 7.75338 9.06885 6.15318 10.9731 6.15318C12.8773 6.15318 14.4775 7.75338 14.4775 9.64161C14.4775 11.5458 12.8773 13.146 10.9731 13.146ZM10.269 4.64899C8.26875 4.95303 6.66856 6.44121 6.1725 8.44146C5.77245 9.94565 6.1725 11.3538 6.87658 12.442L4.66831 14.6502C4.26826 15.0503 4.26826 15.6583 4.66831 16.0584C5.06836 16.4584 5.67643 16.4584 6.07648 16.0584L8.26875 13.8501C9.37289 14.5542 10.7811 14.9543 12.2692 14.5542C14.174 14.0422 15.6777 12.3459 15.9817 10.3457C16.3823 7.04929 13.5814 4.24894 10.269 4.64899Z" fill="url(#paint0_linear)"/>
<defs>
<linearGradient id="paint0_linear" x1="1.97998" y1="16.3584" x2="16.7126" y2="2.37005" gradientUnits="userSpaceOnUse">
<stop stop-color="#AE25B4"/>
<stop offset="1" stop-color="#632CA6"/>
</linearGradient>
</defs>
</svg>
