<svg width="512" height="512" viewBox="0 0 512 512" fill="none" xmlns="http://www.w3.org/2000/svg">
<path d="M142.924 35.6563C139 43.3572 139 53.4381 139 73.6L139 433.4C139 453.562 139 463.643 142.924 471.344C146.375 478.117 151.883 483.625 158.656 487.076C166.357 491 176.438 491 196.6 491H323.4C343.562 491 353.643 491 361.344 487.076C368.117 483.625 373.625 478.117 377.076 471.344C381 463.643 381 453.562 381 433.4V73.6C381 53.4381 381 43.3572 377.076 35.6563C373.625 28.8825 368.117 23.3752 361.344 19.9238C353.643 16 347.562 16 327.4 16C323.865 16 321 18.8654 321 22.4V23C321 31.4008 321 35.6012 319.365 38.8098C317.927 41.6323 315.632 43.927 312.81 45.3651C309.601 47 305.401 47 297 47H223C214.599 47 210.399 47 207.19 45.3651C204.368 43.927 202.073 41.6323 200.635 38.8098C199 35.6012 199 31.4008 199 23V22.4C199 18.8654 196.135 16 192.6 16C172.438 16 166.357 16 158.656 19.9238C151.883 23.3752 146.375 28.8825 142.924 35.6563Z" fill="url(#paint0_linear)"/>
<defs>
<linearGradient id="paint0_linear" x1="145.05" y1="491" x2="473.593" y2="414.699" gradientUnits="userSpaceOnUse">
<stop stop-color="#AE25B4"/>
<stop offset="1" stop-color="#632CA6"/>
</linearGradient>
</defs>
</svg>
