<svg width="18" height="18" viewBox="0 0 18 18" fill="none" xmlns="http://www.w3.org/2000/svg">
<path d="M16.272,3.621a1.729,1.729,0,0,0-1.689,1.4H7.029a1.714,1.714,0,0,0-3.4.35,1.71,1.71,0,0,0,.66,1.359L2.156,10.961a1.623,1.623,0,0,0-.427-.059A1.738,1.738,0,0,0,0,12.648v0a1.72,1.72,0,0,0,1.711,1.728h.017a1.725,1.725,0,0,0,1.689-1.418h7.535a1.724,1.724,0,1,0,2.776-1.669l2.156-4.233a2.526,2.526,0,0,0,.388.039,1.739,1.739,0,0,0,0-3.477ZM3.4,12.282a1.723,1.723,0,0,0-.621-1.01L4.893,7.039a1.707,1.707,0,0,0,.466.059,1.615,1.615,0,0,0,.951-.292l4.913,4.874a1.373,1.373,0,0,0-.252.6Zm9.709-1.321a1.741,1.741,0,0,0-.466-.058,1.77,1.77,0,0,0-.951.291L6.8,6.32A1.732,1.732,0,0,0,7.03,5.7h7.553a1.749,1.749,0,0,0,.68,1.068Z" fill="url(#paint0_linear9)"/>
<defs>
<linearGradient id="paint0_linear9" x1="1.98047" y1="16.3584" x2="16.713" y2="2.37005" gradientUnits="userSpaceOnUse">
<stop stop-color="#AE25B4"/>
<stop offset="1" stop-color="#632CA6"/>
</linearGradient>
</defs>
</svg>
