<svg width="18" height="18" viewBox="0 0 18 18" fill="none" xmlns="http://www.w3.org/2000/svg">
<path fill-rule="evenodd" clip-rule="evenodd" d="M462.862 103a49.138 49.138 0 0 0-48.049 39.761H199.942A49.138 49.138 0 0 0 151.893 103c-26.513 0-48.61 22.1-48.61 49.714a48.661 48.661 0 0 0 18.785 38.657l-60.754 120.4a46.064 46.064 0 0 0-12.144-1.664A49.418 49.418 0 0 0 0 359.843 48.912 48.912 0 0 0 49.154 409c23.746 0 43.633-17.124 48.046-40.324h214.314c4.416 23.2 24.3 40.321 48.049 40.321a49.461 49.461 0 0 0 30.929-87.811l61.314-120.4a67.162 67.162 0 0 0 11.04 1.1A49.269 49.269 0 0 0 512 152.733C512 125.676 489.919 103 462.862 103zM96.659 349.347a49.066 49.066 0 0 0-17.681-28.721l60.21-120.4a48.38 48.38 0 0 0 13.249 1.664 46.159 46.159 0 0 0 27.057-8.288l139.748 138.64a39.13 39.13 0 0 0-7.184 17.121c.016-.016-215.399-.016-215.399-.016zm276.169-37.553a48.332 48.332 0 0 0-13.249-1.664 50.4 50.4 0 0 0-27.057 8.288L193.334 179.774a48.757 48.757 0 0 0 6.624-17.681h214.855c2.768 12.7 9.392 23.2 19.329 30.385z"/>
<defs>
<linearGradient id="paint0_linear8" x1="1.98047" y1="16.3584" x2="16.713" y2="2.37005" gradientUnits="userSpaceOnUse">
<stop stop-color="#AE25B4"/>
<stop offset="1" stop-color="#632CA6"/>
</linearGradient>
</defs>
</svg>