<svg id="Layer_1" data-name="Layer 1" xmlns="http://www.w3.org/2000/svg" xmlns:xlink="http://www.w3.org/1999/xlink" viewBox="0 0 42 42">
  <defs>
    <style>
      .cls-1 {
        fill-rule: evenodd;
        fill: url(#linear-gradient);
      }
    </style>
    <linearGradient id="linear-gradient" x1="1.11772" y1="20.68508" x2="40.61532" y2="20.68508" gradientUnits="userSpaceOnUse">
      <stop offset="0" stop-color="#d671d0"/>
      <stop offset="1" stop-color="#7a71cb"/>
    </linearGradient>
  </defs>
  <title>Artboard 2 copy 5</title>
  <g id="Page-1">
    <g id="Icon_products_browser" data-name="Icon/products/browser">
      <path id="Shape" class="cls-1" d="M40.61532,7.69509V33.71363a3.26491,3.26491,0,0,1-1.02693,2.42712,3.43223,3.43223,0,0,1-2.48822,1.00167H4.6343A3.52008,3.52008,0,0,1,2.146,36.14075a3.08177,3.08177,0,0,1-1.0269-2.42712V7.69509A3.265,3.265,0,0,1,2.146,5.268,3.57515,3.57515,0,0,1,4.6343,4.22774H37.10017A3.36691,3.36691,0,0,1,39.58839,5.268,3.34738,3.34738,0,0,1,40.61532,7.69509ZM37.81113,33.71363V13.20436a.61519.61519,0,0,0-.237-.50088.75223.75223,0,0,0-.474-.19263H4.6343a.65463.65463,0,0,0-.474.19263.82156.82156,0,0,0-.237.50088V33.71363a.57843.57843,0,0,0,.237.46225,1.01632,1.01632,0,0,0,.474.23119H37.10017a.60333.60333,0,0,0,.474-.23119A.97276.97276,0,0,0,37.81113,33.71363ZM5.8686,9.49409A1.21148,1.21148,0,1,0,4.6343,8.28283,1.223,1.223,0,0,0,5.8686,9.49409Zm3.7029,0A1.21148,1.21148,0,1,0,8.3372,8.28283,1.223,1.223,0,0,0,9.5715,9.49409Zm6.36217,5.35061,12.44951,8.07752a.3292.3292,0,0,1-.08373.59115l-4.78672,1.45048a.32923.32923,0,0,0-.18959.47964l2.9826,5.16589a.32916.32916,0,0,1-.12047.44961l-1.77884,1.0276a.32921.32921,0,0,1-.44975-.12047l-2.97614-5.15483a.329.329,0,0,0-.51729-.06846l-3.60508,3.59244a.32917.32917,0,0,1-.561-.21408l-.87132-14.98131A.32918.32918,0,0,1,15.93367,14.8447ZM13.27443,7.07157A1.21148,1.21148,0,1,1,12.0401,8.28283,1.223,1.223,0,0,1,13.27443,7.07157Z"/>
    </g>
  </g>
</svg>
