<svg width="18" height="18" viewBox="0 0 18 18" fill="none" xmlns="http://www.w3.org/2000/svg">
<path fill-rule="evenodd" clip-rule="evenodd" d="M11.8562 7.8572C11.8562 6.75853 11.4669 5.81988 10.6882 5.04121C9.90956 4.26254 8.96557 3.86787 7.85623 3.85721C6.74689 3.84654 5.8029 4.2412 5.02423 5.04121C4.24556 5.84121 3.85623 6.77987 3.85623 7.8572C3.85623 8.93454 4.24556 9.87853 5.02423 10.6892C5.8029 11.4999 6.74689 11.8892 7.85623 11.8572C8.96557 11.8252 9.90956 11.4359 10.6882 10.6892C11.4669 9.94253 11.8562 8.99854 11.8562 7.8572ZM16.4322 15.2972C16.4322 15.6065 16.3149 15.8732 16.0802 16.0972C15.8456 16.3212 15.5736 16.4332 15.2642 16.4332C14.9549 16.4332 14.6936 16.3212 14.4802 16.0972L11.4242 13.0412C10.3576 13.7772 9.16824 14.1452 7.85624 14.1452C7.0029 14.1452 6.1869 13.9799 5.40823 13.6492C4.62956 13.3185 3.9629 12.8705 3.40823 12.3052C2.85356 11.7399 2.40557 11.0732 2.06423 10.3052C1.7229 9.53721 1.55757 8.72122 1.56823 7.85721C1.5789 6.99321 1.74423 6.18255 2.06423 5.42521C2.38424 4.66787 2.83223 3.99588 3.40823 3.40921C3.98424 2.82254 4.6509 2.37455 5.40823 2.06521C6.16557 1.75588 6.98156 1.59054 7.85624 1.56921C8.73091 1.54788 9.5469 1.71321 10.3042 2.06521C11.0616 2.41721 11.7282 2.86521 12.3042 3.40921C12.8802 3.95321 13.3282 4.62521 13.6482 5.42521C13.9682 6.22522 14.1336 7.03587 14.1442 7.85721C14.1442 9.16922 13.7762 10.3585 13.0402 11.4252L16.0962 14.4812C16.3202 14.7052 16.4322 14.9772 16.4322 15.2972Z" fill="white"/>
</svg>
