<svg width="512" height="494" viewBox="0 0 512 494" fill="none" xmlns="http://www.w3.org/2000/svg">
<path d="M102.918 165.715L64.936 166.187L70.353 122.505H108.064C112.935 83.447 123.738 53.341 140.942 32.755C158.919 11.243 183.496 0.593 214.115 0.593C228.64 0.593 240.669 4.037 249.625 11.495C258.611 18.661 263.145 28.303 263.145 39.985C263.145 47.821 260.126 55.217 254.606 62.095C248.851 69.685 240.441 73.281 230.151 73.281C222.307 73.281 215.36 70.449 209.5 64.987L209.444 64.936L209.391 64.882C203.711 59.237 200.931 52.063 200.931 43.736V43.475L200.952 43.288C200.623 43.2771 200.293 43.2717 199.964 43.272C196.829 43.272 194.101 44.53 191.58 47.633C188.917 50.91 186.537 56.221 184.726 64.022L184.722 64.042C181.26 78.668 178.307 98.133 175.888 122.505H236.763L232.51 164.179L173.252 165.114C171.38 195.121 168.794 229.811 165.494 269.179C162.348 310.147 159.356 342.876 156.516 367.343C151.747 408.434 140.675 439.946 122.786 461.253C104.732 482.757 80.12 493.407 49.502 493.407C34.742 493.407 22.578 490.156 13.61 483.045C4.542 476.174 0 466.64 0 454.953C0 446.853 2.983 439.159 8.503 431.951C14.26 424.329 22.683 420.719 32.993 420.719C40.838 420.719 47.785 423.551 53.645 429.013L53.701 429.064L53.754 429.118C59.434 434.763 62.214 441.937 62.214 450.264V450.526L62.194 450.701C62.515 450.719 62.844 450.728 63.18 450.728C66.316 450.728 69.043 449.47 71.565 446.367C74.228 443.09 76.608 437.779 78.419 429.978L78.423 429.959C82.125 414.319 85.244 393.15 87.751 366.364C90.261 339.232 93.244 299.427 96.702 246.926L96.704 246.901L102.918 165.715V165.715ZM332.335 183.503C329.555 177.365 327.225 173.952 325.522 172.471C323.895 171.056 322.014 170.341 319.641 170.341C316.657 170.341 313.75 171.852 310.995 176.743C308.143 181.805 305.879 189.874 304.49 201.377L303.916 206.135L268.289 201.075L268.748 196.585C270.719 177.323 277.459 159.531 288.906 143.27C300.932 125.862 319.165 117.347 342.753 117.347C355.887 117.347 366.679 121.049 374.4 129.065C381.944 136.58 388.203 147.39 393.357 161.149C395.612 166.86 397.856 173.32 400.09 180.521C409.95 157.498 419.609 141.313 429.223 132.625L429.249 132.602L429.275 132.579C440.566 122.675 452.47 117.347 464.915 117.347C476.677 117.347 486.31 120.522 492.842 127.712C499.509 134.393 502.625 143.319 502.625 153.925C502.625 163.073 499.079 171.105 492.324 177.841C485.789 184.675 477.66 188.159 468.217 188.159C459.134 188.159 451.391 185.568 445.373 180.189C442.498 183.265 439.362 187.704 436.01 193.699C431.857 201.372 425.885 214.519 418.067 233.281C428.801 262.668 439.024 285.9 448.72 303.069L448.754 303.128L448.785 303.189C452.131 309.539 454.978 313.694 457.278 316.018C459.492 317.944 461.228 318.501 462.557 318.501C465.323 318.501 467.69 317.299 469.824 313.793C472.122 309.687 474.25 301.2 475.817 287.495L476.365 282.703L512 287.764L511.565 292.234C509.613 312.282 503.581 330.339 493.42 346.316C482.917 363.347 465.292 371.495 441.803 371.495C427.83 371.495 415.936 367.049 406.484 358.001L406.452 357.97L406.421 357.939C397.401 348.973 390.017 337.319 384.178 323.138L384.164 323.105L373.581 298.448C367.277 315.67 361.019 329.456 354.78 339.702C347.379 351.858 339.633 360.626 331.373 365.267L331.343 365.284L331.311 365.301C323.68 369.439 315.36 371.495 306.434 371.495C294.273 371.495 283.98 368.288 276.02 361.454C267.992 354.561 264.007 345.409 264.007 334.448C264.007 324.047 267.18 315.067 273.711 307.854L273.754 307.807L273.797 307.761C280.6 300.642 288.878 296.932 298.416 296.932C306.095 296.932 312.825 298.845 318.222 303.036C321.481 305.421 324.17 308.144 326.208 311.216C326.763 310.513 327.293 309.791 327.798 309.052C329.952 305.911 332.259 301.72 334.704 296.407C339.536 285.595 346.059 268.164 354.287 244.003C350.454 233.424 347.184 224.1 344.478 216.035C343.191 212.828 341.301 207.811 338.816 201.02L338.784 200.93L338.754 200.838C336.592 194.082 334.45 188.311 332.335 183.503V183.503Z" fill="url(#paint0_linear)"/>
<defs>
<linearGradient id="paint0_linear" x1="483.5" y1="0.999979" x2="4.04787e-06" y2="499" gradientUnits="userSpaceOnUse">
<stop stop-color="#AE25B4"/>
<stop offset="1" stop-color="#632CA6"/>
</linearGradient>
</defs>
</svg>
