<svg width="21" height="23" viewBox="0 0 21 23" fill="none" xmlns="http://www.w3.org/2000/svg">
<path fill-rule="evenodd" clip-rule="evenodd" d="M4.87812 4.31299C4.85618 4.27703 4.84154 4.23711 4.83504 4.1955C4.82853 4.15388 4.83029 4.1114 4.8402 4.07046C4.85012 4.02953 4.868 3.99095 4.89283 3.95693C4.91765 3.9229 4.94894 3.8941 4.9849 3.87217C4.99471 3.86616 5.00485 3.86069 5.01527 3.85578L6.3186 3.12639C6.36729 3.09777 6.4225 3.0821 6.47896 3.08088C6.54008 3.08328 6.59956 3.10136 6.65167 3.13339C6.70378 3.16541 6.74677 3.21031 6.77652 3.26376C6.81807 3.34252 6.82698 3.43446 6.80131 3.51973C6.77564 3.60501 6.71746 3.67676 6.63933 3.71949L5.33533 4.4496C5.25643 4.49134 5.16429 4.50041 5.07877 4.47486C4.99325 4.4493 4.92119 4.39117 4.87812 4.31299ZM7.4855 2.8521C7.39404 2.66923 7.43977 2.46456 7.60014 2.41892L8.44626 1.93993C8.35569 1.61311 8.37617 1.26548 8.5045 0.951562C8.63282 0.637645 8.86172 0.375209 9.15529 0.205425C9.3926 0.071172 9.66053 0.000416667 9.93318 0C10.4593 0 10.9622 0.274287 11.2597 0.775792C11.4573 1.12153 11.5145 1.52997 11.4194 1.91666L12.3802 2.44139C12.4195 2.46219 12.4544 2.49058 12.4827 2.52492C12.511 2.55926 12.5323 2.59886 12.5452 2.64145C12.5582 2.68404 12.5626 2.72877 12.5581 2.77306C12.5537 2.81736 12.5405 2.86033 12.5194 2.89952C12.4983 2.9387 12.4696 2.97331 12.4351 3.00136C12.4005 3.0294 12.3607 3.05033 12.318 3.06293C12.2753 3.07552 12.2306 3.07954 12.1863 3.07475C12.1421 3.06996 12.0992 3.05646 12.0602 3.03502L11.1224 2.51029C11.0067 2.64814 10.867 2.76395 10.7102 2.85215C10.0469 3.21789 9.2472 3.08075 8.7661 2.5328L7.94337 2.98996C7.86419 3.03142 7.7719 3.04021 7.68631 3.01444C7.60072 2.98867 7.52863 2.9304 7.4855 2.8521ZM1.49281 10.2234C1.58281 10.2257 1.66849 10.2624 1.73222 10.326C1.79594 10.3896 1.83285 10.4752 1.83533 10.5652V12.0718C1.83286 12.1618 1.79596 12.2474 1.73223 12.311C1.66851 12.3746 1.58281 12.4114 1.49281 12.4137C1.40268 12.4115 1.31682 12.3749 1.25294 12.3113C1.18907 12.2476 1.15206 12.1619 1.14957 12.0718V10.5645C1.1519 10.4744 1.18887 10.3887 1.2528 10.3251C1.31673 10.2616 1.40269 10.2252 1.49281 10.2234ZM5.42674 18.0962L6.68506 18.8487C6.75271 18.8979 6.79949 18.9706 6.81614 19.0525C6.83279 19.1345 6.81811 19.2197 6.775 19.2913C6.73189 19.363 6.66348 19.4159 6.58328 19.4395C6.50308 19.4632 6.41692 19.4559 6.34182 19.4192L5.06099 18.6664C5.0235 18.6441 4.99075 18.6147 4.96462 18.5798C4.9385 18.5449 4.9195 18.5052 4.90872 18.463C4.89794 18.4207 4.89558 18.3768 4.90179 18.3336C4.90799 18.2905 4.92264 18.249 4.94489 18.2115L4.94631 18.2093C4.98104 18.1625 5.02574 18.1239 5.07719 18.0964C5.12864 18.0689 5.18556 18.0532 5.24382 18.0504C5.30746 18.0517 5.36997 18.0674 5.42674 18.0962ZM16.4977 17.8676C16.4246 17.9118 16.3369 17.9251 16.254 17.9047C16.171 17.8842 16.0995 17.8317 16.0553 17.7585C16.05 17.7496 16.045 17.7405 16.0405 17.7311C15.9987 17.6521 15.9897 17.5599 16.0153 17.4744C16.041 17.3888 16.0993 17.3168 16.1777 17.2739L17.0696 16.7724C16.9101 16.4271 16.8851 16.0347 16.9992 15.6719C17.1134 15.3091 17.3586 15.0018 17.6871 14.81C17.8342 14.7193 17.9973 14.6571 18.1675 14.6269V13.4415C18.1675 13.3504 18.2037 13.2631 18.268 13.1987C18.3324 13.1344 18.4197 13.0982 18.5107 13.0982C18.6018 13.0982 18.6891 13.1344 18.7534 13.1987C18.8178 13.2631 18.854 13.3504 18.854 13.4415V14.6512C19.0507 14.6978 19.2356 14.7847 19.397 14.9064C19.5584 15.028 19.6928 15.1819 19.7918 15.3581C19.8942 15.5318 19.9613 15.7241 19.9892 15.9238C20.017 16.1236 20.0051 16.3269 19.9541 16.522C19.9032 16.7171 19.8141 16.9002 19.6921 17.0608C19.5701 17.2214 19.4175 17.3562 19.2432 17.4576C19.0695 17.562 18.8765 17.63 18.6758 17.6575C18.475 17.6849 18.2708 17.6713 18.0756 17.6173C17.8557 17.5702 17.6513 17.4683 17.4813 17.3212L16.4977 17.8676ZM15.034 17.959C15.095 17.9614 15.1544 17.9795 15.2064 18.0116C15.2584 18.0437 15.3012 18.0886 15.3308 18.1421C15.3726 18.2208 15.3817 18.3128 15.356 18.3982C15.3303 18.4835 15.272 18.5553 15.1937 18.5978L13.8903 19.3287C13.8117 19.37 13.7199 19.3787 13.635 19.3529C13.55 19.327 13.4786 19.2686 13.4364 19.1905C13.3941 19.1123 13.3844 19.0206 13.4094 18.9354C13.4343 18.8501 13.4919 18.7781 13.5696 18.735L14.8736 18.0049C14.9223 17.9762 14.9775 17.9603 15.034 17.959ZM12.7234 19.6021C12.8149 19.7852 12.7467 19.9896 12.6095 20.0352L11.5798 20.6056C11.7169 21.245 11.4426 21.9526 10.8483 22.2944C10.6742 22.3967 10.4816 22.4636 10.2816 22.4915C10.0816 22.5193 9.87813 22.5075 9.68271 22.4567C9.48729 22.4059 9.3038 22.3171 9.1427 22.1953C8.98161 22.0736 8.84606 21.9213 8.74382 21.7472C8.54948 21.4171 8.48433 21.0267 8.56094 20.6514L7.57687 20.0817C7.53937 20.0595 7.50663 20.0301 7.4805 19.9952C7.45437 19.9603 7.43538 19.9206 7.4246 19.8783C7.41381 19.8361 7.41146 19.7921 7.41766 19.749C7.42387 19.7058 7.43851 19.6643 7.46076 19.6268L7.46219 19.6247C7.4967 19.5776 7.54134 19.5388 7.59282 19.5111C7.64431 19.4835 7.70133 19.4678 7.7597 19.465C7.82327 19.4667 7.8857 19.4823 7.94257 19.5108L8.85765 20.0355C8.98823 19.8826 9.14261 19.7517 9.31485 19.648C9.55218 19.5137 9.82013 19.443 10.0928 19.4425C10.3205 19.4453 10.545 19.4977 10.7504 19.5961C10.9558 19.6945 11.1373 19.8365 11.2822 20.0123L12.2662 19.465C12.3147 19.4366 12.3696 19.4209 12.4258 19.4194C12.4869 19.4218 12.5464 19.4399 12.5985 19.4719C12.6506 19.5039 12.6936 19.5487 12.7234 19.6021ZM18.5107 10.018C18.556 10.017 18.6009 10.0252 18.6429 10.0421C18.6849 10.0589 18.723 10.084 18.7551 10.1159C18.7871 10.1478 18.8124 10.1859 18.8294 10.2278C18.8464 10.2697 18.8547 10.3146 18.854 10.3598V11.9114C18.854 12.0025 18.8178 12.0898 18.7534 12.1541C18.6891 12.2185 18.6018 12.2547 18.5107 12.2547C18.4197 12.2547 18.3324 12.2185 18.268 12.1541C18.2037 12.0898 18.1675 12.0025 18.1675 11.9114V10.3605C18.17 10.2703 18.207 10.1846 18.2708 10.1208C18.3347 10.0571 18.4206 10.0203 18.5107 10.018ZM13.3642 3.71949C13.3241 3.69971 13.2885 3.67189 13.2596 3.63776C13.2307 3.60363 13.2092 3.56391 13.1963 3.52109C13.1835 3.47826 13.1795 3.43325 13.1848 3.38885C13.1901 3.34444 13.2045 3.30161 13.227 3.263C13.2569 3.2098 13.2998 3.16508 13.3518 3.13309C13.4037 3.10109 13.4629 3.08286 13.5239 3.08013C13.5799 3.08473 13.6344 3.10051 13.6842 3.12652L14.9882 3.85663C15.0669 3.89907 15.1254 3.971 15.151 4.05661C15.1766 4.14222 15.1672 4.23449 15.1247 4.31312C15.0823 4.39175 15.0103 4.45031 14.9247 4.4759C14.8391 4.50149 14.7469 4.49203 14.6682 4.4496L13.3642 3.71949ZM19.7684 5.54527C20.2031 6.27538 19.9513 7.23333 19.2423 7.62185C19.1169 7.68446 18.9872 7.73782 18.854 7.7815V8.7859C18.854 8.87693 18.8179 8.96423 18.7535 9.0286C18.6891 9.09297 18.6018 9.12913 18.5108 9.12913C18.4198 9.12913 18.3325 9.09297 18.2681 9.0286C18.2037 8.96423 18.1675 8.87693 18.1675 8.7859V7.8045C17.9479 7.7715 17.7387 7.68843 17.5563 7.56171C17.3738 7.43498 17.2229 7.26801 17.1153 7.07368C16.9942 6.87268 16.9228 6.64573 16.9069 6.41162C16.891 6.17752 16.9311 5.943 17.0239 5.72747L15.9716 5.13451C15.8933 5.09162 15.8349 5.01961 15.8093 4.93406C15.7836 4.84851 15.7926 4.75629 15.8344 4.67735C15.8643 4.62407 15.9073 4.57935 15.9594 4.54745C16.0115 4.51555 16.0709 4.49755 16.132 4.49515C16.1877 4.49984 16.2419 4.51537 16.2916 4.54088L17.3896 5.15715C17.3895 5.16022 17.3901 5.16327 17.3912 5.16612C17.3923 5.16896 17.3941 5.17155 17.3962 5.17372C17.3984 5.17589 17.401 5.1776 17.4038 5.17874C17.4067 5.17989 17.4097 5.18044 17.4128 5.18037C17.4865 5.10651 17.5715 5.04479 17.6646 4.9975C17.9016 4.86337 18.1692 4.79262 18.4416 4.79208C18.5729 4.78591 18.7043 4.80135 18.8306 4.8378C19.0273 4.88442 19.2123 4.97136 19.3737 5.09314C19.5351 5.21492 19.6695 5.36887 19.7684 5.54527ZM1.14962 7.8496C0.737426 7.75814 0.418124 7.48386 0.212029 7.11878C0.109599 6.94511 0.0425246 6.7529 0.0146665 6.5532C-0.0131916 6.35351 -0.00128342 6.15027 0.0497057 5.9552C0.100695 5.76012 0.189758 5.57706 0.311771 5.41654C0.433783 5.25602 0.586335 5.12121 0.760648 5.01987C0.997979 4.88564 1.26592 4.81489 1.53858 4.81445C1.66982 4.80845 1.80116 4.82365 1.92755 4.85946C2.16451 4.92262 2.38359 5.03987 2.56758 5.20199C2.5908 5.20199 2.59081 5.17966 2.61331 5.17966L3.71126 4.56338C3.75994 4.5347 3.81515 4.51896 3.87163 4.51765C3.93273 4.52012 3.99218 4.53823 4.04428 4.57025C4.09637 4.60227 4.13938 4.64713 4.16918 4.70053C4.21075 4.77936 4.21959 4.8714 4.19378 4.9567C4.16798 5.04201 4.10962 5.11372 4.03132 5.1563L2.95655 5.77258C3.10009 6.11545 3.11424 6.49878 2.99638 6.8513C2.87852 7.20383 2.63666 7.50156 2.31576 7.68915C2.16857 7.77984 2.00557 7.84188 1.83533 7.87202V9.05862C1.83302 9.14873 1.79618 9.23451 1.73244 9.29825C1.6687 9.362 1.58292 9.39883 1.49281 9.40114C1.40257 9.399 1.31662 9.36224 1.25273 9.29848C1.18884 9.23473 1.15191 9.14885 1.14957 9.05862L1.14962 7.8496ZM2.36149 17.4343C1.62995 17.8451 0.668966 17.6172 0.280445 16.8863C0.178047 16.7126 0.111 16.5203 0.0831594 16.3206C0.0553184 16.1209 0.0672323 15.9176 0.118216 15.7225C0.1692 15.5274 0.258248 15.3443 0.380241 15.1837C0.502234 15.0231 0.654764 14.8882 0.829063 14.7868L1.1723 14.6503V13.6002C1.17481 13.5101 1.21182 13.4244 1.27569 13.3608C1.33956 13.2972 1.42542 13.2605 1.51554 13.2584C1.60566 13.2605 1.69152 13.2972 1.75539 13.3608C1.81926 13.4244 1.85627 13.5101 1.85878 13.6002V14.6046C2.08154 14.6369 2.29404 14.7195 2.4802 14.846C2.66636 14.9725 2.82131 15.1397 2.93333 15.3349C3.18511 15.7681 3.18511 16.2936 3.00224 16.7269C3.02546 16.7492 3.07119 16.7492 3.09369 16.7726L4.19182 17.4111C4.25959 17.4602 4.30646 17.5329 4.32317 17.6149C4.33988 17.6969 4.32521 17.7822 4.28206 17.8539C4.23891 17.9256 4.17043 17.9785 4.09015 18.0021C4.00987 18.0257 3.92365 18.0184 3.84854 17.9815L2.7513 17.3429C2.70258 17.3172 2.66265 17.2775 2.63667 17.229L2.36149 17.4343ZM3.76311 10.0877L6.78898 10.7861C6.24951 13.2528 6.31703 15.4382 6.90223 16.809C5.74384 16.1555 4.81858 15.1564 4.25577 13.9513C3.69296 12.7462 3.52071 11.3954 3.76311 10.0877ZM11.3878 5.06699C12.4154 5.30474 13.0076 7.82209 12.3556 11.1672L7.84419 10.1256C8.72484 6.83315 10.3883 4.83629 11.3878 5.06699ZM12.1861 12.0317C11.3231 15.5091 9.59066 17.6705 8.56304 17.4336C7.50658 17.1895 6.91929 14.5223 7.67471 10.9907L12.1861 12.0317ZM10.2653 17.615C11.3928 16.6402 12.4178 14.6771 13.014 12.2231L16.1256 12.9413C15.4131 15.64 12.9717 17.487 10.2653 17.615ZM16.324 12.0831L13.2123 11.3649C13.6682 8.99882 13.5744 6.92809 13.0041 5.62123C15.3364 6.85285 16.7038 9.39833 16.324 12.0831ZM9.66309 4.85035C8.60663 5.7816 7.61492 7.60126 6.99453 9.89912L3.96796 9.20068C4.81198 6.71356 7.10006 5.01143 9.66381 4.85035H9.66309Z" fill="url(#paint0_linear)"/>
<defs>
<linearGradient id="paint0_linear" x1="6.21865" y1="-2.8221" x2="22.1234" y2="21.1392" gradientUnits="userSpaceOnUse">
<stop stop-color="#B025B5"/>
<stop offset="1" stop-color="#3923AE"/>
</linearGradient>
</defs>
</svg>
