<svg width="18" height="18" viewBox="0 0 18 18" fill="none" xmlns="http://www.w3.org/2000/svg">
<path fill-rule="evenodd" clip-rule="evenodd" d="M8.87057 4.44814C8.11954 5.11016 7.41451 6.40372 6.97349 8.03729L4.8219 7.54077C5.42192 5.77269 7.04849 4.56264 8.87107 4.44814H8.87057ZM13.6058 9.58986L11.3937 9.07934C11.7177 7.39727 11.6512 5.92521 11.2457 4.99617C12.9037 5.87171 13.8758 7.68128 13.6058 9.58986ZM9.29859 13.5226C10.1001 12.8295 10.8287 11.434 11.2527 9.6894L13.4648 10.1999C12.9582 12.1185 11.2227 13.4316 9.29859 13.5226ZM10.6641 9.55336C10.0506 12.0255 8.81907 13.562 8.08854 13.3935C7.3375 13.22 6.91998 11.3239 7.45701 8.81333L10.6641 9.55336ZM10.0966 4.60214C10.8272 4.77115 11.2482 6.56073 10.7846 8.93883L7.57751 8.1983C8.20354 5.8577 9.38609 4.43814 10.0966 4.60214ZM4.67639 8.17132L6.82748 8.66785C6.44396 10.4214 6.49196 11.975 6.90798 12.9495C5.24391 12.0085 4.31587 10.1019 4.67639 8.17132ZM3.67985 13.394C3.15983 13.6861 2.4768 13.5241 2.20029 13.0045C1.89128 12.4855 2.07028 11.8205 2.59031 11.512L2.83432 11.415V10.6684C2.83832 10.5354 2.94532 10.4284 3.07833 10.4254C3.21133 10.4284 3.31834 10.5354 3.32234 10.6684V11.3825C3.63135 11.431 3.92386 11.6095 4.08637 11.9015C4.26538 12.2095 4.26538 12.583 4.13537 12.891C4.15187 12.907 4.18437 12.907 4.20038 12.9235L4.98091 13.3775C5.08941 13.451 5.11692 13.5986 5.04341 13.7066C4.97541 13.8066 4.8434 13.8396 4.7369 13.7831L3.95686 13.329C3.92236 13.3105 3.89386 13.2825 3.87536 13.248L3.68035 13.394H3.67985ZM2.81831 6.58022C2.5253 6.51522 2.29829 6.32021 2.15178 6.0607C1.84277 5.54168 2.02178 4.87665 2.5418 4.56864C2.71081 4.47314 2.90132 4.42313 3.09482 4.42263C3.17583 4.42263 3.27333 4.42263 3.37134 4.45464C3.54984 4.50364 3.69635 4.58464 3.82636 4.69815C3.84286 4.69815 3.84286 4.68214 3.85886 4.68214L4.63939 4.24413C4.67389 4.22363 4.71339 4.21263 4.75339 4.21163C4.8344 4.21163 4.9159 4.26013 4.9649 4.34163C5.02991 4.45464 4.9809 4.60064 4.8669 4.66564L4.10287 5.10366C4.20037 5.33067 4.21687 5.57418 4.15187 5.80119C4.08437 6.0837 3.90136 6.32521 3.64735 6.46622C3.54284 6.53072 3.42684 6.57472 3.30583 6.59622V7.43976C3.30233 7.57277 3.19533 7.67977 3.06232 7.68327C2.92932 7.68027 2.82181 7.57327 2.81831 7.43976V6.57972V6.58022ZM16.0544 4.94216C16.3634 5.46119 16.1844 6.14222 15.6804 6.41823C15.5913 6.46273 15.4988 6.50073 15.4043 6.53173V7.24576C15.4008 7.37877 15.2933 7.48577 15.1603 7.48878C15.0273 7.48577 14.9198 7.37877 14.9163 7.24576V6.54823C14.5998 6.50073 14.3233 6.30872 14.1683 6.02871C13.9938 5.7387 13.9698 5.38268 14.1033 5.07167L13.3553 4.65015C13.2412 4.58515 13.1927 4.43914 13.2577 4.32514C13.3012 4.24813 13.3813 4.19913 13.4693 4.19563C13.5018 4.19563 13.5503 4.21213 13.5828 4.22813L14.3633 4.66615C14.3633 4.68265 14.3798 4.68265 14.3798 4.68265C14.4283 4.63365 14.4933 4.58515 14.5588 4.55265C14.7273 4.45764 14.9173 4.40714 15.1113 4.40664C15.1928 4.40664 15.2903 4.40664 15.3878 4.43914C15.6644 4.50415 15.9079 4.68265 16.0544 4.94216ZM11.5017 3.64411C11.3717 3.57911 11.3392 3.4171 11.4042 3.3196C11.4472 3.24259 11.5272 3.19359 11.6152 3.18959C11.6477 3.18959 11.6967 3.20609 11.7292 3.22259L12.6562 3.74161C12.7697 3.80662 12.8187 3.95262 12.7537 4.06613C12.6887 4.17963 12.5422 4.22814 12.4287 4.16313L11.5017 3.64411ZM15.1603 8.1218C15.2903 8.1218 15.4043 8.2188 15.4043 8.36481V9.46786C15.4008 9.60086 15.2933 9.70837 15.1603 9.71137C15.0273 9.70837 14.9198 9.60086 14.9163 9.46786V8.36531C14.9198 8.2323 15.0273 8.1253 15.1603 8.1223V8.1218ZM11.0462 14.9351C11.1112 15.0651 11.0627 15.2106 10.9652 15.2431L10.2331 15.6486C10.3306 16.1031 10.1356 16.6062 9.71311 16.8492C9.19258 17.1552 8.52255 16.9807 8.21704 16.4602C8.07904 16.2251 8.03253 15.9481 8.08704 15.6811L7.38751 15.2761C7.2755 15.2096 7.2385 15.0646 7.305 14.9526C7.3055 14.9521 7.306 14.9516 7.306 14.9511C7.3555 14.8836 7.43351 14.8416 7.51751 14.8376C7.56651 14.8376 7.61502 14.8541 7.64752 14.8701L8.29805 15.2431C8.39555 15.1296 8.49305 15.0486 8.62306 14.9676C8.79157 14.8721 8.98207 14.8221 9.17608 14.8216C9.4851 14.8216 9.81061 14.9676 10.0216 15.2266L10.7211 14.8376C10.7536 14.8216 10.7862 14.8051 10.8347 14.8051C10.9162 14.8051 10.9977 14.8541 11.0462 14.9351ZM12.6887 13.767C12.7697 13.767 12.8513 13.8155 12.8998 13.897C12.9648 14.0105 12.9163 14.1565 12.8022 14.221L11.8757 14.7406C11.7617 14.8056 11.6157 14.7566 11.5507 14.6431C11.4857 14.5296 11.5342 14.3831 11.6477 14.3186L12.5747 13.7995C12.6092 13.7795 12.6487 13.768 12.6887 13.767ZM13.7293 13.7021C13.6208 13.7676 13.4803 13.7331 13.4148 13.6246C13.4113 13.6181 13.4078 13.6121 13.4043 13.6051C13.3393 13.491 13.3878 13.345 13.5018 13.28L14.1358 12.9235C14.0253 12.6965 14.0023 12.4365 14.0708 12.1935C14.1383 11.911 14.3213 11.67 14.5748 11.5285C14.6798 11.4645 14.7953 11.42 14.9163 11.3985V10.5554C14.9198 10.4224 15.0273 10.3154 15.1603 10.3124C15.2934 10.3154 15.4009 10.4224 15.4044 10.5554V11.4155C15.6804 11.4805 15.9244 11.6585 16.0709 11.918C16.3799 12.4375 16.2009 13.1025 15.6809 13.4105C15.4319 13.5606 15.1313 13.6016 14.8508 13.524C14.6943 13.4905 14.5493 13.418 14.4283 13.3135L13.7293 13.7026V13.7021ZM5.85894 13.8646L6.75348 14.3996C6.86148 14.4731 6.88948 14.6206 6.81598 14.7291C6.74798 14.8286 6.61597 14.8616 6.50947 14.8051L5.59893 14.2701C5.48692 14.2036 5.44992 14.0586 5.51642 13.9471C5.51692 13.9466 5.51692 13.9456 5.51742 13.9451C5.56743 13.8776 5.64493 13.8361 5.72893 13.8321C5.77793 13.8321 5.82644 13.8481 5.85894 13.8646ZM3.06232 8.26781C3.19532 8.27131 3.30233 8.37782 3.30583 8.51082V9.58187C3.30233 9.71487 3.19532 9.82188 3.06232 9.82488C2.92931 9.82188 2.8218 9.71487 2.8183 9.58187V8.51032C2.8218 8.37732 2.92931 8.27081 3.06232 8.26731V8.26781ZM7.3225 3.02759C7.25749 2.89758 7.28999 2.75207 7.404 2.71957L8.00553 2.37906C7.87552 1.90854 8.07053 1.40552 8.50955 1.14601C8.67805 1.0505 8.86906 1 9.06257 1C9.43659 1 9.7941 1.19501 10.0056 1.55152C10.1521 1.81153 10.1846 2.10305 10.1191 2.36256L10.8021 2.73557C10.9162 2.80058 10.9652 2.94658 10.8996 3.06059C10.8346 3.17359 10.6886 3.22259 10.5746 3.15759L9.90811 2.78458C9.8261 2.88258 9.7266 2.96508 9.61509 3.02759C9.14357 3.2876 8.57505 3.19009 8.23304 2.80058L7.64801 3.12559C7.53401 3.19009 7.388 3.14159 7.3225 3.02759ZM5.46892 4.06613C5.40342 3.95862 5.43742 3.81812 5.54493 3.75262C5.55193 3.74862 5.55893 3.74461 5.56643 3.74111L6.49297 3.22259C6.52747 3.20209 6.56697 3.19109 6.60697 3.19009C6.68848 3.19009 6.76948 3.23859 6.81848 3.3201C6.88349 3.4336 6.83448 3.57911 6.72098 3.64411L5.79394 4.16313C5.67993 4.22814 5.53393 4.17963 5.46892 4.06613Z" fill="url(#paint0_linear11)"/>
<defs>
<linearGradient id="paint0_linear11" x1="2" y1="17" x2="17.9181" y2="2.91627" gradientUnits="userSpaceOnUse">
<stop stop-color="#AE25B4"/>
<stop offset="1" stop-color="#632CA6"/>
</linearGradient>
</defs>
</svg>
