<svg xmlns="http://www.w3.org/2000/svg" viewBox="0 0 192 192" width="192" height="192">
<path d="M161.266 12L52.6865 12C45.3234 12 38.6168 16.4483 35.5961 23.3371C35.5961 23.3371 15.9526 78.9261 12.5843 88.8686C10.4947 95.0433 13.9445 108.153 23.9893 108.191C27.6194 108.203 71.1543 108.191 71.1543 108.191C66.2112 120.25 63.2291 131.94 63.2291 148.986C63.2291 149.024 63.2548 149.049 63.2548 149.087C63.2548 149.124 63.2291 149.15 63.2291 149.187C63.2291 159.764 70.6179 168.955 77.2001 175.638C82.5164 181.031 90.3944 181.481 95.9296 176.667C101.246 172.038 101.31 165.695 101.323 160.575C101.332 159.239 99.9801 153.358 101.838 150.557C107.622 141.824 136.019 108.191 136.019 108.191L161.262 108.229C171.594 108.245 180 99.4622 180 88.8686L180 31.2172C180 20.6194 171.594 12 161.266 12ZM123.172 103.196C123.172 103.196 96.1441 135.586 90.2914 146.226C86.9145 152.363 88.9312 166.279 88.0602 167.031C87.5024 167.497 86.8802 167.804 85.9276 166.821C83.0699 163.851 75.4923 155.967 75.4923 148.99C75.4923 148.028 75.5052 147.108 75.5223 146.226C75.7927 133.751 77.9939 128.378 82.4563 117.474L85.6015 108.191C86.1379 106.859 86.6871 102.613 86.6099 99.2438C86.5627 97.1015 84.7305 95.8792 82.5422 95.8792H82.4563L22.5605 96.0094L46.7737 28.5037C47.8121 26.122 50.1291 24.5804 52.6736 24.5804L123.172 24.5804L123.172 103.196ZM167.741 24.6014L167.741 96.0094H136.019L136.019 24.5804L161.266 24.6014C164.836 24.593 167.741 24.6014 167.741 24.6014Z"/>
</svg>
