<svg width="30" height="30" viewBox="0 0 30 30" fill="none" xmlns="http://www.w3.org/2000/svg">
<circle cx="15" cy="15" r="15" fill="default-fill"/>
<path d="M24.1775 10.1807C23.5119 10.4606 22.8464 10.6706 22.1068 10.7405C22.8464 10.3207 23.438 9.62093 23.7338 8.85119C22.9943 9.27105 22.2547 9.55095 21.4412 9.69091C20.7756 8.99115 19.8142 8.57129 18.7789 8.57129C16.7821 8.57129 15.1551 10.1108 15.1551 12.0001C15.1551 12.28 15.1551 12.5599 15.229 12.7699C12.123 12.6299 9.4606 11.2304 7.68569 9.1311C7.31592 9.69091 7.16801 10.2507 7.16801 10.8805C7.16801 12.0701 7.8336 13.1197 8.79501 13.7495C8.20337 13.7495 7.61174 13.6096 7.16801 13.3297C7.16801 13.3297 7.16801 13.3297 7.16801 13.3996C7.16801 15.0791 8.42524 16.4786 10.0522 16.7585C9.75642 16.8285 9.4606 16.8984 9.09083 16.8984C8.86896 16.8984 8.6471 16.8984 8.42524 16.8285C8.86896 18.228 10.2001 19.2076 11.8271 19.2076C10.5699 20.1173 9.01687 20.6771 7.31592 20.6771C7.0201 20.6771 6.72428 20.6771 6.42847 20.6072C8.05546 21.5868 9.97828 22.1466 11.975 22.1466C18.7049 22.1466 22.3287 16.8984 22.3287 12.35C22.3287 12.21 22.3287 12.0701 22.3287 11.9301C23.0682 11.4403 23.6599 10.8105 24.1775 10.1807Z" fill="white"/>
</svg>
