<svg width="16" height="16" viewBox="0 0 16 16" fill="none" xmlns="http://www.w3.org/2000/svg">
<path fill-rule="evenodd" clip-rule="evenodd" d="M6.288 2.864V9.712C6.288 9.872 6.22933 10.0053 6.112 10.112C5.99467 10.2187 5.86133 10.2773 5.712 10.288V15.424C5.712 15.584 5.65867 15.7173 5.552 15.824C5.44533 15.9307 5.30667 15.9893 5.136 16H0.576C0.415999 16 0.282667 15.9413 0.176 15.824C0.0693328 15.7067 0.0106667 15.5733 0 15.424V10.864L2.224 3.056C2.26667 2.928 2.35733 2.864 2.496 2.864H6.288ZM9.13602 2.864V9.136H6.86401V2.864H9.13602ZM16 10.864V15.424C16 15.584 15.9413 15.7173 15.824 15.824C15.7067 15.9307 15.5733 15.9893 15.424 16H10.864C10.704 16 10.5707 15.9413 10.464 15.824C10.3573 15.7067 10.2987 15.5733 10.288 15.424V10.288C10.128 10.288 9.99467 10.2293 9.88801 10.112C9.78134 9.99466 9.72267 9.86133 9.71201 9.712V2.864H13.504C13.6427 2.864 13.7333 2.928 13.776 3.056L16 10.864ZM6.57601 0.288V2.288H3.42401V0.288C3.42401 0.202666 3.45068 0.133334 3.50401 0.08C3.55734 0.0266664 3.62668 0 3.71201 0H6.28801C6.37334 0 6.44267 0.0266664 6.49601 0.08C6.54934 0.133334 6.57601 0.202666 6.57601 0.288ZM12.576 0.288V2.288H9.42401V0.288C9.42401 0.202666 9.45068 0.133334 9.50401 0.08C9.55734 0.0266664 9.62668 0 9.71201 0H12.288C12.3733 0 12.4427 0.0266664 12.496 0.08C12.5493 0.133334 12.576 0.202666 12.576 0.288Z" fill="url(#paint0_linear)"/>
<defs>
<linearGradient id="paint0_linear" x1="4" y1="-3" x2="19.2521" y2="3.31502" gradientUnits="userSpaceOnUse">
<stop stop-color="#C025B6"/>
<stop stop-color="#C025B6"/>
<stop offset="1" stop-color="#3023AE"/>
</linearGradient>
</defs>
</svg>
