<svg width="20" height="20" viewBox="0 0 20 20" fill="none" xmlns="http://www.w3.org/2000/svg">
<path d="M4.41094 16.3573C4.41137 16.1542 4.3331 15.9589 4.19258 15.8123C4.12542 15.7353 4.04093 15.6754 3.94608 15.6375C3.85122 15.5996 3.74871 15.5847 3.64699 15.5942C3.44549 15.602 3.25286 15.6791 3.10156 15.8124C2.95573 15.9431 2.87565 16.1247 2.86133 16.3574C2.84701 16.5901 2.92708 16.7717 3.10156 16.9023C3.26078 17.0262 3.44824 17.1086 3.64715 17.1423C3.83611 17.1716 4.01797 17.0916 4.19273 16.9023C4.36721 16.7135 4.43995 16.5319 4.41094 16.3573ZM12.2705 11.2542L3.95234 19.5635C3.80811 19.7046 3.6374 19.8158 3.45002 19.8907C3.26265 19.9656 3.06232 20.0027 2.86055 19.9999C2.44702 20.0032 2.04813 19.847 1.74688 19.5637L0.458594 18.2329C0.152656 17.9423 -0.000208121 17.5788 2.12657e-07 17.1423C2.12657e-07 16.7204 0.152865 16.3496 0.458594 16.0298L8.75547 7.7418C9.07359 8.53442 9.54908 9.25432 10.1532 9.85803C10.7574 10.4617 11.4776 10.9367 12.2705 11.2542H12.2705ZM20 5.95431C20 6.27431 19.9053 6.70326 19.7159 7.24118C19.3366 8.31379 18.6352 9.24301 17.7076 9.90175C16.7616 10.5849 15.7136 10.9192 14.5636 10.9049C13.0501 10.9049 11.7619 10.3743 10.6989 9.31301C9.63637 8.25181 9.10512 6.96496 9.10512 5.45244C9.10512 3.94057 9.63637 2.661 10.6989 1.61374C11.7613 0.566872 13.0493 0.0289582 14.563 0C15.0584 0.00424542 15.5507 0.0776627 16.0258 0.218124C16.5351 0.363748 16.9718 0.552758 17.3359 0.785153C17.4667 0.872652 17.5321 0.98161 17.5324 1.11203C17.5326 1.24244 17.4671 1.35864 17.3359 1.46062L13.7773 3.51057V6.23743L16.1355 7.54602C16.1649 7.51665 16.485 7.3204 17.0959 6.95727C17.7072 6.59352 18.253 6.26644 18.7332 5.97603C19.2131 5.6854 19.5043 5.53999 19.6066 5.53978C19.6589 5.53773 19.711 5.54631 19.7598 5.565C19.8087 5.5837 19.8532 5.61211 19.8907 5.64853C19.9631 5.72119 20 5.82306 20 5.95431Z" fill="url(#paint0_linear)"/>
<defs>
<linearGradient id="paint0_linear" x1="6.21745" y1="-2.50785" x2="19.642" y2="20.2468" gradientUnits="userSpaceOnUse">
<stop stop-color="#B025B5"/>
<stop offset="1" stop-color="#3923AE"/>
</linearGradient>
</defs>
</svg>
