<svg width="18" height="18" viewBox="0 0 18 18" fill="none" xmlns="http://www.w3.org/2000/svg">
<path d="M3.96984 14.7216C3.97023 14.5388 3.89979 14.363 3.77332 14.2311C3.71288 14.1618 3.63684 14.1079 3.55147 14.0737C3.4661 14.0396 3.37384 14.0263 3.28229 14.0348C3.10094 14.0418 2.92757 14.1112 2.79141 14.2312C2.66016 14.3487 2.58809 14.5122 2.5752 14.7217C2.5623 14.9311 2.63438 15.0946 2.79141 15.212C2.9347 15.3235 3.10341 15.3978 3.28243 15.428C3.4525 15.4545 3.61617 15.3825 3.77346 15.212C3.93049 15.0422 3.99595 14.8787 3.96984 14.7216ZM11.0435 10.1288L3.55711 17.6072C3.4273 17.7342 3.27366 17.8342 3.10502 17.9017C2.93638 17.9691 2.75608 18.0025 2.57449 17.9999C2.20232 18.0029 1.84332 17.8623 1.57219 17.6073L0.412735 16.4096C0.137391 16.1481 -0.000187309 15.8209 1.91392e-07 15.4281C1.91392e-07 15.0484 0.137578 14.7146 0.412735 14.4268L7.87992 6.96762C8.16623 7.68098 8.59418 8.32889 9.1379 8.87222C9.68163 9.41556 10.3299 9.84303 11.0434 10.1288H11.0435ZM18 5.35888C18 5.64688 17.9148 6.03294 17.7443 6.51706C17.403 7.48241 16.7717 8.31871 15.9368 8.91158C15.0854 9.52639 14.1422 9.82732 13.1072 9.81438C11.7451 9.81438 10.5857 9.33682 9.62898 8.3817C8.67273 7.42663 8.19461 6.26846 8.19461 4.90719C8.19461 3.54651 8.67273 2.3949 9.62898 1.45237C10.5851 0.510185 11.7444 0.0260624 13.1067 0C13.5525 0.00382088 13.9956 0.0698964 14.4232 0.196312C14.8816 0.327374 15.2746 0.497482 15.6023 0.706637C15.72 0.785387 15.7789 0.883449 15.7791 1.00082C15.7794 1.1182 15.7204 1.22278 15.6023 1.31456L12.3996 3.15951V5.61369L14.5219 6.79142C14.5484 6.76498 14.8365 6.58836 15.3863 6.26155C15.9364 5.93417 16.4277 5.6398 16.8599 5.37842C17.2918 5.11686 17.5538 4.98599 17.646 4.9858C17.693 4.98395 17.7399 4.99168 17.7838 5.0085C17.8278 5.02533 17.8679 5.0509 17.9016 5.08368C17.9668 5.14907 18 5.24075 18 5.35888Z" fill="url(#paint0_linear12)"/>
<defs>
<linearGradient id="paint0_linear12" x1="4.90513e-07" y1="18.0001" x2="18.0421" y2="0.0423224" gradientUnits="userSpaceOnUse">
<stop stop-color="#AE25B4"/>
<stop offset="1" stop-color="#632CA6"/>
</linearGradient>
</defs>
</svg>
