<svg width="17" height="17" viewBox="0 0 17 17" fill="none" xmlns="http://www.w3.org/2000/svg">
<path d="M3.7493 13.9037C3.74966 13.7311 3.68314 13.565 3.56369 13.4404C3.50661 13.375 3.43479 13.3241 3.35416 13.2918C3.27354 13.2596 3.1864 13.247 3.09994 13.255C2.92867 13.2617 2.76493 13.3272 2.63633 13.4405C2.51237 13.5516 2.4443 13.706 2.43213 13.9038C2.41995 14.1016 2.48802 14.2559 2.63633 14.3669C2.77166 14.4722 2.931 14.5423 3.10008 14.5709C3.26069 14.5959 3.41527 14.5279 3.56382 14.3669C3.71213 14.2065 3.77396 14.0521 3.7493 13.9037V13.9037ZM10.43 9.56608L3.35949 16.6289C3.23689 16.7489 3.09179 16.8434 2.93252 16.9071C2.77325 16.9707 2.60297 17.0023 2.43147 16.9999C2.07996 17.0027 1.74091 16.8699 1.48484 16.6291L0.389805 15.4979C0.129758 15.2509 -0.000176903 14.9419 1.80759e-07 14.5709C1.80759e-07 14.2123 0.129935 13.8971 0.389805 13.6253L7.44215 6.58051C7.71255 7.25423 8.11672 7.86615 8.63024 8.3793C9.14376 8.89244 9.75598 9.29617 10.4299 9.56608H10.43ZM17 5.06115C17 5.33315 16.9195 5.69776 16.7585 6.15498C16.4361 7.0667 15.8399 7.85654 15.0514 8.41646C14.2473 8.99712 13.3565 9.28133 12.3791 9.26911C11.0926 9.26911 9.9976 8.81809 9.09404 7.91603C8.19091 7.01402 7.73935 5.92019 7.73935 4.63456C7.73935 3.34947 8.19091 2.26185 9.09404 1.37168C9.99707 0.48184 11.0919 0.0246144 12.3785 0C12.7996 0.0036086 13.2181 0.0660131 13.6219 0.185405C14.0548 0.309185 14.426 0.469843 14.7355 0.667378C14.8467 0.741752 14.9023 0.834366 14.9025 0.945219C14.9027 1.05607 14.8471 1.15484 14.7355 1.24152L11.7107 2.98398V5.3018L13.7151 6.4141C13.7402 6.38913 14.0123 6.22232 14.5315 5.91366C15.0511 5.60448 15.515 5.32646 15.9233 5.07961C16.3312 4.83258 16.5786 4.70898 16.6656 4.7088C16.7101 4.70705 16.7544 4.71435 16.7959 4.73024C16.8374 4.74613 16.8752 4.77028 16.9071 4.80124C16.9686 4.86299 17 4.94959 17 5.06115Z" fill="url(#paint0_linear14)"/>
<defs>
<linearGradient id="paint0_linear14" x1="4.63262e-07" y1="17" x2="17.0397" y2="0.0399205" gradientUnits="userSpaceOnUse">
<stop stop-color="#AE25B4"/>
<stop offset="1" stop-color="#632CA6"/>
</linearGradient>
</defs>
</svg>
