<svg width="21" height="14" viewBox="0 0 21 14" fill="none" xmlns="http://www.w3.org/2000/svg">
<path fill-rule="evenodd" clip-rule="evenodd" d="M20.4315 2.17586C20.2004 1.31967 19.525 0.643913 18.6647 0.417482C17.104 0 10.8509 0 10.8509 0C10.8509 0 4.60138 0 3.04077 0.417482C2.18048 0.647451 1.50149 1.31967 1.27397 2.17586C0.854492 3.72904 0.854492 6.96629 0.854492 6.96629C0.854492 6.96629 0.854492 10.2035 1.27397 11.7567C1.50504 12.6129 2.18048 13.2887 3.04077 13.5151C4.60138 13.9326 10.8545 13.9326 10.8545 13.9326C10.8545 13.9326 17.1076 13.9326 18.6682 13.5151C19.5285 13.2851 20.2075 12.6129 20.435 11.7567C20.8545 10.2035 20.8545 6.96629 20.8545 6.96629C20.8545 6.96629 20.8509 3.72904 20.4315 2.17586ZM8.85307 9.95235V3.98023L14.0468 6.96629L8.85307 9.95235Z" fill="white"/>
</svg>
