<svg width="72" height="72" viewBox="0 0 72 72" fill="none" xmlns="http://www.w3.org/2000/svg">
<path d="M35.7469 41.805C33.6939 40.4722 31.8058 38.9012 30.1219 37.125C29.9475 36.9956 29.9756 36.4219 29.9756 36.4219C32.6408 38.4468 35.6127 40.0324 38.7787 41.1187C39.6835 41.4109 40.6373 41.52 41.5847 41.4399C42.5321 41.3597 43.454 41.0918 44.2968 40.6519C45.9468 39.7061 47.3877 38.4355 48.5325 36.9169L48.7237 37.2487C48.5466 37.8477 48.3032 38.425 47.9981 38.97C48.393 39.1839 48.8177 39.3375 49.2581 39.4256L52.6331 38.9025C53.3627 37.7097 53.8391 36.3796 54.0326 34.9948C54.2262 33.61 54.1327 32.2002 53.7581 30.8531C53.235 29.1656 50.5012 25.7344 50.3044 25.5487C49.6181 24.8906 50.4225 22.3425 49.0612 19.5581C47.6156 16.6162 43.875 13.5506 42.2381 12.2175C42.7162 12.5662 45.6693 13.7587 47.0475 15.4181C47.1768 15.2494 47.2275 14.355 47.3456 14.13C46.1643 12.5775 46.0744 9.82125 46.0744 9.0675C46.0187 8.07433 45.7863 7.09906 45.3881 6.1875C46.152 6.84956 46.676 7.74528 46.8787 8.73562C47.19 10.4549 47.929 12.0682 49.0275 13.4269C50.9569 15.8231 52.695 17.055 53.5725 16.1719C54.63 15.1031 52.5093 10.3387 49.7981 7.67812C46.6368 4.57313 45.81 4.9725 43.9537 5.63625C42.4743 6.165 41.7037 10.3612 37.8169 10.2825C37.1644 10.2037 35.4825 10.1644 34.6444 10.17C35.0775 9.5625 35.4375 9.11812 35.4375 9.11812C34.6154 9.45651 33.8168 9.84926 33.0469 10.2937L32.9625 10.17C33.1763 9.71448 33.4405 9.28431 33.75 8.8875C33.0683 9.30815 32.4093 9.76441 31.7756 10.2544C31.8893 9.67626 32.1734 9.14538 32.5912 8.73C32.5912 8.73 31.2862 8.96062 29.6212 10.7944C28.2862 11.169 26.9931 11.6798 25.7625 12.3187C23.3156 11.7844 22.1569 10.9181 21.0544 9.33187C20.2162 8.1225 18.72 7.93688 17.2012 8.56125C14.9512 9.48375 12.1387 10.7381 12.1387 10.7381C12.1387 10.7381 13.0556 10.7044 14.0119 10.7381C13.1355 11.0817 12.2792 11.4742 11.4469 11.9137C11.4469 11.9137 12.06 11.9137 12.8194 11.9137C12.4106 12.2628 11.9803 12.5859 11.5312 12.8812C10.7622 13.4489 10.0382 14.0752 9.3656 14.7544C9.86668 14.5338 10.3815 14.3459 10.9069 14.1919C10.4006 15.3562 9.3881 16.2169 9.57373 17.6456C9.75373 18.9562 11.3569 21.645 13.4269 23.2706C13.6069 23.4169 16.4306 26.0325 18.5625 24.9581C20.6944 23.8837 21.5381 22.9331 21.8869 21.465C22.2975 19.7775 22.0669 18.5062 21.1837 14.8556C20.8912 13.6519 20.1375 11.1656 19.7719 9.97875L19.8562 9.91687C21.1151 12.4932 22.1867 15.157 23.0625 17.8875C24.1875 21.9375 23.8275 24.0075 23.31 24.75C21.7631 27 17.7975 27.3262 15.9975 26.0662C15.7219 30.4425 16.695 32.3662 17.0269 33.3337C16.8637 34.4587 17.5894 36.5231 17.5894 36.5231C17.635 36.027 17.7743 35.5441 18 35.1C18.1033 35.9334 18.319 36.7489 18.6412 37.5244C18.6265 37.0079 18.6987 36.4925 18.855 36C19.1471 36.4232 19.4685 36.8255 19.8169 37.2037C20.0249 37.9433 20.362 38.6402 20.8125 39.2625C20.7621 38.8327 20.7621 38.3985 20.8125 37.9687C22.4662 39.555 22.7531 41.9062 22.9162 43.6612C23.355 48.5606 15.1875 52.4531 13.5731 55.5244C12.3694 57.3412 11.6494 60.21 13.6856 61.9087C18.6131 65.9981 16.7231 67.1231 19.1869 68.9231C22.5619 71.3869 26.8031 70.2844 28.2431 68.2762C30.2456 65.4637 29.7337 62.8481 28.9856 60.4012C28.4231 58.4719 26.8256 55.2712 24.8681 54.0281C23.2036 52.9468 21.2158 52.4756 19.2431 52.695L19.395 52.5206C21.7687 52.0481 24.2437 52.3069 26.0381 53.4656C28.0744 54.7706 29.9362 57.015 30.9094 60.4575C32.0344 60.3 32.1694 60.2269 33.1594 60.0862L30.9094 42.3675L35.7469 41.805ZM47.1656 19.6875C49.2637 20.6606 48.9881 22.5 49.0443 23.625C49.0697 23.8474 49.0697 24.072 49.0443 24.2944C48.5839 24.0824 48.0747 23.9988 47.5706 24.0525C47.3632 24.0629 47.1566 24.0855 46.9519 24.12C46.1847 23.6183 45.5944 22.8883 45.2644 22.0331L45.1687 21.8137L45.1294 21.7181V21.6731C44.8931 20.9362 45.0506 20.79 45.1294 20.5481C45.2081 20.3062 45.6075 20.1206 45.045 19.9294C44.9881 19.9111 44.9298 19.898 44.8706 19.89C45.2643 19.4287 46.3725 19.3162 47.1656 19.6875ZM44.5781 31.8544C44.9831 31.5337 46.8281 30.9431 48.5662 30.7294C49.4662 30.6225 50.7487 30.5662 51.0243 30.7294C51.5868 31.0275 51.5868 31.9556 51.1987 32.8219C50.6362 34.0706 49.8881 35.4487 49.0162 35.5612C47.5987 35.7525 46.2544 34.9987 44.7243 33.84C44.5624 33.7346 44.4269 33.5931 44.3286 33.4267C44.2303 33.2603 44.1718 33.0734 44.1577 32.8806C44.1435 32.6879 44.1741 32.4944 44.247 32.3154C44.32 32.1364 44.4333 31.9767 44.5781 31.8487V31.8544ZM31.1287 22.3594C33.3787 20.8237 36.2812 21.4312 35.7975 21.8925C34.8693 22.77 36.1012 22.5112 36.2362 24.1425C36.2986 24.5408 36.2746 24.9478 36.1659 25.336C36.0572 25.7242 35.8664 26.0845 35.6062 26.3925C34.7268 26.5144 33.8606 26.7178 33.0187 27C32.4723 27.1802 31.937 27.3924 31.4156 27.6356C31.2724 27.5412 31.1353 27.4378 31.005 27.3263C30.6276 27.0269 30.325 26.6439 30.1208 26.2076C29.9167 25.7713 29.8167 25.2935 29.8287 24.812C29.8407 24.3304 29.9644 23.8582 30.19 23.4326C30.4156 23.007 30.7369 22.6396 31.1287 22.3594ZM64.9406 38.0081L46.6537 41.3269C46.0534 42.0582 45.3416 42.6904 44.5443 43.2C43.7521 43.6322 42.8797 43.8977 41.981 43.9799C41.0823 44.0621 40.1762 43.9594 39.3187 43.6781C38.603 43.5234 37.904 43.2993 37.2319 43.0087L32.76 43.6275L35.4768 66.24L66.8081 60.615L64.9406 38.0081ZM37.0575 64.08L36.7987 61.6219L41.9118 53.8144L47.7225 55.5019L52.7175 47.1544L58.7081 51.0919L63.2644 41.5294L64.8787 58.9162L37.0575 64.08Z" fill="white"/>
</svg>
