<svg xmlns="http://www.w3.org/2000/svg" viewBox="0 0 192 192" width="192" height="192">
    <path d="M96,8C50.393,8,16,25.2,16,48v96c0,22.8,34.393,40,80,40s80-17.2,80-40V48C176,25.2,141.607,8,96,8ZM48.337,32.683C60.936,27.083,77.863,24,96,24c39.068,0,64,14.214,64,24,0,4.969-6.26,10.838-16.337,15.317C131.064,68.917,114.138,72,96,72,56.932,72,32,57.786,32,48,32,43.031,38.26,37.162,48.337,32.683Zm95.326,126.633C131.064,164.916,114.137,168,96,168c-39.068,0-64-14.215-64-24V120.577C46.356,130.075,69.242,136,96,136s49.644-5.925,64-15.423V144C160,148.969,153.74,154.838,143.663,159.316Zm0-48C131.064,116.916,114.137,120,96,120c-39.068,0-64-14.215-64-24V72.577C46.356,82.075,69.242,88,96,88s49.644-5.925,64-15.423V96C160,100.969,153.74,106.838,143.663,111.316ZM96,95.86a151.433,151.433,0,0,0,16-.83v16.1c-5.14.48-10.49.73-16,.73Zm47.66-8.69c.12-.05.23-.1.34-.15v17.27a113.137,113.137,0,0,1-16,4.47V92.34A90.144,90.144,0,0,0,143.66,87.17ZM96,144a151.433,151.433,0,0,0,16-.83v16.1c-5.14.48-10.49.73-16,.73Zm47.66-8.69c.12-.05.23-.1.34-.15v17.27a113.137,113.137,0,0,1-16,4.47v-16.42A90.144,90.144,0,0,0,143.66,135.312Z"/>
</svg>
