<svg xmlns="http://www.w3.org/2000/svg" viewBox="0 0 192 192" width="192" height="192">
    <path d="M96,136a40,40,0,1,1,40-40A40.045,40.045,0,0,1,96,136Zm0-64a24,24,0,1,0,24,24A24.028,24.028,0,0,0,96,72Zm0,92C35.749,164,4.16,102.208,2.845,99.578L1.056,96l1.789-3.578C4.16,89.792,35.749,28,96,28s91.84,61.792,93.155,64.422L190.944,96l-1.789,3.578C187.84,102.208,156.252,164,96,164ZM19.165,96C26.457,108.305,53.3,148,96,148s69.544-39.7,76.836-52C165.551,83.708,138.706,44,96,44S26.457,83.7,19.165,96Z"/>
</svg>
