<svg width="32" height="32" viewBox="0 0 30 30" fill="none" xmlns="http://www.w3.org/2000/svg">
<path d="M27.8504 0H2.14956C0.963597 0 0 0.963597 0 2.14956V27.8504C0 29.0364 0.963597 30 2.14956 30H27.8504C29.0364 30 30 29.0364 30 27.8504V2.14956C30 0.963597 29.0364 0 27.8504 0ZM8.7465 25.7898H4.29419C4.29419 25.7898 4.27936 25.7799 4.27936 25.775V11.3112C4.27936 11.3112 4.28924 11.2963 4.29419 11.2963H8.75144C8.75144 11.2963 8.76627 11.3062 8.76627 11.3112V25.775C8.76627 25.775 8.75638 25.7898 8.75144 25.7898H8.7465ZM6.49811 9.39878C5.03047 9.39878 3.84451 8.20293 3.84451 6.72542C3.84451 5.2479 5.03047 4.05205 6.49811 4.05205C7.96574 4.05205 9.15171 5.2479 9.15171 6.72542C9.15171 8.20293 7.96574 9.39878 6.49811 9.39878V9.39878ZM25.5675 25.7898H21.1349C21.1349 25.7898 21.1201 25.7799 21.1201 25.775V18.1848C21.1201 16.0995 20.3294 14.9333 18.674 14.9333C16.8753 14.9333 15.9414 16.1489 15.9414 18.1848V25.775C15.9414 25.775 15.9315 25.7898 15.9265 25.7898H11.6571C11.6571 25.7898 11.6422 25.7799 11.6422 25.775V11.3112C11.6422 11.3112 11.6521 11.2963 11.6571 11.2963H15.9265C15.9265 11.2963 15.9414 11.3062 15.9414 11.3112V13.184C15.9414 13.184 15.9611 13.2087 15.971 13.1939C16.1835 12.843 17.5078 10.8516 20.3097 10.8516C23.3833 10.8516 25.5872 12.7294 25.5872 16.6134V25.775C25.5872 25.775 25.5773 25.7898 25.5724 25.7898H25.5675Z" fill="white"/>
</svg>
