<svg width="48" height="48" viewBox="0 0 48 48" fill="" xmlns="http://www.w3.org/2000/svg">
<g id="Logs">
<path id="Vector" d="M28.1375 9.81131C21.6141 10.8028 16.3957 15.6567 14.7773 22.1801C13.4723 27.085 14.7773 31.678 17.0742 35.2269L9.87276 42.4283C8.56785 43.7333 8.56785 45.7163 9.87276 47.0212C11.1777 48.3262 13.1608 48.3262 14.4658 47.0212L21.6161 39.8198C25.2176 42.1167 29.809 43.4213 34.6629 42.1167C40.8728 40.4472 45.7792 34.9153 46.7707 28.3917C48.0737 17.6397 38.9403 8.50641 28.1375 9.81131ZM30.4344 37.5219C24.2245 37.5219 19.0063 32.3035 19.0063 26.0938C19.0063 19.9364 24.2247 14.7165 30.4344 14.7165C36.6441 14.7165 41.8625 19.9349 41.8625 26.0938C41.8638 32.3035 36.6439 37.5219 30.434 37.5219H30.4344ZM23.9106 6.52341H14.1518V0H23.9106V6.52341ZM36.9574 6.52341H27.1985V0H36.9574V6.52341ZM11.8553 32.617H1.10498V26.0936H10.8638C10.8638 28.39 11.1773 30.6865 11.8553 32.617ZM15.7702 13.0468C14.1518 15.0297 12.8483 17.3262 11.8568 19.5702H1.10498V13.0468H15.7702ZM10.8638 6.52341H1.10498V0H10.8638V6.52341ZM35.3404 29.3812H25.8951C25.8951 29.3812 25.5295 28.3897 25.5295 27.7627C25.3495 24.2183 28.5039 21.2393 32.0529 21.2393C33.3578 21.2393 34.3498 21.5528 35.3408 22.1783L35.3404 29.3812Z" />
</g>
</svg>
