<svg id='Copy_to_Clipboard_24' width='24' height='24' viewBox='0 0 24 24' xmlns='http://www.w3.org/2000/svg' xmlns:xlink='http://www.w3.org/1999/xlink'><rect width='24' height='24' stroke='none' fill='#000000' opacity='0'/>


<g transform="matrix(0.28 0 0 0.28 12 12)" >
<path style="stroke: none; stroke-width: 1; stroke-dasharray: none; stroke-linecap: butt; stroke-dashoffset: 0; stroke-linejoin: miter; stroke-miterlimit: 4; fill: #632CA6; fill-rule: nonzero; opacity: 1;" transform=" translate(-44, -39.5)" d="M 40 4 C 37.050781 4 34.699219 6.191406 34.203125 9 L 18 9 C 16.355469 9 15 10.355469 15 12 L 15 64 C 15 65.644531 16.355469 67 18 67 L 62 67 C 63.644531 67 65 65.644531 65 64 L 65 12 C 65 10.355469 63.644531 9 62 9 L 45.796875 9 C 45.300781 6.191406 42.949219 4 40 4 Z M 40 6 C 42.21875 6 44 7.78125 44 10 L 44 11 L 50 11 L 50 15 C 50 15.566406 49.566406 16 49 16 L 31 16 C 30.433594 16 30 15.566406 30 15 L 30 11 L 36 11 L 36 10 C 36 7.78125 37.78125 6 40 6 Z M 40 9 C 39.449219 9 39 9.449219 39 10 C 39 10.550781 39.449219 11 40 11 C 40.550781 11 41 10.550781 41 10 C 41 9.449219 40.550781 9 40 9 Z M 18 11 L 28 11 L 28 15 C 28 16.644531 29.355469 18 31 18 L 49 18 C 50.644531 18 52 16.644531 52 15 L 52 11 L 62 11 C 62.566406 11 63 11.433594 63 12 L 63 64 C 63 64.566406 62.566406 65 62 65 L 18 65 C 17.433594 65 17 64.566406 17 64 L 17 12 C 17 11.433594 17.433594 11 18 11 Z M 36 37 C 35.449219 37 35 37.449219 35 38 C 35 38.550781 35.449219 39 36 39 C 36.550781 39 37 38.550781 37 38 C 37 37.449219 36.550781 37 36 37 Z M 40 37 C 39.449219 37 39 37.449219 39 38 C 39 38.550781 39.449219 39 40 39 C 40.550781 39 41 38.550781 41 38 C 41 37.449219 40.550781 37 40 37 Z M 44 37 C 43.449219 37 43 37.449219 43 38 C 43 38.550781 43.449219 39 44 39 C 44.550781 39 45 38.550781 45 38 C 45 37.449219 44.550781 37 44 37 Z M 48 37 C 47.449219 37 47 37.449219 47 38 C 47 38.550781 47.449219 39 48 39 C 48.550781 39 49 38.550781 49 38 C 49 37.449219 48.550781 37 48 37 Z M 52 37 C 51.449219 37 51 37.449219 51 38 C 51 38.550781 51.449219 39 52 39 C 52.550781 39 53 38.550781 53 38 C 53 37.449219 52.550781 37 52 37 Z M 56 37 C 55.449219 37 55 37.449219 55 38 C 55 38.550781 55.449219 39 56 39 C 56.550781 39 57 38.550781 57 38 C 57 37.449219 56.550781 37 56 37 Z M 60 37 C 59.449219 37 59 37.449219 59 38 C 59 38.550781 59.449219 39 60 39 C 60.550781 39 61 38.550781 61 38 C 61 37.449219 60.550781 37 60 37 Z M 68 37 C 67.449219 37 67 37.449219 67 38 C 67 38.550781 67.449219 39 68 39 C 68.550781 39 69 38.550781 69 38 C 69 37.449219 68.550781 37 68 37 Z M 72 37 C 71.449219 37 71 37.449219 71 38 C 71 38.550781 71.449219 39 72 39 C 72.550781 39 73 38.550781 73 38 C 73 37.449219 72.550781 37 72 37 Z M 36 41 C 35.449219 41 35 41.449219 35 42 C 35 42.550781 35.449219 43 36 43 C 36.550781 43 37 42.550781 37 42 C 37 41.449219 36.550781 41 36 41 Z M 72 41 C 71.449219 41 71 41.449219 71 42 C 71 42.550781 71.449219 43 72 43 C 72.550781 43 73 42.550781 73 42 C 73 41.449219 72.550781 41 72 41 Z M 36 45 C 35.449219 45 35 45.449219 35 46 C 35 46.550781 35.449219 47 36 47 C 36.550781 47 37 46.550781 37 46 C 37 45.449219 36.550781 45 36 45 Z M 72 45 C 71.449219 45 71 45.449219 71 46 C 71 46.550781 71.449219 47 72 47 C 72.550781 47 73 46.550781 73 46 C 73 45.449219 72.550781 45 72 45 Z M 36 49 C 35.449219 49 35 49.449219 35 50 C 35 50.550781 35.449219 51 36 51 C 36.550781 51 37 50.550781 37 50 C 37 49.449219 36.550781 49 36 49 Z M 72 49 C 71.449219 49 71 49.449219 71 50 C 71 50.550781 71.449219 51 72 51 C 72.550781 51 73 50.550781 73 50 C 73 49.449219 72.550781 49 72 49 Z M 36 53 C 35.449219 53 35 53.449219 35 54 C 35 54.550781 35.449219 55 36 55 C 36.550781 55 37 54.550781 37 54 C 37 53.449219 36.550781 53 36 53 Z M 72 53 C 71.449219 53 71 53.449219 71 54 C 71 54.550781 71.449219 55 72 55 C 72.550781 55 73 54.550781 73 54 C 73 53.449219 72.550781 53 72 53 Z M 36 57 C 35.449219 57 35 57.449219 35 58 C 35 58.550781 35.449219 59 36 59 C 36.550781 59 37 58.550781 37 58 C 37 57.449219 36.550781 57 36 57 Z M 72 57 C 71.449219 57 71 57.449219 71 58 C 71 58.550781 71.449219 59 72 59 C 72.550781 59 73 58.550781 73 58 C 73 57.449219 72.550781 57 72 57 Z M 36 61 C 35.449219 61 35 61.449219 35 62 C 35 62.550781 35.449219 63 36 63 C 36.550781 63 37 62.550781 37 62 C 37 61.449219 36.550781 61 36 61 Z M 72 61 C 71.449219 61 71 61.449219 71 62 C 71 62.550781 71.449219 63 72 63 C 72.550781 63 73 62.550781 73 62 C 73 61.449219 72.550781 61 72 61 Z M 72 65 C 71.449219 65 71 65.449219 71 66 C 71 66.550781 71.449219 67 72 67 C 72.550781 67 73 66.550781 73 66 C 73 65.449219 72.550781 65 72 65 Z M 36 69 C 35.449219 69 35 69.449219 35 70 C 35 70.550781 35.449219 71 36 71 C 36.550781 71 37 70.550781 37 70 C 37 69.449219 36.550781 69 36 69 Z M 72 69 C 71.449219 69 71 69.449219 71 70 C 71 70.550781 71.449219 71 72 71 C 72.550781 71 73 70.550781 73 70 C 73 69.449219 72.550781 69 72 69 Z M 36 73 C 35.449219 73 35 73.449219 35 74 C 35 74.550781 35.449219 75 36 75 C 36.550781 75 37 74.550781 37 74 C 37 73.449219 36.550781 73 36 73 Z M 40 73 C 39.449219 73 39 73.449219 39 74 C 39 74.550781 39.449219 75 40 75 C 40.550781 75 41 74.550781 41 74 C 41 73.449219 40.550781 73 40 73 Z M 44 73 C 43.449219 73 43 73.449219 43 74 C 43 74.550781 43.449219 75 44 75 C 44.550781 75 45 74.550781 45 74 C 45 73.449219 44.550781 73 44 73 Z M 48 73 C 47.449219 73 47 73.449219 47 74 C 47 74.550781 47.449219 75 48 75 C 48.550781 75 49 74.550781 49 74 C 49 73.449219 48.550781 73 48 73 Z M 52 73 C 51.449219 73 51 73.449219 51 74 C 51 74.550781 51.449219 75 52 75 C 52.550781 75 53 74.550781 53 74 C 53 73.449219 52.550781 73 52 73 Z M 56 73 C 55.449219 73 55 73.449219 55 74 C 55 74.550781 55.449219 75 56 75 C 56.550781 75 57 74.550781 57 74 C 57 73.449219 56.550781 73 56 73 Z M 60 73 C 59.449219 73 59 73.449219 59 74 C 59 74.550781 59.449219 75 60 75 C 60.550781 75 61 74.550781 61 74 C 61 73.449219 60.550781 73 60 73 Z M 64 73 C 63.449219 73 63 73.449219 63 74 C 63 74.550781 63.449219 75 64 75 C 64.550781 75 65 74.550781 65 74 C 65 73.449219 64.550781 73 64 73 Z M 68 73 C 67.449219 73 67 73.449219 67 74 C 67 74.550781 67.449219 75 68 75 C 68.550781 75 69 74.550781 69 74 C 69 73.449219 68.550781 73 68 73 Z M 72 73 C 71.449219 73 71 73.449219 71 74 C 71 74.550781 71.449219 75 72 75 C 72.550781 75 73 74.550781 73 74 C 73 73.449219 72.550781 73 72 73 Z" stroke-linecap="round" />
</g>
</svg>