<svg width="192" height="192" viewBox="0 0 192 192" fill="none" xmlns="http://www.w3.org/2000/svg">
<path d="M80.3922 148.271L102.243 135.652V150.074L67.906 169.895V79.7759L102.243 59.954V74.3756L80.3922 86.9867V123.033L85.0745 120.333L97.5529 127.536L97.5607 127.544L80.3922 137.455V148.271ZM111.608 54.5537V105.014L94.4392 114.925L106.918 122.127L106.925 122.135L124.094 112.224V61.7645L133.459 56.3564V117.633L111.608 130.252V144.665L145.945 124.843V34.7317L111.608 54.5537ZM85.0589 44.6349L46.0552 67.157V157.276L58.5414 164.487V74.367L97.5529 51.8449L85.0589 44.6349ZM136.572 29.3158L124.086 22.105L94.4314 39.2268L106.918 46.4376L136.572 29.3158Z" fill="url(#paint0_linear_cloudcraft_light_large)"/>
<defs>
<linearGradient id="paint0_linear_cloudcraft_light_large" x1="46.0552" y1="95.9848" x2="145.935" y2="95.9848" gradientUnits="userSpaceOnUse">
<stop stop-color="#6600FF"/>
<stop offset="1" stop-color="#E566FF"/>
</linearGradient>
</defs>
</svg>
