<svg width="100" height="100" xmlns="http://www.w3.org/2000/svg" viewBox="0 0 192 192">
  <defs>
    <style>.st0{fill:url(#linear-gradient1)}.st1{fill:url(#linear-gradient)}.st2{fill:#60f}.st3{fill:#9580ff}</style>
    <linearGradient id="linear-gradient" x1="96" y1="41" x2="96" y2="133" gradientTransform="translate(0 193) scale(1 -1)" gradientUnits="userSpaceOnUse">
      <stop offset="0" stop-color="#eae5ff"/><stop offset="1" stop-color="#eae5ff" stop-opacity="0"/>
    </linearGradient>
    <linearGradient id="linear-gradient1" x1="172" y1="111" x2="20" y2="111" gradientTransform="translate(0 193) scale(1 -1)" gradientUnits="userSpaceOnUse">
      <stop offset="0" stop-color="#e566ff"/><stop offset="1" stop-color="#60f"/>
    </linearGradient>
  </defs>
  <path class="st1" d="M41.8,85.5c.2.2.4.5.4.8,0,.7-.5,1.2-1.6,1.4v-2.9c.6.2,1,.5,1.2.7ZM150.6,82.7c-.4,0-.7.3-.9.8-.2.6-.3,1.3-.3,2.3s0,1.8.3,2.3.5.8.9.8c.8,0,1.1-1,1.1-3.1s-.4-3.1-1.1-3.1h0ZM137.4,80.4c.2-.5.3-1.3.3-2.3s0-1.8-.3-2.3-.5-.8-.9-.8-.7.3-.9.8c-.2.5-.3,1.3-.3,2.3s0,1.8.3,2.3c.2.6.5.8.9.8s.7-.3.9-.8ZM176,60v88c0,2.2-1.8,4-4,4H20c-2.2,0-4-1.8-4-4V60h160ZM46.3,86.1c0-1-.2-1.9-.8-2.5-.5-.6-1.2-1.2-2-1.6-.9-.4-1.8-.8-2.9-1.2v-3.5c.7,0,1.4.2,2.1.3.7.2,1.4.4,2.1.7l1.2-3.2c-.8-.3-1.6-.6-2.5-.8-.9-.2-1.8-.3-2.8-.4v-1.8h-2v1.9c-1.7.1-3,.6-4,1.4-1,.8-1.5,1.9-1.5,3.4s.2,1.8.6,2.4c.4.7,1,1.2,1.9,1.7.8.5,1.9.9,3.1,1.4v3.6c-.9,0-1.8-.2-2.8-.5-1-.3-1.8-.6-2.6-.9v3.7c.7.3,1.5.6,2.4.8s1.9.3,3,.3v2.4h2v-2.4c2-.2,3.4-.7,4.3-1.7s1.4-2.1,1.4-3.4h0ZM61.4,73.2h-13.5v3.7h8.7l-6.8,15.1h4.7l6.9-16.1v-2.7h0ZM79.1,92l-5.7-8.2,5.4-6.2h-4.9l-3.7,4.2c-.3.4-.6.8-.9,1.2s-.5.8-.7,1h0c0-.6.1-1.2.2-1.8s0-1.2,0-1.8v-8.4h-4.4v20h4.4v-4.2l1.7-1.3,3.7,5.5h5.1,0ZM129.8,85.2c0-1.3-.3-2.4-.8-3.3s-1.2-1.6-2.2-2.1-1.9-.7-3.1-.7-1.1,0-1.4,0c-.3,0-.6.1-.9.2l.3-3.2h6.8v-3.9h-10.8l-.7,10.1,1.8.9c.4,0,.8-.2,1.3-.3.5,0,1-.2,1.5-.2,1.2,0,2.1.2,2.7.7.6.5.9,1.1.9,2s-.3,1.7-.9,2.1-1.4.7-2.6.7-1.7-.1-2.7-.4c-.9-.2-1.8-.5-2.4-.9v3.9c.7.3,1.5.6,2.4.8s1.9.3,3,.3c2.6,0,4.6-.6,5.9-1.8,1.3-1.2,2-2.8,2-5ZM136.4,84.2c1.6,0,2.9-.5,3.6-1.6.8-1.1,1.2-2.6,1.2-4.5s-.4-3.4-1.3-4.5c-.9-1.1-2-1.6-3.6-1.6s-2.8.5-3.6,1.6c-.8,1.1-1.2,2.6-1.2,4.5s.4,3.4,1.2,4.5c.8,1.1,2,1.6,3.5,1.6h0ZM139.9,91.7l10.8-19.5h-3.5l-10.8,19.5h3.5ZM155.4,85.8c0-1.9-.4-3.4-1.3-4.5-.9-1.1-2-1.6-3.6-1.6s-2.8.5-3.6,1.6c-.8,1.1-1.2,2.6-1.2,4.5s.4,3.4,1.2,4.5c.8,1.1,2,1.6,3.5,1.6s2.9-.5,3.6-1.6c.8-1.1,1.2-2.6,1.2-4.5h0ZM37,78.6c0,.3.1.6.4.9s.6.5,1.2.7v-2.8c-1,.1-1.5.5-1.5,1.2h0Z"/>
  <path class="st2" d="M172,32H20c-6.6,0-12,5.4-12,12v104c0,6.6,5.4,12,12,12h152c6.6,0,12-5.4,12-12V44c0-6.6-5.4-12-12-12ZM20,40c2.2,0,4,1.8,4,4s-1.8,4-4,4-4-1.8-4-4,1.8-4,4-4ZM180,148c0,4.4-3.6,8-8,8H20c-4.4,0-8-3.6-8-8V56h168v92ZM172,148H20v-8h152v8Z"/>
  <path class="st3" d="M44,136h-16v-24h16v24ZM64,108h-16v28h16v-28ZM84,116h-16v20h16v-20ZM104,112h-16v24h16v-24ZM124,108h-16v28h16v-28ZM144,108h-16v28h16v-28ZM164,112h-16v24h16v-24Z"/>
  <path class="st0" d="M41.8,85.5c.2.2.4.5.4.8,0,.7-.5,1.2-1.6,1.4v-2.9c.6.2,1,.5,1.2.7ZM92,66v32c0,1.1-.9,2-2,2H22c-1.1,0-2-.9-2-2v-32c0-1.1.9-2,2-2h68c1.1,0,2,.9,2,2ZM46.3,86.1c0-1-.2-1.9-.8-2.5-.5-.6-1.2-1.2-2-1.6-.9-.4-1.8-.8-2.9-1.2v-3.5c.7,0,1.4.2,2.1.3.7.2,1.4.4,2.1.7l1.2-3.2c-.8-.3-1.6-.6-2.5-.8-.9-.2-1.8-.3-2.8-.4v-1.8h-2v1.9c-1.7.1-3,.6-4,1.4-1,.8-1.5,1.9-1.5,3.4s.2,1.8.6,2.4c.4.7,1,1.2,1.9,1.7.8.5,1.9.9,3.1,1.4v3.6c-.9,0-1.8-.2-2.8-.5-1-.3-1.8-.6-2.6-.9v3.7c.7.3,1.5.6,2.4.8s1.9.3,3,.3v2.4h2v-2.4c2-.2,3.4-.7,4.3-1.7s1.4-2.1,1.4-3.4h0ZM61.4,73.2h-13.5v3.7h8.7l-6.8,15.1h4.7l6.9-16.1v-2.7h0ZM79.1,92l-5.7-8.2,5.4-6.2h-4.9l-3.7,4.2c-.3.4-.6.8-.9,1.2s-.5.8-.7,1h0c0-.6.1-1.2.2-1.8s0-1.2,0-1.8v-8.4h-4.4v20h4.4v-4.2l1.7-1.3,3.7,5.5h5.1,0ZM37,78.6c0,.3.1.6.4.9s.6.5,1.2.7v-2.8c-1,.1-1.5.5-1.5,1.2h0ZM137.4,80.4c.2-.5.3-1.3.3-2.3s0-1.8-.3-2.3-.5-.8-.9-.8-.7.3-.9.8c-.2.5-.3,1.3-.3,2.3s0,1.8.3,2.3c.2.6.5.8.9.8s.7-.3.9-.8ZM172,66v32c0,1.1-.9,2-2,2h-68c-1.1,0-2-.9-2-2v-32c0-1.1.9-2,2-2h68c1.1,0,2,.9,2,2ZM129.8,85.2c0-1.3-.3-2.4-.8-3.3s-1.2-1.6-2.2-2.1-1.9-.7-3.1-.7-1.1,0-1.4,0c-.3,0-.6.1-.9.2l.3-3.2h6.8v-3.9h-10.8l-.7,10.1,1.8.9c.4,0,.8-.2,1.3-.3.5,0,1-.2,1.5-.2,1.2,0,2.1.2,2.7.7.6.5.9,1.1.9,2s-.3,1.7-.9,2.1-1.4.7-2.6.7-1.7-.1-2.7-.4c-.9-.2-1.8-.5-2.4-.9v3.9c.7.3,1.5.6,2.4.8s1.9.3,3,.3c2.6,0,4.6-.6,5.9-1.8,1.3-1.2,2-2.8,2-5ZM136.4,84.2c1.6,0,2.9-.5,3.6-1.6.8-1.1,1.2-2.6,1.2-4.5s-.4-3.4-1.3-4.5c-.9-1.1-2-1.6-3.6-1.6s-2.8.5-3.6,1.6c-.8,1.1-1.2,2.6-1.2,4.5s.4,3.4,1.2,4.5c.8,1.1,2,1.6,3.5,1.6h0ZM139.9,91.7l10.8-19.5h-3.5l-10.8,19.5h3.5ZM155.4,85.8c0-1.9-.4-3.4-1.3-4.5-.9-1.1-2-1.6-3.6-1.6s-2.8.5-3.6,1.6c-.8,1.1-1.2,2.6-1.2,4.5s.4,3.4,1.2,4.5c.8,1.1,2,1.6,3.5,1.6s2.9-.5,3.6-1.6c.8-1.1,1.2-2.6,1.2-4.5h0ZM150.6,82.7c-.4,0-.7.3-.9.8-.2.6-.3,1.3-.3,2.3s0,1.8.3,2.3.5.8.9.8c.8,0,1.1-1,1.1-3.1s-.4-3.1-1.1-3.1h0Z"/>
</svg>