<svg width="100" height="100" viewBox="0 0 192 192" xmlns="http://www.w3.org/2000/svg" xmlns:xlink="http://www.w3.org/1999/xlink">
    <linearGradient id="a" gradientTransform="matrix(1 0 0 -1 0 -814)" gradientUnits="userSpaceOnUse" x1="20" x2="172" y1="-930" y2="-930">
        <stop offset="0" stop-color="#6624fa"/><stop offset="1" stop-color="#e26cfb"/>
    </linearGradient>
    <rect fill="#6624fa" height="16" rx="4" width="60" x="44" y="20"/>
    <path d="m28 20c4.42 0 8 3.58 8 8 0 4.42-3.58 8-8 8-4.42 0-8-3.58-8-8 0-4.42 3.58-8 8-8z" fill="#6624fa"/>
    <path d="m158 172h-124c-7.72 0-14-6.28-14-14v-84c0-7.72 6.28-14 14-14h124c7.72 0 14 6.28 14 14v84c0 7.72-6.28 14-14 14zm-124-108c-5.51 0-10 4.49-10 10v84c0 5.51 4.49 10 10 10h124c5.51 0 10-4.49 10-10v-84c0-5.51-4.49-10-10-10z" fill="url(#a)"/><path d="m34 160c-.52 0-1.04-.21-1.41-.58-.1-.1-.18-.2-.25-.31-.08-.11-.14-.22-.19-.34-.05-.13-.09-.25-.11-.38-.03-.13-.04-.26-.04-.39 0-.52.21-1.04.59-1.41.46-.47 1.15-.68 1.8-.55.13.02.25.06.37.11.13.05.24.12.35.19s.21.15.3.25c.1.09.18.19.25.3s.14.22.19.35c.05.12.08.24.11.37.02.13.04.26.04.39s-.02.26-.04.39c-.03.13-.06.26-.11.38s-.12.23-.19.34-.15.21-.25.31c-.09.09-.19.17-.3.24-.11.08-.22.14-.35.19-.12.05-.24.09-.37.11-.13.03-.26.04-.39.04zm0-10.5c1.1 0 2-.9 2-2 0-1.1-.9-2-2-2-1.1 0-2 .9-2 2s.9 2 2 2zm0-10.5c1.1 0 2-.9 2-2 0-1.1-.9-2-2-2-1.1 0-2 .9-2 2s.9 2 2 2zm0-10.5c1.1 0 2-.9 2-2 0-1.1-.9-2-2-2-1.1 0-2 .9-2 2s.9 2 2 2zm0-10.5c1.1 0 2-.89 2-2 0-1.1-.9-2-2-2-1.1 0-2 .9-2 2s.9 2 2 2zm0-10.5c1.1 0 2-.89 2-2 0-1.1-.9-2-2-2-1.1 0-2 .9-2 2s.9 2 2 2zm0-10.5c1.1 0 2-.9 2-2 0-1.1-.9-2-2-2-1.1 0-2 .9-2 2s.9 2 2 2zm0-10.5c1.1 0 2-.9 2-2 0-1.1-.9-2-2-2-1.1 0-2 .9-2 2s.9 2 2 2zm.39-10.54c.13-.02.25-.06.37-.11.13-.05.24-.11.35-.19.11-.07.21-.15.3-.25.1-.09.18-.19.25-.3s.14-.22.19-.34.08-.25.11-.38c.02-.13.04-.26.04-.39 0-.53-.22-1.04-.59-1.41-.09-.1-.19-.18-.3-.25s-.22-.14-.35-.19c-.12-.05-.24-.08-.37-.11-.65-.13-1.34.08-1.8.55-.38.37-.59.88-.59 1.41s.21 1.04.59 1.41c.37.38.88.59 1.41.59.13 0 .26-.01.39-.04zm113.28.04c1.1 0 2-.9 2-2 0-1.1-.9-2-2-2-1.11 0-2 .9-2 2s.89 2 2 2zm-10.34 0c1.11 0 2-.9 2-2 0-1.1-.89-2-2-2-1.1 0-2 .9-2 2s.9 2 2 2zm-10.33 0c1.1 0 2-.9 2-2 0-1.1-.9-2-2-2-1.11 0-2 .9-2 2s.89 2 2 2zm-10.34 0c1.11 0 2.01-.9 2.01-2 0-1.1-.9-2-2.01-2-1.1 0-1.99.9-1.99 2s.89 2 1.99 2zm-10.33 0c1.11 0 2-.9 2-2 0-1.1-.89-2-2-2-1.1 0-2 .9-2 2s.9 2 2 2zm-10.33 0c1.1 0 2-.9 2-2 0-1.1-.9-2-2-2-1.11 0-2 .9-2 2s.89 2 2 2zm-10.34 0c1.11 0 2.01-.9 2.01-2 0-1.1-.9-2-2.01-2-1.1 0-1.99.9-1.99 2s.89 2 1.99 2zm-10.33 0c1.11 0 2-.9 2-2 0-1.1-.89-2-2-2-1.1 0-2 .9-2 2s.9 2 2 2zm-10.33 0c1.1 0 2-.9 2-2 0-1.1-.9-2-2-2-1.11 0-2 .9-2 2s.89 2 2 2zm-10.33 0c1.1 0 2-.9 2-2 0-1.1-.9-2-2-2-1.11 0-2 .9-2 2s.89 2 2 2zm-10.34 0c1.11 0 2-.9 2-2 0-1.1-.89-2-2-2-1.1 0-2 .9-2 2s.9 2 2 2zm115.08-.59c.38-.37.59-.88.59-1.41s-.21-1.04-.59-1.42c-.74-.74-2.08-.74-2.82 0-.38.38-.59.89-.59 1.42s.21 1.04.59 1.41c.37.38.88.59 1.41.59s1.04-.21 1.41-.59zm-1.41 74.09c1.1 0 2-.9 2-2 0-1.1-.9-2-2-2-1.1 0-2 .9-2 2s.9 2 2 2zm0-10.5c1.1 0 2-.9 2-2 0-1.1-.9-2-2-2-1.1 0-2 .9-2 2s.9 2 2 2zm0-10.5c1.1 0 2-.89 2-2 0-1.11-.9-2-2-2-1.1 0-2 .89-2 2s.9 2 2 2zm0-10.5c1.1 0 2-.9 2-2 0-1.1-.9-2-2-2-1.1 0-2 .9-2 2s.9 2 2 2zm0-10.5c1.1 0 2-.9 2-2 0-1.1-.9-2-2-2-1.1 0-2 .9-2 2s.9 2 2 2zm0-10.5c1.1 0 2-.89 2-2 0-1.11-.9-2-2-2-1.1 0-2 .89-2 2s.9 2 2 2zm0-10.5c1.1 0 2-.9 2-2 0-1.1-.9-2-2-2-1.1 0-2 .9-2 2s.9 2 2 2zm1.41 72.91c.38-.37.59-.88.59-1.41 0-.13 0-.26-.04-.39-.02-.13-.06-.25-.11-.37-.05-.13-.12-.24-.19-.35s-.15-.21-.25-.3c-.74-.75-2.08-.75-2.82 0-.1.09-.18.19-.25.3-.08.11-.14.22-.19.35-.05.12-.09.24-.11.37-.03.13-.04.26-.04.39 0 .53.21 1.04.59 1.41.37.38.88.59 1.41.59s1.04-.21 1.41-.59zm-11.74.59c1.1 0 2-.9 2-2 0-1.1-.9-2-2-2-1.11 0-2 .9-2 2s.89 2 2 2zm-10.34 0c1.11 0 2-.9 2-2 0-1.1-.89-2-2-2-1.1 0-2 .9-2 2s.9 2 2 2zm-10.33 0c1.1 0 2-.9 2-2 0-1.1-.9-2-2-2-1.1 0-2 .9-2 2s.9 2 2 2zm-10.33 0c1.1 0 2-.9 2-2 0-1.1-.9-2-2-2-1.11 0-2 .9-2 2s.89 2 2 2zm-10.34 0c1.11 0 2-.9 2-2 0-1.1-.89-2-2-2-1.1 0-2 .9-2 2s.9 2 2 2zm-10.33 0c1.1 0 2-.9 2-2 0-1.1-.9-2-2-2-1.1 0-2 .9-2 2s.9 2 2 2zm-10.33 0c1.1 0 2-.9 2-2 0-1.1-.9-2-2-2-1.11 0-2 .9-2 2s.89 2 2 2zm-10.34 0c1.11 0 2-.9 2-2 0-1.1-.89-2-2-2-1.1 0-2 .9-2 2s.9 2 2 2zm-10.33 0c1.1 0 2-.9 2-2 0-1.1-.9-2-2-2-1.1 0-2 .9-2 2s.9 2 2 2zm-10.33 0c1.1 0 2-.9 2-2 0-1.1-.9-2-2-2-1.11 0-2 .9-2 2s.89 2 2 2zm-10.34 0c1.11 0 2-.9 2-2 0-1.1-.89-2-2-2-1.1 0-2 .9-2 2s.9 2 2 2z" fill="#9483fb"/><path d="m100 112h-56v-28h56zm48-28h-40v28h40zm0 36h-56v28h56zm-64 0h-40v28h40z" fill="#beb3fc"/>
</svg>