<svg width="100" height="100" viewBox="0 0 192 192" xmlns="http://www.w3.org/2000/svg"><path d="m84 60v43.98h-64.02v-43.98zm88.02 0h-64.02v43.98h64.02zm0 67.98h-64.02v43.98h64.02zm-88.02 0h-64.02v43.98h64.02z" fill="#6624fa"/><path d="m172.02 60v-7.98h-64.02v7.98zm-88.02 0v-7.98h-64.02v7.98zm0 67.98v-7.98h-64.02v7.98zm88.02 0v-7.98h-64.02v7.98z" fill="#d3ccfc"/><g fill="#4e1ccf"><path d="m43.98 19.98h60v16.02h-60z"/><path d="m28.02 19.98c4.44 0 7.98 3.6 7.98 7.98 0 4.44-3.6 7.98-7.98 7.98-4.44 0-7.98-3.6-7.98-7.98 0-4.44 3.6-7.98 7.98-7.98z"/></g></svg>