<svg width="100" height="100" viewBox="0 0 192 192" xmlns="http://www.w3.org/2000/svg">
    <path d="m48 20h52c2.21 0 4 1.79 4 4v8c0 2.21-1.79 4-4 4h-52c-2.21 0-4-1.79-4-4v-8c0-2.21 1.79-4 4-4zm-28 8c0 4.42 3.58 8 8 8 4.42 0 8-3.58 8-8 0-4.42-3.58-8-8-8-4.42 0-8 3.58-8 8z" fill="#6624fa"/>
    <path d="m20 128h152v40c0 2.21-1.79 4-4 4h-144c-2.21 0-4-1.79-4-4z" fill="#efecfd"/>
    <path d="m24 120h144c2.21 0 4 1.79 4 4v4h-152v-4c0-2.21 1.79-4 4-4z" fill="#d3ccfc"/>
    <path d="m20 72h72v36c0 2.21-1.79 4-4 4h-63.99c-2.21 0-4.01-1.8-4-4.01v-35.99z" fill="#efecfd"/>
    <path d="m24.09 64h63.91c2.21 0 4 1.79 4 4v4h-72l.09-4.09c.05-2.17 1.82-3.91 4-3.91z" fill="#d3ccfc"/>
    <path d="m100 72h72v36c0 2.21-1.79 4-4 4h-63.99c-2.21 0-4.01-1.8-4-4.01v-35.99z" fill="#efecfd"/>
    <path d="m104.09 64h63.91c2.21 0 4 1.79 4 4v4h-72l.09-4.09c.05-2.17 1.82-3.91 4-3.91z" fill="#d3ccfc"/>
</svg>