<svg width="100" height="100" viewBox="0 0 192 192" xmlns="http://www.w3.org/2000/svg"><path d="m84 24v48h-48v-48zm4-4h-56v56h56z" fill="#4e00d4"/><path d="m44 32h32v32h-32z" fill="#d4ccff"/><path d="m60 97.66 34.34 34.34-34.34 34.34-34.34-34.34zm0-5.66-40 40 40 40 40-40z" fill="#4e00d4"/><path d="m43.03 115.03h33.94v33.94h-33.94z" fill="#d4ccff" transform="matrix(.70710678 -.70710678 .70710678 .70710678 -75.76 81.09)"/><path d="m140 68c15.44 0 28 12.56 28 28s-12.56 28-28 28-28-12.56-28-28 12.56-28 28-28m0-4c-17.67 0-32 14.33-32 32s14.33 32 32 32 32-14.33 32-32-14.33-32-32-32z" fill="#4e00d4"/><circle cx="140" cy="96" fill="#d4ccff" r="20"/><path d="m58 76h4v20h-4z" fill="#4e1ccd"/><path d="m88 48h52v20" fill="none" stroke="#4e00d4" stroke-miterlimit="10" stroke-width="4"/></svg>