<svg xmlns="http://www.w3.org/2000/svg" viewBox="0 0 192 192" width="16" height="16">
    <path d="M112.971,96l25.456,25.456-16.971,16.971-25.456-25.456-25.456,25.456-16.971-16.971,25.456-25.456-25.456-25.456,16.971-16.971,25.456,25.456,25.456-25.456,16.971,16.971-25.456,25.456Z" fill="var(--druids_icons_cancel-circled__checkmark, transparent)"/>
    <path d="M96,8C47.399,8,8,47.399,8,96s39.399,88,88,88,88-39.399,88-88S144.601,8,96,8Zm42.427,113.456l-16.971,16.971-25.456-25.456-25.456,25.456-16.971-16.971,25.456-25.456-25.456-25.456,16.971-16.971,25.456,25.456,25.456-25.456,16.971,16.971-25.456,25.456,25.456,25.456Z" fill="#6b7280"/>
</svg>
