<svg xmlns="http://www.w3.org/2000/svg" viewBox="0 0 448 512" width="448" height="512">
    <path d="M224 32C100.258 32 0 132.258 0 256s100.258 224 224 224 224-100.258 224-224S347.742 32 224 32zm33.347 363.99a8.956 8.956 0 0 1-9.4 9.4h-55.893a8.958 8.958 0 0 1-9.4-9.4V340.1a8.958 8.958 0 0 1 9.4-9.4h55.891a8.956 8.956 0 0 1 9.4 9.4zm71.04-172.376a59.981 59.981 0 0 1-8.358 17.76 81.518 81.518 0 0 1-13.058 14.1 99.527 99.527 0 0 1-13.059 9.924q-5.224 3.135-14.626 8.358a52.4 52.4 0 0 0-15.67 14.626q-6.268 8.88-6.269 14.1a8.955 8.955 0 0 1-9.4 9.4h-55.893a8.956 8.956 0 0 1-9.4-9.4v-10.44q-.522-19.326 15.148-36.564t33.953-25.073q14.1-6.268 19.849-13.059t5.746-17.76q0-9.4-10.969-17.237a42.052 42.052 0 0 0-25.073-7.836q-15.149 0-25.073 7.313-9.4 6.791-25.072 26.64a8.474 8.474 0 0 1-7.313 3.657 7.088 7.088 0 0 1-5.224-2.09L119.969 181.3q-6.791-5.746-2.089-12.536 37.086-62.16 108.126-62.16a109.7 109.7 0 0 1 49.624 12.014 111.185 111.185 0 0 1 40.22 33.953q16.194 21.939 16.193 47.534a95.058 95.058 0 0 1-3.656 23.509z"/>
</svg>
