<svg xmlns="http://www.w3.org/2000/svg" width="200" height="128">
    <path d="M28.69 56.82a7.2 7.2 0 015.77 2.78v-2.42h4v18h-2.7a1.27 1.27 0 01-1.27-1.28v-1.1a7.2 7.2 0 01-5.77 2.78c-4.94 0-8.69-4.22-8.69-9.38s3.75-9.38 8.69-9.38m.72 3.61C26.2 60.43 24 63 24 66.2s2.2 5.8 5.41 5.8 5.38-2.52 5.38-5.77-2.17-5.77-5.38-5.77M42.93 57.18h4v2.46a6.2 6.2 0 015.48-2.82c4.19 0 6.89 3 6.89 7.54v10.86h-2.72a1.28 1.28 0 01-1.28-1.28V65c0-2.85-1.44-4.58-3.75-4.58-2.63 0-4.65 2.06-4.65 5.91v8.88h-2.7a1.27 1.27 0 01-1.27-1.28V57.18zM71.1 56.82a7.2 7.2 0 015.77 2.78V48.17h4v27.05h-2.7a1.27 1.27 0 01-1.27-1.28V72.8a7.2 7.2 0 01-5.77 2.78c-4.94 0-8.69-4.22-8.69-9.38s3.75-9.38 8.69-9.38m.72 3.61c-3.21 0-5.37 2.52-5.37 5.77s2.13 5.8 5.34 5.8 5.37-2.52 5.37-5.77-2.19-5.8-5.37-5.8M85.34 57.18h4v3.21A5.07 5.07 0 0194.07 57a7.67 7.67 0 011.55.15v4.07a6.36 6.36 0 00-2-.32c-2.27 0-4.33 1.91-4.33 5.52v8.8h-2.7a1.27 1.27 0 01-1.27-1.28V57.18zM106.32 75.58a9.38 9.38 0 119.44-9.38 9.31 9.31 0 01-9.44 9.38m0-3.68a5.71 5.71 0 10-5.45-5.7 5.41 5.41 0 005.45 5.7M121 53.25a2.65 2.65 0 110-5.3 2.65 2.65 0 010 5.3m-2 3.93h4v18h-2.7a1.28 1.28 0 01-1.3-1.24V57.18zM134.9 56.82a7.21 7.21 0 015.77 2.78V48.17h4v27.05h-2.7a1.27 1.27 0 01-1.27-1.28V72.8a7.21 7.21 0 01-5.77 2.78c-4.94 0-8.69-4.22-8.69-9.38s3.75-9.38 8.69-9.38m.72 3.61c-3.21 0-5.37 2.52-5.37 5.77s2.13 5.8 5.34 5.8 5.38-2.55 5.38-5.8-2.16-5.77-5.37-5.77M151.53 59.48h-3.88v-2.39h3.88V52h2.54v5.05h5.3v2.39h-5.3V70c0 2.21 1 3.08 3 3.08a6.52 6.52 0 002.29-.4v2.29a7.39 7.39 0 01-2.69.47c-3.08 0-5.15-1.78-5.15-5.22V59.48zM180 57.09l-8.49 18.13h-1.99l-8.49-18.13h2.83l6.64 14.39 6.64-14.39H180z"/>
</svg>
