<svg xmlns="http://www.w3.org/2000/svg" width="200" height="128" xmlns:xlink="http://www.w3.org/1999/xlink">
  <defs>
    <linearGradient id="b" x1="100" y1="39.92" x2="100" y2="71.85" gradientTransform="translate(0 108) scale(1 -1)" gradientUnits="userSpaceOnUse">
      <stop offset="0" stop-color="#32bedd"/>
      <stop offset=".18" stop-color="#32caea"/>
      <stop offset=".41" stop-color="#32d2f2"/>
      <stop offset=".78" stop-color="#32d4f5"/>
    </linearGradient>
  </defs>
  <path d="m90.6,89.34h-1.36l-1.11-2.94h-4.45l-1.05,2.94h-1.37l4.03-10.5h1.27l4.04,10.5Zm-2.88-4.05l-1.65-4.47c-.05-.15-.11-.38-.16-.7h-.03c-.05.3-.1.53-.17.7l-1.63,4.47h3.64Zm9.49-3.11l-4.44,6.13h4.39v1.03h-6.16v-.37l4.44-6.1h-4.02v-1.03h5.79v.34Zm7.62,7.16h-1.2v-1.19h-.03c-.5.91-1.27,1.36-2.31,1.36-1.79,0-2.68-1.06-2.68-3.19v-4.48h1.19v4.29c0,1.58.61,2.37,1.82,2.37.59,0,1.07-.22,1.45-.65.38-.43.57-1,.57-1.7v-4.32h1.2v7.5Zm6.34-6.28c-.21-.16-.51-.24-.91-.24-.51,0-.94.24-1.29.72-.34.48-.52,1.14-.52,1.98v3.82h-1.2v-7.5h1.2v1.54h.03c.17-.53.43-.94.78-1.23.35-.3.74-.44,1.18-.44.31,0,.55.03.72.1v1.25Zm7.13,2.83h-5.3c.02.83.24,1.48.67,1.93.43.45,1.02.68,1.77.68.84,0,1.62-.28,2.33-.83v1.13c-.66.48-1.53.72-2.61.72s-1.89-.34-2.5-1.02c-.61-.68-.91-1.64-.91-2.88,0-1.17.33-2.12.99-2.85.66-.74,1.48-1.1,2.46-1.1s1.74.32,2.28.95.81,1.52.81,2.64v.63Zm-1.23-1.02c0-.69-.17-1.23-.5-1.62-.33-.39-.79-.58-1.37-.58s-1.05.2-1.44.61-.64.93-.73,1.59h4.05Zm-43.57,20.57v-2.34c.42.36.89.62,1.38.8.5.18,1,.27,1.51.27.3,0,.56-.03.78-.08s.41-.13.56-.22c.15-.09.26-.21.33-.34.07-.13.11-.27.11-.42,0-.21-.06-.39-.18-.55-.12-.16-.28-.31-.48-.45-.2-.14-.44-.27-.72-.4s-.58-.26-.9-.39c-.82-.34-1.43-.76-1.83-1.25-.4-.49-.6-1.09-.6-1.79,0-.55.11-1.02.33-1.41.22-.39.52-.72.9-.97.38-.25.82-.44,1.31-.56.5-.12,1.03-.18,1.58-.18s1.03.03,1.45.1c.42.07.81.17,1.17.3v2.19c-.18-.12-.37-.23-.57-.32-.21-.09-.42-.17-.64-.23-.22-.06-.44-.11-.66-.14s-.42-.04-.62-.04c-.27,0-.51.03-.73.08-.22.05-.41.12-.56.22s-.27.2-.35.33c-.08.13-.12.27-.12.44,0,.18.05.33.14.47.09.14.22.27.4.4.17.12.38.25.62.37.24.12.52.24.83.37.42.18.8.36,1.13.56.33.2.62.42.86.67s.42.53.55.85c.13.32.19.69.19,1.12,0,.59-.11,1.08-.33,1.48-.22.4-.52.72-.9.97-.38.25-.82.42-1.33.53-.5.11-1.04.16-1.6.16s-1.12-.05-1.64-.15c-.52-.1-.97-.24-1.35-.44Zm12.82.31c-.34.18-.86.27-1.55.27-1.63,0-2.45-.85-2.45-2.54v-3.43h-1.22v-1.71h1.22v-1.62l2.31-.66v2.28h1.68v1.71h-1.68v3.03c0,.78.31,1.17.93,1.17.24,0,.5-.07.75-.21v1.71Zm4.82.27c-1.25,0-2.23-.35-2.95-1.05-.72-.7-1.07-1.65-1.07-2.85s.37-2.21,1.11-2.91c.74-.7,1.75-1.05,3.01-1.05s2.22.35,2.93,1.05c.71.7,1.06,1.63,1.06,2.78,0,1.25-.37,2.23-1.09,2.95-.73.72-1.73,1.08-3,1.08Zm.06-6.09c-.55,0-.97.19-1.27.56s-.45.91-.45,1.6c0,1.44.58,2.16,1.74,2.16s1.66-.74,1.66-2.22c0-1.4-.56-2.1-1.68-2.1Zm10.43.5c-.28-.15-.6-.23-.97-.23-.5,0-.9.18-1.18.55-.28.37-.42.87-.42,1.5v3.58h-2.31v-7.5h2.31v1.39h.03c.37-1.02,1.03-1.52,1.98-1.52.24,0,.43.03.57.09v2.13Zm7.32,5.41h-2.19v-1.08h-.03c-.5.84-1.25,1.26-2.23,1.26-.73,0-1.3-.21-1.72-.62-.42-.41-.63-.96-.63-1.65,0-1.45.86-2.29,2.59-2.52l2.04-.27c0-.82-.44-1.23-1.33-1.23s-1.74.27-2.55.8v-1.74c.32-.17.76-.31,1.32-.44.56-.13,1.07-.19,1.53-.19,2.14,0,3.21,1.07,3.21,3.2v4.48Zm-2.18-3.05v-.51l-1.36.18c-.75.1-1.13.44-1.13,1.02,0,.26.09.48.27.65.18.17.43.25.74.25.43,0,.79-.15,1.06-.45.27-.3.41-.68.41-1.14Zm11.36,2.19c0,1.39-.4,2.47-1.21,3.23-.81.76-1.97,1.15-3.5,1.15-1.01,0-1.81-.14-2.4-.43v-1.95c.77.45,1.55.67,2.34.67s1.39-.21,1.82-.62c.43-.41.64-.97.64-1.68v-.59h-.03c-.53.84-1.31,1.26-2.34,1.26-.96,0-1.72-.34-2.28-1.01s-.84-1.58-.84-2.71c0-1.27.31-2.28.94-3.03s1.45-1.12,2.47-1.12c.91,0,1.6.35,2.05,1.05h.03v-.87h2.31v6.64Zm-2.29-2.75v-.59c0-.47-.14-.88-.42-1.21-.28-.33-.65-.5-1.09-.5-.51,0-.92.2-1.21.6-.29.4-.44.96-.44,1.69,0,.62.14,1.12.42,1.48.28.36.66.54,1.14.54s.87-.18,1.16-.55c.29-.37.44-.86.44-1.46Zm10.96.51h-4.89c.08,1.09.76,1.63,2.06,1.63.83,0,1.55-.2,2.18-.59v1.67c-.69.37-1.59.56-2.7.56-1.21,0-2.15-.34-2.82-1.01-.67-.67-1-1.61-1-2.81s.36-2.23,1.08-2.96,1.61-1.09,2.67-1.09,1.94.33,2.54.97c.6.65.9,1.53.9,2.64v.97Zm-2.15-1.42c0-1.07-.43-1.61-1.3-1.61-.37,0-.69.15-.96.46-.27.31-.44.69-.49,1.15h2.76Z" fill="#706d6e"/>
  <path d="m73,36.15h54v30.11c0,1-.81,1.81-1.81,1.81h-50.38c-1,0-1.81-.81-1.81-1.81,0,0,0-30.11,0-30.11Z" fill="url(#b)"/>
  <path d="m74.81,24.65h50.38c1,0,1.81.81,1.81,1.81v9.69h-54v-9.72c.02-.99.82-1.78,1.81-1.78Z" fill="#198ab3"/>
  <path d="m80.34,39.65h39.29c.46.02.83.4.83.86v4.45c0,.46-.36.84-.83.86h-39.29c-.46-.02-.83-.4-.83-.86v-4.45c0-.46.36-.84.83-.86Z" fill="#fff"/>
  <path d="m80.37,48.51h39.29c.46.02.83.4.83.86v4.48c0,.46-.36.84-.83.86h-39.29c-.46-.02-.83-.4-.83-.86v-4.32c-.09-.47.22-.91.68-1,.05,0,.09-.01.14-.01Z" fill="#9cebff"/>
  <path d="m80.37,57.47h39.29c.46.02.83.4.83.86v4.48c0,.46-.36.84-.83.86h-39.29c-.46-.02-.83-.4-.83-.86v-4.48c0-.46.36-.84.83-.86Z" fill="#50e6ff"/>
</svg>