<svg xmlns="http://www.w3.org/2000/svg" width="120" height="60">
    <path fill="#706D6E" d="M56.34 27.58h-.91l-.74-2h-3l-.7 2h-.91l2.68-7h.85zm-1.92-2.7l-1.1-3a2.75 2.75 0 01-.11-.47 2.53 2.53 0 01-.11.47l-1.09 3zM60.75 22.81l-3 4.08h2.93v.69h-4.07v-.25l3-4.07h-2.72v-.68h3.86zM65.83 27.58H65v-.79a1.64 1.64 0 01-1.54.9c-1.19 0-1.79-.71-1.79-2.13v-3h.8v2.86c0 1 .4 1.58 1.21 1.58a1.24 1.24 0 001-.43 1.67 1.67 0 00.32-1.11v-2.88h.81zM70.05 23.39a1 1 0 00-.61-.16 1 1 0 00-.85.48 2.22 2.22 0 00-.35 1.29v2.55h-.8v-5h.8v1a1.82 1.82 0 01.52-.83 1.24 1.24 0 01.79-.29 1.22 1.22 0 01.48.07zM74.8 25.28h-3.53a2 2 0 00.45 1.29 1.57 1.57 0 001.19.45 2.46 2.46 0 001.55-.56v.75a2.9 2.9 0 01-1.75.48 2.09 2.09 0 01-1.66-.69 2.79 2.79 0 01-.61-1.91 2.76 2.76 0 01.67-1.91 2.1 2.1 0 011.64-.73 1.9 1.9 0 011.52.63 2.71 2.71 0 01.53 1.77zm-.8-.68a1.62 1.62 0 00-.33-1.08 1.14 1.14 0 00-.92-.39 1.32 1.32 0 00-1 .41 1.91 1.91 0 00-.49 1.06zM52.38 36.16v2.42H50.8v-7h2.47c1.77 0 2.65.75 2.65 2.24a2.11 2.11 0 01-.76 1.7 3 3 0 01-2 .65zm0-3.37V35H53q1.26 0 1.26-1.11c0-.72-.42-1.07-1.26-1.07zM57.57 32.79a.89.89 0 01-.64-.24.76.76 0 01-.25-.57.72.72 0 01.25-.56.92.92 0 01.64-.22.89.89 0 01.64.22.69.69 0 01.25.56.73.73 0 01-.25.58.9.9 0 01-.64.23zm.76 5.79h-1.54v-5h1.54zM61.2 38v2.88h-1.57v-7.3h1.55v.75a1.95 1.95 0 013.1-.21 2.79 2.79 0 01.53 1.81 3.07 3.07 0 01-.61 2 2 2 0 01-1.65.76A1.56 1.56 0 0161.2 38zm-.05-2.06v.4a1.25 1.25 0 00.28.85.88.88 0 00.71.33.94.94 0 00.82-.41 1.93 1.93 0 00.29-1.11c0-.87-.34-1.31-1-1.31a1 1 0 00-.78.35 1.44 1.44 0 00-.32.9zM70.33 36.52h-3.26c.05.72.5 1.08 1.37 1.08a2.69 2.69 0 001.45-.39v1.12a3.94 3.94 0 01-1.8.37 2.33 2.33 0 01-2.55-2.55 2.68 2.68 0 01.72-2 2.42 2.42 0 011.74-.7 2.19 2.19 0 011.69.65 2.51 2.51 0 01.6 1.77zm-1.43-1q0-1.08-.87-1.08a.88.88 0 00-.65.31 1.34 1.34 0 00-.32.77zM72.79 38.58h-1.54v-7.41h1.54zM74.87 32.79a.88.88 0 01-.64-.24A.72.72 0 0174 32a.69.69 0 01.25-.56 1 1 0 011.28 0 .72.72 0 01.25.56.76.76 0 01-.25.58.91.91 0 01-.66.21zm.76 5.79h-1.54v-5h1.54zM81.76 38.58h-1.54V35.8c0-.78-.28-1.16-.83-1.16a.83.83 0 00-.66.3 1.2 1.2 0 00-.26.78v2.86h-1.54v-5h1.54v.79a1.77 1.77 0 011.61-.92c1.1 0 1.66.69 1.66 2.06zM87.47 36.52h-3.26c.05.72.51 1.08 1.37 1.08a2.69 2.69 0 001.42-.39v1.12a3.88 3.88 0 01-1.8.37 2.33 2.33 0 01-2.55-2.55 2.68 2.68 0 01.72-2 2.44 2.44 0 011.78-.73 2.19 2.19 0 011.69.65 2.51 2.51 0 01.6 1.77zm-1.43-1q0-1.08-.87-1.08a.84.84 0 00-.64.31 1.42 1.42 0 00-.33.77zM88.06 38.44v-1.25a3.42 3.42 0 00.76.35 2.68 2.68 0 00.72.11 1.57 1.57 0 00.64-.11.37.37 0 00.24-.35.34.34 0 00-.11-.24.89.89 0 00-.27-.17l-.37-.13-.39-.13a3.61 3.61 0 01-.52-.25 1.26 1.26 0 01-.38-.3 1.11 1.11 0 01-.24-.39 1.69 1.69 0 01-.08-.53 1.44 1.44 0 01.18-.73 1.64 1.64 0 01.49-.49 2.3 2.3 0 01.7-.29 3.68 3.68 0 01.82-.09 3.88 3.88 0 01.67.06 5.12 5.12 0 01.68.14v1.2a2.47 2.47 0 00-.63-.26 2.5 2.5 0 00-.66-.09 1.27 1.27 0 00-.28 0 .85.85 0 00-.24.08.42.42 0 00-.16.13.3.3 0 00-.06.18.36.36 0 00.09.24.86.86 0 00.23.17 2.23 2.23 0 00.31.12l.35.12a4.8 4.8 0 01.55.23 2 2 0 01.43.3 1.09 1.09 0 01.27.4 1.32 1.32 0 01.1.55 1.53 1.53 0 01-.19.76 1.49 1.49 0 01-.52.51 2.37 2.37 0 01-.73.29 4.14 4.14 0 01-.87.09 4.47 4.47 0 01-1.53-.23z"/>
    <path d="M42.38 13.2l-13.2-.2a1.31 1.31 0 00-1.13.6L16.24 31.68a1.33 1.33 0 00.17 1.66L20 36.9l3.56 3.57a1.33 1.33 0 001.66.17l18.06-11.81a1.31 1.31 0 00.6-1.13l-.2-13.2a1.32 1.32 0 00-1.3-1.3z" fill="#668ce8"/>
    <path fill="#436CCB" d="M16.45 33.31a1.32 1.32 0 01-.18-1.66L23 21.41l-11.41.06A1.52 1.52 0 0010 23l.07 7.43 4.35 4.35a.6.6 0 00.84 0l1.32-1.31zM23.5 40.43a1.33 1.33 0 001.66.17l10.24-6.69-.06 11.42a1.52 1.52 0 01-1.54 1.51l-7.42-.06L22 42.42a.6.6 0 010-.84l1.32-1.31z"/>
    <path d="M12.8 44.46v-5.93h-2.48v8.28h8.41v-2.35z" fill="#9fbbf0"/>
    <path d="M28.09 27.05l-8.95 9 2.06 2.06 9-8.94z" fill="#7499f1"/>
    <path d="M19.42 39.84l1.78-1.77L19.14 36l-1.78 1.78z" fill="#88acef"/>
    <circle cx="35.43" cy="21.45" r="4.26" fill="#b0c4f4"/>
</svg>
