<svg xmlns="http://www.w3.org/2000/svg" width="120" height="60">
    <path d="M27.56 38.79a3.9 3.9 0 01-3.9-3.91h7.81a3.91 3.91 0 01-3.91 3.91zm-8.73-8.73a2.4 2.4 0 00-2.41 2.41h4.82a2.41 2.41 0 00-2.41-2.41m17.48 0a2.41 2.41 0 00-2.41 2.41h4.82a2.41 2.41 0 00-2.41-2.41m-8.75-11.49a1.5 1.5 0 100-3 1.5 1.5 0 000 3M42 40.8a2.72 2.72 0 01-1.89.9c-3 .14-7.65.31-12.58.31S18 41.84 15 41.7a2.68 2.68 0 01-1.89-.9 2.65 2.65 0 01-.68-2c.16-2.41.37-4.55.64-6.35.39-2.67 1-5.38 1.41-7.18a2.68 2.68 0 012.45-2.07c2.19-.14 5.81-.3 10.64-.3s8.45.16 10.64.3a2.66 2.66 0 012.45 2.07c.43 1.8 1 4.51 1.42 7.18.26 1.8.48 3.94.63 6.35a2.68 2.68 0 01-.67 2m2.42-8.67c-.4-2.75-1-5.54-1.45-7.39a5.08 5.08 0 00-4.65-3.92c-2.22-.14-5.9-.3-10.79-.3s-8.56.16-10.78.3a5.09 5.09 0 00-4.66 3.92c-.44 1.85-1 4.64-1.45 7.39-.27 1.86-.49 4.06-.66 6.54a5.11 5.11 0 004.87 5.44c3 .14 7.7.31 12.68.31s9.65-.17 12.69-.31a5.1 5.1 0 003.57-1.7 5 5 0 001.29-3.74c-.16-2.48-.38-4.68-.66-6.54M59.6 34a2.44 2.44 0 10-4.85 0 2.44 2.44 0 104.85 0m2.84 0a5 5 0 01-4.76 5.16 3.77 3.77 0 01-2.93-1.41v1.21H52V24.74h2.74v5.47a3.76 3.76 0 012.93-1.42A5 5 0 0162.44 34m2.12 5h2.74V29h-2.74zm1.32-11.23a1.52 1.52 0 110-3 1.52 1.52 0 110 3zm5.36-1.62h2.43v3.05h2v2.42h-2v3.95a1.15 1.15 0 001.22 1.11 2.51 2.51 0 001-.2v2.33a5.84 5.84 0 01-1.83.3c-2 0-3.13-1.11-3.13-3.44v-4.05h-1.71V29.2h.91a1.18 1.18 0 001.11-1.32zm13 5.56a3.18 3.18 0 00-.91-.1c-1.41 0-2.32.91-2.32 2.63V39h-2.79V29H81v1.22a3.76 3.76 0 012.83-1.32h.4zM85.86 39h2.74V29h-2.79zm1.32-11.23a1.52 1.52 0 110-3 1.52 1.52 0 110 3zm9.61 4.25a2.17 2.17 0 00-1.62-.81c-.81 0-1.21.4-1.21.81 0 1.41 4.55.71 4.55 4 0 1.72-1.41 3.13-3.94 3.13a4.88 4.88 0 01-4-1.82L92 35.77a2.87 2.87 0 002.12 1.12c.91 0 1.32-.41 1.32-.91 0-1.52-4.56-.77-4.56-4 0-1.52 1.62-3.14 3.85-3.14a4.35 4.35 0 013.44 1.52l-1.42 1.62zm6 1h4.56a2.21 2.21 0 00-2.35-1.9 2.41 2.41 0 00-2.29 1.82zm0 1.92a2.51 2.51 0 002.63 1.93 3.46 3.46 0 002.58-1.3l1.41 1.82a5.94 5.94 0 01-4.25 1.72 5.16 5.16 0 11-.1-10.32 4.85 4.85 0 015 5 5 5 0 01-.1 1.11z" fill="#341c48"/>
</svg>
