<svg xmlns="http://www.w3.org/2000/svg" width="120" height="60">
    <path fill="#0074a3" d="M58.83 7.61a16.66 16.66 0 1016.46 16.87A16.61 16.61 0 0058.83 7.61zm-9 19.91a2 2 0 01-2-2 2 2 0 012-2 2 2 0 010 3.93zm6.37-1.3a1.9 1.9 0 01-1.8 1.88 1.87 1.87 0 01-2.08-1.71 22.43 22.43 0 010-2.84 1.91 1.91 0 012-1.7 1.94 1.94 0 011.86 1.87V25c0 .42-.01.81-.02 1.22zm4.42.94a2 2 0 01-3.84.46 2.68 2.68 0 01-.08-.7v-6.05a2 2 0 011.56-2.13 1.92 1.92 0 012.37 1.79v3.36c-.04 1.11-.03 2.18-.05 3.27zm4.42-1a1.88 1.88 0 01-1.32 1.81 1.94 1.94 0 01-2.16-.63 1.82 1.82 0 01-.42-1.21v-4.97a2 2 0 013.86-.48 1.9 1.9 0 010 .41v5.03zm2.5 1.34a2 2 0 01-2-1.95 2 2 0 113.91 0 1.93 1.93 0 01-1.95 1.91zM72.18 48.75l.77-.48a2.61 2.61 0 00-2.9-1.05 2.68 2.68 0 102.85 4.18l-.73-.52a1.79 1.79 0 01-2.56.23 1.89 1.89 0 01-.09-2.51c.64-.74 1.62-.68 2.66.15zM32.74 48.07a1.66 1.66 0 011.53.7l.8-.5a2.62 2.62 0 00-3-1 2.68 2.68 0 00.18 5.19 2.57 2.57 0 002.73-1l-.74-.53a1.79 1.79 0 01-2.55.26 1.91 1.91 0 01-.13-2.49 1.64 1.64 0 011.18-.63zM87.6 47.07c-.2 0-.25.08-.25.27v1.83c-1-.58-1.79-.52-2.35.15a2.05 2.05 0 000 2.62 1.66 1.66 0 002.31.13l.08.33h.43c.43 0 .43 0 .43-.44V47.7c.01-.7.14-.62-.65-.63zm-1.19 4.59a1 1 0 01-1-1 1 1 0 112 0 1 1 0 01-1 1zM77.57 48.74a1.87 1.87 0 00-1.92 1.86 1.93 1.93 0 003.85.08 1.86 1.86 0 00-1.93-1.94zm0 2.92a1 1 0 111-1 1 1 0 01-.99 1zM37.58 48.74a1.88 1.88 0 00-1.91 1.87 1.93 1.93 0 003.85 0 1.86 1.86 0 00-1.94-1.87zm0 2.92a1 1 0 01-1-1.06 1 1 0 111 1.06zM55.69 48.77a1.88 1.88 0 10.81 3.67 1.86 1.86 0 001-.48l-.5-.54c-1 .5-1.77.31-1.86-.5h2.26c.09 0 .26-.11.26-.18a1.7 1.7 0 00-1.97-1.97zm-.54 1.53a.72.72 0 01.77-.78.73.73 0 01.78.78zM61.86 49.9a1.27 1.27 0 00-1.59-1.12 5.29 5.29 0 00-.85.36l-.07-.26h-.8v3.49h.88a1.77 1.77 0 000-.22v-1.82a.75.75 0 01.8-.74.69.69 0 01.71.74v2.05h.92V52c.02-.69.06-1.4 0-2.1zM43.73 50a1.28 1.28 0 00-1.65-1.2 5.07 5.07 0 00-.8.36l-.06-.27h-.8v3.51a4.51 4.51 0 01.52 0c.3 0 .38-.08.37-.37V50.3a.72.72 0 01.76-.71.69.69 0 01.74.68 5.42 5.42 0 010 .57v1.53h.92V52c.02-.65.06-1.34 0-2zM52.72 48.85c-.27 0-.34.09-.34.34v1.73a.76.76 0 01-1.51 0v-2.05H50v2.23a1.35 1.35 0 00.94 1.26 2.06 2.06 0 001.58-.06 1.14 1.14 0 00.75-.93v-2.52a4.51 4.51 0 01-.55 0zM47.23 47.18a1.65 1.65 0 00-1.47 0 1.16 1.16 0 00-.63 1.11c0 .57 0 .57-.59.62h-.08v.73a1.38 1.38 0 00.28 0c.3 0 .41.07.4.39v2.35a3.84 3.84 0 01.48 0c.29 0 .39-.06.38-.36V50.1v-.48h1.07v-.79h-.84c-.09 0-.23-.09-.24-.17-.16-.63.19-1 .81-.78l.22.07c.09-.21.17-.39.23-.58a.2.2 0 00-.02-.19zM82.91 48.86h-.11v1.89a.78.78 0 01-.78.87c-.47 0-.77-.32-.78-.87s0-.89 0-1.34c0-.64 0-.64-.65-.6-.19 0-.24.08-.24.25v2a1.24 1.24 0 00.91 1.22 3 3 0 001.22.08A1.34 1.34 0 0083.67 51v-1.47c.02-.74.02-.74-.76-.67zM65.18 51.54c-.68.26-1 0-1-.69v-.89c0-.29.07-.33.32-.32s.65 0 1 0v-.79h-.52c-.78 0-.78 0-.79-.76v-.13c0-.03-.11-.18-.18-.19-.65-.09-.69-.06-.69.58 0 .46 0 .46-.44.47a1.6 1.6 0 00-.23 0v.76h.28c.31 0 .42.08.4.39s0 .73 0 1.09a1.15 1.15 0 00.67 1.31 1.81 1.81 0 001.77-.26l-.33-.66zM48.62 47.07h-.22c-.43 0-.43 0-.43.42v4.16c0 .83 0 .83.89.72v-.17-4.87c.02-.19-.05-.27-.24-.26zM74.25 47.06c-.27 0-.36.08-.36.36v4.98h.4c.47 0 .47 0 .47-.46v-4.35c.01-.52.01-.51-.51-.53z"/>
</svg>
