<svg xmlns="http://www.w3.org/2000/svg" width="200" height="128">
    <g fill="#5e98cf" fill-rule="evenodd">
        <path d="M100 50.758a13.238 13.238 0 0 0-11.5 19.811l22.947-13.213A13.232 13.232 0 0 0 100 50.758z"/>
        <path d="M73.408 64a26.595 26.595 0 0 1 49.619-13.308l16.029-9.23a7.648 7.648 0 0 0-2.9-2.823q-15.988-9.219-31.986-18.427a7.85 7.85 0 0 0-8.51.084c-4.243 2.5-25.488 14.673-31.818 18.34a7.4 7.4 0 0 0-3.877 6.821q-.006 18.543 0 37.085a7.98 7.98 0 0 0 .937 3.922l16.031-9.231A26.47 26.47 0 0 1 73.408 64z"/>
    </g>
    <g fill="#044e87">
        <path d="M88.505 70.569a13.239 13.239 0 0 0 23.034-.076l-11.416-6.613z"/>
        <path d="M100 90.592a26.582 26.582 0 0 1-23.071-13.359L60.9 86.464a7.617 7.617 0 0 0 2.94 2.9c6.331 3.666 27.578 15.837 31.82 18.34a7.856 7.856 0 0 0 8.513.084q15.987-9.229 31.991-18.428a7.618 7.618 0 0 0 2.941-2.9L123.1 77.188A26.583 26.583 0 0 1 100 90.592z"/>
    </g>
    <path d="M140.035 45.46a7.957 7.957 0 0 0-.979-4l-38.933 22.42L139.1 86.461a8 8 0 0 0 .936-3.922s.003-24.717-.001-37.079zm-13.258 20.034h-3.046v3.046h-3.046v-3.046h-3.046v-3.046h3.046V59.4h3.046v3.046h3.046zm11.114 0h-3.046v3.046H131.8v-3.046h-3.046v-3.046h3.046V59.4h3.046v3.046h3.046z" fill="#0062a2"/>
    <g fill="#fff">
        <path d="M134.845 59.402h-3.046v3.046h-3.046v3.046h3.046v3.046h3.046v-3.046h3.046v-3.046h-3.046v-3.046zM123.731 59.402h-3.046v3.046h-3.046v3.046h3.046v3.046h3.046v-3.046h3.046v-3.046h-3.046v-3.046z"/>
        <path d="M111.539 70.493a13.243 13.243 0 1 1-.087-13.137l11.575-6.664a26.592 26.592 0 1 0 .069 26.5z"/>
    </g>
</svg>
