<svg width="120" height="60" fill="none" xmlns="http://www.w3.org/2000/svg">
<path d="M58.1164 36.9382L58.8 36.8655L58.8436 38.2618C57.3119 38.4901 55.7667 38.6164 54.2182 38.64C52.5164 38.64 51.3091 38.1455 50.5964 37.1564C49.8836 36.1673 49.5345 34.6255 49.5345 32.5455C49.5345 28.3855 51.1879 26.3055 54.4945 26.3055C56.0945 26.3055 57.2873 26.7564 58.0727 27.6436C58.8582 28.5309 59.2509 29.9418 59.2509 31.8473L59.1491 33.2H51.3236C51.3236 34.5091 51.5564 35.4836 52.0364 36.1091C52.5164 36.7345 53.3309 37.0545 54.5091 37.0545C55.7127 37.0807 56.9169 37.0418 58.1164 36.9382ZM57.4764 31.8036C57.4764 30.3491 57.2436 29.3164 56.7782 28.72C56.3127 28.1236 55.5564 27.8182 54.5091 27.8182C53.4618 27.8182 52.6618 28.1382 52.1382 28.7636C51.6145 29.3891 51.3382 30.4073 51.3236 31.8036H57.4764ZM61.7236 38.4218V21.4036H63.4982V38.4218H61.7236ZM74.7127 30.1455V35.9782C74.7127 36.5745 76.1818 36.6909 76.1818 36.6909L76.0945 38.2618C74.8436 38.2618 73.8109 38.3636 73.1855 37.7673C71.8431 38.3596 70.3909 38.662 68.9236 38.6545C67.8327 38.6545 67.0036 38.3491 66.4364 37.7236C65.8691 37.0982 65.5782 36.2255 65.5782 35.0618C65.5782 33.8982 65.8691 33.0545 66.4509 32.5164C67.0327 31.9782 67.9491 31.6291 69.2 31.5127L72.9236 31.1636V30.1455C72.9236 29.3455 72.7491 28.7636 72.4 28.4145C72.0509 28.0655 71.5709 27.8909 70.9746 27.8909H66.3055V26.32H70.8582C72.1964 26.32 73.1709 26.6255 73.7818 27.2509C74.3927 27.8764 74.7127 28.8364 74.7127 30.1455ZM67.4109 34.9745C67.4109 36.4291 68.0073 37.1564 69.2146 37.1564C70.2944 37.1586 71.3668 36.9766 72.3855 36.6182L72.9236 36.4291V32.5164L69.4182 32.8509C68.7055 32.9091 68.1964 33.1127 67.8764 33.4618C67.5564 33.8109 67.4109 34.32 67.4109 34.9745ZM81.6509 27.9055C79.9346 27.9055 79.0618 28.5018 79.0618 29.7091C79.0618 30.2618 79.2655 30.6545 79.6582 30.8873C80.0509 31.12 80.9527 31.3527 82.3636 31.6C83.7746 31.8473 84.7636 32.1818 85.3455 32.6327C85.9273 33.0836 86.2182 33.8982 86.2182 35.12C86.2182 36.3418 85.8255 37.2291 85.04 37.7964C84.2546 38.3636 83.12 38.6545 81.6073 38.6545C80.6327 38.6545 77.36 38.2909 77.36 38.2909L77.4618 36.7491C79.3382 36.9236 80.7055 37.0691 81.6218 37.0691C82.5382 37.0691 83.2364 36.9236 83.7164 36.6327C84.1964 36.3418 84.4436 35.8473 84.4436 35.1636C84.4436 34.48 84.24 34.0145 83.8327 33.7673C83.4255 33.52 82.5236 33.2873 81.1273 33.0691C79.7309 32.8509 78.7418 32.5309 78.16 32.0945C77.5782 31.6582 77.2873 30.8727 77.2873 29.7236C77.2873 28.5745 77.6945 27.7164 78.5091 27.1636C79.3236 26.6109 80.3418 26.3345 81.5491 26.3345C82.5091 26.3345 85.8545 26.5818 85.8545 26.5818V28.1382C84.0946 28.0364 82.6546 27.9055 81.6509 27.9055ZM94.8 28.1091H91.0327V33.7818C91.0327 35.1345 91.1345 36.0364 91.3236 36.4582C91.5127 36.88 91.9927 37.0982 92.7346 37.0982L94.8436 36.9527L94.96 38.4218C94.1629 38.5695 93.3557 38.6571 92.5455 38.6836C91.3091 38.6836 90.4655 38.3782 89.9855 37.7818C89.5055 37.1855 89.2727 36.0364 89.2727 34.3491V28.1091H87.5855V26.5673H89.2727V22.9309H91.0327V26.5527H94.8V28.1091ZM97.2727 23.8764V21.8255H99.0473V23.8909L97.2727 23.8764ZM97.2727 38.4218V26.5673H99.0473V38.4218H97.2727ZM106.756 26.32C107.28 26.32 108.167 26.4218 109.418 26.6109L109.985 26.6836L109.913 28.1236C108.986 28.0031 108.054 27.9302 107.12 27.9055C105.782 27.9055 104.865 28.2255 104.385 28.8655C103.905 29.5055 103.658 30.6982 103.658 32.4291C103.658 34.16 103.876 35.3673 104.327 36.0509C104.778 36.7345 105.709 37.0691 107.135 37.0691L109.927 36.8509L110 38.32C108.531 38.5382 107.425 38.6545 106.698 38.6545C104.851 38.6545 103.571 38.1745 102.873 37.2291C102.175 36.2836 101.811 34.6836 101.811 32.4291C101.811 30.1745 102.189 28.5891 102.945 27.6873C103.702 26.7855 104.982 26.32 106.756 26.32Z" fill="black"/>
<g clip-path="url(#clip0_433_37)">
<path fill-rule="evenodd" clip-rule="evenodd" d="M27.9297 13.1254C22.7227 13.1254 18.0694 15.4837 14.975 19.1899C17.0337 21.6557 19.7844 23.5225 22.9284 24.4971C23.6772 24.7291 24.4861 24.6394 25.1917 24.2988C26.0197 23.898 26.9478 23.6723 27.9297 23.6723C28.9116 23.6723 29.8397 23.898 30.6677 24.2988C31.3733 24.6394 32.1822 24.7291 32.931 24.4971C36.0751 23.5225 38.8246 21.6557 40.8844 19.1899C37.79 15.4837 33.1367 13.1254 27.9297 13.1254Z" fill="#0077CC"/>
<path fill-rule="evenodd" clip-rule="evenodd" d="M25.2024 24.2965C25.1992 24.2986 25.195 24.2965 25.1918 24.2986C24.4862 24.6392 23.6773 24.7289 22.9285 24.4969C19.7855 23.5234 17.0359 21.6555 14.9761 19.1907C12.5292 22.1196 11.0548 25.8869 11.0548 30.0002C11.0548 32.9449 11.8131 35.7113 13.1388 38.1213C15.5446 35.4856 18.5831 33.5376 21.9919 32.4808C22.0256 32.4703 22.0615 32.4671 22.0974 32.4566C21.7778 31.7014 21.6017 30.8714 21.6017 30.0002C21.6017 27.4827 23.074 25.3163 25.2024 24.2965Z" fill="#343741"/>
<path fill-rule="evenodd" clip-rule="evenodd" d="M32.9312 35.5025C32.1824 35.2705 31.3724 35.3601 30.6679 35.7019C29.8389 36.1016 28.9107 36.3283 27.9299 36.3283C26.948 36.3283 26.0198 36.1016 25.1919 35.7019C24.4863 35.3601 23.6774 35.2705 22.9286 35.5025C19.7845 36.4781 17.0339 38.3449 14.9752 40.8108C18.0696 44.5159 22.7229 46.8752 27.9299 46.8752C33.1358 46.8752 37.7891 44.5159 40.8846 40.8108C38.8248 38.3449 36.0742 36.4781 32.9312 35.5025Z" fill="#00BFB3"/>
</g>
<defs>
<clipPath id="clip0_433_37">
<rect width="33.75" height="33.75" fill="white" transform="translate(10 13.125)"/>
</clipPath>
</defs>
</svg>
