<svg xmlns="http://www.w3.org/2000/svg" width="200" height="128" xmlns:xlink="http://www.w3.org/1999/xlink">
  <defs>
    <linearGradient id="b" x1="-1318.36" y1="-62.57" x2="-1327.11" y2="296.15" gradientTransform="translate(216.8 43.2) scale(.13 .2)" gradientUnits="userSpaceOnUse">
      <stop offset="0" stop-color="#d9d8dc"/>
      <stop offset="1" stop-color="#fff" stop-opacity=".38"/>
    </linearGradient>
    <linearGradient id="c" x1="-1537.87" y1="-59.87" x2="-1609.42" y2="251.96" gradientTransform="translate(220.46 43.09) scale(.11 .23)" gradientUnits="userSpaceOnUse">
      <stop offset="0" stop-color="#8d67af" stop-opacity=".67"/>
      <stop offset="1" stop-color="#9f8daf"/>
    </linearGradient>
    <linearGradient id="d" x1="-1383.26" y1="35.58" x2="-1383.26" y2="270.24" gradientTransform="translate(218.45 43.15) scale(.12 .21)" gradientUnits="userSpaceOnUse">
      <stop offset="0" stop-color="#26053d" stop-opacity=".76"/>
      <stop offset="1" stop-color="#b7b4b4" stop-opacity=".28"/>
    </linearGradient>
    <linearGradient id="e" x1="-939.35" y1="61.83" x2="-830.82" y2="280.24" gradientTransform="translate(203.8 43.44) scale(.18 .14)" gradientUnits="userSpaceOnUse">
      <stop offset="0" stop-color="#91739f" stop-opacity=".46"/>
      <stop offset="1" stop-color="#32054f" stop-opacity=".54"/>
    </linearGradient>
    <linearGradient id="f" x1="-1094.2" y1="284.37" x2="-1287.1" y2="78.29" gradientTransform="translate(213.95 43.27) scale(.14 .18)" gradientUnits="userSpaceOnUse">
      <stop offset="0" stop-color="#463d49" stop-opacity=".33"/>
      <stop offset="1" stop-color="#340a50" stop-opacity=".82"/>
    </linearGradient>
    <linearGradient id="g" x1="-1624.73" y1="28.88" x2="-1682.14" y2="230.6" gradientTransform="translate(222.39 43.02) scale(.11 .24)" gradientUnits="userSpaceOnUse">
      <stop offset="0" stop-color="#715383" stop-opacity=".14"/>
      <stop offset="1" stop-color="#f4f4f4" stop-opacity=".23"/>
    </linearGradient>
    <linearGradient id="h" x1="-1869.34" y1="58.16" x2="-2052.7" y2="23.66" gradientTransform="translate(225.76 42.87) scale(.09 .28)" gradientUnits="userSpaceOnUse">
      <stop offset="0" stop-color="#a5a1a8" stop-opacity=".36"/>
      <stop offset="1" stop-color="#370c50" stop-opacity=".58"/>
    </linearGradient>
  </defs>
  <path d="m47.31,25.02c-5.69,2.02-11.01,7.89-16.33,17.43-7.89,14.5-17.99,35.05-4.04,51.39,6.42,7.52,17.25,11.93,31.2,4.96,11.19-5.69,14.5-22.02,10.28-29.55-8.44-15.78-16.88-19.64-19.09-29.36-1.47-6.61-2.2-11.56-2.02-14.87Z" fill="url(#b)" fill-rule="evenodd"/>
  <path d="m47.31,24.83c-5.69,2.02-11.19,7.89-16.33,17.43-7.89,14.5-17.99,35.05-4.04,51.39,6.42,7.52,17.07,9.91,22.94,5.51,3.85-2.94,6.42-5.69,7.89-11.56,1.65-6.61.37-15.23-.55-19.45-1.1-5.14-1.47-10.64-1.1-16.88,0,0-.18,0-.18-.18-3.12-3.67-5.32-6.97-6.42-11.56-1.65-6.42-2.39-11.38-2.2-14.68Z" fill="url(#c)" fill-rule="evenodd"/>
  <path d="m42.54,27.4c-5.32,4.22-9.18,11.19-11.75,20.92-3.85,14.68-4.22,28.26-2.94,36.34,2.57,15.42,16.33,21.11,30.28,13.95,8.63-4.4,12.3-13.76,12.11-24.04-.18-10.64-20.74-22.57-24.23-31.38-2.39-6.06-3.49-11.19-3.49-15.78Z" fill="url(#d)" fill-rule="evenodd"/>
  <path d="m55.94,54.93c6.42,8.08,7.71,13.76,4.22,16.88-5.32,4.77-18.54,7.89-26.61,2.2-5.51-3.85-7.52-12.11-6.24-24.78-2.2,4.77-4.22,9.36-5.69,14.31-1.47,4.77-2.02,9.91-1.28,15.05,2.02,3.85,6.61,6.61,14.13,7.89,11.19,2.02,21.84.92,29-2.57,4.77-2.39,6.97-4.77,6.79-7.16.18-3.49-.92-6.79-3.3-10.09-2.2-3.3-5.87-7.16-11.01-11.75Z" fill="url(#e)" fill-rule="evenodd"/>
  <path d="m31.16,46.86c0,5.87,1.47,11.38,4.59,16.7,4.59,7.89,9.91,15.78,17.99,22.21,5.32,4.4,9.73,5.69,12.85,4.22-2.57,4.77-5.51,6.97-8.44,6.97-4.4-.18-9.91-2.02-18.54-12.48-5.87-6.97-9.73-13.58-11.93-19.82.37-2.39.73-4.96,1.1-7.34.55-2.39,1.28-5.87,2.39-10.46Z" fill="url(#f)" fill-rule="evenodd"/>
  <path d="m44.93,54.93c.55,4.77,2.39,12.48,0,17.43-2.39,5.14-13.21,14.31-10.28,22.39s10.28,6.24,14.87,2.57,6.97-9.73,7.52-14.13c.55-4.22-1.28-12.48-1.84-19.64-.37-4.77-.18-8.81.73-12.3l-1.47-1.84-8.26-2.39c-1.1,2.02-1.65,4.59-1.28,7.89Z" fill="url(#g)" fill-rule="evenodd"/>
  <path d="m47.86,31.26c-2.75,1.1-5.14,3.3-7.52,6.79-3.67,4.96-5.51,8.08-4.04,17.99.92,6.61,1.47,12.66,2.02,18.35l11.56-33.58c-.37-1.65-.73-3.3-1.1-4.59-.55-1.65-.73-3.12-.92-4.96Z" fill="url(#h)" fill-rule="evenodd"/>
  <path d="m49.7,40.62c-2.94,1.65-5.14,5.32-6.79,10.46-1.65,5.32-3.12,12.66-4.4,22.21,1.84-6.06,2.94-10.46,3.49-13.21.92-4.04,1.1-9.91,3.49-13.76,1.47-2.57,2.94-4.4,4.22-5.69Z" fill="rgba(51, 10, 76, .32)" fill-rule="evenodd"/>
  <path d="m35.93,97.51c4.77.73,7.34,1.28,7.52,1.84.37.73-.55,1.47-3.3,1.1-1.65-.37-3.12-1.28-4.22-2.94Z" fill="#fff" fill-rule="evenodd"/>
  <path d="m38.5,31.26c-2.57,3.12-4.96,6.61-6.97,10.09s-3.3,6.24-4.22,7.89c-.18,1.28-.37,3.3-.37,5.87s.18,5.32.73,8.44c.37-6.06,1.47-12.11,3.49-17.8,1.84-5.69,4.4-10.64,7.34-14.5Z" fill="rgba(237, 237, 237, .6)" fill-rule="evenodd"/>
  <path d="m88.79,76.04h14.5c.37,0,.55-.18.55-.55,1.47-14.31-8.99-13.21-8.99-13.21-7.34,0-10.46,5.69-10.46,12.66s5.69,12.3,12.66,11.75c4.22-.37,5.32-2.02,6.06-2.75.18-.18.18-.55,0-.73l-1.28-1.28c-.18-.18-.55-.18-.73,0-4.77,3.3-12.48,1.1-12.85-5.32,0-.37.18-.55.55-.55Zm6.06-10.09c2.75,0,4.77,1.65,5.14,5.87,0,.37-.18.55-.55.55h-10.46c-.37,0-.55-.18-.55-.55.18-4.04,3.67-5.87,6.42-5.87Zm15.23-13.4h2.94c.37,0,.55.18.55.55v26.43c0,4.04,2.57,3.49,3.85,3.3.37,0,.55.18.55.55v2.75c0,.37-.18.55-.55.55-7.34-.18-8.08-3.49-8.08-6.61v-26.98c.18-.18.37-.55.73-.55Zm13.76,10.46h3.12c.37,0,.55.18.55.55v22.39c0,.37-.18.55-.55.55h-3.12c-.37,0-.55-.18-.55-.55v-22.39c0-.37.18-.55.55-.55Zm0-6.42h3.12c.37,0,.55-.18.55-.55v-2.94c0-.37-.18-.55-.55-.55h-3.12c-.37,0-.55.18-.55.55v2.94c0,.37.18.55.55.55Zm33.77,6.42h3.12c.37,0,.55.18.55.55v22.39c0,.37-.18.55-.55.55h-3.12c-.37,0-.55-.18-.55-.55v-22.39c0-.37.18-.55.55-.55Zm22.39-.18v3.12c0,.37-.18.55-.55.55-5.14.18-6.61,1.84-6.61,4.59v14.68c0,.37-.18.55-.55.55h-3.12c-.37,0-.55-.18-.55-.55v-22.21c0-.37.18-.55.55-.55h3.12c.37,0,.55.18.55.55v1.65c.73-1.1,2.57-2.57,6.61-2.75.37-.18.55,0,.55.37Zm-22.39-6.24h3.12c.37,0,.55-.18.55-.55v-2.94c0-.37-.18-.55-.55-.55h-3.12c-.37,0-.55.18-.55.55v2.94c0,.37.18.55.55.55Zm-5.32,29l-7.71-11.01c-.18-.18-.18-.37,0-.55l6.79-10.09c.18-.37,0-.73-.37-.73h-2.94c-.18,0-.37,0-.37.18l-4.96,7.16c-.18.37-.73.37-.92,0l-4.96-7.16q-.18-.18-.37-.18h-2.94c-.37,0-.73.55-.37.73l6.79,10.09c.18.18.18.37,0,.55l-7.71,11.01c-.18.37,0,.92.37.92h3.49c.18,0,.37,0,.37-.18l5.32-7.89c.18-.37.73-.37.92,0l5.32,7.89q.18.18.37.18h3.49c.37-.18.73-.55.37-.92h0Z" fill="#333"/>
</svg>