<svg xmlns="http://www.w3.org/2000/svg" width="200" height="128">
    <path fill="#808080" d="M113.07 70.52a6.31 6.31 0 01-.71 2.94 5.5 5.5 0 01-2 2.26 5 5 0 01-2.88.87 4.42 4.42 0 01-3.36-1.3 5.67 5.67 0 01-1.24-4V59.65h-3.2v12.1a8.36 8.36 0 001.79 5.69 6.85 6.85 0 005.33 2 7.45 7.45 0 003.7-1 6.39 6.39 0 002.52-2.41h.15v2.8h3.06V59.66h-3.21zM91.92 51.89h3.2v26.99h-3.2zM72.53 78.88h3.17V67.19h11.23v-3.02H75.7v-9.23h12.44v-3.06H72.53v27zM127.07 75.37a3.66 3.66 0 01-.61-2.34V62.55h4.68v-2.9h-4.68v-5.43h-3.2v5.43h-3.36v2.9h3.36v11.28a6.27 6.27 0 00.37 2.3 4.64 4.64 0 001.13 1.65 5 5 0 001.66 1 6.3 6.3 0 002.19.38 8.32 8.32 0 001.47-.11 5 5 0 001.17-.38v-3.11a3.88 3.88 0 01-2.11.64 2.57 2.57 0 01-2.07-.83zM140.65 75.37a3.73 3.73 0 01-.6-2.34V62.55h4.67v-2.9h-4.67v-5.43h-3.2v5.43h-3.36v2.9h3.36v11.28a6.27 6.27 0 00.37 2.3 4.64 4.64 0 001.13 1.65 5 5 0 001.66 1 6.3 6.3 0 002.19.38 8.32 8.32 0 001.47-.11 5 5 0 001.17-.38v-3.11a3.88 3.88 0 01-2.11.64 2.61 2.61 0 01-2.08-.83zM161 60.34a9.12 9.12 0 00-4.9-1.3 8.72 8.72 0 00-4.91 1.4 9.56 9.56 0 00-3.28 3.73 11.69 11.69 0 00-1.13 5.13 11.3 11.3 0 001.21 5.24 9.27 9.27 0 003.43 3.62 9.44 9.44 0 004.94 1.32 9.26 9.26 0 005.13-1.36 9.59 9.59 0 003.39-3.69l-2.72-1.32a6.26 6.26 0 01-5.69 3.47 6.5 6.5 0 01-3-.76 6.12 6.12 0 01-2.47-2.25 7.62 7.62 0 01-1.05-3.69h15.19a3.62 3.62 0 00.11-1 11 11 0 00-1.13-5.09 8.17 8.17 0 00-3.12-3.45zm-8.78 3.08A5.42 5.42 0 01156 62a5.91 5.91 0 013.24.83 5 5 0 011.92 2 6 6 0 01.68 2.41h-11.71a6.93 6.93 0 012.04-3.82zM177.74 59.09a6.14 6.14 0 00-3.39 1 5.12 5.12 0 00-2.19 2.6H172v-3.04h-3v19.24h3.2V68.15a6.24 6.24 0 01.68-2.88 5.69 5.69 0 011.87-2.15 4.46 4.46 0 012.57-.79 6 6 0 012.71.6v-3.47a6.12 6.12 0 00-2.29-.37z"/>
    <path fill="#39CEFD" d="M49 36.32L20 65.38l8.9 8.9 37.96-37.96H49zM42.3 69.81l8.93 8.94 15.63-15.64H49l-6.7 6.7z"/>
    <path transform="rotate(-45 42.29 78.753)" fill="#16b9fd" d="M35.98 72.43h12.64v12.63H35.98z"/>
    <path fill="#03569b" d="M49 94.38h17.86L51.23 78.75l-8.93 8.93 6.7 6.7z"/>
</svg>
