<svg xmlns="http://www.w3.org/2000/svg" width="120" height="60">
  <path fill="#181616" d="M56.31,28.71h-5.59c-.14,0-.26,.12-.26,.26v2.73c0,.14,.12,.26,.26,.26h2.18v3.39s-.49,.17-1.84,.17c-1.6,0-3.83-.58-3.83-5.49s2.32-5.55,4.5-5.55c1.89,0,2.7,.33,3.22,.49,.16,.05,.31-.11,.31-.26l.62-2.64c0-.07-.02-.15-.1-.2-.21-.15-1.49-.87-4.73-.87-3.73,0-7.56,1.59-7.56,9.22s4.38,8.77,8.07,8.77c3.06,0,4.91-1.31,4.91-1.31,.08-.04,.08-.15,.08-.2v-8.52c0-.14-.12-.26-.26-.26Z"/>
  <path fill="#181616" d="M84.85,21.66h-3.15c-.14,0-.26,.12-.26,.26,0,0,0,6.08,0,6.08h-4.9v-6.08c0-.15-.12-.26-.26-.26h-3.15c-.14,0-.26,.12-.26,.26v16.46c0,.15,.12,.26,.26,.26h3.15c.14,0,.26-.12,.26-.26v-7.04h4.9s0,7.04,0,7.04c0,.15,.12,.26,.26,.26h3.15c.14,0,.26-.12,.26-.26V21.92c0-.15-.12-.26-.26-.26Z"/>
  <path fill="#181616" d="M60.22,22.03c-1.12,0-2.03,.92-2.03,2.05s.91,2.05,2.03,2.05,2.03-.92,2.03-2.05-.91-2.05-2.03-2.05Z"/>
  <path fill="#181616" d="M61.76,27.05h-3.14c-.14,0-.27,.15-.27,.29v10.89c0,.32,.2,.42,.46,.42h2.83c.31,0,.39-.15,.39-.42v-10.91c0-.14-.12-.26-.26-.26Z"/>
  <path fill="#181616" d="M97.07,27.08h-3.12c-.14,0-.26,.12-.26,.26v8.07s-.79,.58-1.92,.58-1.42-.51-1.42-1.61v-7.04c0-.15-.12-.26-.26-.26h-3.17c-.14,0-.26,.12-.26,.26v7.57c0,3.27,1.82,4.08,4.34,4.08,2.06,0,3.72-1.14,3.72-1.14,0,0,.08,.6,.11,.67,.04,.07,.13,.14,.23,.14h2.02c.14,0,.26-.13,.26-.27v-11.05c0-.15-.12-.26-.26-.26Z"/>
  <path fill="#181616" d="M105.6,26.71c-1.77,0-2.98,.79-2.98,.79v-5.58c0-.15-.12-.26-.26-.26h-3.16c-.14,0-.26,.12-.26,.26v16.46c0,.15,.12,.26,.26,.26h2.19c.1,0,.17-.05,.23-.14,.05-.09,.13-.76,.13-.76,0,0,1.29,1.22,3.73,1.22,2.87,0,4.51-1.45,4.51-6.53s-2.63-5.74-4.4-5.74Zm-1.23,9.28c-1.08-.03-1.82-.52-1.82-.52v-5.21s.72-.44,1.61-.52c1.12-.1,2.21,.24,2.21,2.92,0,2.83-.49,3.39-2,3.34Z"/>
  <path fill="#181616" d="M71.11,35.92c-.14,0-.49,.06-.85,.06-1.16,0-1.55-.54-1.55-1.24s0-4.63,0-4.63h2.36c.14,0,.26-.12,.26-.26v-2.54c0-.15-.12-.26-.26-.26h-2.36s0-3.12,0-3.12c0-.12-.06-.18-.2-.18h-3.22c-.13,0-.19,.06-.19,.18v3.22s-1.61,.39-1.72,.42c-.11,.03-.19,.13-.19,.25v2.02c0,.15,.12,.26,.26,.26h1.65v4.87c0,3.62,2.54,3.97,4.25,3.97,.78,0,1.72-.25,1.87-.31,.09-.03,.15-.13,.15-.24v-2.23c0-.15-.12-.26-.26-.26Z"/>
  <path fill="#181616" d="M23.95,16.2c-7.7,0-13.95,6.24-13.95,13.95,0,6.16,4,11.39,9.54,13.24,.7,.13,.95-.3,.95-.67,0-.33-.01-1.43-.02-2.6-3.88,.84-4.7-1.65-4.7-1.65-.63-1.61-1.55-2.04-1.55-2.04-1.27-.87,.1-.85,.1-.85,1.4,.1,2.14,1.44,2.14,1.44,1.24,2.13,3.26,1.52,4.06,1.16,.13-.9,.49-1.52,.89-1.87-3.1-.35-6.35-1.55-6.35-6.89,0-1.52,.54-2.77,1.44-3.74-.14-.35-.62-1.77,.14-3.69,0,0,1.17-.37,3.84,1.43,1.11-.31,2.31-.46,3.49-.47,1.19,0,2.38,.16,3.49,.47,2.66-1.8,3.83-1.43,3.83-1.43,.76,1.92,.28,3.34,.14,3.69,.89,.98,1.44,2.22,1.44,3.74,0,5.36-3.26,6.54-6.37,6.88,.5,.43,.95,1.28,.95,2.58,0,1.87-.02,3.37-.02,3.83,0,.37,.25,.81,.96,.67,5.54-1.85,9.53-7.07,9.53-13.23,0-7.7-6.24-13.95-13.95-13.95Z"/>
  <path fill="#181616" d="M14.92,36.06c-.03,.07,.02,.16,.13,.21,.1,.05,.21,.03,.24-.04,.03-.07-.02-.16-.12-.21-.1-.05-.21-.03-.24,.04Z"/>
  <path fill="#181616" d="M15.52,36.51c-.07,.06-.05,.19,.04,.29,.09,.1,.22,.13,.28,.06,.07-.06,.05-.19-.04-.29-.09-.1-.22-.13-.29-.06Z"/>
  <path fill="#181616" d="M16.09,37.21c-.09,.06-.09,.21,0,.33,.09,.12,.23,.18,.31,.12,.09-.06,.09-.21,0-.34-.09-.12-.23-.18-.31-.12Z"/>
  <path fill="#181616" d="M16.71,38.03c-.08,.08-.04,.24,.08,.36,.12,.12,.28,.14,.36,.05,.08-.08,.04-.24-.08-.36-.12-.11-.28-.14-.36-.05Z"/>
  <path fill="#181616" d="M17.61,38.72c-.03,.11,.07,.24,.23,.29,.16,.05,.31,0,.35-.11,.03-.11-.07-.24-.23-.29-.16-.05-.32,0-.35,.11Z"/>
  <path fill="#181616" d="M18.73,38.98c0,.11,.14,.21,.3,.2,.17,0,.3-.1,.3-.21,0-.11-.14-.21-.3-.2-.17,0-.3,.1-.3,.21Z"/>
  <path fill="#181616" d="M19.8,38.9c.02,.11,.17,.18,.33,.15,.16-.03,.28-.15,.26-.26-.02-.11-.17-.18-.33-.15-.16,.03-.28,.15-.26,.26Z"/>
</svg>