<svg xmlns="http://www.w3.org/2000/svg" width="120" height="60">
    <path d="M80.34 22.009H78.2l.01 15.971h8.679v-1.975H80.35zM95.145 35.178a3.658 3.658 0 0 1-2.654 1.122c-1.631 0-2.29-.806-2.29-1.858 0-1.582 1.1-2.339 3.44-2.339a10.231 10.231 0 0 1 1.514.118v2.958zM92.924 25.5a7.1 7.1 0 0 0-4.561 1.641l.757 1.317a6.558 6.558 0 0 1 3.489-1.022c1.759 0 2.536.9 2.536 2.418v.776a9.832 9.832 0 0 0-1.484-.118c-3.755 0-5.662 1.318-5.662 4.07 0 2.467 1.514 3.7 3.8 3.7a3.822 3.822 0 0 0 3.539-1.858l.393 1.563h1.513v-8.175c-.01-2.585-1.13-4.315-4.324-4.315zM104.162 36.371a4.994 4.994 0 0 1-2.045-.344v-7.381a4.229 4.229 0 0 1 2.782-1.052c2.074 0 2.87 1.465 2.87 3.833 0 3.362-1.288 4.944-3.607 4.944m.9-10.87a3.927 3.927 0 0 0-2.949 1.307v-2.066l-.009-2.732h-2.094l.01 15.578a10.833 10.833 0 0 0 4.049.678c4 0 5.927-2.555 5.927-6.968-.01-3.489-1.789-5.8-4.934-5.8M57.011 23.741a6.021 6.021 0 0 1 3.921 1.268l.924-1.6a7.135 7.135 0 0 0-4.747-1.69c-4.561 0-7.755 2.781-7.755 8.393 0 5.878 3.45 8.168 7.391 8.168a12.548 12.548 0 0 0 4.757-.924l-.049-6.28V29.1H55.6v1.976h3.735l.049 4.767a5.838 5.838 0 0 1-2.486.442c-3.165 0-5.288-2-5.288-6.192-.01-4.276 2.182-6.35 5.4-6.35M72.1 22.007h-2.093l.01 2.683v9.268c0 2.585 1.12 4.315 4.315 4.315a6.856 6.856 0 0 0 1.287-.118v-1.877a6.091 6.091 0 0 1-.973.069c-1.759 0-2.536-.905-2.536-2.418V27.54h3.509v-1.749h-3.506l-.013-3.784zM64.683 37.98h2.093V25.793h-2.093zM64.683 24.112h2.093v-2.094h-2.093z" fill="#8c929d"/>
    <path d="M43.119 32.193l-1.859-5.712-3.678-11.331a.636.636 0 0 0-1.206 0L32.7 26.474H20.479L16.8 15.15a.635.635 0 0 0-1.2 0l-3.676 11.324-1.859 5.719a1.266 1.266 0 0 0 .458 1.414l16.066 11.677 16.066-11.677a1.268 1.268 0 0 0 .464-1.414" fill="#fc6d26"/>
    <path d="M26.593 45.273l6.107-18.8H20.483z" fill="#e24329"/>
    <path d="M26.589 45.274l-6.11-18.8h-8.551z" fill="#fc6d26"/>
    <path d="M11.922 26.48l-1.86 5.712a1.266 1.266 0 0 0 .458 1.414l16.066 11.678z" fill="#fca326"/>
    <path d="M11.924 26.48h8.561L16.8 15.156a.636.636 0 0 0-1.206 0z" fill="#e24329"/>
    <path d="M26.593 45.274l6.107-18.8h8.561z" fill="#fc6d26"/>
    <path d="M41.258 26.48l1.861 5.712a1.266 1.266 0 0 1-.458 1.414L26.594 45.273 41.258 26.48z" fill="#fca326"/>
    <path d="M41.263 26.48H32.7l3.678-11.324a.636.636 0 0 1 1.206 0l3.678 11.324z" fill="#e24329"/>
</svg>
