<svg xmlns="http://www.w3.org/2000/svg" width="200" height="128">
    <g>
        <path fill="#029dd1" fill-rule="evenodd" d="m27.62 58.79 15.71-8.84s-1.48 1.3-1.42 4.12c.07 3 1.42 4.12 1.42 4.12l-1.85-.84-14.45 5.66s-.35-.98-.36-1.72c-.01-1.83.94-2.5.94-2.5Z"/>
        <path fill="#0047bd" fill-rule="evenodd" d="m24.28 64.57 17.16-6.28s-1.48 1.3-1.42 4.12c.07 3 1.42 4.12 1.42 4.12l-2.4-.92-15.4 3.03s-.3-.91-.3-1.58c-.01-1.83.94-2.5.94-2.5Z"/>
        <g>
            <path fill="#4817a1" fill-rule="evenodd" d="m20.94 69.66 18.11-3.25s-1.48 1.3-1.42 4.12c.07 3 1.42 4.12 1.42 4.12H21.08S20.02 74 20 72.06c-.01-1.83.94-2.4.94-2.4"/>
        </g>
    </g>
    <path fill="#029dd1" fill-rule="evenodd" d="M47.9 65.3c0 5.23 3.93 8.66 8.76 8.66 2.9 0 5.23-1.2 6.88-3.03v-6.26h-7.91v2.58h4.98v2.6c-.75.7-2.25 1.5-3.95 1.5-3.3 0-5.75-2.55-5.75-6.06s2.45-6.03 5.75-6.03c1.72 0 3.33.83 4.33 2.23l2.4-1.35c-1.35-1.93-3.48-3.48-6.73-3.48-4.83 0-8.76 3.4-8.76 8.63Zm17.86 8.33h2.63V65.4c.53-.85 2-1.6 3.1-1.6.28 0 .55.02.83.08v-2.6c-1.58 0-3.03.9-3.93 2.05v-1.78h-2.63v12.09Zm13.38.3c3.88 0 6.23-2.88 6.23-6.36s-2.35-6.33-6.23-6.33-6.2 2.88-6.2 6.33 2.38 6.36 6.2 6.36m0-2.32c-2.23 0-3.48-1.88-3.48-4.03s1.25-4 3.48-4 3.5 1.88 3.5 4-1.25 4.03-3.5 4.03m18.66 2.02h2.75l3.75-12.09h-2.73l-2.55 8.78-2.88-8.78h-2.3l-2.88 8.78-2.55-8.78h-2.73l3.75 12.09h2.75l2.8-8.86 2.8 8.86Zm11.21.3c1.23 0 2-.33 2.48-.78l-.63-1.98c-.2.23-.68.43-1.18.43-.75 0-1.15-.6-1.15-1.43v-6.33h2.45v-2.3h-2.45v-3.3h-2.63v3.3h-2v2.3h2v6.98c0 2 1.08 3.1 3.1 3.1Zm11.78-.3h2.63v-8.56c0-2.48-1.3-3.83-3.9-3.83-1.9 0-3.48 1-4.28 1.95v-6.26h-2.63v16.69h2.63v-8.43c.63-.83 1.78-1.63 3.1-1.63 1.48 0 2.45.58 2.45 2.45v7.61Zm5.35 0h8.43c3.13 0 4.85-1.93 4.85-4.5 0-2.05-1.45-3.83-3.23-4.1 1.55-.33 2.9-1.73 2.9-3.83 0-2.35-1.7-4.25-4.75-4.25h-8.21v16.69Zm2.93-9.78v-4.33h4.68c1.5 0 2.35.93 2.35 2.18s-.85 2.15-2.35 2.15zm0 7.21v-4.63h4.8c1.68 0 2.55 1.05 2.55 2.3 0 1.45-.95 2.33-2.55 2.33zm17.91 2.87c3.88 0 6.23-2.88 6.23-6.36s-2.35-6.33-6.23-6.33-6.2 2.88-6.2 6.33 2.38 6.36 6.2 6.36m0-2.32c-2.23 0-3.48-1.88-3.48-4.03s1.25-4 3.48-4 3.5 1.88 3.5 4-1.25 4.03-3.5 4.03m13.58 2.32c3.88 0 6.23-2.88 6.23-6.36s-2.35-6.33-6.23-6.33-6.2 2.88-6.2 6.33 2.38 6.36 6.2 6.36m0-2.32c-2.23 0-3.48-1.88-3.48-4.03s1.25-4 3.48-4 3.5 1.88 3.5 4-1.25 4.03-3.5 4.03m16.14 2.02h3.3l-5.13-6.61 5.03-5.48h-3.25l-5.33 5.83V56.94h-2.63v16.69h2.63v-3.25l1.68-1.73z"/>
</svg>
