<svg xmlns="http://www.w3.org/2000/svg" width="200" height="128">
    <path d="M102.7 46.8c2.81 3.22-.73 6.13-.73 6.13s7.12-3.68 3.85-8.28c-3.05-4.3-5.4-6.43 7.28-13.78 0 0-19.9 4.97-10.4 15.93" style="fill:#f8971d"/>
    <path d="M105.82 19s6.04 6.04-5.73 15.33c-9.44 7.45-2.15 11.71 0 16.56-5.51-4.97-9.55-9.35-6.84-13.42 3.98-5.98 15.01-8.87 12.57-18.47" style="fill:#f8971d"/>
    <path d="M92.37 63.97s-2.22 1.29 1.58 1.73c4.61.53 6.97.45 12.04-.51 0 0 1.34.84 3.2 1.56-11.38 4.88-25.76-.28-16.82-2.77" style="fill:#58839f"/>
    <path d="M90.98 57.6s-2.49 1.84 1.31 2.24c4.92.51 8.81.55 15.53-.75 0 0 .93.94 2.39 1.46-13.76 4.03-29.09.32-19.24-2.95" style="fill:#58839f"/>
    <path d="M117.76 68.67s1.64 1.35-1.81 2.4c-6.57 1.99-27.34 2.59-33.11.08-2.08-.91 1.82-2.15 3.04-2.42 1.28-.27 2.01-.23 2.01-.23-2.31-1.63-14.91 3.19-6.4 4.57 23.21 3.76 42.3-1.69 36.29-4.41" style="fill:#58839f"/>
    <path d="M93.44 51s-10.57 2.51-3.74 3.42c2.88.38 8.63.29 13.98-.15 4.37-.37 8.76-1.15 8.76-1.15s-1.54.66-2.66 1.42c-10.73 2.82-31.46 1.51-25.49-1.37 5.05-2.44 9.15-2.16 9.15-2.16" style="fill:#58839f"/>
    <path d="M112.39 61.6c10.91-5.67 5.87-11.12 2.34-10.38-.86.18-1.25.34-1.25.34s.32-.5.93-.72c6.96-2.45 12.32 7.22-2.25 11.05 0 0 .17-.15.22-.29" style="fill:#58839f"/>
    <path d="M94.51 76.96c10.47.67 26.55-.37 26.93-5.33 0 0-.73 1.88-8.65 3.37-8.94 1.68-19.96 1.48-26.5.4 0 0 1.34 1.11 8.22 1.55" style="fill:#58839f"/>
    <path d="M76.66 99.82c0 .92-.22 1.7-.67 2.34-.44.64-1.08 1.14-1.91 1.49s-1.82.53-2.97.53c-.56 0-1.1-.03-1.61-.1s-1-.15-1.44-.27c-.44-.11-.84-.26-1.18-.43v-2.19c.57.26 1.25.49 2.02.7s1.56.31 2.37.31c.69 0 1.26-.09 1.72-.28s.8-.44 1.03-.77.34-.72.34-1.16c0-.47-.12-.87-.35-1.19-.24-.32-.6-.62-1.1-.9s-1.16-.58-1.99-.89c-.57-.21-1.09-.46-1.56-.72-.47-.27-.87-.58-1.23-.94s-.62-.77-.81-1.25c-.19-.47-.28-1.02-.28-1.66 0-.85.21-1.57.63-2.17s1.01-1.06 1.75-1.39c.75-.32 1.61-.48 2.6-.48.83 0 1.6.08 2.31.25s1.39.39 2.03.68l-.73 1.91c-.59-.24-1.18-.44-1.78-.6q-.9-.24-1.89-.24c-.57 0-1.05.09-1.44.26s-.68.41-.87.71-.29.65-.29 1.05c0 .47.11.87.32 1.18.22.32.56.61 1.03.87.47.27 1.1.56 1.87.87.86.33 1.59.69 2.2 1.08s1.07.85 1.39 1.39.47 1.21.47 2.01Z" style="fill:#58839f"/>
    <path d="M83.56 92.17c1.02 0 1.9.21 2.63.63.74.42 1.3 1.03 1.69 1.82s.58 1.72.58 2.79v1.27h-7.78c.03 1.18.34 2.08.95 2.71.6.63 1.45.95 2.54.95.73 0 1.38-.07 1.96-.2.57-.14 1.17-.34 1.78-.61v1.89c-.59.26-1.18.45-1.76.58s-1.3.19-2.13.19c-1.12 0-2.1-.22-2.96-.66s-1.52-1.1-2-1.99-.72-1.98-.72-3.29.21-2.39.64-3.29 1.04-1.59 1.83-2.08c.79-.48 1.71-.72 2.75-.72Zm.03 1.76c-.83 0-1.49.27-1.98.8s-.78 1.28-.88 2.26h5.46c0-.62-.1-1.15-.29-1.59s-.48-.8-.86-1.06-.86-.4-1.45-.4Z" style="fill:#58839f"/>
    <path d="M96.57 92.17c.22 0 .45.01.7.03s.46.05.63.1l-.26 2.13c-.19-.04-.39-.08-.6-.11s-.44-.04-.69-.04c-.4 0-.8.08-1.18.25-.39.17-.73.4-1.03.7s-.54.67-.72 1.12-.27.96-.27 1.55v6.08h-2.28V92.39h1.81l.3 2.06h.11c.23-.42.52-.8.86-1.15s.74-.63 1.18-.83q.66-.3 1.44-.3" style="fill:#58839f"/>
    <path d="m102.16 103.97-4.39-11.59h2.43l2.37 6.84c.1.27.21.58.32.91q.165.51.3.99c.09.32.14.59.17.81h.09a14.399 14.399 0 0 1 .52-1.81c.12-.34.23-.64.31-.9l2.39-6.84h2.43l-4.43 11.59h-2.52Z" style="fill:#58839f"/>
    <path d="M112.72 103.97h-2.28V87.63h2.28z" style="fill:#58839f"/>
    <path d="M120.41 92.17c1.02 0 1.9.21 2.63.63.74.42 1.3 1.03 1.69 1.82s.58 1.72.58 2.79v1.27h-7.78c.03 1.18.34 2.08.95 2.71.6.63 1.45.95 2.54.95.73 0 1.38-.07 1.96-.2.57-.14 1.17-.34 1.78-.61v1.89c-.59.26-1.18.45-1.76.58s-1.3.19-2.13.19c-1.12 0-2.1-.22-2.96-.66s-1.52-1.1-2-1.99-.72-1.98-.72-3.29.21-2.39.64-3.29 1.04-1.59 1.83-2.08c.79-.48 1.71-.72 2.75-.72Zm.02 1.76c-.83 0-1.49.27-1.98.8s-.78 1.28-.88 2.26h5.46c0-.62-.1-1.15-.29-1.59s-.48-.8-.86-1.06-.86-.4-1.45-.4Z" style="fill:#58839f"/>
    <path d="M131.91 102.33c.3 0 .61-.03.92-.09s.59-.12.82-.19v1.72c-.24.12-.57.21-.99.29s-.83.12-1.25.12c-.63 0-1.21-.11-1.73-.32s-.94-.59-1.26-1.12-.47-1.27-.47-2.21v-6.41h-1.61v-1.03l1.7-.86.8-2.45h1.4v2.6h3.31v1.74h-3.31v6.36c0 .63.15 1.1.46 1.4s.71.45 1.21.45" style="fill:#58839f"/>
</svg>
