<svg xmlns="http://www.w3.org/2000/svg" width="120" height="60">
    <path fill="#06232e" d="M15.49 17.61h-.06c-.17.24-1 1.42-2 2.59-8.42 10.72 1.32 18 1.32 18l.08.06c.08 1.12.26 2.72.26 2.72h.73s.19-1.6.26-2.72l.08-.06s9.75-7.23 1.33-17.95c-.98-1.25-1.83-2.4-2-2.64zM16 37.44a5.67 5.67 0 01-.56.56 4.45 4.45 0 01-.56-.55l.53-11.68.59 11.65zM33.66 35.61l-4-9.86h-3.22v.66H27a.58.58 0 01.58.57l-.09 9.93a.58.58 0 01-.57.57h-.52v.65h3.07v-.65h-.31a.58.58 0 01-.57-.57v-9.38L33 38.12a.41.41 0 00.53.22.4.4 0 00.22-.22L38 27.77l.06 9.11a.56.56 0 01-.56.58h-.33v.66h3.6v-.65h-.5a.57.57 0 01-.56-.57v-9.93a.59.59 0 01.57-.58h.53v-.66h-3.09zM62 37.31a.54.54 0 01-.15-.4V32a2.81 2.81 0 00-.85-2.12 3 3 0 00-2.2-.78 3.48 3.48 0 00-3 1.56.07.07 0 01-.06 0 .08.08 0 010-.05l-.33-1.3h-.57l-1.44.83v.46h.37a.64.64 0 01.42.13.53.53 0 01.15.42v5.73a.53.53 0 01-.5.55h-.42v.66h3.33v-.66h-.36a.52.52 0 01-.55-.5V33.12a3.35 3.35 0 01.16-1.43 2.92 2.92 0 011-1.16 2.39 2.39 0 011.46-.44 1.68 1.68 0 011.41.59 2.52 2.52 0 01.46 1.54v4.69a.53.53 0 01-.5.55h-.42v.66h3.33v-.66h-.37a.53.53 0 01-.37-.15zM92.44 26.46a6.48 6.48 0 00-3.08-.74H85v.66h.42a.71.71 0 01.66.66v9.77a.62.62 0 01-.21.45.64.64 0 01-.45.21H85v.66h4.36a6.49 6.49 0 003.08-.75 5.62 5.62 0 002.23-2.15 6.5 6.5 0 00.82-3.31 6.4 6.4 0 00-.82-3.31 5.69 5.69 0 00-2.23-2.15zm.69 8.4a4.2 4.2 0 01-1.63 1.75 4.4 4.4 0 01-2.21.58h-.88a.73.73 0 01-.66-.66v-9.22a.69.69 0 01.66-.65h.88a4.41 4.41 0 012.21.57A4.23 4.23 0 0193.13 29a6.29 6.29 0 01.62 2.93 6.36 6.36 0 01-.62 2.93zM103.68 31.52a2.92 2.92 0 001.9-2.64 2.85 2.85 0 00-.49-1.65 3.33 3.33 0 00-1.38-1.11 4.91 4.91 0 00-2.06-.4h-4.9v.66h.39a.73.73 0 01.66.66v9.77a.73.73 0 01-.66.66h-.43v.66H102a6.17 6.17 0 002.24-.41 3.71 3.71 0 001.62-1.2 3.12 3.12 0 00.6-1.92 3 3 0 00-.72-2 4 4 0 00-2.06-1.08zm-4.21-4.21a.71.71 0 01.66-.65h1.2a2.52 2.52 0 011.9.63 2.3 2.3 0 01.6 1.64 2.35 2.35 0 01-.56 1.66 2.15 2.15 0 01-1.68.62h-2.12zm5 8.54a2.55 2.55 0 01-.93 1 3 3 0 01-1.51.37h-1.87a.6.6 0 01-.45-.21.64.64 0 01-.21-.45v-4.42h2.5a2.85 2.85 0 012 .68 2.38 2.38 0 01.71 1.78 2.75 2.75 0 01-.27 1.25zM49.28 29.67a5 5 0 00-4.65 0A4.36 4.36 0 0043 31.31a5.09 5.09 0 000 4.85 4.33 4.33 0 001.66 1.63 5 5 0 004.65 0A4.36 4.36 0 0051 36.16a5.14 5.14 0 000-4.85 4.38 4.38 0 00-1.72-1.64zm-.14 6.74a2.9 2.9 0 01-4.36 0 4.09 4.09 0 01-.78-2.68 4.07 4.07 0 01.82-2.68 2.91 2.91 0 014.36 0 4.12 4.12 0 01.82 2.68 4.1 4.1 0 01-.86 2.68zM81.34 29.67a5 5 0 00-4.66 0A4.36 4.36 0 0075 31.31a5.09 5.09 0 000 4.85 4.33 4.33 0 001.66 1.63 5 5 0 004.66 0A4.33 4.33 0 0083 36.16a5.09 5.09 0 000-4.85 4.43 4.43 0 00-1.66-1.64zm-.15 6.74a2.9 2.9 0 01-4.36 0 4.09 4.09 0 01-.83-2.68 4.12 4.12 0 01.82-2.68 2.91 2.91 0 014.36 0 4.12 4.12 0 01.82 2.68 4.1 4.1 0 01-.81 2.68zM68.4 29.1a4.31 4.31 0 00-2 .46 3.64 3.64 0 00-1.4 1.26 3.31 3.31 0 00-.12 3.29 3.48 3.48 0 001 1.12L64.63 37a.72.72 0 00.57 1.14h.38a2.75 2.75 0 00-.86.87 2.31 2.31 0 00-.35 1.23 2.23 2.23 0 001 1.9 4.74 4.74 0 002.81.73 6.74 6.74 0 002.34-.4 4.21 4.21 0 001.75-1.16 2.74 2.74 0 00.73-1.84 2.12 2.12 0 00-.91-1.78 4 4 0 00-2.5-.69h-3.66l.95-1.27a3.38 3.38 0 00.7.23 3.51 3.51 0 00.72.07 4.48 4.48 0 002.06-.47 3.53 3.53 0 001.42-1.26 3.14 3.14 0 00.52-1.74A3.33 3.33 0 0071.09 30l2 .22v-.9h-3.17a4.61 4.61 0 00-1.52-.22zm-2.2 9.77a2.07 2.07 0 01.83-.75h2.46a1.89 1.89 0 011.41.43 1.57 1.57 0 01.43 1.14 2 2 0 01-.78 1.62 3.38 3.38 0 01-2.12.62 3.2 3.2 0 01-1.86-.5 1.68 1.68 0 01-.7-1.46 1.87 1.87 0 01.33-1.1zm4.14-7.69a2.66 2.66 0 01.33 1.38 2.7 2.7 0 01-.33 1.44 2.19 2.19 0 01-.85.83 2.33 2.33 0 01-1.09.28 2.28 2.28 0 01-1.6-.65 2.86 2.86 0 010-3.7 2.23 2.23 0 011.6-.64 2.31 2.31 0 011.09.27 2.28 2.28 0 01.85.79zM110 36.42a1.24 1.24 0 00-.43-.42 1.26 1.26 0 00-1.22 0 1.13 1.13 0 00-.42.42 1.17 1.17 0 000 1.17 1 1 0 00.42.42 1.26 1.26 0 001.22 0 1.08 1.08 0 00.43-.42 1.22 1.22 0 000-1.17zm-.18 1.1a.87.87 0 01-.35.36 1.06 1.06 0 01-1 0 1 1 0 01-.36-.36 1.1 1.1 0 010-1 .93.93 0 01.36-.35 1 1 0 011 0 .84.84 0 01.35.35 1.1 1.1 0 01-.01 1z"/>
    <path fill="#06232e" d="M109.44 37.47a.07.07 0 01-.06 0l-.21-.34h-.11a.38.38 0 00.23-.11.31.31 0 00.09-.22.31.31 0 00-.11-.26.62.62 0 00-.32-.09h-.49v.1h.06v.84a.08.08 0 010 .05h-.07v.08h.55v-.08h-.07v-.38h.07l.29.49h.31v-.09zm-.61-.5v-.41a.1.1 0 01.07-.07.24.24 0 01.16.07.22.22 0 010 .17.2.2 0 01-.06.18.24.24 0 01-.17.06z"/>
</svg>
