<svg xmlns="http://www.w3.org/2000/svg" width="128" height="128">
    <path d="M49.09 46.75V34.7c0-1.01.38-1.78 1.27-2.28l24.23-13.95c3.3-1.9 7.23-2.79 11.29-2.79 15.22 0 24.86 11.8 24.86 24.36 0 .89 0 1.9-.13 2.92L85.49 28.24c-1.52-.89-3.04-.89-4.57 0L49.08 46.76Zm56.58 46.93v-28.8c0-1.78-.76-3.04-2.28-3.93L71.55 42.43l10.4-5.96c.89-.51 1.65-.51 2.54 0l24.23 13.95c6.98 4.06 11.67 12.69 11.67 21.06 0 9.64-5.71 18.52-14.72 22.2M41.61 68.31l-10.4-6.09c-.89-.51-1.27-1.27-1.27-2.28V32.03c0-13.57 10.4-23.85 24.48-23.85 5.33 0 10.28 1.78 14.46 4.95L43.89 27.59c-1.52.89-2.28 2.16-2.28 3.93zM64 81.25l-14.91-8.37V55.12L64 46.75l14.91 8.37v17.76zm9.58 38.57c-5.33 0-10.27-1.78-14.46-4.95l24.99-14.46c1.52-.89 2.28-2.16 2.28-3.93V59.69l10.53 6.09c.89.51 1.27 1.27 1.27 2.28v27.91c0 13.57-10.53 23.85-24.61 23.85M43.51 91.53 19.28 77.58C12.3 73.52 7.61 64.89 7.61 56.52c0-9.77 5.84-18.52 14.84-22.2v28.92c0 1.78.76 3.04 2.28 3.93l31.72 18.39-10.4 5.96c-.89.51-1.65.51-2.54 0Zm-1.39 20.8c-14.34 0-24.86-10.78-24.86-24.1 0-1.01.13-2.03.25-3.04L42.5 99.65c1.52.89 3.04.89 4.57 0l31.84-18.39v12.05c0 1.01-.38 1.78-1.27 2.28l-24.23 13.95c-3.3 1.9-7.23 2.79-11.29 2.79m31.46 15.1c15.35 0 28.16-10.91 31.08-25.37 14.21-3.68 23.34-17 23.34-30.57 0-8.88-3.81-17.51-10.66-23.72.63-2.66 1.01-5.33 1.01-7.99 0-18.14-14.72-31.72-31.72-31.72-3.42 0-6.72.51-10.02 1.65C70.91 4.12 63.05.57 54.42.57c-15.35 0-28.16 10.91-31.08 25.37C9.13 29.62 0 42.94 0 56.52c0 8.88 3.81 17.51 10.66 23.72-.63 2.66-1.01 5.33-1.01 7.99 0 18.14 14.72 31.71 31.71 31.71 3.42 0 6.72-.51 10.02-1.65 5.71 5.58 13.57 9.13 22.2 9.13Z"/>
</svg>
