<svg xmlns="http://www.w3.org/2000/svg" width="128" height="128">
    <path fill="#a9e200" d="M128 42.7v-7.13h-7.1V7.1H92.43V0H85.3v7.1H67.53V0H60.4v7.1H42.76V0h-7.1v7.1H7.23v28.47H0v7.13h7.2v17.67H0v7.1h7.2V85.3H0v7.1h7.2v28.5h28.46v7.1h7.1v-7.1h17.71v7.1h7.13v-7.1h17.77v7.1h7.1v-7.1h28.4V92.43H128v-7.1h-7.1V67.47h7.1v-7.1h-7.1V42.7zm-14.24-7.13h-7.1v7.13h7.1v17.67h-7.1v7.1h7.1v17.86h-7.1v7.1h7.1v21.34H92.47v-7.1h-7.1v7.1H67.6v-7.1h-7.13v7.1H42.76v-7.1h-7.1v7.1H14.33V92.4h7v-7.1h-7V67.47h7v-7.1h-7V42.7h7v-7.13h-7V14.2h21.33v7.13h7.1V14.2H60.4v7.13h7.13V14.2H85.3v7.13h7.13V14.2h21.3z"/>
    <path fill="#a9e200" d="M35.66 35.57h56.77V92.4H35.66z"/>
</svg>
