<svg xmlns="http://www.w3.org/2000/svg" width="128" height="128">
    <defs>
        <linearGradient id="a" x1="164.072" y1="95.285" x2="288.231" y2="-11.537" gradientTransform="matrix(.563 0 0 -.568 -94.704 57.764)" gradientUnits="userSpaceOnUse">
            <stop offset="0" stop-color="#5a9fd4"/>
            <stop offset="1" stop-color="#306998"/>
        </linearGradient>
        <linearGradient id="b" x1="336.232" y1="-76.191" x2="291.895" y2="-13.461" gradientTransform="matrix(.563 0 0 -.568 -94.704 57.764)" gradientUnits="userSpaceOnUse">
            <stop offset="0" stop-color="#ffd43b"/>
            <stop offset="1" stop-color="#ffe873"/>
        </linearGradient>
    </defs>
    <path d="M63.246 0a87.191 87.191 0 0 0-14.592 1.247C35.732 3.53 33.386 8.308 33.386 17.12v11.638h30.536v3.88h-42c-8.874 0-16.646 5.334-19.076 15.482-2.8 11.631-2.928 18.889 0 31.035C5.019 88.2 10.2 94.637 19.078 94.637h10.5V80.685a19.406 19.406 0 0 1 19.077-18.97h30.5A15.384 15.384 0 0 0 94.424 46.2V17.12c0-8.275-6.982-14.492-15.269-15.873A95.187 95.187 0 0 0 63.246 0zM46.732 9.361A5.82 5.82 0 1 1 41 15.2a5.794 5.794 0 0 1 5.732-5.839z" fill="url(#a)"/>
    <path d="M98.232 32.638V46.2c0 10.513-8.913 19.361-19.077 19.361h-30.5a15.577 15.577 0 0 0-15.269 15.516v29.077c0 8.276 7.2 13.143 15.268 15.518a51.091 51.091 0 0 0 30.5 0c7.688-2.226 15.269-6.706 15.269-15.518V98.516h-30.5v-3.879h45.77c8.875 0 12.182-6.191 15.268-15.482 3.189-9.566 3.053-18.765 0-31.035-2.193-8.835-6.382-15.482-15.268-15.482zm-17.155 73.637a5.82 5.82 0 1 1-5.73 5.8 5.763 5.763 0 0 1 5.73-5.8z" fill="url(#b)"/>
</svg>
