<svg xmlns="http://www.w3.org/2000/svg" width="120" height="60">
    <path d="M32.94 39.87c0-.5-.37-.75-.87-.75-.43 0-.75.12-1.06.31v-.62c.25-.19.68-.31 1.18-.31.87 0 1.43.5 1.43 1.3v2.55H33v-.31c-.12.12-.56.37-.99.37-.75 0-1.43-.43-1.43-1.18 0-.68.62-1.18 1.43-1.18.37 0 .81.19.93.31v-.5zm0 1.18c-.12-.31-.5-.5-.87-.5-.43 0-.87.19-.87.68 0 .43.43.68.87.68.37 0 .75-.19.87-.5v-.37zm8.01-3.91v5.22h-.68V40h-2.92v2.36h-.68v-5.22h.68v2.24h2.92v-2.24h.68zm1.55 3.42c0 .87.56 1.3 1.24 1.3.43 0 .75-.12 1.06-.37v.56c-.31.25-.68.31-1.12.31-1.06 0-1.8-.75-1.8-1.93s.68-1.99 1.68-1.99 1.55.75 1.55 1.86v.25H42.5zm0-.5h1.93c0-.56-.31-1.06-.93-1.06-.43.06-.87.37-.99 1.06zm6.52 1.43l.81-2.86h.62l-1.12 3.79h-.62l-.81-2.86-.81 2.86h-.62l-1.12-3.79h.62l.81 2.86.75-2.86h.56l.93 2.86zm2.8.87h-.62v-5.53h.62v5.53zm1.49-1.8c0 .87.56 1.3 1.24 1.3.43 0 .75-.12 1.06-.37v.56c-.31.25-.68.31-1.12.31-1.06 0-1.8-.75-1.8-1.93s.68-1.99 1.68-1.99 1.55.75 1.55 1.86v.25h-2.61zm0-.5h1.93c0-.56-.31-1.06-.93-1.06-.43.06-.87.37-.99 1.06zm4.41 2.3h-.62v-3.23h-.81v-.56h.81v-.99h.62v.99h.87v.56h-.87v3.23zm2.86 0h-.62v-3.23h-.81v-.56h.81v-.99h.62v.99h.87v.56h-.87v3.23zm4.29-2.11v2.11h-.68v-5.22h1.93c1.06 0 1.74.56 1.74 1.55s-.68 1.55-1.74 1.55h-1.24zm1.24-2.55h-1.24v1.93h1.24c.68 0 1.06-.37 1.06-.99.06-.5-.31-.93-1.06-.93zm4.54 2.17c0-.5-.37-.75-.87-.75-.43 0-.75.12-1.06.31v-.62c.25-.19.68-.31 1.18-.31.87 0 1.43.5 1.43 1.3v2.55h-.62v-.31c-.12.12-.56.37-.99.37-.75 0-1.43-.43-1.43-1.18 0-.68.62-1.18 1.43-1.18.37 0 .81.19.93.31v-.5zm0 1.18c-.12-.31-.5-.5-.87-.5-.43 0-.87.19-.87.68 0 .43.43.68.87.68.37 0 .75-.19.87-.5v-.37zm3.23-2.55c.37 0 .75.06.99.31v.62c-.25-.25-.62-.37-.99-.37-.68 0-1.24.5-1.24 1.37s.56 1.37 1.24 1.37c.37 0 .68-.12.99-.37v.62c-.25.25-.62.31-.99.31-.99 0-1.8-.75-1.8-1.99 0-1.12.81-1.86 1.8-1.86zm5.03 3.85h-.81l-1.74-1.86v1.86h-.62v-5.53h.62v3.35l1.68-1.62h.81l-1.86 1.74 1.93 2.05zm2.67-2.48c0-.5-.37-.75-.87-.75-.43 0-.75.12-1.06.31v-.62c.25-.19.68-.31 1.18-.31.87 0 1.43.5 1.43 1.3v2.55h-.62v-.31c-.12.12-.56.37-.99.37-.75 0-1.43-.43-1.43-1.18 0-.68.62-1.18 1.43-1.18.37 0 .81.19.93.31v-.5zm0 1.18c-.12-.31-.5-.5-.87-.5-.43 0-.87.19-.87.68 0 .43.43.68.87.68.37 0 .75-.19.87-.5v-.37zm3.54-1.86a.908.908 0 00-.43-.12c-.37 0-.75.25-.87.68v2.55h-.62v-3.79h.62v.5c.19-.31.5-.56.93-.56.19 0 .31 0 .37.06v.68zm3.23 2.73c-.19.25-.62.5-1.06.5-1.12 0-1.68-.87-1.68-1.99 0-1.06.62-1.99 1.68-1.99.5 0 .87.25 1.06.5v-2.17h.62v5.53h-.62v-.37zm0-2.24c-.19-.37-.56-.62-.99-.62-.75 0-1.12.56-1.12 1.37s.43 1.37 1.12 1.37c.37 0 .75-.25.99-.62v-1.49zm-56.66 5.96v.62h-2.67v1.68h2.42v.62h-2.42v1.8h2.67v.62H28.4v-5.22l3.29-.12zm.81 1.43h.62v.5c.25-.31.62-.56 1.12-.56.87 0 1.3.56 1.3 1.37v2.48h-.62V48.5c0-.5-.25-.87-.81-.87-.43 0-.81.31-.93.68v2.55h-.62v-3.79h-.06zm5.16 3.73h-.62v-3.23h-.81v-.56h.81v-.99h.62v.99h.87v.56h-.87v3.23zm1.86-1.74c0 .87.56 1.3 1.24 1.3.43 0 .75-.12 1.06-.37v.56c-.31.25-.68.31-1.12.31-1.06 0-1.8-.75-1.8-1.93s.68-1.99 1.68-1.99 1.55.75 1.55 1.86v.25h-2.61zm.06-.5h1.93c0-.56-.31-1.06-.93-1.06-.5 0-.87.37-.99 1.06zm5.34-.87a.908.908 0 00-.43-.12c-.37 0-.75.25-.87.68v2.55H43v-3.79h.62v.5c.19-.31.5-.56.93-.56.19 0 .31 0 .37.06v.68zm1.3 4.6h-.62v-5.22h.62v.43c.19-.25.62-.5 1.06-.5 1.12 0 1.68.93 1.68 1.99s-.56 1.99-1.68 1.99c-.5 0-.87-.25-1.06-.5v1.8zm0-2.61c.19.37.56.62.99.62.75 0 1.12-.56 1.12-1.37s-.43-1.37-1.12-1.37c-.37 0-.75.25-.99.62v1.49zm5.53-1.99a.908.908 0 00-.43-.12c-.37 0-.75.25-.87.68v2.55h-.62v-3.79h.62v.5c.19-.31.5-.56.93-.56.19 0 .31 0 .37.06v.68zm1.06-1.37c-.25 0-.43-.19-.43-.43s.19-.43.43-.43.43.19.43.43c-.06.25-.25.43-.43.43zm.31 4.47h-.62V47h.62v3.79zm.87-.93c.37.31.81.5 1.24.5s.81-.12.81-.5c0-.31-.19-.43-.56-.56l-.5-.19c-.56-.19-.93-.43-.93-1.06 0-.68.56-1.06 1.3-1.06.43 0 .81.12 1.12.31v.68c-.31-.25-.68-.43-1.12-.43-.37 0-.68.19-.68.5s.19.43.56.56l.56.19c.56.19.87.5.87 1.06 0 .68-.62 1.12-1.43 1.12-.5 0-.93-.12-1.24-.37v-.75zm3.91-.81c0 .87.56 1.3 1.24 1.3.43 0 .75-.12 1.06-.37v.56c-.31.25-.68.31-1.12.31-1.06 0-1.8-.75-1.8-1.93s.68-1.99 1.68-1.99 1.55.75 1.55 1.86v.25H57.9zm0-.5h1.93c0-.56-.31-1.06-.93-1.06-.43 0-.87.37-.99 1.06zM64.86 47c.37 0 .75.06.99.31v.62c-.25-.25-.62-.37-.99-.37-.68 0-1.24.5-1.24 1.37s.56 1.37 1.24 1.37c.37 0 .68-.12.99-.37v.62c-.25.25-.62.31-.99.31-.99 0-1.8-.75-1.8-1.99 0-1.12.81-1.86 1.8-1.86zm3.29 3.91c-1.06 0-1.74-.81-1.74-1.99s.68-1.99 1.74-1.99 1.74.81 1.74 1.99-.75 1.99-1.74 1.99zm0-3.35c-.68 0-1.06.56-1.06 1.43 0 .81.43 1.43 1.06 1.43.68 0 1.06-.56 1.06-1.43s-.37-1.43-1.06-1.43zm6.4-.56c.75 0 1.18.56 1.18 1.37v2.48h-.62v-2.42c0-.5-.25-.87-.68-.87-.37 0-.68.25-.81.68v2.61H73v-2.42c0-.5-.25-.87-.68-.87-.37 0-.68.25-.81.68v2.61h-.62v-3.79h.62v.43c.19-.31.56-.5.99-.5.5 0 .87.25.99.62.12-.37.5-.62 1.06-.62zm2.86 5.28h-.62v-5.22h.62v.43c.19-.25.62-.5 1.06-.5 1.12 0 1.68.93 1.68 1.99s-.56 1.99-1.68 1.99c-.5 0-.87-.25-1.06-.5v1.8zm0-2.61c.19.37.56.62.99.62.75 0 1.12-.56 1.12-1.37s-.43-1.37-1.12-1.37c-.37 0-.75.25-.99.62v1.49zm5.72-1.37c0-.5-.37-.75-.87-.75-.43 0-.75.12-1.06.31v-.62c.25-.19.68-.31 1.18-.31.87 0 1.43.5 1.43 1.3v2.55h-.62v-.31c-.12.12-.56.37-.99.37-.75 0-1.43-.43-1.43-1.18 0-.68.62-1.18 1.43-1.18.37 0 .81.19.93.31v-.5zm0 1.18c-.12-.31-.5-.5-.87-.5-.43 0-.87.19-.87.68 0 .43.43.68.87.68.37 0 .75-.19.87-.5v-.37zm1.68-2.42h.62v.5c.25-.31.62-.56 1.12-.56.87 0 1.3.56 1.3 1.37v2.48h-.62v-2.36c0-.5-.25-.87-.81-.87-.43 0-.81.31-.93.68v2.55h-.62v-3.79h-.06zm4.47 5.22l.56-1.43-1.49-3.79h.68l1.12 2.98 1.12-2.98h.68l-2.05 5.22h-.62z" style="fill:#646569"/>
    <path d="M66.12 21.73c0 4.97-3.98 9.01-8.82 9.01s-8.82-4.04-8.82-9.01v-7.64s4.22 1.06 4.22 5.53v2.11c0 2.73 2.05 4.91 4.6 4.91s4.6-2.17 4.6-4.91v-4.35c.19-3.73 3.35-4.91 4.16-5.34h.06v9.69zm-22.67-8.95c1.18 0 2.3.19 3.29.62v4.72c-.87-.75-2.05-1.18-3.29-1.18-2.8 0-5.03 2.17-5.03 4.91v8.88H34.2V14.46s1.74.06 2.86.87c1.62-1.62 3.91-2.55 6.4-2.55M23.21 26.7c-2.8 0-5.09-2.24-5.09-4.97s2.3-4.97 5.09-4.97S28.3 19 28.3 21.73 26 26.7 23.21 26.7m0-13.92c-5.09 0-9.19 4.04-9.19 8.95s4.1 8.95 9.19 8.95c2.11 0 4.04-.68 5.59-1.86.93 1.55 3.6 1.86 3.6 1.86v-8.95c0-4.91-4.1-8.95-9.19-8.95M96.7 26.7c-2.8 0-5.09-2.24-5.09-4.97s2.3-4.97 5.09-4.97 5.09 2.24 5.09 4.97-2.3 4.97-5.09 4.97m0-13.92c-5.09 0-9.19 4.04-9.19 8.95s4.1 8.95 9.19 8.95c2.11 0 4.04-.68 5.59-1.86.93 1.55 3.6 1.86 3.6 1.86v-8.95c0-4.91-4.1-8.95-9.19-8.95M77.19 26.7c-2.8 0-5.09-2.24-5.09-4.97s2.3-4.97 5.09-4.97 5.09 2.24 5.09 4.97c.06 2.73-2.24 4.97-5.09 4.97m0-13.92c-1.86 0-3.6.56-5.09 1.49v-1.43c-.19-3.73-3.23-4.91-4.04-5.34H68v23.23s2.73-.31 3.79-1.8c1.55 1.06 3.42 1.74 5.4 1.74 5.09 0 9.19-4.04 9.19-8.95.06-4.91-4.1-8.95-9.19-8.95" style="fill:#f5831f"/>
</svg>
