<svg xmlns="http://www.w3.org/2000/svg" width="120" height="60">
    <path d="M10 36.65V25.34h12.48v2.52h-9.72v1.92h8.37v2.44h-8.37v4.44H10zm41.76 0V32.8c0-.34-.29-.49-.29-.49-.13-.08-.52-.1-1.1-.1h-5.69v4.45h-2.76V25.33h8.61c1.49 0 2.52.23 3.22.91.7.71.78 1.64.8 2.6v.81c.02.81-.42 1.56-.94 2l.1.05c.21.1.32.24.32.24.39.5.39.93.39 1.46v3.23h-2.65zm-1.49-6.87c.68 0 1.07 0 1.23-.1 0 0 .28-.16.29-.49v-.75c0-.34-.29-.49-.29-.49-.21-.11-.58-.1-1.45-.1h-5.38v1.92h5.59zm8.32 6.87v-8.79h-2.6v-2.52h10.37v2.52h-5v8.79H58.6zm.71-9.51zm42.93 9.51v-8.79h-2.6v-2.52H110v2.52h-5v8.79h-2.76zm.7-9.51zm-35.21 9.51V25.34h2.76v11.31h-2.76zm19.4 0V25.34h11.13v2.52h-8.37v1.92h5.82v2.44h-5.82v1.92h8.43v2.52h-11.2zm-11.8 0h-2.78V25.34h8.92s1.64-.06 2.66.96c0 0 1.06.89 1.06 3.05v7.3h-2.76v-7.47s.03-.76-.23-1.02c0 0-.23-.29-.67-.29h-6.21v8.79z" style="fill:#231f20"/>
    <path d="M23.7 29.48h4.58v3.01H23.7v-3.01zm5.85-4.27h4.5v3.01h-4.5v-3.01zm0 8.53h4.5v3.01h-4.5v-3.01zm5.75-4.26h4.6v3.01h-4.6v-3.01zm-9.72-4.27c-.96.24-1.71 1.32-1.88 2.68v.34h4.58v-3.02h-2.7zm-1.88 8.53v.37c.16 1.3.86 2.34 1.77 2.63h2.83v-3.01h-4.6zm16.2-5.52v-.34c-.18-1.35-.93-2.42-1.88-2.68h-2.71v3.01h4.6v.02zm-1.77 8.55c.89-.31 1.59-1.33 1.77-2.63v-.37h-4.6v3.01h2.83z" style="fill:#ee3124"/>
</svg>
