<svg xmlns="http://www.w3.org/2000/svg" width="200" height="128">
    <path d="M36.15 58.43a2.38 2.38 0 00.71-1.75v-9.16a2.31 2.31 0 10-4.62 0v5.26l-4.45-2.63a2.31 2.31 0 10-2.47 3.9c.08 0 .08.08.16.08l8 4.62a2.2 2.2 0 002.71-.32zM32.72 64a2.23 2.23 0 00-1.19-2.07l-8-4.62a2.31 2.31 0 10-2.47 3.9c.08 0 .08.08.16.08l4.54 2.63-4.54 2.63a2.35 2.35 0 00-1 3.18 2.29 2.29 0 003.19 1h.16l8-4.62A2.32 2.32 0 0032.72 64zM36.86 71.24v9.24a2.31 2.31 0 01-4.62 0V75.3l-4.53 2.63A2.31 2.31 0 1125.24 74c.08 0 .08-.08.16-.08l8-4.62a2.4 2.4 0 013.26 1 1.33 1.33 0 01.24.95zM41 71.48v9a2.31 2.31 0 104.62 0V75.3l4.46 2.55A2.31 2.31 0 0052.55 74c-.08 0-.08-.08-.16-.08l-8-4.62a2.35 2.35 0 00-3.18.88 2.71 2.71 0 00-.21 1.3zM45.14 64a2.22 2.22 0 011.2-2.07l8-4.62a2.31 2.31 0 012.46 3.9c-.07 0-.07.08-.15.08l-4.54 2.63 4.54 2.63a2.35 2.35 0 01-2.23 4.14c-.08 0-.08-.08-.16-.08l-8-4.62a2 2 0 01-1.12-2zM41 56.52v-9a2.31 2.31 0 114.62 0v5.18l4.46-2.55a2.31 2.31 0 012.47 3.9c-.08 0-.08.08-.16.08l-8 4.62a2.35 2.35 0 01-3.18-.88 2.57 2.57 0 01-.21-1.35zM43 63l-3.1-3.18a.73.73 0 00-.56-.24h-.8a.72.72 0 00-.55.24L34.79 63a.73.73 0 00-.24.56v.8a.73.73 0 00.24.56L38 68.14a.72.72 0 00.55.24h.8a.73.73 0 00.56-.24L43.07 65a1.48 1.48 0 00.16-.56v-.8A.73.73 0 0043 63zm-2.64 1.4l-1 .95a.58.58 0 01-.8 0l-1-.95a.58.58 0 010-.8l1-1a.58.58 0 01.8 0l1 1a.58.58 0 010 .8zM65 70.13a7.2 7.2 0 002.89.64 5.31 5.31 0 003.44-1 3.51 3.51 0 001.52-2.89c0-2.64-2.32-3.2-4.72-4-1.61-.57-3.37-1-3.37-2.33 0-1.68 2.08-2.4 3.21-2.4 2.72 0 3.36 2.16 4.08 1.52s-1.92-2.72-3.92-2.72a5.46 5.46 0 00-3.37.88 3 3 0 00-1.52 2.8c-.08 2.81 3.36 3.29 4.89 3.85s3.2 1.12 3.28 2.48c0 1.93-2.4 2.57-3.44 2.57-3 0-3.93-1.77-4.49-1.21s.08 1.13 1.52 1.85zm20.51 0a.77.77 0 00.73.64c.32 0 .56-.32.64-.64v-7.54A5.63 5.63 0 0077 59v-1.37a.63.63 0 00-.64-.64.69.69 0 00-.64.64v12.82a.82.82 0 00.48.4h.24a.48.48 0 00.48-.24.42.42 0 00.16-.32v-7.7a4.29 4.29 0 018.57 0l-.08 7.54zm3.85-6.25a6.54 6.54 0 106.49-7 6.83 6.83 0 00-6.49 7zm41.35-11.46h-.08a2.06 2.06 0 00-1.76.56 3.42 3.42 0 00-.56 2.32v1.45h1.92a.7.7 0 01.72.64.72.72 0 01-.72.72h-1.92v12a.71.71 0 01-.65.72.65.65 0 01-.72-.64V58.11h-1.84a.72.72 0 01-.72-.72.63.63 0 01.64-.64h1.84V55.3a5 5 0 01.88-3.2 3.57 3.57 0 012.73-1h.4a.72.72 0 110 1.44l-.16-.08zm-40 10.9a5.22 5.22 0 1110.42.64 5.4 5.4 0 01-5.37 4.89 5.3 5.3 0 01-5-5.53zm18.59 7.45a.6.6 0 00.56-.4v-.08l3.21-7.61 3.21 7.69a.85.85 0 00.56.48h.08a.61.61 0 00.4-.16 1.1 1.1 0 00.24-.32L122.23 58a.69.69 0 00-1.29-.48l-4 11-3.21-7.61a.82.82 0 00-.64-.4.71.71 0 00-.64.4l-3.21 7.61-4-11a.8.8 0 00-.88-.4.67.67 0 00-.36.88l4.64 12.42a1.1 1.1 0 00.24.32l.08.08c.16-.08.24-.08.32 0zm25.08-.72a.73.73 0 00.73.72.72.72 0 00.72-.72V51.62a.72.72 0 00-.72-.72.73.73 0 00-.73.72v18.43zm16.51-13.14a.77.77 0 00-.72.64v2a6.41 6.41 0 00-5.17-2.72 6.94 6.94 0 000 13.86 6.4 6.4 0 005.19-2.69v2.09a.76.76 0 00.72.64c.32 0 .56-.32.64-.64V57.55a.69.69 0 00-.64-.64zm-5.45 12.58a5.52 5.52 0 01-5.85-5.29 5.39 5.39 0 015-5.93 5.19 5.19 0 015.61 5.21v.4a5.37 5.37 0 01-5.2 5.53h.48v.08zm9.22.56a.72.72 0 101.44 0v-3.21l2.81-2.8 5.28 6.41a.62.62 0 00.56.24.7.7 0 00.73-.64.86.86 0 00-.16-.48L160 63.08l5.34-5.08a.65.65 0 00-.08-1 .64.64 0 00-.89 0l-8.25 8V51.62a.72.72 0 10-1.44 0v18.43zm24.84-2.73a.76.76 0 00-.24-1 .64.64 0 00-.88.24 5.43 5.43 0 01-4.49 2.81h-.64a5.39 5.39 0 01-5.25-5.25h11.38a.62.62 0 00.64-.56v-.16a6.72 6.72 0 10-6.73 7.45h.64a7.13 7.13 0 005.61-3.53zm-6.17-8.73a5.05 5.05 0 015.21 4.17h-10.5a5.13 5.13 0 015.29-4.17z" fill="#31bef0"/>
</svg>
