<svg xmlns="http://www.w3.org/2000/svg" width="120" height="60">
  <path d="M24.43,26.29c0,1.7-1.4,3.11-3.11,3.11s-3.11-1.4-3.11-3.11,1.4-3.11,3.11-3.11,3.11,1.4,3.11,3.11ZM21.32,30.6c-1.7,0-3.11,1.4-3.11,3.11s1.4,3.11,3.11,3.11,3.11-1.4,3.11-3.11-1.4-3.11-3.11-3.11ZM40.05,30c0,8.32-6.71,15.03-15.03,15.03s-15.03-6.71-15.03-15.03,6.71-15.03,15.03-15.03,15.03,6.71,15.03,15.03ZM36.05,30c0-6.11-4.91-11.02-11.02-11.02s-11.02,4.91-11.02,11.02,4.91,11.02,11.02,11.02,11.02-4.91,11.02-11.02ZM28.73,30.6c-1.7,0-3.11,1.4-3.11,3.11s1.4,3.11,3.11,3.11,3.11-1.4,3.11-3.11-1.4-3.11-3.11-3.11ZM28.73,23.19c-1.7,0-3.11,1.4-3.11,3.11s1.4,3.11,3.11,3.11,3.11-1.4,3.11-3.11-1.4-3.11-3.11-3.11ZM80.43,20.88c.1,0,.2.1.3.2v3.21c0,.2-.2.3-.3.3h-5.31c-.2,0-.3-.2-.3-.3v-3.11c0-.2.2-.3.3-.3,0,0,5.31,0,5.31,0ZM80.33,25.39h-10.22c-.1,0-.3.1-.3.3l-1.3,5.01-.1.3-1.6-5.31c0-.1-.2-.3-.3-.3h-4.01c-.1,0-.3.1-.3.3l-1.5,5.01-.1.3-.1-.3-.6-2.5-.6-2.5c0-.1-.2-.3-.3-.3h-8.01v-4.31c0-.1-.2-.3-.4-.2l-5.01,1.6c-.2,0-.3.1-.3.3v2.7h-1.3c-.1,0-.3.1-.3.3v3.81c0,.1.1.3.3.3h1.3v4.71c0,3.31,1.8,4.81,5.11,4.81,1.4,0,2.7-.3,3.61-.8v-4.01c0-.2-.2-.3-.3-.2-.5.2-1,.3-1.4.3-.9,0-1.4-.4-1.4-1.4v-3.41h2.91c.1,0,.3-.1.3-.3v-3.21l3.81,12.62c0,.1.2.3.3.3h4.21c.1,0,.3-.1.3-.3l1.8-5.61.9,2.91.8,2.7c0,.1.2.3.3.3h4.21c.1,0,.3-.1.3-.3l3.81-12.62v12.62c0,.1.1.3.3.3h5.11c.1,0,.3-.1.3-.3v-13.32c0-.1-.1-.3-.2-.3ZM87.04,20.88h-5.11c-.1,0-.3.1-.3.3v17.73c0,.1.1.3.3.3h5.11c.1,0,.3-.1.3-.3v-17.83c0-.1-.1-.2-.3-.2ZM93.85,20.88h-5.31c-.1,0-.3.1-.3.3v3.11c0,.1.1.3.3.3h5.31c.1,0,.3-.1.3-.3v-3.21c0-.1-.1-.2-.3-.2ZM93.75,25.39h-5.11c-.1,0-.3.1-.3.3v13.12c0,.1.1.3.3.3h5.11c.1,0,.3-.1.3-.3v-13.12c0-.1-.1-.3-.3-.3ZM109.88,32.2c0,3.81-3.21,7.11-7.71,7.11s-7.61-3.31-7.61-7.11,3.21-7.11,7.71-7.11,7.61,3.31,7.61,7.11ZM104.47,32.3c0-1.4-1-2.5-2.2-2.4-1.3,0-2.2,1.1-2.2,2.4s1,2.4,2.2,2.4c1.3,0,2.2-1.1,2.2-2.4Z" fill="#f22f46" stroke-width="0"/>
</svg>