<svg xmlns="http://www.w3.org/2000/svg" width="120" height="60">
    <path fill="#61a60e" d="M10 29.2c.07-.63.13-1.28.24-1.92.25-1.39.71-2.74 1.31-4.01l.04-.04 1.04.59c-1.89 3.88-1.88 8.5 0 12.39l-1.07.6c-.67-1.45-1.18-2.95-1.41-4.54-.07-.47-.14-1-.16-1.47v-1.61Z"/>
    <path fill="#61a60e" d="M40.58 30.65c-.07 1.57-.42 3.23-.97 4.71-.18.49-.42.96-.6 1.44l-1.07-.6c1.23-2.61 1.68-5.46 1.26-8.33-.21-1.41-.66-2.77-1.25-4.06.02-.05.06-.07.1-.09.17-.12.64-.4.83-.47.05-.02.09-.04.14-.03.68 1.45 1.18 2.98 1.41 4.57.07.5.14 1.05.16 1.54.02.41.02.89 0 1.3Z"/>
    <path fill="#0098c7" d="M24.34 14.74v1.22c-4.28.26-8.38 2.61-10.71 6.2l-1.07-.63c2.56-3.84 6.89-6.45 11.53-6.75l.09-.04h.15Z"/>
    <path fill="#0098c7" d="M26.44 14.74s.04.04.09.04c4.63.34 8.93 2.9 11.49 6.75l-1.07.63c-2.33-3.59-6.42-5.94-10.71-6.2v-1.22h.19Z"/>
    <path fill="#007b8c" d="M24.6 35.78c-2.02-1.02-4-2.81-4.13-5.22-.04-.76.04-1.55 0-2.31l-4.33-2.49c-.8 1.69-1.22 3.63-.97 5.51-.47.05-.89.26-1.34.38l-.08-1.67c.05-.44.06-.89.12-1.33.53-3.93 3.25-7.48 6.91-8.98.06.45.12.91.31 1.34-1.75.73-3.19 2.05-4.28 3.58l3.71 2.12v-.55c0-.12.32-.43.48-.4h8.53c.25.02.48.28.51.52.02.14-.01.29 0 .42 0 .05-.02.07.06.06l3.61-2.13c-1-1.58-2.53-2.85-4.24-3.61.13-.43.27-.88.27-1.34 3.26 1.33 5.77 4.24 6.67 7.65.37 1.41.42 2.91.29 4.36-.41-.2-.85-.34-1.3-.42.12-1.46-.03-2.95-.5-4.34-.12-.35-.27-.76-.45-1.08-.02-.04.02-.06-.06-.04l-4.31 2.5s-.03.07-.04.12c-.1.72.06 1.69 0 2.45-.12 1.64-1.44 3.14-2.7 4.07-.43.32-.9.57-1.35.87v4.61c1.85-.17 3.66-.77 5.16-1.86h.09c.29.29.58.61.96.82l.02.08c-1.62 1.15-3.46 1.96-5.45 2.21-2.82.35-5.97-.38-8.25-2.1-.04-.03-.2-.12-.18-.16.01-.03.39-.28.46-.34.17-.15.39-.36.5-.56a10.6 10.6 0 0 0 5.31 1.91V35.8Zm4.29-8.84h-7.15v4.03s.11.41.14.48c.49 1.52 2.06 2.65 3.41 3.36 1.68-.85 3.48-2.25 3.61-4.29.07-1.17-.05-2.4 0-3.58Z"/>
    <path fill="#007b8c" d="M26.25 45.26v-1.22c4.3-.23 8.3-2.6 10.7-6.14h.1l.97.58c-2.58 3.93-7.05 6.56-11.77 6.79Z"/>
    <path fill="#007b8c" d="M24.34 44.04v1.22c-4.73-.23-9.19-2.86-11.77-6.79l.97-.56h.1c2.39 3.53 6.41 5.9 10.7 6.13"/>
    <path fill="#007b8c" d="M24.94 18.08c2.58-.31 3.69 3 1.57 4.29-1.84 1.12-4.08-.62-3.45-2.68.24-.8 1.03-1.5 1.88-1.6Zm.19 1.22c-1.5.2-1.05 2.61.5 2.14 1.26-.38.88-2.32-.5-2.14"/>
    <path fill="#007b8c" d="M33.58 32.96c2.37-.27 3.61 2.68 1.75 4.16-1.46 1.16-3.65.14-3.76-1.7-.07-1.17.84-2.32 2.02-2.46Zm.11 1.22c-1.3.19-1.15 2.25.26 2.21s1.37-2.44-.26-2.21"/>
    <path fill="#007b8c" d="M16.38 32.96c3-.34 3.61 4.03.78 4.6-3.18.64-3.85-4.25-.78-4.6m.07 1.22c-1.24.2-1.16 2.33.41 2.17 1.38-.14 1.19-2.42-.41-2.17"/>
    <g fill="#565656">
        <path d="m79.5 40.57-2.52-7.61-.96.02-2.55 7.59-2.62-7.62h-.89l3.08 9.09s.69.04.77.02c.05 0 .08-.02.1-.07l2.61-7.84 2.7 7.91c.21-.05.71.09.82-.1l3.03-9.02h-.92l-2.64 7.62Z"/>
        <path d="m101.32 40.65-5.89-7.74h-.79l-.06.06v9.09h.88v-7.74l5.82 7.74h.88v-9.15h-.84z"/>
        <path d="M58.11 32.91h-3.1v9.16c2.5-.06 5.38.48 7.07-1.82 2.36-3.2-.08-7.47-3.97-7.34m1.57 8.1c-.22.08-.82.26-1.03.26h-2.81V33.7c1.08.05 2.24-.12 3.29.1 3.68.76 4.07 5.95.55 7.21"/>
        <path d="m87.8 32.97-4 9.09h.92l.94-2.17h5.2l.98 2.17h.96l-4.1-9.16c-.2.04-.78-.07-.89.07Zm-1.75 6.1 2.23-5.08 2.23 5.08h-4.45Z"/>
        <path d="M109.21 19.23v3.75c-.48-.62-1.04-1.16-1.82-1.36-2.55-.64-4.19 1.8-3.87 4.12.28 2.02 2.18 3.55 4.21 2.76.66-.26 1.07-.73 1.49-1.28v1.33h.79v-9.32h-.79Zm-1.79 8.63c-3.57.93-4.21-5.18-.97-5.59s3.66 4.89.97 5.59"/>
        <path d="M47.86 36.37c-1.11-.67-.78-2.01.25-2.55 1.05-.55 2.38-.24 3.31.41.18.13.35.32.52.43.04.02.04.06.1.04l.46-.61c.01-.06-.44-.4-.53-.47-1.59-1.13-4.51-1.35-5.43.71-.61 1.35-.05 2.42 1.22 3 1.23.56 4.27.67 4.12 2.5-.12 1.49-2.01 1.73-3.17 1.51-.83-.16-1.63-.63-2.22-1.24l-.5.62c1.74 2.13 7.06 2.18 6.72-1.47-.2-2.14-3.45-2.04-4.85-2.89Z"/>
        <path d="M56.88 27.97c1.27 1.01 3.34.95 4.59-.06.09-.08.29-.22.21-.33-.1-.15-.34-.3-.44-.48-1.77 1.6-4.71.91-4.89-1.67h5.78c.07-1.84-.9-3.73-2.9-3.91-3.53-.31-5.05 4.33-2.37 6.44Zm4.47-3.29h-4.99c.3-3.12 4.79-3.31 4.99 0"/>
        <path d="M81.44 20.51c.33.19.65.44.91.71l.56-.6c0-.06-.52-.45-.61-.52-.78-.55-1.76-.88-2.73-.87-3.26.04-5.5 3.56-4.24 6.55 1.23 2.91 5.09 3.95 7.44 1.68.06-.05.17-.13.13-.21l-.54-.54c-2.27 2.38-6.07.94-6.51-2.23-.42-3.05 2.84-5.53 5.6-3.98Z"/>
        <path d="m50.61 28.54 4-9.15h-.92l-3.55 8.08-3.62-8.08h-.86l4.06 9.16z"/>
        <path d="M90.39 21.53c-1.55.15-2.88 1.48-3.11 3.01-.51 3.44 3.67 5.61 6.07 3.03 2.26-2.43.34-6.37-2.96-6.04m2.46 5.42c-1.2 1.47-3.37 1.3-4.34-.31-1.03-1.7-.07-4.12 1.96-4.35 2.5-.28 3.92 2.79 2.38 4.67Z"/>
        <path d="M72.57 27.66c1.66-1.67 1.31-4.49-.73-5.67-2.42-1.38-5.3.4-5.3 3.12 0 3.12 3.8 4.8 6.04 2.54Zm-5.09-3.36c.27-1 1.22-1.9 2.27-2.02 2.94-.33 4.18 3.73 1.73 5.27-2.22 1.39-4.64-.88-4-3.25"/>
        <path d="M100.39 27.99c.16-.16.24-.38.41-.52v1.08h.79v-6.87h-.79v4.56c0 .39-.35.93-.65 1.18-1.27 1.08-3.39.46-3.39-1.35v-4.39h-.79v4.85c0 .18.19.71.28.88.77 1.46 2.97 1.72 4.13.58Z"/>
        <path d="M63.93 19.27h.83v9.28h-.83z"/>
        <path d="M84.66 19.27h.79v9.28h-.79z"/>
        <path d="M64.91 38.07h3.41v.79h-3.41z"/>
    </g>
</svg>
