<svg xmlns="http://www.w3.org/2000/svg" width="128" height="128">
    <path d="M115.723 101.531c-14.006 10.344-34.355 15.836-51.852 15.836A93.809 93.809 0 0 1 .567 93.229c-1.32-1.192-.128-2.81 1.447-1.873a127.667 127.667 0 0 0 63.347 16.816 126.409 126.409 0 0 0 48.318-9.872c2.342-1.069 4.343 1.528 2.044 3.231zm2.128 9.323c-.51 1.277.6 1.788 1.746.809 7.492-6.3 9.451-19.456 7.918-21.371-1.532-1.873-14.687-3.491-22.69 2.128-1.235.894-1.022 2.086.34 1.916 4.555-.553 14.6-1.745 16.39.553 1.788 2.257-2.001 11.75-3.704 15.965z" fill="#f90"/>
    <path d="M97.354 74.72a46.4 46.4 0 0 0 2.771 6.235 3.768 3.768 0 0 1 .606 1.992 3.427 3.427 0 0 1-1.645 2.6l-5.456 3.636a4.159 4.159 0 0 1-2.252.779 3.986 3.986 0 0 1-2.6-1.212 26.806 26.806 0 0 1-3.118-4.071c-.866-1.472-1.732-3.117-2.684-5.109q-10.132 11.951-25.46 11.951c-7.275 0-13.077-2.078-17.321-6.235s-6.409-9.7-6.409-16.628c0-7.362 2.6-13.337 7.881-17.841s12.3-6.755 21.218-6.755a68.563 68.563 0 0 1 9.18.693c3.2.433 6.5 1.126 9.96 1.9v-6.317c0-6.582-1.386-11.172-4.07-13.857C75.183 23.8 70.507 22.5 63.838 22.5a39.421 39.421 0 0 0-9.353 1.125 69.114 69.114 0 0 0-9.353 2.945 24.832 24.832 0 0 1-3.032 1.124 5.32 5.32 0 0 1-1.385.26c-1.213 0-1.819-.866-1.819-2.685v-4.244a5.481 5.481 0 0 1 .606-3.031 6.5 6.5 0 0 1 2.425-1.819 49.951 49.951 0 0 1 10.912-3.9 52.5 52.5 0 0 1 13.511-1.642c10.305 0 17.84 2.338 22.69 7.015 4.763 4.676 7.188 11.778 7.188 21.3 0 0-.121 25.359 0 28.06a33.947 33.947 0 0 0 1.126 7.712zM61.24 80.176a28.074 28.074 0 0 0 8.92-1.559 19.294 19.294 0 0 0 8.228-5.543 13.756 13.756 0 0 0 2.944-5.542A31.077 31.077 0 0 0 82.2 60v-3.64a72.262 72.262 0 0 0-7.967-1.472 65.156 65.156 0 0 0-8.141-.52c-5.8 0-10.046 1.126-12.9 3.464s-4.244 5.629-4.244 9.96c0 4.07 1.039 7.1 3.2 9.18 2.077 2.165 5.108 3.204 9.092 3.204z" fill="#252f3e"/>
</svg>
