<svg xmlns="http://www.w3.org/2000/svg" width="200" height="128">
    <path d="M78.85 90.74l-1-2.95h-4.59l-1 2.95h-1.67l4.1-11.09h1.76l4.09 11.09zm-5.17-4.18h3.73l-1.87-5.44zm18.58 4.18v-5.51a1.83 1.83 0 00-.26-1.18 1.13 1.13 0 00-1-.39 4.49 4.49 0 00-2.35.72 1.94 1.94 0 010 .24v6.12h-1.58v-5.51a1.9 1.9 0 00-.3-1.18 1.13 1.13 0 00-1-.39 4.35 4.35 0 00-2.34.71v6.37h-1.54v-8.12h1.33l.16.82a5.32 5.32 0 013-1.06 2 2 0 012 1.14 5.43 5.43 0 013.17-1.14 2.23 2.23 0 011.7.63 2.49 2.49 0 01.59 1.77v6zm8.68 0l-.12-.84a4.2 4.2 0 01-1.28.77 3.76 3.76 0 01-1.38.27 2.54 2.54 0 01-1.82-.64 2.31 2.31 0 01-.68-1.74 2.28 2.28 0 01.84-1.86 3.34 3.34 0 012.24-.7 8.38 8.38 0 012 .27v-1a1.59 1.59 0 00-.39-1.22 2 2 0 00-1.35-.4 8.71 8.71 0 00-2.81.49V83a5.17 5.17 0 011.41-.47 8.55 8.55 0 011.68-.17 3.29 3.29 0 012.24.64 2.42 2.42 0 01.72 1.92v5.8zm-2.4-1a3.75 3.75 0 002.21-.81V87.3a6.86 6.86 0 00-1.69-.21c-1.21 0-1.81.46-1.81 1.39a1.27 1.27 0 00.33.94 1.37 1.37 0 00.96.32zm5.46 1v-1.22l4.66-5.65h-4.5v-1.25h6.26v1.2l-4.72 5.67h4.76v1.25zm11.52.24a3.63 3.63 0 01-2.85-1.14 5.4 5.4 0 010-6.32 4.13 4.13 0 015.7 0 5.4 5.4 0 010 6.32 3.63 3.63 0 01-2.85 1.16zm0-1.28c1.5 0 2.26-1 2.26-3s-.76-3-2.26-3-2.26 1-2.26 3 .74 3 2.26 3zm11.31 1v-5.39a1.9 1.9 0 00-.34-1.25 1.37 1.37 0 00-1.08-.4 4.45 4.45 0 00-2.48.82v6.26h-1.59v-8.12h1.33l.16.9a5.27 5.27 0 013.2-1.14 2.41 2.41 0 011.78.62 2.46 2.46 0 01.61 1.78v6zm-32.76 11.19a4.7 4.7 0 01-2-1.29 3 3 0 01-.62-1.93 2.93 2.93 0 011.11-2.4 4.61 4.61 0 013-.89 8.6 8.6 0 013.07.57v1.83a9.85 9.85 0 00-2.88-.48c-1.26 0-1.89.4-1.89 1.21a.94.94 0 00.33.74 4.2 4.2 0 001.22.61l1.19.43a5.2 5.2 0 012.12 1.27 2.81 2.81 0 01.63 1.9 3.18 3.18 0 01-1.19 2.6 5.06 5.06 0 01-3.24 1 10 10 0 01-1.8-.17 6.3 6.3 0 01-1.53-.46v-1.82a11.94 11.94 0 001.71.38 10.29 10.29 0 001.65.15 2.57 2.57 0 001.45-.35 1.09 1.09 0 00.52-1 1 1 0 00-.32-.78 3.74 3.74 0 00-1.25-.64zm11-1.62a3.7 3.7 0 012.41.91 2.89 2.89 0 01.88 2.2 3.31 3.31 0 01-2 3.14 5.55 5.55 0 01-2.36.48 7.52 7.52 0 01-3-.66v-1.81a9.42 9.42 0 002.94.61 2.44 2.44 0 001.56-.44 1.56 1.56 0 00.54-1.29 1.28 1.28 0 00-.5-1.11 2.62 2.62 0 00-1.53-.36h-.72l-.77.07v-1.47l2.86-3.09h-4.24v-1.8h6.75v1.76z" fill="#333"/>
    <path d="M73 19h54v54H73z" fill="#7AA116"/>
    <path d="M117.2 47.9c-.2-1.2-1.5-1.9-2.4-2.5-.3-.1-1.1-.5-1-.8v-.5l.7-5.2.7-4.5a3.1 3.1 0 00-1.6-3.1c-2.3-1.6-5.3-2.2-8.1-2.7a44.67 44.67 0 00-10.3-.4 25.85 25.85 0 00-9 2.2c-1.5.7-3.5 1.9-3.3 3.8.7 5.8 1.6 11.7 2.3 17.5l1.1 8a3 3 0 001.8 2.4 19.22 19.22 0 007.5 1.8 36.61 36.61 0 009.9-.5c2.1-.4 5.9-1 6.3-3.6.4-3.2.9-6.4 1.3-9.6l.1-1c1 .4 4.4.9 4-1.3zM98.9 29.4c4.3 0 9.3.5 13.1 2.6.6.4 2 1.1 1.6 2s-1.7 1.3-2.5 1.6c-1.2.4-2.3.7-3.5 1a44.85 44.85 0 01-15.5.3 19.77 19.77 0 01-6.7-1.9c-.5-.3-1.4-.8-1.2-1.5a2.84 2.84 0 01.9-1 15.8 15.8 0 015.2-2.1 36.06 36.06 0 018.6-1zm11.3 30.4c-.1.9-1.5 1.3-2.1 1.5a29.91 29.91 0 01-4.3 1 38.55 38.55 0 01-9.6 0 14.79 14.79 0 01-5.8-1.6 1.4 1.4 0 01-.9-1.2c-.7-5.7-1.5-11.4-2.3-17.2l-.8-6.2a20.37 20.37 0 005.2 1.9 57.79 57.79 0 006 .8 46.55 46.55 0 0011.8-.6 15.31 15.31 0 005.9-2l-1.4 11.2a99.53 99.53 0 01-10.7-4.3l-.4-.2c-.2-.1-.1-.1-.2-.3a2 2 0 00-.6-1.1 1.62 1.62 0 00-2.3.3 1.7 1.7 0 00.2 2.3 1.25 1.25 0 001.2.3c.2-.1.5-.1.7-.2s.3-.1.6.1a84.28 84.28 0 0010.8 4.4c.6.1.6 0 .5.5s-.1.7-.1 1l-.4 3.5-1 6.1zm-11.1-17c0 .2-.3.1-.3 0s.4-.4.3 0zm14.2 5l.2-1.6a5.25 5.25 0 012.3 1.9 4.25 4.25 0 01-2.5-.3z" fill="#fff"/>
</svg>
