<svg xmlns="http://www.w3.org/2000/svg" width="200" height="128">
    <path d="M27.665 59.641a6.38 6.38 0 0 1 5.1 2.457v-2.143h3.491v15.9h-2.515a.993.993 0 0 1-1-1v-1.14a6.276 6.276 0 0 1-5.079 2.475c-4.356 0-7.662-3.731-7.662-8.274s3.306-8.275 7.665-8.275m.628 3.177a4.777 4.777 0 0 0-4.747 5.1c0 2.862 1.9 5.1 4.747 5.1a4.776 4.776 0 0 0 4.746-5.1c0-2.863-1.9-5.1-4.746-5.1m11.931-2.863h3.509v2.161a5.488 5.488 0 0 1 4.839-2.475c3.694 0 6.077 2.6 6.077 6.649v9.567h-2.512a.994.994 0 0 1-1-1v-8c0-2.512-1.274-4.045-3.306-4.045-2.327 0-4.1 1.81-4.1 5.208v7.831h-2.51a.993.993 0 0 1-1-1zm24.86-.314a6.38 6.38 0 0 1 5.1 2.457V52.013h3.491v23.863H71.16a.993.993 0 0 1-1-1v-1.143a6.355 6.355 0 0 1-5.1 2.457c-4.359 0-7.665-3.731-7.665-8.274.019-4.544 3.325-8.275 7.684-8.275m.628 3.177a4.777 4.777 0 0 0-4.747 5.1c0 2.862 1.9 5.1 4.747 5.1a5.111 5.111 0 0 0 0-10.2m11.931-2.863h3.491v2.826a4.479 4.479 0 0 1 4.192-2.992 7.144 7.144 0 0 1 1.367.129v3.6a5.635 5.635 0 0 0-1.755-.3c-2.013 0-3.823 1.681-3.823 4.876v7.757H78.6a.993.993 0 0 1-1-1v-14.9zM96.149 76.19a8.275 8.275 0 1 1 8.33-8.274 8.2 8.2 0 0 1-8.33 8.274m0-3.251a5.029 5.029 0 1 0-4.8-5.023 4.76 4.76 0 0 0 4.8 5.023m12.91-16.456a2.337 2.337 0 1 1 0-4.673 2.337 2.337 0 0 1 0 4.673m-1.736 3.472h3.491v15.9h-2.494a.993.993 0 0 1-1-1v-14.9zm14.037-.314a6.38 6.38 0 0 1 5.1 2.457V52.013h3.491v23.863h-2.512a.993.993 0 0 1-1-1v-1.143a6.353 6.353 0 0 1-5.1 2.457c-4.358 0-7.664-3.731-7.664-8.274.018-4.544 3.324-8.275 7.683-8.275m.646 3.177a4.776 4.776 0 0 0-4.746 5.1c0 2.862 1.9 5.1 4.746 5.1a5.11 5.11 0 0 0 0-10.2"/>
    <path d="M168.567 69.855a1.773 1.773 0 1 1 1.774-1.773 1.774 1.774 0 0 1-1.774 1.773m-19.522 0a1.773 1.773 0 1 1 1.773-1.773 1.774 1.774 0 0 1-1.773 1.773M169.2 59.216l3.547-6.113a.732.732 0 0 0-1.275-.72l-3.583 6.187a21.637 21.637 0 0 0-9.068-1.958 22 22 0 0 0-9.087 1.94l-3.583-6.188a.732.732 0 1 0-1.275.721L148.4 59.2a20.889 20.889 0 0 0-10.823 16.7H180a20.783 20.783 0 0 0-10.8-16.684" fill="#3dda84"/>
</svg>
