<svg xmlns="http://www.w3.org/2000/svg" width="200" height="128">
    <path fill="#D0433F" d="M40.16 66.52V57.8l-3.66 8.72h3.66z"/>
    <path fill="#D0433F" d="M20 50.8l3.09 26.66 17.07 9.47V70.21h-5.32l-2.53 6.31-4.69.1 12.54-27.87v-5.13L20 50.8z"/>
    <path fill="#A63937" d="M87.81 65.62c0 6.84 3.56 10.25 10.69 10.25 1.81 0 3.53-.31 5.12-.91V66.8h-2.53v6.59c-1.03.22-1.97.34-2.81.34-5.28 0-7.94-2.72-7.94-8.19 0-5.06 2.69-7.62 8.06-7.62 1.78 0 3.53.31 5.22.97V56.7c-1.69-.53-3.53-.81-5.5-.81-6.87 0-10.31 3.25-10.31 9.72zM81.63 71.9L69.59 56.05h-2.53v19.69h2.41v-16l12.03 16h2.53V56.05h-2.4V71.9zM121.53 68.15c0 3.78-1.91 5.69-5.66 5.69s-5.66-1.91-5.66-5.69V56.06h-2.53v12.09c0 5.16 2.72 7.75 8.19 7.75s8.19-2.59 8.19-7.75V56.06h-2.53v12.09zM131.12 56.05h-2.53v19.69h12.85v-2.06h-10.32V56.05zM173.25 66.46c3.66-1.22 5.5-3.13 5.5-5.69 0-3.16-1.88-4.72-5.63-4.72h-8.41v19.69h2.59V58.18h5.63c2.09 0 3.12.91 3.12 2.72 0 2.31-1.91 3.75-5.66 4.34v1.66l6.25 8.84h3.34l-6.75-9.28zM142.44 75.74h2.65l7.03-17.15 3.69 8.9h-4.97l-.68 2.06h6.5l2.53 6.19H162l-9.78-22.28-9.78 22.28zM40.22 57.65l-.06.15v8.72h4.31l-4.25-8.87z"/>
    <path fill="#A63937" d="M40.16 48.75l.03-.07 13.09 28-4.47-.09-2.75-6.38h-5.9v16.72l17.34-9.59 3.34-26.66-20.68-7.06v5.13z"/>
</svg>
