<svg xmlns="http://www.w3.org/2000/svg" xmlns:xlink="http://www.w3.org/1999/xlink" width="200" height="128">
    <defs>
        <linearGradient id="c" x1="-4615.409" y1="3688.086" x2="-4606.245" y2="3677.371" gradientTransform="scale(1 -1) rotate(64.97 637.11 5485.547)" gradientUnits="userSpaceOnUse">
            <stop offset="0" stop-color="#f69923"/>
            <stop offset=".312" stop-color="#f79a23"/>
            <stop offset=".838" stop-color="#e97826"/>
        </linearGradient>
        <linearGradient id="a" x1="-4683.227" y1="3689.27" x2="-4617.851" y2="3689.27" gradientTransform="scale(1 -1) rotate(64.97 637.11 5485.547)" gradientUnits="userSpaceOnUse">
            <stop offset=".323" stop-color="#9e2064"/>
            <stop offset=".63" stop-color="#c92037"/>
            <stop offset=".751" stop-color="#cd2335"/>
            <stop offset="1" stop-color="#e97826"/>
        </linearGradient>
        <linearGradient id="b" x1="-4675.335" y1="3682.719" x2="-4636.378" y2="3682.719" gradientTransform="scale(1 -1) rotate(64.97 637.11 5485.547)" gradientUnits="userSpaceOnUse">
            <stop offset="0" stop-color="#282662"/>
            <stop offset=".095" stop-color="#662e8d"/>
            <stop offset=".788" stop-color="#9f2064"/>
            <stop offset=".949" stop-color="#cd2032"/>
        </linearGradient>
        <linearGradient id="d" x1="-4679.555" y1="3689.88" x2="-4614.18" y2="3689.88" xlink:href="#a"/>
        <linearGradient id="e" x1="-4674.787" y1="3688.995" x2="-4640.43" y2="3688.995" xlink:href="#b"/>
        <linearGradient id="f" x1="-4679.555" y1="3683.115" x2="-4614.18" y2="3683.115" xlink:href="#a"/>
        <linearGradient id="g" x1="-4683.611" y1="3683.452" x2="-4618.235" y2="3683.452" xlink:href="#a"/>
        <linearGradient id="h" x1="-4679.555" y1="3681.102" x2="-4614.18" y2="3681.102" xlink:href="#a"/>
        <linearGradient id="i" x1="-4679.555" y1="3681.333" x2="-4614.18" y2="3681.333" xlink:href="#a"/>
    </defs>
    <path d="M179.486 50.594a1.755 1.755 0 1 1-1.244-.514 1.692 1.692 0 0 1 1.244.514zm-.148 2.337a1.555 1.555 0 0 0 0-2.182 1.545 1.545 0 0 0-2.184 0 1.562 1.562 0 0 0 0 2.184 1.462 1.462 0 0 0 1.088.452 1.487 1.487 0 0 0 1.096-.454zm-.247-1.432a.549.549 0 0 1-.413.592l.5.685h-.409l-.455-.635h-.414v.635h-.33v-1.9h.714a1.014 1.014 0 0 1 .62.148.566.566 0 0 1 .187.476zm-.424.267a.328.328 0 0 0 .1-.269.3.3 0 0 0-.1-.261.643.643 0 0 0-.359-.072h-.4v.685h.393a.631.631 0 0 0 .366-.083zM55.344 73.145l9.368-22.394h1.8l9.367 22.394h-2.368l-2.9-7H60.548l-2.871 7zm10.284-19.808l-4.6 11.072h9.084zM78.3 73.145V50.751h9.273c3.848 0 6.625 3.565 6.625 7.033 0 3.659-2.586 7.1-6.434 7.1h-7.291v8.263H78.3zm2.178-10.22h7.158c2.649 0 4.353-2.429 4.353-5.141a4.861 4.861 0 0 0-4.541-5.077h-6.97v10.218zM92.967 73.145l9.368-22.394h1.8l9.365 22.394h-2.366l-2.9-7H98.17l-2.871 7zm10.283-19.808l-4.6 11.072h9.085zM124.1 50.623a8.8 8.8 0 0 1 8.263 4.89l-1.767 1.073a7.045 7.045 0 0 0-6.624-3.974c-5.363 0-8.3 4.795-8.3 9.305 0 4.952 3.628 9.43 8.389 9.43a7.651 7.651 0 0 0 6.907-4.164l1.83.945c-1.45 3.343-5.426 5.2-8.863 5.2-6.15 0-10.471-5.866-10.471-11.543.005-5.385 3.884-11.162 10.636-11.162zM153.545 50.751v22.394h-2.209V62.673h-13.278v10.472h-2.175V50.751h2.175v9.967h13.278v-9.967zM173.647 71.188v1.955H158.6V50.751h14.761v1.956H160.78v8.074h10.977v1.861H160.78v8.548h12.867zM47.613 31.87a23.832 23.832 0 0 0-4.725 4.766l1.854 3.5A45.767 45.767 0 0 1 48.7 35.17c.1-.114.157-.168.157-.168-.052.056-.1.112-.157.168a41.364 41.364 0 0 0-3.715 5.038 70.092 70.092 0 0 0 7.208-.892c.709-3.973-.7-5.791-.7-5.791s-1.785-2.892-3.88-1.655zM44.473 51.836l.04-.007-.267.029c-.016.007-.031.016-.047.022.092-.015.184-.031.274-.044zM42.58 58.1zM42 58.2zM41.384 61.261c-.238.043-.48.086-.73.128.126-.018.251-.039.373-.059s.238-.044.357-.069z" fill="#fff"/>
    <path d="M41.384 61.261c-.238.043-.48.086-.73.128.126-.018.251-.039.373-.059s.238-.044.357-.069z" fill="#fff" opacity=".35" style="isolation:isolate"/>
    <path d="M42.006 58.2H42c.041 0 .079-.011.117-.018.157-.022.312-.049.465-.083-.191.034-.382.065-.577.1z" fill="#fff"/>
    <path d="M42.006 58.2H42c.041 0 .079-.011.117-.018.157-.022.312-.049.465-.083-.191.034-.382.065-.577.1z" fill="#fff" opacity=".35" style="isolation:isolate"/>
    <path d="M39.274 49.178q.845-1.579 1.71-3.085.9-1.562 1.816-3.023l.108-.173q.909-1.438 1.832-2.759l-1.854-3.5c-.139.171-.281.343-.422.521a77.902 77.902 0 0 0-1.659 2.144 110.126 110.126 0 0 0-3.846 5.508q-.8 1.23-1.6 2.526a.974.974 0 0 0-.059.1l2.411 4.763q.768-1.539 1.563-3.022zM28.283 76.032q-.477 1.317-.963 2.685l-.013.04-.137.386c-.218.616-.4 1.17-.837 2.429a4.891 4.891 0 0 1 1.82 2.146 3.883 3.883 0 0 0-1.261-2.673c3.5.157 6.523-.727 8.083-3.291a6.78 6.78 0 0 0 .382-.723 3.365 3.365 0 0 1-3.244 1.19h-.011.011a9.4 9.4 0 0 0 4.741-3.875 18.1 18.1 0 0 0 .759-1.36 7.634 7.634 0 0 1-7.2 2.339l-1.951.213c-.057.162-.118.328-.179.494zM25.466 70.384a36.627 36.627 0 0 0-.628 4.575 4.303 4.303 0 0 0-.012.16 9.522 9.522 0 0 0-2.779-2.384 13.468 13.468 0 0 1 2.714 6.24 6.143 6.143 0 0 1-3.071-.523 6.166 6.166 0 0 0 2.62 1.592 7.518 7.518 0 0 0-3.639 1.813 7.793 7.793 0 0 1 4.312-.792c-1.658 4.692-3.32 9.873-4.983 15.372a1.447 1.447 0 0 0 .985-.956c.3-1 2.263-7.533 5.343-16.122l.265-.739.074-.206q.489-1.35 1.012-2.759l.241-.642V75l-2.42-4.786c-.009.058-.023.114-.034.17zM44.982 40.208A85.878 85.878 0 0 0 43.2 43.07l-.1.17q-.828 1.4-1.758 3.076c-.534.967-1.088 2-1.668 3.12q-.753 1.458-1.558 3.093l6.129-.671a7.454 7.454 0 0 0 3.358-2.64c.207-.3.413-.606.617-.927a38.812 38.812 0 0 0 1.8-3.14 32.61 32.61 0 0 0 1.363-3 15.858 15.858 0 0 0 .541-1.623c.112-.427.2-.829.267-1.215a69.857 69.857 0 0 1-7.209.895zM41.023 61.331a6.44 6.44 0 0 0 0 0z" fill="#fff"/>
    <path d="M41.023 61.331a6.44 6.44 0 0 0 0 0z" fill="#fff" opacity=".35" style="isolation:isolate"/>
    <path d="M41.023 61.331a6.44 6.44 0 0 0 0 0zM42 58.2c.04 0 .079-.011.117-.018A1.43 1.43 0 0 1 42 58.2z" fill="#fff"/>
    <path d="M42 58.2c.04 0 .079-.011.117-.018A1.43 1.43 0 0 1 42 58.2z" fill="#fff" opacity=".35" style="isolation:isolate"/>
    <path d="M42 58.2c.04 0 .079-.011.117-.018A1.43 1.43 0 0 1 42 58.2z" fill="#fff"/>
    <path d="M179.486 50.594a1.755 1.755 0 1 1-1.244-.514 1.692 1.692 0 0 1 1.244.514zm-.148 2.337a1.555 1.555 0 0 0 0-2.182 1.545 1.545 0 0 0-2.184 0 1.562 1.562 0 0 0 0 2.184 1.462 1.462 0 0 0 1.088.452 1.487 1.487 0 0 0 1.096-.454zm-.247-1.432a.549.549 0 0 1-.413.592l.5.685h-.409l-.455-.635h-.414v.635h-.33v-1.9h.714a1.014 1.014 0 0 1 .62.148.566.566 0 0 1 .187.476zm-.424.267a.328.328 0 0 0 .1-.269.3.3 0 0 0-.1-.261.643.643 0 0 0-.359-.072h-.4v.685h.393a.631.631 0 0 0 .366-.083z" fill="#6d6e71"/>
    <path d="M55.344 73.145l9.368-22.394h1.8l9.367 22.394h-2.368l-2.9-7H60.548l-2.871 7zm10.284-19.808l-4.6 11.072h9.084zM78.3 73.145V50.751h9.273c3.848 0 6.625 3.565 6.625 7.033 0 3.659-2.586 7.1-6.434 7.1h-7.291v8.263H78.3zm2.178-10.22h7.158c2.649 0 4.353-2.429 4.353-5.141a4.861 4.861 0 0 0-4.541-5.077h-6.97v10.218zM92.967 73.145l9.368-22.394h1.8l9.365 22.394h-2.366l-2.9-7H98.17l-2.871 7zm10.283-19.808l-4.6 11.072h9.085zM124.1 50.623a8.8 8.8 0 0 1 8.263 4.89l-1.767 1.073a7.045 7.045 0 0 0-6.624-3.974c-5.363 0-8.3 4.795-8.3 9.305 0 4.952 3.628 9.43 8.389 9.43a7.651 7.651 0 0 0 6.907-4.164l1.83.945c-1.45 3.343-5.426 5.2-8.863 5.2-6.15 0-10.471-5.866-10.471-11.543.005-5.385 3.884-11.162 10.636-11.162zM153.545 50.751v22.394h-2.209V62.673h-13.278v10.472h-2.175V50.751h2.175v9.967h13.278v-9.967zM173.647 71.188v1.955H158.6V50.751h14.761v1.956H160.78v8.074h10.977v1.861H160.78v8.548h12.867z" fill="#d22128"/>
    <path d="M47.613 31.87a23.832 23.832 0 0 0-4.725 4.766l1.854 3.5A45.767 45.767 0 0 1 48.7 35.17c.1-.114.157-.168.157-.168-.052.056-.1.112-.157.168a41.364 41.364 0 0 0-3.715 5.038 70.092 70.092 0 0 0 7.208-.892c.709-3.973-.7-5.791-.7-5.791s-1.785-2.892-3.88-1.655z" fill="url(#c)"/>
    <path d="M44.473 51.836l.04-.007-.267.029c-.016.007-.031.016-.047.022.092-.015.184-.031.274-.044zM42.58 58.1zM42 58.2z" fill="none"/>
    <path d="M41.384 61.261c-.238.043-.48.086-.73.128.126-.018.251-.039.373-.059s.238-.044.357-.069z" fill="#be202e"/>
    <path d="M41.384 61.261c-.238.043-.48.086-.73.128.126-.018.251-.039.373-.059s.238-.044.357-.069z" fill="#be202e" opacity=".35" style="isolation:isolate"/>
    <path d="M42.006 58.2H42c.041 0 .079-.011.117-.018.157-.022.312-.049.465-.083-.191.034-.382.065-.577.1z" fill="#be202e"/>
    <path d="M42.006 58.2H42c.041 0 .079-.011.117-.018.157-.022.312-.049.465-.083-.191.034-.382.065-.577.1z" fill="#be202e" opacity=".35" style="isolation:isolate"/>
    <path d="M39.274 49.178q.845-1.579 1.71-3.085.9-1.562 1.816-3.023l.108-.173q.909-1.438 1.832-2.759l-1.854-3.5c-.139.171-.281.343-.422.521a77.902 77.902 0 0 0-1.659 2.144 110.126 110.126 0 0 0-3.846 5.508q-.8 1.23-1.6 2.526a.974.974 0 0 0-.059.1l2.411 4.763q.768-1.539 1.563-3.022z" fill="url(#a)"/>
    <path d="M28.283 76.032q-.477 1.317-.963 2.685l-.013.04-.137.386c-.218.616-.4 1.17-.837 2.429a4.891 4.891 0 0 1 1.82 2.146 3.883 3.883 0 0 0-1.261-2.673c3.5.157 6.523-.727 8.083-3.291a6.78 6.78 0 0 0 .382-.723 3.365 3.365 0 0 1-3.244 1.19h-.011.011a9.4 9.4 0 0 0 4.741-3.875 18.1 18.1 0 0 0 .759-1.36 7.634 7.634 0 0 1-7.2 2.339l-1.951.213c-.057.162-.118.328-.179.494z" fill="url(#b)"/>
    <path d="M29.2 71.662c.422-1.089.855-2.194 1.3-3.305q.639-1.6 1.313-3.214t1.374-3.237q.714-1.65 1.457-3.289.734-1.62 1.5-3.217.271-.576.552-1.145c.319-.657.642-1.311.967-1.957.018-.036.036-.07.054-.1L35.3 47.429l-.119.193q-.845 1.377-1.67 2.815t-1.632 2.956q-.679 1.266-1.319 2.557c-.086.175-.171.348-.254.521q-.788 1.623-1.43 3.132a65.073 65.073 0 0 0-1.291 3.257q-.37 1.017-.676 1.962a63.88 63.88 0 0 0-.482 1.611 50.644 50.644 0 0 0-.925 3.778L27.924 75q.482-1.282.988-2.6c.088-.247.188-.491.288-.738z" fill="url(#d)"/>
    <path d="M25.466 70.384a36.627 36.627 0 0 0-.628 4.575 4.303 4.303 0 0 0-.012.16 9.522 9.522 0 0 0-2.779-2.384 13.468 13.468 0 0 1 2.714 6.24 6.143 6.143 0 0 1-3.071-.523 6.166 6.166 0 0 0 2.62 1.592 7.518 7.518 0 0 0-3.639 1.813 7.793 7.793 0 0 1 4.312-.792c-1.658 4.692-3.32 9.873-4.983 15.372a1.447 1.447 0 0 0 .985-.956c.3-1 2.263-7.533 5.343-16.122l.265-.739.074-.206q.489-1.35 1.012-2.759l.241-.642V75l-2.42-4.786c-.009.058-.023.114-.034.17z" fill="url(#e)"/>
    <path d="M38.084 52.6c-.07.141-.139.285-.209.428-.208.431-.422.871-.635 1.32a186.15 186.15 0 0 0-1.059 2.27q-.541 1.177-1.1 2.431-.684 1.542-1.392 3.2-.673 1.587-1.367 3.285-.657 1.613-1.331 3.329-.6 1.529-1.213 3.145c-.02.051-.04.1-.058.157q-.606 1.6-1.226 3.3c-.009.025-.018.052-.029.076l1.951-.213c-.038-.007-.079-.011-.117-.02a13.921 13.921 0 0 0 7.439-4.187 18.486 18.486 0 0 0 2.537-3.531 30.516 30.516 0 0 0 1.634-3.4 48.167 48.167 0 0 0 1.3-3.56 7 7 0 0 1-1.827.633 8.523 8.523 0 0 1-.734.128 8.488 8.488 0 0 0 4.552-4.437 7.769 7.769 0 0 1-2.62 1.146 6.688 6.688 0 0 1-.581.101 8.851 8.851 0 0 0 1.944-1.087q.178-.135.344-.276c.168-.146.33-.3.483-.46q.147-.155.285-.319a7.81 7.81 0 0 0 .608-.837c.058-.092.114-.187.171-.283.071-.139.141-.276.208-.411.3-.611.548-1.156.741-1.634q.146-.357.254-.667l.083-.238q.114-.343.188-.613a6.156 6.156 0 0 0 .144-.637 2.335 2.335 0 0 1-.254.173 9.184 9.184 0 0 1-2.691.916l1.791-.2-1.791.2-.04.006c-.09.016-.182.029-.274.045.015-.007.031-.016.047-.022l-6.129.671a.551.551 0 0 1-.027.072z" fill="url(#f)"/>
    <path d="M44.982 40.208A85.878 85.878 0 0 0 43.2 43.07l-.1.17q-.828 1.4-1.758 3.076c-.534.967-1.088 2-1.668 3.12q-.753 1.458-1.558 3.093l6.129-.671a7.454 7.454 0 0 0 3.358-2.64c.207-.3.413-.606.617-.927a38.812 38.812 0 0 0 1.8-3.14 32.61 32.61 0 0 0 1.363-3 15.858 15.858 0 0 0 .541-1.623c.112-.427.2-.829.267-1.215a69.857 69.857 0 0 1-7.209.895z" fill="url(#g)"/>
    <path d="M41.023 61.331a6.44 6.44 0 0 0 0 0z" fill="#be202e"/>
    <path d="M41.023 61.331a6.44 6.44 0 0 0 0 0z" fill="#be202e" opacity=".35" style="isolation:isolate"/>
    <path d="M41.023 61.331a6.44 6.44 0 0 0 0 0z" fill="url(#h)"/>
    <path d="M42 58.2c.04 0 .079-.011.117-.018A1.43 1.43 0 0 1 42 58.2z" fill="#be202e"/>
    <path d="M42 58.2c.04 0 .079-.011.117-.018A1.43 1.43 0 0 1 42 58.2z" fill="#be202e" opacity=".35" style="isolation:isolate"/>
    <path d="M42 58.2c.04 0 .079-.011.117-.018A1.43 1.43 0 0 1 42 58.2z" fill="url(#i)"/>
</svg>
