<svg xmlns="http://www.w3.org/2000/svg" width="120" height="60">
    <g id="b"><g id="c"><path id="d" d="M90.125,26.452c-.012-2.256-1.851-4.074-4.106-4.062-2.256,.012-4.074,1.851-4.062,4.106,.012,2.256,1.851,4.074,4.106,4.062h.02c2.243-.011,4.052-1.837,4.042-4.08v-.027Z" fill="none"/><path id="e" d="M61.998,22.5c-2.238,.018-4.071,1.782-4.176,4.017-.06,2.205,1.757,4.012,4.076,4.042,2.304,.03,4.027-1.618,4.051-3.887,.077-2.225-1.664-4.092-3.889-4.169l-.063-.002Z" fill="none"/><path id="f" d="M101.801,22.48c-2.231,.048-4,1.895-3.953,4.125,.048,2.231,1.895,4,4.125,3.953,2.198-.047,3.955-1.843,3.954-4.041-.012-2.242-1.839-4.049-4.081-4.037h-.045Z" fill="none"/><path id="g" d="M87.875,19.534c-3.098-.806-6.359,.505-8.038,3.23-2.064,3.423-.963,7.871,2.46,9.935,2.091,1.261,4.677,1.383,6.877,.323,.289-.134,.533-.433,.911-.304,.08,1.548-.124,2.399-.786,3.265-1.807,2.364-5.141,2.12-6.839-.503-.667-1.03-1.427-1.309-2.28-.836-.901,.503-1.07,1.389-.448,2.469,.861,1.508,2.232,2.659,3.867,3.245,.294,.109,.254,.109,.702,.279,.513,.199,2.09,.249,2.822,.114,.316-.066,.627-.154,.931-.264,3.042-.87,5.168-3.612,5.256-6.774,.055-2.484,.065-4.967-.005-7.451-.117-3.199-2.328-5.939-5.43-6.729h0Zm-5.923,6.993c-.026-2.255,1.781-4.105,4.036-4.131,2.255-.026,4.105,1.781,4.131,4.036s-1.781,4.105-4.036,4.131h-.005c-2.251,.028-4.098-1.774-4.126-4.024v-.012Z"/><path id="h" d="M108.774,24.382c-1.095-3.385-4.465-5.535-7.914-5.027-3.956,.561-6.708,4.222-6.148,8.178,.561,3.956,4.222,6.708,8.178,6.148,2.657-.377,4.888-2.193,5.794-4.719,.21-.496,.359-1.016,.443-1.548,.064-.703,.034-1.411-.09-2.105-.072-.313-.16-.622-.264-.926Zm-6.973,6.182c-2.231-.045-4.003-1.89-3.958-4.12,.045-2.231,1.89-4.003,4.12-3.958,2.198,.044,3.957,1.838,3.959,4.037-.017,2.249-1.854,4.059-4.103,4.042h-.018Z"/><path id="i" d="M68.931,24.979c-.79-3.828-4.534-6.291-8.362-5.501-.261,.054-.519,.122-.772,.205-3.822,1.161-5.979,5.2-4.818,9.022,.064,.21,.137,.416,.219,.619,1.558,3.793,6.276,5.53,9.994,3.673,.438-.219,.766-.538,1.19,.119,.369,.58,1.116,.789,1.732,.483,.634-.227,1.037-.852,.981-1.523-.005-1.03,0-2.061,0-3.355-.065-1.075,.134-2.424-.164-3.743Zm-7.033,5.584c-2.319-.03-4.141-1.837-4.076-4.042,.107-2.234,1.939-3.997,4.176-4.017,2.226,.043,3.996,1.882,3.954,4.108l-.002,.063c-.025,2.265-1.747,3.917-4.051,3.887Z"/><path id="j" d="M79.254,20.773c-.08-1.04-.956-1.573-2.314-1.423-3.222,.322-5.841,2.738-6.421,5.923-.239,1.244-.055,2.514-.11,3.559,0,1.125-.005,2.041,0,2.956,.01,1.259,.567,1.956,1.563,1.966,.995,.015,1.603-.692,1.618-1.931,.015-1.752-.015-3.509,.01-5.261,.03-2.19,1.548-3.932,3.713-4.022,1.284-.055,2.006-.906,1.941-1.767Z" fill="#010101"/></g><g id="k"><path id="l" d="M25.658,44.015s.008,.012,.008,.035c.004,.162,.008,.321,.012,.483,.023-.124,.046-.247,.073-.375-.019-.236-.205-.116-.093-.143Z" fill="#fefefe"/><path id="m" d="M35.798,30.799l-.015,.008,.015,.012v-.019Z" fill="#fefefe"/><path id="n" d="M29.41,14.576v.004h.012l-.012-.004Z" fill="#fefefe"/><path id="o" d="M34.84,47.157c.05-.56,.023-1.128,.093-1.685,.155-1.225,.008-2.477,.328-3.687,.158-.626-.348-1.36,.301-1.909h0l-.162-.533c-.139-.282-.132-.613,.019-.889h0c-.038-1.074,.027-2.149,.193-3.211,.058-1.476,.12-2.952,.178-4.432l-.015-.012c-3.157,1.449-6.133-.58-6.639-3.014-.332-1.6-.155-3.111,1.094-4.332,.209-.205,.386-.441,.58-.665,.51-3.057,.155-5.862-2.458-8.049,.39-.224,.742-.097,1.059-.155v-.004c-3.204-.804-7.091,1.387-8.378,4.734-.4,.989-.581,2.053-.529,3.119,3.177-1.472,6.025,.286,6.809,2.964,.815,2.786-1.356,5.735-4.243,5.777-.827,.004-1.649-.119-2.438-.363,.058,1.538,.117,3.076,.178,4.614h0c.142,1.003,.202,2.017,.182,3.03l.023,.719h0c-.008,.158-.015,.317-.023,.479,.201,.971,.321,1.957,.359,2.949-.007-.025-.012-.051-.015-.077,.004,.027,.012,.05,.015,.077,.077,1.681,.124,3.366,.243,5.047,.05,.696-.201,1.043-.842,1.221-.757,.213-1.503,.468-2.253,.707,.989,.124,1.987,.168,2.983,.131,1.07-.023,1.557-.499,1.662-1.561,.066-.676,.124-1.353,.185-2.029,.07-1.225,.139-2.454,.209-3.679h.151v3.497h0c.019,.529,.027,1.063,.062,1.592,.155,2.469,.228,2.454-2.234,2.952-.056,.018-.111,.041-.162,.07,.147,.097,.294,.193,.441,.294,.045,.007,.085,.034,.108,.073,.587,.004,1.179,.054,1.758,0,1.055-.1,1.553-.665,1.631-1.712,.046-.672,.116-1.345,.174-2.017-.06-.888,.01-1.78,.209-2.647-.004-.162-.008-.321-.012-.483,0-.023-.008-.039-.008-.035-.112,.027,.073-.093,.093,.143,.019-.104,.043-.209,.062-.313v4.05h0c.012,.475,.027,.947,.035,1.422,.019,1.72-.089,1.874-1.727,2.365-.452,.135-.924,.216-1.372,.367-.325,.112-.738,.05-1.043,.433,1.333-.05,2.581,.1,3.822-.1,1.283-.209,1.793-.727,2.056-1.979,.193-.92,.274-1.866,.626-2.798,.04,.064,.073,.131,.1,.201,.178,.869,.356,1.743,.526,2.612,.24,1.217,.734,1.735,1.971,1.952,1.279,.22,2.574,.07,3.899,.1-.189-.325-.487-.271-.727-.34-.823-.24-1.662-.444-2.469-.723-.587-.205-1.009-.58-1.001-1.302,.019-1.979,.008-3.957,.008-5.936h.24c.085,1.24,.185,2.477,.251,3.718,.151,2.867,.491,3.18,3.37,3.022,.162-.271,.56-.058,.711-.348-.692-.004-1.295-.336-1.928-.549-.351-.121-.577-.464-.549-.835,.031-2.033-.046-4.073,.228-6.098,.166,1.7,.298,3.405,.429,5.105,.062,.796,.421,1.418,1.256,1.472,1.128,.077,2.261,.019,3.393,.019-.589-.273-1.199-.498-1.824-.672-1.383-.444-1.376-.448-1.248-1.855h0Zm-8.703-28.994c-.005,.566-.462,1.023-1.028,1.028-.607,.012-1.063-.336-1.074-1.125,.011-.552,.467-.99,1.018-.98l.048,.002c.723-.012,1.047,.475,1.036,1.074Zm4.645,16.903c.004,1.565-1.194,2.929-2.562,2.925-1.291-.004-2.608-1.526-2.562-2.964h0c-.07-.425-.143-.854-.24-1.449,.924,.63,1.7,1.275,2.74,1.298,1.063,.019,1.897-.526,2.767-1.163,.185,.51-.282,.908-.143,1.353h0Z" fill="#fe733e"/><path id="p" d="M20.994,38.45c-.077-.027-.151-.062-.224-.089-1.036-.453-1.99-1.073-2.825-1.836-3.068-2.651-5.093-5.97-5.584-9.997-.556-4.575,.468-8.799,3.52-12.428,2.786-3.308,6.338-5.236,10.577-5.681,4.711-.491,8.942,.827,12.505,4.081,2.909,2.582,4.746,6.159,5.151,10.028,.417,3.321-.271,6.686-1.959,9.576-1.573,2.686-3.667,4.865-6.5,6.245-.077,.039-.155,.077-.232,.112h0c-.153,.275-.16,.608-.019,.889h0c.06-.065,.128-.123,.201-.174,4.278-2.265,7.246-5.63,8.633-10.314,.12-.398,.305-.595,.75-.549,.603,.062,.765-.34,.765-.842,.004-1.928,.005-3.855,.004-5.781,0-.413-.1-.869-.529-.916-.788-.093-.885-.669-1.043-1.229-.872-3.194-2.754-6.02-5.364-8.057-5.449-4.278-11.431-5.051-17.707-2.16-4.664,2.145-7.636,5.866-8.981,10.847-.085,.309-.046,.676-.572,.568-.75-.155-1.032,.286-1.036,.951-.012,1.928-.004,3.853-.004,5.781,0,.641,.325,.982,.943,.831,.568-.139,.703,.143,.819,.576,.502,1.832,1.342,3.554,2.477,5.078,1.662,2.253,3.687,4.061,6.26,5.213h0c-.008-.24-.015-.483-.027-.723h0Z" fill="#b5d2f3"/><path id="q" d="M20.998,39.648c-.572,1.604-2.094,1.565-3.389,1.967,.974,.251,1.963,.541,2.937,.375,.58-.1,.692,.108,.777,.452,.008,.027,.012,.054,.019,.081,.004,.023,.012,.05,.015,.077-.038-.992-.158-1.98-.359-2.952Z" fill="#fe684b"/><path id="r" d="M35.261,41.789c1.237,.56,2.404-.004,3.598-.166-1.167-.495-2.678-.24-3.292-1.743h0c-.653,.549-.147,1.283-.305,1.909Z" fill="#fe6446"/><path id="s" d="M25.813,43.845c-.019,.104-.043,.209-.062,.313-.023,.124-.05,.247-.073,.375-.198,.867-.269,1.759-.209,2.647,.29,.151,.077,.549,.344,.711h0v-4.046Z" fill="#fed6c8"/><path id="t" d="M23.544,42.431c-.07,1.225-.139,2.454-.209,3.679,.12-.062,.24-.12,.359-.182h0v-3.497h-.151Z" fill="#feebe3"/><path id="u" d="M19.912,50.909h1.994c-.035-.023-.073-.046-.108-.073-.147-.097-.294-.193-.441-.294-.506-.011-1.006,.116-1.445,.367Z" fill="#fe9166"/><path id="v" d="M34.372,50.909h1.94c-.355-.259-.791-.382-1.229-.348-.151,.294-.553,.077-.711,.348Z" fill="#fe8f64"/><path id="w" d="M35.659,38.346c2.833-1.376,4.923-3.555,6.5-6.245,1.688-2.89,2.377-6.255,1.959-9.576-.402-3.87-2.24-7.448-5.151-10.028-3.563-3.25-7.794-4.572-12.505-4.077-4.235,.441-7.791,2.373-10.577,5.681-3.057,3.629-4.077,7.852-3.52,12.428,.491,4.031,2.516,7.346,5.584,9.997,.835,.762,1.789,1.382,2.825,1.836,.073,.031,.147,.062,.224,.089,.021-1.013-.04-2.026-.182-3.03-.077-.054-.155-.108-.232-.166-.764-.591-1.478-1.245-2.133-1.955-.205-.209-.46-.386-.46-.727-.456,.328-.784,.1-1.051-.263-1.497-1.964-2.368-4.332-2.5-6.797-.108-2.234,.093-4.405,1.032-6.496,1.147-2.582,3.067-4.745,5.495-6.191,.417-.255,.657-.027,.947,.162,.278-.011,.538-.14,.715-.356l-.035-.081c-.247-.522-.259-1.113,.336-1.252,.599-.143,.939,.344,.943,.974,4.471-1.468,8.629-.873,12.381,1.99,2.806,2.141,4.413,5.012,4.904,8.513,.634,4.502-.889,8.235-4.027,11.392-.37,.38-.795,.703-1.26,.958-.081,.043-.162,.081-.243,.12-.167,1.062-.231,2.137-.193,3.211h0c.07-.035,.143-.073,.224-.112Z" fill="#e2f5fc"/><path id="x" d="M37.124,34.173c3.134-3.157,4.657-6.89,4.027-11.392-.491-3.505-2.098-6.376-4.904-8.513-3.752-2.864-7.914-3.455-12.381-1.99-.008,.004-.015,.012-.023,.015-.352,.224-.626,.707-1.132,.406-.031-.019-.058-.035-.089-.058-.176,.216-.437,.345-.715,.356-.012,.046-.027,.089-.043,.135-.321,.9-1.283,1.136-1.928,1.677-1.731,1.404-3.049,3.251-3.814,5.344-1.229,3.424-.978,6.778,.669,10.016,.273,.525,.59,1.027,.947,1.499,.194,.258,.283,.58,.247,.9v.012h0c0,.336,.255,.518,.46,.727,.656,.709,1.37,1.363,2.133,1.955,.077,.054,.155,.112,.232,.166h0c-.058-1.538-.117-3.076-.178-4.614l-.008-.004c-1.337-.877-2.319-1.998-2.489-3.667-.213-2.06,.653-3.582,2.338-4.691,.008-.004,.015-.012,.023-.015h0c-.052-1.066,.129-2.13,.529-3.119,1.287-3.343,5.174-5.538,8.378-4.734,.004,0,.008,0,.012,.004,2.125,.344,3.872,1.314,5.124,3.095,1.01,1.371,1.509,3.053,1.41,4.753h0c1.206,.916,2.18,1.99,2.338,3.578,.213,2.137-.699,3.698-2.496,4.788h0v.019c-.058,1.476-.12,2.952-.178,4.432,.085-.039,.166-.077,.243-.12,.47-.254,.897-.578,1.268-.962h0Z" fill="#cdecf6"/><path id="y" d="M31.918,22.263c1.325-.653,2.612-.301,3.891,.12,.046,.015,.097,.031,.143,.046,.1-1.701-.399-3.382-1.41-4.753-1.252-1.781-2.999-2.751-5.124-3.095h-.012c-.317,.062-.669-.07-1.059,.155,2.612,2.187,2.972,4.993,2.458,8.049,.081-.039,.158-.073,.24-.112,.298-.135,.587-.267,.873-.41Z" fill="#fe6b3c"/><path id="a`" d="M38.294,26.011c-.158-1.588-1.132-2.663-2.338-3.578h0c-.046-.015-.097-.031-.143-.046-1.283-.421-2.566-.773-3.891-.12-.286,.143-.58,.278-.869,.413-.081,.039-.158,.073-.24,.112-.193,.22-.371,.46-.58,.665-1.252,1.221-1.426,2.732-1.094,4.332,.506,2.438,3.482,4.467,6.643,3.022l.015-.008c1.797-1.094,2.713-2.659,2.496-4.792Zm-4.726,4.27c-2.023-.021-3.646-1.679-3.625-3.702,.021-2.023,1.679-3.646,3.702-3.625s3.646,1.679,3.625,3.702v.012c.012,1.984-1.586,3.602-3.569,3.615-.044,0-.089,0-.133-.002Z" fill="#fe6142"/><path id="aa" d="M20.476,22.444c-1.685,1.109-2.55,2.632-2.338,4.691,.17,1.669,1.152,2.79,2.489,3.667l.008,.004c.789,.245,1.612,.368,2.438,.363,2.883-.043,5.058-2.987,4.243-5.777-.784-2.678-3.636-4.436-6.809-2.964h0c-.011,.004-.021,.009-.031,.015h0Zm2.303,7.837c-2.033,.026-3.702-1.6-3.728-3.633-.026-2.033,1.6-3.702,3.633-3.728h.042c2.033-.039,3.712,1.577,3.751,3.609,.039,2.033-1.577,3.712-3.61,3.751-.029,0-.059,0-.088,0Z" fill="#fe6143"/><path id="ab" d="M26.145,35.367c-.143-.143-.247-.336-.487-.34h0c-.046,1.438,1.268,2.96,2.562,2.964,1.372,.004,2.566-1.36,2.562-2.925-.518,.267-.846,.815-1.441,.978-1.186,.325-2.276,.243-3.196-.676Z" fill="#070909"/><path id="ac" d="M30.925,33.713c-.869,.638-1.7,1.182-2.767,1.163-1.043-.019-1.816-.669-2.74-1.298,.1,.595,.17,1.02,.24,1.449h0c.24,.008,.344,.197,.487,.34,.916,.92,2.009,1.001,3.196,.676,.595-.162,.924-.707,1.441-.978-.139-.444,.328-.842,.143-1.353Z" fill="#fdfcfb"/><path id="ad" d="M25.102,17.092c-.545-.042-1.022,.366-1.064,.911-.002,.022-.003,.044-.003,.067,.012,.788,.468,1.132,1.074,1.125,.566-.005,1.023-.462,1.028-1.028,.012-.603-.313-1.09-1.036-1.074Z" fill="#fea777"/><path id="ae" d="M17.983,32.565c.036-.321-.053-.643-.247-.9-.355-.473-.672-.975-.947-1.499-1.646-3.238-1.901-6.593-.669-10.016,.765-2.093,2.083-3.94,3.814-5.344,.645-.541,1.608-.773,1.928-1.677,.016-.044,.031-.089,.043-.135-.29-.189-.529-.417-.947-.162-2.428,1.445-4.348,3.608-5.495,6.191-.939,2.091-1.14,4.262-1.032,6.496,.135,2.465,1.006,4.833,2.5,6.797,.267,.363,.599,.591,1.051,.263h0v-.012Z" fill="#fdfefe"/><path id="af" d="M23.838,12.292c.008-.004,.015-.012,.023-.015-.008-.63-.344-1.117-.943-.974-.595,.143-.584,.734-.336,1.252l.035,.081c.028,.021,.058,.04,.089,.058,.506,.305,.781-.182,1.132-.402h0Z" fill="#fbfdfe"/><path id="ag" d="M37.27,26.672c.055-1.995-1.517-3.657-3.512-3.712-.034,0-.067-.001-.101-.001-2.023-.034-3.69,1.579-3.724,3.602-.034,2.023,1.579,3.69,3.602,3.724h.033c1.986,.059,3.642-1.504,3.701-3.49,.001-.041,.002-.082,.001-.123Zm-3.52,.402c-.582,.058-1.1-.367-1.158-.949-.004-.039-.006-.078-.005-.118-.038-.618,.432-1.15,1.05-1.188,.033-.002,.065-.003,.098-.002,.68,.05,1.063,.448,1.144,1.159-.093,.634-.417,1.086-1.128,1.097Z" fill="#fefefe"/><path id="ah" d="M22.725,22.923c-2.033,.003-3.678,1.654-3.675,3.687,.003,2.033,1.654,3.678,3.687,3.675h.042c2.033,.009,3.689-1.632,3.698-3.665,.009-2.033-1.631-3.689-3.664-3.698-.029,0-.059,0-.088,0Zm.004,4.15c-.582,.053-1.098-.375-1.151-.958-.004-.04-.005-.08-.004-.12-.033-.616,.44-1.142,1.056-1.174,.036-.002,.071-.002,.107,0,.632,.009,1.137,.528,1.128,1.159-.085,.653-.441,1.086-1.136,1.094Z" fill="#fefefe"/><path id="ai" d="M33.735,24.817c-.617-.018-1.131,.467-1.15,1.084-.001,.036,0,.071,.002,.107-.009,.583,.458,1.063,1.041,1.072,.041,0,.082-.001,.122-.005,.707-.012,1.036-.464,1.128-1.097-.081-.711-.464-1.109-1.144-1.159Z" fill="#090b0b"/><path id="aj" d="M22.737,24.821c-.616-.026-1.137,.452-1.164,1.068-.002,.036-.001,.071,0,.107-.013,.585,.45,1.069,1.035,1.082,.04,0,.08,0,.12-.004,.696-.008,1.051-.441,1.136-1.094-.066-.715-.46-1.105-1.128-1.159Z" fill="#090c0c"/></g></g>
</svg>
