<svg xmlns="http://www.w3.org/2000/svg" width="120" height="60">
    <svg width="790" height="180" transform="translate(10 18.608)scale(.12658)" viewBox="0 0 790 180">
        <path d="M668.5 22.9c-7.9 0-15.2 2.3-21.3 6.3v-5.9c-.7-15.8-13.6-20.9-17-22.5h-.4v98.3s11.6-1.2 15.9-7.6c6.4 4.6 14.2 7.4 22.8 7.4 21.4 0 38.7-17 38.7-37.9s-17.4-38.1-38.7-38.1m0 58.9c-11.9 0-21.5-9.4-21.5-21s9.6-21 21.5-21 21.4 9.4 21.4 21-9.7 21-21.4 21m81.7-58.9c-21.4 0-38.7 17-38.7 37.9s17.3 37.9 38.7 37.9c8.8 0 17-2.9 23.5-7.8 4 6.6 15.2 7.8 15.2 7.8V60.8c.1-20.9-17.4-37.9-38.7-37.9m0 58.9c-11.9 0-21.5-9.4-21.5-21s9.6-21 21.5-21 21.4 9.4 21.4 21-9.6 21-21.4 21M441.8 22.9c-21.3 0-38.7 17-38.7 37.9s17.3 37.9 38.7 37.9c8.9 0 17-2.9 23.5-7.8 4 6.6 15.2 7.8 15.2 7.8V60.8c-.1-20.9-17.4-37.9-38.7-37.9m0 58.9c-11.8 0-21.4-9.4-21.4-21s9.6-21 21.4-21 21.5 9.4 21.5 21-9.8 21-21.5 21m84.8-58.9c4.9 0 9.6.9 13.9 2.5v20c-3.7-3.2-8.6-5.1-13.9-5.1-11.7 0-21.1 9.3-21.1 20.7v37.7h-17.8V29.9s7.3.3 12 3.6c7.1-6.5 16.5-10.7 26.9-10.6M622 60.7c-.1 21-16.7 38-37 38s-37-17-37.1-38V28.3s17.6 4.4 17.8 23.4v8.8c0 11.5 8.6 20.8 19.2 20.8s19.2-9.3 19.2-20.8V42.1c.7-15.8 14-20.9 17.4-22.5h.4z" style="fill:#ff8300"/>
        <path d="M131 20.7v142.8H93.5V107h-55v56.5H1V20.7h37.4v54.2h55.1V20.7zm94.7 50.2c0 10.7-6 17.9-19.5 17.9h-21.6V53h21.6c13.5 0 19.5 7.2 19.5 17.9M210.1 120c31 0 51.9-17.2 51.9-49.1s-21-49.3-51.9-49.3h-62.5v142.8h37V120zm62.5-98.4v142.8h102.1v-32.3h-65.3v-24.7h59.8V76h-59.8V53.7h65.3V21.6z"/>
        <path d="M413.6 126.3v3.5c2-2.4 5.8-4.3 10.2-4.3 8.6 0 13.5 5.6 13.5 14.1v24.9h-10.6v-22.6c0-4-2-6.7-6.2-6.7-3.2 0-6 2-6.9 5.3v24.1H403v-38.1zm41 21.5c.8 6.2 5.4 8.8 11 8.8 4.2 0 7.2-.9 10.9-3.3v8.7c-3.2 2.3-7.4 3.3-12.5 3.3-11.6 0-19.5-7.5-19.5-19.6 0-11.9 7.5-20.2 17.9-20.2 11.1 0 16.8 7.7 16.8 18.9v3.4zm.3-6.9h14.4c-.2-4.1-2.5-7-6.7-7-3.5 0-6.5 2.2-7.7 7m36 23.5v-29.6h-7.2v-8.5h7.2V116h10.6v10.3h8.1v8.5h-8.1v29.6zm67.2-38.1h10.2l-11.6 38.1H547l-6.2-23.3-6.2 23.3h-9.7l-11.6-38.1h10.6l6.8 24.3 6.2-24.3h8.1l6.3 24.3zm32.7 38.9c-11.1 0-18.7-8.2-18.7-19.8 0-11.8 7.6-19.9 18.7-19.9s18.7 8.2 18.7 19.9-7.7 19.8-18.7 19.8m0-30.8c-5.3 0-8.2 4.6-8.2 11 0 6.3 2.9 10.9 8.2 10.9s8.2-4.6 8.2-10.9c0-6.4-3-11-8.2-11m49.3 2.3c-1.5-.9-3.3-1.3-5.3-1.3-3.6 0-6.5 1.9-7.2 5.4v23.6H617v-38.1h10.6v3.8c1.6-2.7 4.8-4.6 8.5-4.6 1.8 0 3.4.3 4 .7zm31.9 27.7-13.7-17.5v17.5h-10.6V109h10.6v32.4l13-15.1H684l-15.8 17.5 16.2 20.6zm23.1-43c-3.4 0-6.3-2.5-6.3-6.1 0-3.5 2.9-6.1 6.3-6.1 3.3 0 6.2 2.6 6.2 6.1 0 3.6-2.8 6.1-6.2 6.1m-5.3 43v-38.1h10.6v38.1zm31.2-38.1v3.5c2-2.4 5.8-4.3 10.2-4.3 8.6 0 13.5 5.6 13.5 14.1v24.9h-10.6v-22.6c0-4-2-6.7-6.2-6.7-3.2 0-6 2-6.9 5.3v24.1h-10.6v-38.1zm57.3 33.7c-1.7 2-5 3.8-9.3 3.8-11 0-17.2-8.9-17.2-19.2 0-10.4 6.2-19.2 17.2-19.2 4.3 0 7.6 1.9 9.3 3.8v-3h10.6v33.9c0 14-10.3 19.1-20.7 19.1-5.2 0-10-1.3-13.1-3.2v-10.4c3.9 3.4 8 4.7 12.9 4.7 5.7 0 10.3-2.9 10.3-9.1zm0-21.8c-1.2-2.1-3.9-3.9-7.1-3.9-5.6 0-8.9 4.3-8.9 10.4 0 6 3.2 10.3 8.9 10.3 3.2 0 5.9-1.7 7.1-3.9z"/>
    </svg>
</svg>
