<svg xmlns="http://www.w3.org/2000/svg" xmlns:xlink="http://www.w3.org/1999/xlink" height="123"
    viewBox="0 0 1200 123" width="1200">
    <linearGradient id="a" x1="0%" x2="100%" y1="49.474688%" y2="50.525313%">
        <stop offset="0" stop-color="#3f2971" />
        <stop offset="1" stop-color="#9478d2" />
    </linearGradient>
    <path
        d="m140.323101 16.656215c-3.339086 5.0694289-5.006083 10.6209407-5.006083 16.656215 0 7.7469205 1.811289 13.9535274 5.437261 18.6215006 3.62767 4.6713326 7.912293 8.1147816 12.862357 10.3337066 4.946669 2.2222844 11.509407 4.5285554 19.683124 6.9204927 5.982175 1.5957447 10.672513 3.0739082 14.071014 4.4428891 3.393408 1.3656215 6.213043 3.1898097 8.458905 5.4658455 2.244165 2.2777156 3.366247 5.2407615 3.366247 8.8824188 0 5.0139978-2.159287 9.2553192-6.474466 12.7290037-4.315179 3.475364-10.215872 5.208846-17.696987 5.208846-11.85401 0-21.985005-4.382419-30.384496-13.1539751l-12.775781 12.3023521c4.143726 4.896416 9.92559 9.110862 17.350686 12.639977 7.423398 3.532475 16.026595 5.294513 25.809591 5.294513 8.633753 0 16.230301-1.594065 22.789645-4.782195 6.561041-3.18645 11.594285-7.456327 15.106521-12.81299 3.510539-5.351624 5.267506-11.1618139 5.267506-17.4255317 0-7.743561-1.812986-13.950168-5.438958-18.6198208-3.625973-4.6679731-7.913991-8.1147816-12.86066-10.3353864-4.951761-2.2206047-11.512802-4.5268757-19.683123-6.9188129-5.987268-1.594065-10.677607-3.0755879-14.071014-4.4412094-3.396803-1.3673013-6.214741-3.1898097-8.458905-5.4675252-2.245863-2.2760359-3.367945-5.2357223-3.367945-8.8840986 0-4.5537514 1.986137-8.3969765 5.956712-11.5296752 3.970576-3.1326988 9.465554-4.6982083 16.48833-4.6982083 5.179233 0 9.92559 1.0548712 14.242467 3.1595744 4.316876 2.1097425 7.97001 4.5856663 10.962795 7.4328108l12.775782-12.3023516c-3.914557-4.0985443-9.178668-7.6864502-15.797426-10.76203811-6.618758-3.07390817-14.013297-4.61254199-22.183618-4.61254199-8.404584 0-15.741406 1.51007839-22.012166 4.5268757-6.27755 3.01847704-11.079927 7.0632699-14.417315 12.1293393zm615.306833 1.0447928c5.303154.849944 10.32112 2.5951848 15.033526 5.2760359 6.907342 3.9288914 12.344603 9.31243 16.315179 16.1455767s5.956713 14.2928331 5.956713 22.3790593-1.986137 15.5459127-5.956713 22.3790594-9.407837 12.2133258-16.315179 16.1422169c-6.905644 3.930571-14.444476 5.894177-22.616494 5.894177-8.173717 0-15.710851-1.963606-22.616495-5.894177-.845381-.4804028-1.666997-.9843222-2.469939-1.5083983l-6.718914 16.6243003c9.611544 5.229003 20.211063 7.861142 31.805348 7.861142 11.85401 0 22.674211-2.731243 32.457207-8.198768 9.781299-5.467525 17.464422-12.898656 23.049371-22.295073 5.579855-9.3947368 8.37233-19.7301232 8.37233-31.0044793 0-11.2760358-2.792475-21.6114221-8.37233-31.0078387-5.584949-9.3947369-13.268072-16.8275476-23.049371-22.29339307-5.737728-3.20660694-11.845523-5.44568869-18.294525-6.77099664zm-248.959684 0c5.303155.849944 10.317726 2.5951848 15.03183 5.2760359 6.907341 3.9288914 12.3463 9.31243 16.316876 16.1455767s5.955015 14.2928331 5.955015 22.3790593-1.984439 15.5459127-5.955015 22.3790594-9.409535 12.2133258-16.316876 16.1422169c-6.905645 3.930571-14.446174 5.894177-22.616495 5.894177-8.173716 0-15.71085-1.963606-22.616495-5.894177-.845381-.4804028-1.666996-.9843222-2.468241-1.5083983l-6.718914 16.6243003c9.611544 5.229003 20.209365 7.861142 31.80365 7.861142 11.85401 0 22.674211-2.731243 32.457207-8.198768 9.781299-5.467525 17.464423-12.898656 23.049371-22.295073 5.581553-9.3947368 8.374027-19.7301232 8.374027-31.0044793 0-11.2760358-2.792474-21.6114221-8.374027-31.0078387-5.584948-9.3947369-13.268072-16.8275476-23.049371-22.29339307-5.737728-3.20660694-11.843825-5.44568869-18.296222-6.77099664zm599.2361-15.99272113v119.58510633h18.99222v-44.4171332h28.48833l25.03211 44.4171332h21.58099l-27.27797-47.4927211c7.01938-2.9613662 12.60263-7.5167973 16.74805-13.6662934 4.14203-6.1511758 6.21304-13.0951848 6.21304-20.843785 0-7.0599104-1.69755-13.4344905-5.09265-19.1321389-3.39511-5.6926091-8.11431-10.1909294-14.15759-13.49496076-6.0399-3.30235162-12.86066-4.95520717-20.45891-4.95520717zm18.99222 17.08286673h31.0754c6.10101 0 11.07823 1.9098544 14.93507 5.7245241 3.85344 3.8163494 5.78356 8.7413214 5.78356 14.774916 0 5.9244121-1.93012 10.8225084-5.78356 14.6926092-3.85684 3.8734602-8.83406 5.8085106-14.93507 5.8085106h-31.0754zm-134.150798-17.08286673v119.58510633h87.186308v-17.084546h-68.19579v-36.3880183h52.65809v-17.0828668h-52.65809v-31.9468085h66.47107v-17.08286673zm-46.78625 0-45.57929 57.91209403h-.3463l-45.577593-57.91209403h-17.437261v119.58510633h18.990522v-87.468645h.690904l43.333428 55.0095185 43.335125-55.0095185h.690904v87.468645h18.992219v-119.58510633zm-272.334984 0v87.29731243h-.519451l-65.951619-87.29731243h-17.264111v119.58510633h18.990522v-87.2973124h.519451l65.951619 87.2973124h17.264111v-119.58510633zm-316.839722 0v119.58510633h18.992219v-44.4171332h28.486632l25.035507 44.4171332h21.57929l-27.277974-47.4927211c7.017683-2.9613662 12.602631-7.5167973 16.746357-13.6662934 4.142029-6.1511758 6.21474-13.0951848 6.21474-20.843785 0-7.0599104-1.697552-13.4344905-5.092658-19.1321389-3.396803-5.6926091-8.114301-10.1909294-14.157589-13.49496076-6.043288-3.30235162-12.862357-4.95520717-20.458905-4.95520717zm18.992219 17.08286673h31.0754c6.101004 0 11.076531 1.9098544 14.933371 5.7245241 3.855142 3.8163494 5.785259 8.7413214 5.785259 14.774916 0 5.9244121-1.930117 10.8225084-5.785259 14.6926092-3.85684 3.8734602-8.832367 5.8085106-14.933371 5.8085106h-31.0754zm-137.360871-17.08286673v17.08286673h36.25633v102.5022396h18.99222v-102.5022396h36.254633v-17.08286673zm-188.1397654.15621501-48.2783986 119.42889132h19.4845098l12.0695997-30.7105263h53.298062l12.2206818 30.7105263h20.1737167l-31.1738582-77.1164613h-19.5048804l11.5399632 29.3449048h-39.6582261l28.1759797-71.65733482z"
        fill="url(#a)" fill-rule="evenodd" />
</svg>