<svg xmlns="http://www.w3.org/2000/svg" width="120" height="60">
    <linearGradient id="linear-gradient" x1="15.54" y1="39.6" x2="38.87" y2="18.35" gradientUnits="userSpaceOnUse">
        <stop offset="0" stop-color="#3f40be"/>
        <stop offset="1" stop-color="#4c70f1"/>
    </linearGradient>
    <path fill="#333" d="M55.79 22.81l-.71-2H52l-.69 2h-1.2l2.82-7.62h1.21L57 22.81zm-3.56-2.87h2.57l-1.29-3.74zM63.12 22.81l-1.44-6-1.45 6H59l-2.23-7.62H58l1.64 6.39 1.47-6.17h1.23l1.46 6.18 1.65-6.4h1.15l-2.22 7.62zM69.14 19.19a3.18 3.18 0 01-1.31-.82 1.85 1.85 0 01-.41-1.22 2 2 0 011.2-1.85A3 3 0 0170 15a5.59 5.59 0 012 .4v.89a6.67 6.67 0 00-2-.34 1.84 1.84 0 00-1.1.29 1 1 0 00-.39.83.92.92 0 00.26.7 2.85 2.85 0 001 .52l1 .38a3 3 0 011.28.79 1.83 1.83 0 01.39 1.21 2.08 2.08 0 01-.75 1.68 3.06 3.06 0 01-2 .63 5 5 0 01-2.2-.45v-.88a7.1 7.1 0 002.18.38 1.92 1.92 0 001.22-.34 1.09 1.09 0 00.45-.92 1 1 0 00-.26-.68 2.42 2.42 0 00-.87-.51zM56.42 33.61a5.43 5.43 0 01-2 .34 3.71 3.71 0 01-2.81-1 4.06 4.06 0 01-1-2.92 4.09 4.09 0 011-2.95A3.72 3.72 0 0154.48 26a5.58 5.58 0 011.83.31v1.3a7.65 7.65 0 00-1.64-.22A2.22 2.22 0 0053 28a2.63 2.63 0 00-.56 1.84v.26A2.62 2.62 0 0053 32a2.17 2.17 0 001.68.6 9 9 0 001.79-.26zM60 34a2.67 2.67 0 01-2-.79 3.05 3.05 0 01-.74-2.2 3 3 0 01.74-2.2 3 3 0 014.09 0 3.06 3.06 0 01.72 2.19 3.09 3.09 0 01-.73 2.2A2.7 2.7 0 0160 34zm0-1.24c.77 0 1.16-.58 1.16-1.75s-.36-1.75-1.16-1.75-1.15.58-1.15 1.73.41 1.75 1.15 1.75zM67.86 33.81l-.13-.49a2.32 2.32 0 01-1.62.61 2.13 2.13 0 01-1.22-.35 2.28 2.28 0 01-.82-1 3.9 3.9 0 01-.29-1.58 3.46 3.46 0 01.65-2.19 2.1 2.1 0 011.72-.81 2.36 2.36 0 011.5.5v-2.83h1.61v8.14zm-1.22-1.09a1.81 1.81 0 001-.31v-2.9a2.12 2.12 0 00-1.08-.28 1 1 0 00-.87.44 2.42 2.42 0 00-.28 1.33 2.28 2.28 0 00.3 1.31 1.06 1.06 0 00.93.41zM72 31.39a1.41 1.41 0 00.44 1 1.92 1.92 0 001.24.33 6.65 6.65 0 001.72-.28v1.07a4 4 0 01-.92.31 5.7 5.7 0 01-1.1.11 2.82 2.82 0 01-2.13-.76 3.09 3.09 0 01-.74-2.17 3.1 3.1 0 01.73-2.18 2.62 2.62 0 012-.79 2.24 2.24 0 011.68.6 2.35 2.35 0 01.59 1.71v.55c0 .2 0 .38-.08.51zm1.2-2.25a1.09 1.09 0 00-.85.32 1.47 1.47 0 00-.36.94h2.15v-.19c0-.71-.31-1.07-.94-1.07zM52.49 42v2.78h-1.61v-7.59h2.91a2.63 2.63 0 011.89.65 2.62 2.62 0 010 3.54 2.68 2.68 0 01-1.89.65zm0-1.23h1.12a1.1 1.1 0 00.84-.31 1.23 1.23 0 00.29-.88 1.25 1.25 0 00-.29-.89 1.14 1.14 0 00-.84-.3h-1.12zM58.43 38.32a1 1 0 01-.68-.23.91.91 0 010-1.25 1.07 1.07 0 011.35 0 .91.91 0 010 1.25 1 1 0 01-.67.23zm-.81 6.49v-5.62h1.61v5.62zM60.81 47.08v-7.89h1.32l.13.53a2.44 2.44 0 01.8-.51A2.64 2.64 0 0164 39a2.05 2.05 0 011.69.79 3.25 3.25 0 01.62 2.11 4 4 0 01-.31 1.57 2.48 2.48 0 01-.83 1.07 2.06 2.06 0 01-1.24.39 2.72 2.72 0 01-.86-.14 2.12 2.12 0 01-.69-.4v2.69zm2.69-6.85a2.1 2.1 0 00-1.08.3v2.89a2 2 0 001.08.3 1 1 0 00.9-.42 2.28 2.28 0 00.3-1.3 2.43 2.43 0 00-.29-1.33 1 1 0 00-.91-.44zM68.78 42.39a1.37 1.37 0 00.44 1 1.9 1.9 0 001.24.33 6.71 6.71 0 001.72-.28v1.07a4.13 4.13 0 01-.92.31 5.8 5.8 0 01-1.11.11 2.85 2.85 0 01-2.15-.71 3.13 3.13 0 01-.71-2.22 3.06 3.06 0 01.71-2.19 2.61 2.61 0 012-.81 2.24 2.24 0 011.68.6 2.35 2.35 0 01.59 1.71 3.65 3.65 0 010 .55 4.2 4.2 0 01-.07.51zM70 40.14a1.13 1.13 0 00-.86.32 1.41 1.41 0 00-.35.94h2.15v-.19c-.02-.71-.33-1.07-.94-1.07zM76 44.7a2.46 2.46 0 01-1 .19c-1 0-1.48-.56-1.48-1.66v-6.56h1.6v6.42a.69.69 0 00.11.44.43.43 0 00.34.13 4.12 4.12 0 00.42 0zM78 38.32a1 1 0 01-.67-.23.91.91 0 010-1.25 1.06 1.06 0 011.34 0 .91.91 0 010 1.25 1 1 0 01-.67.23zm-.8 6.49v-5.62h1.6v5.62zM84 44.81v-3.68a.93.93 0 00-.2-.66.81.81 0 00-.61-.21 2.24 2.24 0 00-1.2.37v4.18h-1.6v-5.62h1.32l.15.6a3.39 3.39 0 012.06-.79 1.65 1.65 0 011.21.43 1.62 1.62 0 01.42 1.2v4.16zM88.27 42.39a1.37 1.37 0 00.44 1 1.92 1.92 0 001.24.33 6.71 6.71 0 001.72-.28v1.07a4.13 4.13 0 01-.92.31 5.8 5.8 0 01-1.11.11 2.85 2.85 0 01-2.13-.76 3.69 3.69 0 010-4.41 2.61 2.61 0 012-.79 2.24 2.24 0 011.68.6 2.35 2.35 0 01.59 1.71 3.65 3.65 0 010 .55 4.2 4.2 0 01-.07.51zm1.2-2.25a1.13 1.13 0 00-.86.32 1.52 1.52 0 00-.35.94h2.15v-.19c0-.71-.31-1.07-.94-1.07z"/>
    <path fill="url(#linear-gradient)" d="M10.06 14.15H42v31.79H10.06z"/>
    <path fill="#fff" d="M34.48 19.55h-16.9a2.06 2.06 0 00-2.06 2.06v5.25a2.06 2.06 0 002.06 2.06h.84v11.49h15V28.92h1.06a2.06 2.06 0 002.06-2.06v-5.25a2.06 2.06 0 00-2.06-2.06zm-1.7 20.22H19.06V28.92h13.72zm1.7-11.51h-16.9a1.4 1.4 0 01-1.4-1.4v-.38h7.05v-.67h-7v-4.2a1.4 1.4 0 011.4-1.4h16.9a1.4 1.4 0 011.4 1.4v4.2h-8.21v.67h8.16v.38a1.4 1.4 0 01-1.4 1.4z"/>
    <path fill="#fff" d="M24.9 25.81h1.45v.66H24.9z"/>
    <path fill="#fff" transform="rotate(-68.05 26.14 34.07)" d="M22.4 33.74h7.49v.66H22.4z"/>
    <path fill="#fff" d="M23.14 36.48l.47-.47-2.13-2.13 2.13-2.13-.47-.47-2.59 2.6 2.59 2.6zM28.96 36.48l2.6-2.6-2.6-2.6-.47.47 2.13 2.13-2.13 2.13.47.47z"/>
</svg>
