<svg xmlns="http://www.w3.org/2000/svg" width="120" height="60">
    <path d="M56.338 27.5h-.908l-.742-1.963h-2.969l-.7 1.963h-.914l2.686-7h.85zm-1.919-2.7l-1.1-2.983a2.772 2.772 0 0 1-.107-.469h-.02a2.729 2.729 0 0 1-.112.469L51.992 24.8zm6.328-2.07l-2.959 4.087h2.93v.683h-4.107v-.249l2.959-4.067h-2.68V22.5h3.857zm5.078 4.77h-.8v-.8h-.019a1.644 1.644 0 0 1-1.543.908q-1.787 0-1.787-2.129V22.5h.8v2.861q0 1.582 1.211 1.582a1.227 1.227 0 0 0 .964-.431 1.657 1.657 0 0 0 .378-1.131V22.5h.8zm4.224-4.189a.979.979 0 0 0-.606-.161 1.023 1.023 0 0 0-.857.483 2.231 2.231 0 0 0-.344 1.318V27.5h-.8v-5h.8v1.03h.02a1.745 1.745 0 0 1 .522-.823 1.2 1.2 0 0 1 .786-.3 1.3 1.3 0 0 1 .479.069zm4.756 1.889h-3.531a1.866 1.866 0 0 0 .45 1.289 1.544 1.544 0 0 0 1.181.454 2.46 2.46 0 0 0 1.553-.556v.752a2.9 2.9 0 0 1-1.743.478 2.108 2.108 0 0 1-1.665-.681 2.784 2.784 0 0 1-.606-1.916 2.742 2.742 0 0 1 .661-1.9 2.127 2.127 0 0 1 1.644-.734 1.883 1.883 0 0 1 1.519.635 2.65 2.65 0 0 1 .537 1.762zm-.821-.678a1.63 1.63 0 0 0-.335-1.079 1.138 1.138 0 0 0-.915-.386 1.294 1.294 0 0 0-.962.405 1.845 1.845 0 0 0-.488 1.06zM50.8 38.495v-7h2.48q3.73 0 3.731 3.413a3.453 3.453 0 0 1-1.019 2.613 3.754 3.754 0 0 1-2.712.976zm1.577-5.718v4.439h.781a2.111 2.111 0 0 0 1.609-.615 2.337 2.337 0 0 0 .584-1.675 2.118 2.118 0 0 0-.58-1.575 2.2 2.2 0 0 0-1.623-.574zm10.137 3.658h-3.261q.078 1.087 1.372 1.088a2.674 2.674 0 0 0 1.45-.39v1.113a3.818 3.818 0 0 1-1.8.371 2.327 2.327 0 0 1-2.548-2.544 2.673 2.673 0 0 1 .722-1.972 2.4 2.4 0 0 1 1.778-.728 2.187 2.187 0 0 1 1.691.649 2.5 2.5 0 0 1 .6 1.763zm-1.431-.948q0-1.074-.869-1.074a.832.832 0 0 0-.643.308 1.4 1.4 0 0 0-.329.766zm7.109-1.992l-1.86 5h-1.757l-1.772-5h1.65l.869 3.081a4.469 4.469 0 0 1 .171.889h.02a5.012 5.012 0 0 1 .18-.86l.889-3.11zm3.77 5.122a3.256 3.256 0 0 1-2.451-.979 3.513 3.513 0 0 1-.948-2.551 3.769 3.769 0 0 1 .962-2.686 3.332 3.332 0 0 1 2.549-1.025 3.177 3.177 0 0 1 2.424.981 3.62 3.62 0 0 1 .926 2.588 3.706 3.706 0 0 1-.96 2.661 3.293 3.293 0 0 1-2.501 1.011zm.068-5.884a1.585 1.585 0 0 0-1.318.623A2.592 2.592 0 0 0 70.225 35a2.543 2.543 0 0 0 .488 1.645 1.563 1.563 0 0 0 1.279.606 1.582 1.582 0 0 0 1.294-.588 2.53 2.53 0 0 0 .479-1.634 2.738 2.738 0 0 0-.464-1.694 1.516 1.516 0 0 0-1.27-.602zM78 37.914h-.019V40.8h-1.545v-7.3h1.543v.752H78a1.962 1.962 0 0 1 3.107-.207 2.831 2.831 0 0 1 .531 1.814 3.074 3.074 0 0 1-.618 2.006 2.012 2.012 0 0 1-1.643.757A1.555 1.555 0 0 1 78 37.914zm-.044-2.051v.4a1.267 1.267 0 0 0 .274.844.887.887 0 0 0 .717.328.946.946 0 0 0 .818-.408 1.967 1.967 0 0 0 .291-1.155q0-1.318-1.026-1.318a.965.965 0 0 0-.774.358 1.436 1.436 0 0 0-.302.951zm4.356 2.5v-1.25a3.23 3.23 0 0 0 .758.342 2.523 2.523 0 0 0 .716.112 1.531 1.531 0 0 0 .647-.112.362.362 0 0 0 .237-.342.32.32 0 0 0-.107-.244 1.039 1.039 0 0 0-.277-.171 3.087 3.087 0 0 0-.368-.132 4.595 4.595 0 0 1-.386-.131 3.7 3.7 0 0 1-.525-.243 1.522 1.522 0 0 1-.381-.3 1.18 1.18 0 0 1-.234-.4 1.568 1.568 0 0 1-.08-.532 1.372 1.372 0 0 1 .182-.723 1.49 1.49 0 0 1 .488-.495 2.212 2.212 0 0 1 .7-.283 3.6 3.6 0 0 1 .818-.091 4.449 4.449 0 0 1 .674.052 4.916 4.916 0 0 1 .674.148v1.192a2.377 2.377 0 0 0-.628-.256 2.6 2.6 0 0 0-.656-.086 1.457 1.457 0 0 0-.287.027.921.921 0 0 0-.236.078.44.44 0 0 0-.161.131.308.308 0 0 0-.059.184.34.34 0 0 0 .088.234.745.745 0 0 0 .23.168 2.074 2.074 0 0 0 .314.127l.345.115a4.488 4.488 0 0 1 .557.235 1.737 1.737 0 0 1 .426.3 1.175 1.175 0 0 1 .274.4 1.6 1.6 0 0 1-.1 1.306 1.535 1.535 0 0 1-.513.513 2.3 2.3 0 0 1-.737.287 4.032 4.032 0 0 1-.866.091 4.466 4.466 0 0 1-1.529-.251z" fill="#706d6e"/>
    <path d="M35.719 20.844l.055.041v18.333l-22.3-3.391L22.82 47v-4.492L35.618 47l8.357-7.1V19.318zm-22.247 4.114l22.247-4.114L25.067 13v3.655l-11.595 4.6-3.447 4.492V35.3l3.449.527z" fill="#0078d4"/>
</svg>
