<svg xmlns="http://www.w3.org/2000/svg" width="120" height="60">
    <path d="M46.22 23.56c2.55 0 4 1.49 4 3.53a2.92 2.92 0 01-1.92 2.81 3.09 3.09 0 012.32 3.1c0 2.13-1.6 3.67-4 3.67H41.5V23.56zM45.83 29a1.63 1.63 0 001.86-1.64c0-1-.64-1.63-1.88-1.63H44V29zm.26 5.57c1.23 0 2-.65 2-1.7a1.69 1.69 0 00-1.94-1.76H44v3.46zm11.59 1.14a2.87 2.87 0 01-2.52 1.23 3.35 3.35 0 01-3.45-3.6v-5.77h2.46v5.25a1.62 1.62 0 001.67 1.83 1.64 1.64 0 001.71-1.8v-5.28H60V35a15.2 15.2 0 00.09 1.65h-2.34a6.59 6.59 0 01-.07-.97zm5.53-12.62a1.52 1.52 0 11-1.52 1.54 1.51 1.51 0 011.52-1.54zM62 36.67v-9.1h2.45v9.1zm4.43 0V23.28h2.46v13.39zM79.36 35c0 .61 0 1.28.08 1.65h-2.35a6.32 6.32 0 01-.09-1.04 2.88 2.88 0 01-2.56 1.28 4.48 4.48 0 01-4.44-4.8 4.44 4.44 0 014.36-4.75 2.73 2.73 0 012.57 1.13v-5.19h2.42zm-4.62-.33A2.31 2.31 0 0077 32.08a2.25 2.25 0 00-2.24-2.53 2.28 2.28 0 00-2.25 2.55 2.3 2.3 0 002.23 2.59zm11.64-3.27l3.72 5.27h-3l-2.4-3.48-1 1.07v2.4h-2.49V23.28h2.46V31l3.14-3.38H90zm5.91-8.34a1.52 1.52 0 11-1.52 1.54 1.52 1.52 0 011.52-1.54zm-1.22 13.61v-9.1h2.46v9.1zm3.85-9.1a1.31 1.31 0 001.4-1.44v-1.28h2.23v2.72h1.83v2.18h-1.83v3.81c0 .79.37 1 1.07 1a3.21 3.21 0 00.76-.07v2a3.47 3.47 0 01-1.38.31 2.63 2.63 0 01-2.89-2.8v-4.25h-1.19m15 4.31a4.09 4.09 0 01-4.14 2.88 4.61 4.61 0 01-4.7-4.86 4.57 4.57 0 014.48-4.79c2.81 0 4.49 1.79 4.49 4.71v.76h-6.5a2.21 2.21 0 002.29 2.07 2 2 0 002.07-1.38zm-2.29-3a1.83 1.83 0 00-2-1.79 2 2 0 00-2 1.79z"/>
    <path d="M10 23.73l8.56 4.19v8.56L10 32.29zm17.21 0l8.47 4.19-8.47 4.37z" fill="#30f2a2"/>
    <path d="M27.21 23.73l-8.65 4.19v8.56l8.65-4.19zm8.47 4.19l-8.47 4.37v8.56l8.47-4.37z" fill="#14cc80"/>
</svg>
