<svg xmlns="http://www.w3.org/2000/svg" width="128" height="128">
    <path d="M16.916 76.335c3.772 0 7.548.111 11.313-.041 2.4-.1 3.743.841 4.844 2.95 4.692 8.988 11.948 14.985 21.833 17.368a33.67 33.67 0 0 0 41.432-28.147c2.279-16.52-8.674-34.853-28.519-37.74C53 28.57 40.5 35.8 33.709 47.438a13.566 13.566 0 0 0-.872 1.668c-.784 1.917-2.182 2.591-4.239 2.568-7.182-.081-14.366-.031-21.549-.031-.9 0-1.8.03-2.694-.013-2.755-.13-3.85-1.615-3.139-4.256A62.481 62.481 0 0 1 20.244 16.4C33 5 48.072-.576 65.124.047c19.989.73 36.227 9.286 48.6 25.016a60.849 60.849 0 0 1 12.961 32.549c1.287 13.869-1.36 26.989-8.674 38.979-9.758 15.991-23.711 26.381-42.122 30.009-21.937 4.328-41.25-1.436-57.514-16.822a61.271 61.271 0 0 1-17.061-28.82c-.864-3.141.171-4.573 3.481-4.611 4.04-.047 8.081-.011 12.121-.012z"/>
    <path d="M62.961 48.876a15.115 15.115 0 1 1-15.179 15 15.221 15.221 0 0 1 15.179-15z"/>
</svg>
