<svg xmlns="http://www.w3.org/2000/svg" width="120" height="60">
    <path d="M91.476 23.7a1.367 1.367 0 0 0-2.734 0v2.871a1.367 1.367 0 1 0 2.734 0zm-7.515-3.769a1.375 1.375 0 0 0-2.75 0v6.64a1.375 1.375 0 0 0 2.75 0zm-7.531-5.156a1.367 1.367 0 0 0-2.733 0V29.3a1.367 1.367 0 1 0 2.733 0zm-7.53 5.157a1.366 1.366 0 1 0-2.732 0v6.64a1.366 1.366 0 1 0 2.732 0zM61.366 23.7a1.366 1.366 0 0 0-2.732 0v2.871a1.366 1.366 0 1 0 2.732 0zm-7.519-3.769a1.371 1.371 0 0 0-2.741 0v6.64a1.371 1.371 0 0 0 2.741 0zm-7.527-5.156a1.371 1.371 0 0 0-2.741 0V29.3a1.371 1.371 0 0 0 2.741 0zm-7.528 5.157a1.371 1.371 0 0 0-2.741 0v6.64a1.371 1.371 0 0 0 2.741 0zM31.264 23.7a1.37 1.37 0 0 0-2.74 0v2.871a1.37 1.37 0 0 0 2.74 0V23.7zm28.293 11.908a11.724 11.724 0 0 0-2.691-.349c-2.544 0-4.076 1.374-4.076 3.42 0 1.811 1.282 2.714 2.82 3.2.17.057.421.135.589.191.684.215 1.231.535 1.231 1.089 0 .62-.632 1.022-2.005 1.022a10.371 10.371 0 0 1-2.607-.407v2.517a16.47 16.47 0 0 0 2.979.3c2.113 0 4.529-.923 4.529-3.671a3.289 3.289 0 0 0-2.607-3.129l-.762-.243c-.454-.143-1.265-.375-1.265-1.041 0-.526.6-.9 1.707-.9a9.45 9.45 0 0 1 2.158.334v-2.333zm23.328 5.317a2.855 2.855 0 1 1-2.855-2.877 2.829 2.829 0 0 1 2.855 2.877m-2.855-5.662a5.665 5.665 0 1 0 5.78 5.662 5.614 5.614 0 0 0-5.78-5.662m-37.5.392a8.408 8.408 0 0 0-2.517-.392 5.666 5.666 0 1 0 0 11.327 8.787 8.787 0 0 0 2.517-.389v-2.937a4.84 4.84 0 0 1-2.32.581 2.921 2.921 0 1 1 0-5.838 4.8 4.8 0 0 1 2.32.584zm28.812 0a8.424 8.424 0 0 0-2.515-.392 5.666 5.666 0 1 0 0 11.327 8.833 8.833 0 0 0 2.515-.389v-2.937a4.87 4.87 0 0 1-2.322.581 2.921 2.921 0 1 1 0-5.838 4.824 4.824 0 0 1 2.322.584zM49.088 46.4h-2.76V35.457h2.76z" fill="#049fd9"/>
</svg>
