<svg xmlns="http://www.w3.org/2000/svg" width="120" height="60">
    <path d="M91.476 17.791a1.367 1.367 0 0 0-2.734 0v2.871a1.367 1.367 0 1 0 2.734 0zm-7.515-3.769a1.375 1.375 0 0 0-2.75 0v6.64a1.375 1.375 0 0 0 2.75 0zM76.43 8.865a1.367 1.367 0 0 0-2.733 0v14.526a1.367 1.367 0 1 0 2.733 0zm-7.53 5.157a1.366 1.366 0 1 0-2.732 0v6.64a1.366 1.366 0 1 0 2.732 0zm-7.531 3.769a1.366 1.366 0 0 0-2.732 0v2.871a1.366 1.366 0 1 0 2.732 0zm-7.519-3.769a1.371 1.371 0 0 0-2.741 0v6.64a1.371 1.371 0 0 0 2.741 0zm-7.53-5.157a1.371 1.371 0 0 0-2.741 0v14.526a1.371 1.371 0 0 0 2.741 0zm-7.528 5.157a1.371 1.371 0 0 0-2.741 0v6.64a1.371 1.371 0 0 0 2.741 0zm-7.528 3.769a1.37 1.37 0 0 0-2.74 0v2.871a1.37 1.37 0 0 0 2.74 0v-2.871zM59.557 29.7a11.724 11.724 0 0 0-2.691-.349c-2.544 0-4.076 1.374-4.076 3.42 0 1.811 1.282 2.714 2.82 3.2.17.056.421.135.589.191.684.215 1.231.535 1.231 1.089 0 .62-.632 1.021-2.005 1.021a10.387 10.387 0 0 1-2.607-.406v2.517a16.47 16.47 0 0 0 2.979.3c2.113 0 4.529-.923 4.529-3.671a3.289 3.289 0 0 0-2.607-3.129l-.762-.243c-.454-.143-1.265-.375-1.265-1.041 0-.526.6-.9 1.707-.9a9.45 9.45 0 0 1 2.158.334V29.7zm23.328 5.317a2.855 2.855 0 1 1-2.855-2.877 2.829 2.829 0 0 1 2.855 2.877m-2.855-5.664a5.665 5.665 0 1 0 5.78 5.662 5.614 5.614 0 0 0-5.78-5.662m-37.5.392a8.408 8.408 0 0 0-2.517-.392 5.666 5.666 0 1 0 0 11.327 8.787 8.787 0 0 0 2.517-.389v-2.937a4.84 4.84 0 0 1-2.32.581 2.921 2.921 0 1 1 0-5.838 4.8 4.8 0 0 1 2.32.584zm28.812 0a8.424 8.424 0 0 0-2.515-.392 5.666 5.666 0 1 0 0 11.327 8.833 8.833 0 0 0 2.515-.389v-2.937a4.87 4.87 0 0 1-2.322.581 2.921 2.921 0 1 1 0-5.838 4.824 4.824 0 0 1 2.322.584zm-22.254 10.74h-2.76V29.547h2.76z" fill="#049fd9"/>
    <g fill="#1e1e1e">
        <path d="M55.841 48.131l1.6 4.273h-.976l-.323-.951h-1.6l-.335.951h-.945l1.615-4.273zm.054 2.622l-.539-1.569h-.012l-.556 1.569zM61.6 49.271a.971.971 0 0 0-.826-.452 1.092 1.092 0 0 0-.538.123 1.015 1.015 0 0 0-.359.329 1.441 1.441 0 0 0-.2.47 2.336 2.336 0 0 0-.063.545 2.164 2.164 0 0 0 .063.523 1.4 1.4 0 0 0 .2.458 1.007 1.007 0 0 0 .359.326 1.092 1.092 0 0 0 .538.123.87.87 0 0 0 .673-.263 1.218 1.218 0 0 0 .3-.7h.909a2.148 2.148 0 0 1-.185.725 1.743 1.743 0 0 1-.4.55 1.666 1.666 0 0 1-.574.347 2.1 2.1 0 0 1-.725.12 2.19 2.19 0 0 1-.883-.171 1.882 1.882 0 0 1-.661-.47 2.08 2.08 0 0 1-.413-.7 2.594 2.594 0 0 1-.143-.87 2.686 2.686 0 0 1 .143-.889 2.146 2.146 0 0 1 .413-.715 1.892 1.892 0 0 1 .661-.479 2.3 2.3 0 0 1 1.551-.072 1.831 1.831 0 0 1 .562.3 1.625 1.625 0 0 1 .41.482 1.722 1.722 0 0 1 .2.658h-.909a.771.771 0 0 0-.103-.298zM65.278 48.131V52.4h-.939v-4.269z"/>
    </g>
</svg>
