<svg xmlns="http://www.w3.org/2000/svg" width="120" height="60">
    <path fill="#0a2540" d="M15 22.68l-.23-.92c-3.3 1.12-4.77 3.66-4.77 8.08s1.47 6.93 4.73 8.07L15 37c-2.11-1.07-3-3.52-3-7.17s.85-6.16 3-7.15zM30.64 21.76l-.26.91c2.12 1 3 3.43 3 7.15s-.85 6.1-3 7.17l.26.91c3.25-1.13 4.72-3.66 4.72-8.06s-1.47-6.96-4.72-8.08zM38.55 30.32c-.4 2.83.84 4 3.43 4a7.91 7.91 0 003.08-.53L44.87 32a19.29 19.29 0 01-2.4.12c-1.06 0-1.32-.26-1.12-1.72s.54-1.7 1.64-1.7h2.41l.37-1.63a8.54 8.54 0 00-3.12-.53c-2.71.02-3.73 1.11-4.1 3.78zM51 26.56c-2.86 0-4 1-4.37 3.77s.78 3.94 3.59 3.94 3.94-1 4.34-3.73c.37-2.89-.79-3.98-3.56-3.98zm.78 3.77c-.28 1.67-.58 2.07-1.51 2.07s-1.1-.35-.89-1.86c.25-1.73.55-2.1 1.53-2.1s1.09.36.82 1.89zM61.59 25.26a8.53 8.53 0 00-.11 1.51 13.39 13.39 0 00-2.37-.21c-1.58 0-2.79.63-3.19 3.7-.37 2.8.4 4 2.11 4a4.43 4.43 0 002.89-1.41v1.24h2.11l1.47-10.32h-2.66zm-.82 6a2.73 2.73 0 01-1.66.77c-.66 0-.63-.49-.45-1.82.22-1.7.48-1.93 1.61-1.93h.9zM69.6 26.56c-2.64 0-4 .72-4.38 3.77-.27 2.57.58 3.94 3.72 3.94a8.62 8.62 0 003.37-.59L72.13 32c-.9.11-2.28.18-2.93.18-.83 0-1.21-.15-1.25-.93l2-.15c2-.15 2.88-.54 3.08-1.91.24-1.67-.53-2.63-3.43-2.63zm.85 2.37c-.06.64-.42.74-1.08.8l-1.24.12c.23-1.2.53-1.47 1.43-1.48.74-.01.93.07.89.56z"/>
    <path fill="#19b99a" d="M23.18 26.51zM25 33.53A5.73 5.73 0 0028.93 29s.89-3.3 2.27-4.67c-2.73.43-3-.64-8 2.16a8.29 8.29 0 011.8 7.04z"/>
    <path fill="#19b99a" d="M23.7 34.5c.06-.34 1.06-3.76-.92-6.54a14.43 14.43 0 00-8.35-4.21c1 1.9 1 3.67 2.08 7.27 1.29 3.73 6.08 4 6.43 4a4 4 0 002.75 1.54l.18-.88a3.14 3.14 0 01-2.17-1.18zM19 29.88a11 11 0 00-2.74-4.45s3.79 1 6 8.06A5.31 5.31 0 0119 29.88zM78.82 24.69h1.42l.24-1.06a16.73 16.73 0 00-2.12-.11 2.17 2.17 0 00-1.63.54 2.15 2.15 0 00-.73 1.55l-.18 1.29-1.31.1-.14 1h1.29l-1 6.69c-.13.94-.5 1.15-1.39 1.15h-1.06L72 36.91a13.34 13.34 0 001.79.12 2.15 2.15 0 001.62-.55 2.17 2.17 0 00.73-1.56l1-6.92h2.24l.15-1.1h-2.28l.17-1.06c.13-.95.5-1.15 1.4-1.15zM82.28 28.55l.08-1.65h-1.1l-1 7.2h1.44l.63-4.59c1.25-.92 2-1.46 2.85-1.46h.41l.35-1.35h-.38a5 5 0 00-3.28 1.85zM90.63 26.7c-2.61 0-3.6.8-4 3.61s.51 4 3 4a9.6 9.6 0 003-.41l-.09-1c-.83.09-1.87.18-2.67.18-1.15 0-1.83-.29-1.82-1.74l2.51-.22c1.76-.14 2.59-.65 2.82-2.08S93 26.7 90.63 26.7zm1.31 2.22c-.11.82-.5 1.07-1.39 1.13l-2.41.23c.31-2 .82-2.38 2.28-2.38 1.15 0 1.66.03 1.52 1.02zM95.2 28.43c-.13 1.05.35 1.61 1.39 2.09l1.94.89c.63.29 1 .38.9.91s-.56.74-2.38.74c-.67 0-1.6 0-2.27-.07l-.16 1.06a17.5 17.5 0 002.8.2c2 0 3.19-.16 3.41-1.8.15-1.1-.31-1.56-1.43-2.08l-2-.88c-.59-.27-.94-.42-.86-1s.51-.64 1.7-.64 1.95.05 2.87.08l.18-1a24.75 24.75 0 00-3.09-.25c-1.85-.01-2.84.38-3 1.75zM109.62 27.25a1.56 1.56 0 00-1.4-.55 5.25 5.25 0 00-3.34 1.67 15 15 0 00.35-1.77l.37-2.84h-1.42l-1.47 10.33h1.44l.64-4.6c1.24-1 2.09-1.58 3-1.58.62 0 .79.27.67 1.17l-.7 5h1.42l.77-5.37a1.54 1.54 0 00-.33-1.46z"/>
</svg>
