<svg xmlns="http://www.w3.org/2000/svg" width="128" height="128">
    <path d="M64.73 0A64 64 0 10128 64.81 63.81 63.81 0 0064.73 0zM30 76.51A7.58 7.58 0 0122.39 69 7.73 7.73 0 0130 61.38a7.57 7.57 0 010 15.13zm24.5-5a7.37 7.37 0 01-6.93 7.24c-4.29.18-7.73-2.51-8-6.6a84.66 84.66 0 010-10.92 7.33 7.33 0 017.75-6.53 7.51 7.51 0 017.16 7.22v4.91c0 1.63.05 3.11.01 4.67zm17 3.61a7.51 7.51 0 01-14.8 1.76 10.43 10.43 0 01-.31-2.67V50.95c0-4.32 2.23-7.3 6-8.2a7.37 7.37 0 019.08 6.88c.08 4.31 0 8.62 0 12.92.02 4.19.06 8.37.01 12.56zm17-4a7.31 7.31 0 01-5.08 7 7.53 7.53 0 01-8.3-2.43A7 7 0 0173.48 71v-9.6-9.35a7.51 7.51 0 0114.8-1.83 6 6 0 01.18 1.58c.03 6.44.05 12.88.01 19.32zm9.61 5.14a7.43 7.43 0 01-7.61-7.48 7.5 7.5 0 1115-.08 7.39 7.39 0 01-7.42 7.56z" fill="#0074a3"/>
</svg>
