<svg xmlns="http://www.w3.org/2000/svg" width="200" height="128">
    <path d="M30.426 105.017A9.993 9.993 0 0 1 22.983 102 10.133 10.133 0 0 1 20 94.542 10.318 10.318 0 0 1 30.093 84h.555a11.743 11.743 0 0 1 4.593.794 10.709 10.709 0 0 1 3.422 2.342l-2.837 3.279a7.715 7.715 0 0 0-5.2-2.29 5.466 5.466 0 0 0-4.2 1.835 6.4 6.4 0 0 0-1.692 4.489 6.6 6.6 0 0 0 1.666 4.528 5.448 5.448 0 0 0 4.229 1.848 6.358 6.358 0 0 0 2.823-.572 11.134 11.134 0 0 0 2.525-1.809l2.836 2.876a11.989 11.989 0 0 1-3.6 2.719 10.962 10.962 0 0 1-4.787.978zm26.753-3.058a10.542 10.542 0 0 1-7.742 3.058 10.409 10.409 0 0 1-7.7-3.032 10.021 10.021 0 0 1-3.058-7.443 10.113 10.113 0 0 1 3.084-7.456 10.569 10.569 0 0 1 7.737-3.058 10.517 10.517 0 0 1 7.7 3.032 10.045 10.045 0 0 1 3.071 7.417 10.122 10.122 0 0 1-3.092 7.482zm-12.088-2.915a6.188 6.188 0 0 0 8.8.026 6.324 6.324 0 0 0 1.7-4.528 6.374 6.374 0 0 0-1.731-4.528 6.188 6.188 0 0 0-8.809-.039 6.373 6.373 0 0 0-1.7 4.5 6.378 6.378 0 0 0 1.74 4.569zm16.981 5.635V84.354H66.2l9.524 12.5v-12.5h4.372v20.325h-3.76l-9.85-12.921v12.921zm20.754 0V84.354H98.31v4.06H87.3v4.32h9.707v4.072H87.3v7.808zm17.072 0V84.354h4.476v20.325zm17.163.338a10.49 10.49 0 0 1-7.69-2.954 10.079 10.079 0 0 1-2.993-7.521 10.172 10.172 0 0 1 3.045-7.456 10.294 10.294 0 0 1 7.612-3.058 12.819 12.819 0 0 1 4.463.677 11.819 11.819 0 0 1 3.513 2.03l-2.811 3.4a9.645 9.645 0 0 0-2.472-1.561 7.219 7.219 0 0 0-2.837-.495 5.361 5.361 0 0 0-4.137 1.913 6.377 6.377 0 0 0-1.7 4.463 6.411 6.411 0 0 0 1.731 4.606 5.8 5.8 0 0 0 4.424 1.835 7.057 7.057 0 0 0 4.216-1.145v-2.919h-4.5v-3.9h8.822v8.835a13.011 13.011 0 0 1-8.686 3.25z"/>
    <path d="M137.646 105.017a9.561 9.561 0 0 1-7.222-3.017 10.319 10.319 0 0 1-2.889-7.456 10.416 10.416 0 0 1 2.915-7.444 9.554 9.554 0 0 1 7.248-3.071 10.5 10.5 0 0 1 4.346.82 13.83 13.83 0 0 1 3.552 2.434l-1.067 1.106a9.6 9.6 0 0 0-6.857-2.954 8.028 8.028 0 0 0-6.116 2.6 9.108 9.108 0 0 0-2.446 6.506 9.11 9.11 0 0 0 2.485 6.506 8 8 0 0 0 6.1 2.6 8.526 8.526 0 0 0 3.747-.781 12.316 12.316 0 0 0 3.253-2.381l1.015.989a13.66 13.66 0 0 1-3.656 2.6 10.188 10.188 0 0 1-4.408.943zm8.3-.338l9.46-20.481h1.458l9.459 20.481h-1.652l-2.6-5.7H150.1l-2.6 5.7zm4.789-7.066h10.709L156.11 85.9zm20.728 7.066V85.746h-7.078v-1.392H180v1.392h-7.092v18.933z" fill="#ed1c24"/>
    <circle cx="99.924" cy="48.532" r="4.814"/>
    <path d="M128.785 46.918a4.867 4.867 0 0 0-9.434 1.653 4.99 4.99 0 0 0 .39 1.925 15.527 15.527 0 0 1 .924 5.309 15.836 15.836 0 0 1-9.616 14.551V63.4h-8.015a.364.364 0 1 1 0-.728h8.015v-1.011H101.2a.365.365 0 0 1 0-.729h9.85v-1.015h-8.015a.365.365 0 0 1 0-.729h8.015V37.367h-.039V22.976L96.554 37.367H84.531l-9.642-9.642v31.333c0 .167.019.329.025.495h8.095a.35.35 0 0 1 .337.364.364.364 0 0 1-.364.364H74.95c.029.343.077.68.129 1.015h9.751a.365.365 0 0 1 .364.365.378.378 0 0 1-.364.364H75.2c.072.344.165.68.261 1.015h7.552a.35.35 0 0 1 .337.364.364.364 0 0 1-.364.365h-7.297a14.452 14.452 0 0 0 13.656 9.746h19.3a19.779 19.779 0 0 0 20.139-26.6zM95.135 59.11l-1.678 1.679v3.279a.494.494 0 0 1-.482.481.481.481 0 0 1-.481-.481v-3.279l-1.679-1.679a.49.49 0 0 1-.076-.075.482.482 0 0 1 .753-.6l1.483 1.47 1.471-1.47.009-.009a.483.483 0 0 1 .68.685zm-9.863-4.346a6.011 6.011 0 0 1-6.011-6.011v-.443a6.011 6.011 0 0 1 6.011-6.01h15.393a6.011 6.011 0 0 1 6.012 6.011v.443a6.011 6.011 0 0 1-6.012 6.011zm.664-10.019a3.9 3.9 0 1 1-3.9 3.9 3.9 3.9 0 0 1 3.9-3.9m0-.963a4.828 4.828 0 1 0 4.814 4.841v-.013a4.827 4.827 0 0 0-4.814-4.81z" fill="#ed1c24"/>
</svg>
