<svg xmlns="http://www.w3.org/2000/svg" width="128" height="128">
    <path fill="#cecece" d="M37.77 80.34L128 28.25 90.23 6.44 0 58.54l37.77 21.8z"/>
    <path fill="#777" d="M37.77 123.96L128 71.86V28.25L37.77 80.34v43.62z"/>
    <path fill="#bababa" d="M0 102.15l37.77 21.81V80.34L0 58.54v43.61zM46.04 114.46l2.62-1.51V79.77l-2.62 1.51v33.18zM55.12 109.23l2.61-1.51V74.53l-2.61 1.51v33.19zM64.19 103.99l2.61-1.51V69.29l-2.61 1.51v33.19zM73.26 98.75l2.61-1.51V64.06l-2.61 1.5v33.19zM82.33 93.51L84.95 92V58.82l-2.62 1.51v33.18zM91.41 88.28l2.61-1.51V53.58l-2.61 1.51v33.19zM100.48 83.04l2.61-1.51V48.34l-2.61 1.51v33.19zM109.55 77.8l2.61-1.51V43.1l-2.61 1.51V77.8zM118.62 72.56l2.61-1.51V37.87l-2.61 1.51v33.18z"/>
</svg>
