<svg xmlns="http://www.w3.org/2000/svg" viewBox="0 0 192 192" width="192" height="192">
    <path d="M96,8a88,88,0,1,0,88,88A88.1,88.1,0,0,0,96,8Zm71.545,80H135.76a147.243,147.243,0,0,0-16.894-60.256A72.17,72.17,0,0,1,167.545,88ZM96,168c-.658,0-1.308-.032-1.961-.05A132.01,132.01,0,0,1,72.262,104h47.476a132.02,132.02,0,0,1-21.776,63.95C97.308,167.968,96.658,168,96,168ZM72.262,88A132.016,132.016,0,0,1,94.039,24.05c.653-.018,1.3-.05,1.961-.05s1.319.032,1.979.05A130.97,130.97,0,0,1,119.74,88Zm.872-60.256A147.243,147.243,0,0,0,56.24,88H24.455A72.17,72.17,0,0,1,73.134,27.744ZM24.455,104H56.24a147.263,147.263,0,0,0,16.894,60.256A72.169,72.169,0,0,1,24.455,104Zm94.411,60.256A147.263,147.263,0,0,0,135.76,104h31.785A72.169,72.169,0,0,1,118.866,164.256Z"/>
</svg>
