<svg xmlns="http://www.w3.org/2000/svg" width="128" height="128">
    <g fill="#5e98cf" fill-rule="evenodd">
        <path d="M64 45.167a18.829 18.829 0 0 0-16.349 28.176l32.637-18.792A18.823 18.823 0 0 0 64 45.167z"/>
        <path d="M26.18 64a37.824 37.824 0 0 1 70.569-18.927l22.8-13.127a10.87 10.87 0 0 0-4.12-4.014Q92.683 14.819 69.931 1.723a11.169 11.169 0 0 0-12.1.12C51.793 5.4 21.578 22.712 12.575 27.927a10.515 10.515 0 0 0-5.513 9.7Q7.053 64 7.056 90.371a11.349 11.349 0 0 0 1.332 5.578l22.8-13.128A37.65 37.65 0 0 1 26.18 64z"/>
    </g>
    <g fill="#044e87">
        <path d="M47.651 73.343a18.829 18.829 0 0 0 32.76-.109l-16.237-9.4z"/>
        <path d="M64 101.82a37.8 37.8 0 0 1-32.811-19L8.388 95.949a10.837 10.837 0 0 0 4.182 4.124c9 5.215 39.222 22.523 45.255 26.084a11.17 11.17 0 0 0 12.107.119q22.737-13.126 45.5-26.208a10.848 10.848 0 0 0 4.182-4.123L96.847 82.757A37.808 37.808 0 0 1 64 101.82z"/>
    </g>
    <path d="M120.938 37.632a11.3 11.3 0 0 0-1.392-5.686L64.174 63.829l55.439 32.116a11.376 11.376 0 0 0 1.331-5.578s0-35.153-.006-52.735zm-18.856 28.493h-4.331v4.332h-4.333v-4.332h-4.332v-4.332h4.332V57.46h4.333v4.333h4.331zm15.808 0h-4.332v4.332h-4.333v-4.332h-4.332v-4.332h4.332V57.46h4.333v4.333h4.332z" fill="#0062a2"/>
    <g fill="#fff">
        <path d="M113.558 57.46h-4.333v4.333h-4.332v4.332h4.332v4.332h4.333v-4.332h4.332v-4.332h-4.332V57.46zM97.751 57.46h-4.333v4.333h-4.332v4.332h4.332v4.332h4.333v-4.332h4.331v-4.332h-4.331V57.46z"/>
        <path d="M80.411 73.234a18.833 18.833 0 1 1-.123-18.683l16.461-9.478a37.82 37.82 0 1 0 .1 37.684z"/>
    </g>
</svg>
