<svg xmlns="http://www.w3.org/2000/svg" width="120" height="60">
    <path d="M28.86 52.28V39.71h-1.94v4.7a.17.17 0 01-.11.16.17.17 0 01-.18 0 3.66 3.66 0 00-2.81-1.21 4.39 4.39 0 00-4.26 4.59 4.73 4.73 0 001.23 3.28 4.1 4.1 0 003 1.32 3.66 3.66 0 002.81-1.26.17.17 0 01.18-.05.16.16 0 01.11.16v.93zm-4.6-1.53A2.85 2.85 0 1127 47.9a2.77 2.77 0 01-2.74 2.85zm14.94 1.53v-8.75h-1.92v.88a.16.16 0 01-.11.15.16.16 0 01-.19-.05 3.57 3.57 0 00-2.8-1.2 4.61 4.61 0 000 9.19A3.6 3.6 0 0037 51.23a.16.16 0 01.19 0 .16.16 0 01.11.15v1zm-4.58-1.53a2.85 2.85 0 112.75-2.85 2.77 2.77 0 01-2.75 2.85zm21 1.53v-8.75h-1.94v.88a.15.15 0 01-.11.15.15.15 0 01-.18-.05 3.57 3.57 0 00-2.8-1.2 4.61 4.61 0 000 9.19 3.6 3.6 0 002.8-1.27.16.16 0 01.18-.06.17.17 0 01.11.16v1zM51 50.75a2.85 2.85 0 112.75-2.85A2.77 2.77 0 0151 50.75zm8.09.49h.06a.14.14 0 01.12.06 3.66 3.66 0 002.81 1.21 4.4 4.4 0 004.27-4.6 4.73 4.73 0 00-1.24-3.27 4.1 4.1 0 00-3-1.32 3.62 3.62 0 00-2.8 1.26.19.19 0 01-.19 0 .18.18 0 01-.11-.16v-4.71h-1.93v12.57H59v-.88a.19.19 0 01.12-.16zm-.2-3.34a2.75 2.75 0 112.75 2.85 2.77 2.77 0 01-2.72-2.85zm10.46.53v3.85h-1.91v-8.75h1.92v1.07a.17.17 0 00.31.09 2.8 2.8 0 012.42-1.34 1.42 1.42 0 01.33 0v2a2.11 2.11 0 00-.47 0c-1.59-.03-2.57 1.16-2.57 3.08zm6.2-4.9v8.75h-2v-8.75zm.19-2.63a1.19 1.19 0 11-1.19-1.18 1.19 1.19 0 011.22 1.18zm9.16 3.79l-1.2 1.17a3.6 3.6 0 00-2.19-.78 2.83 2.83 0 100 5.65 4 4 0 002.23-.73l1.1 1.16a5.33 5.33 0 01-3.53 1.39 4.42 4.42 0 01-4.61-4.6 4.46 4.46 0 014.63-4.59 5.2 5.2 0 013.6 1.33zm3.42 3.72zm-.46.34a.14.14 0 00-.06.12v3.41h-1.9V39.71h1.94v6.89a.17.17 0 00.11.15.16.16 0 00.18 0l3.17-3.18h2.36L90 47.21a.16.16 0 000 .22l4 4.85h-2.42l-3.1-3.84a.14.14 0 00-.12-.06.15.15 0 00-.11 0zm5.88 1.59l1.57-.82a2 2 0 001.82 1.33c.59 0 1.27-.26 1.27-1 0-.5-.31-.8-1.07-1l-1.07-.34C94.8 48 94.07 47.17 94.07 46a2.74 2.74 0 013-2.65 3.41 3.41 0 013.13 1.91l-1.55.83a1.83 1.83 0 00-1.58-1.15c-.68 0-1.15.37-1.15.9s.34.8 1 1l1.06.35c1.54.5 2.29 1.33 2.29 2.52a2.93 2.93 0 01-3.2 2.8 3.47 3.47 0 01-3.3-2.17zm4.28-3.24zm-56.3 2.25v-4.08a.17.17 0 00-.17-.16h-1.32v-1.58h1.35a.18.18 0 00.17-.17v-2.54h1.92v2.54a.18.18 0 00.17.17h1.88v1.58h-1.88a.17.17 0 00-.17.16v3.6c0 1.69.6 1.83 1.39 1.83.28 0 .72 0 1-.06v1.67a10 10 0 01-1.47.1c-.8 0-2.84 0-2.84-3.06z"/>
    <path fill="#fe3b1f" d="M69.74 18.01L59.2 23.93 47.94 17.6l-.54.3v4.6l11.8 6.64 10.54-5.93v2.45L59.2 31.59l-11.26-6.34-.54.3v.78l11.8 6.64L71 26.33v-4.61l-.54-.29-11.26 6.33-10.54-5.92V19.4l10.54 5.92L71 18.68v-4.54l-.6-.33-11.2 6.3-9.98-5.61 9.98-5.62 8.22 4.63.74-.41v-.56L59.2 7.5l-11.8 6.64v.71l11.8 6.64 10.54-5.93v2.45z"/>
</svg>
