<svg xmlns="http://www.w3.org/2000/svg" width="200" height="128">
    <path d="M38.32 108.14V83.23h-3.84v9.32a.33.33 0 01-.21.31.34.34 0 01-.37-.1 7.22 7.22 0 00-5.55-2.39c-4.74 0-8.45 4-8.45 9.1a9.44 9.44 0 002.44 6.5 8.12 8.12 0 006 2.61 7.2 7.2 0 005.55-2.5.33.33 0 01.58.21v1.85zm-9.1-3a5.63 5.63 0 115.44-5.63 5.48 5.48 0 01-5.44 5.59zm29.58 3V90.8H55v1.74a.33.33 0 01-.58.21 7 7 0 00-5.55-2.38c-4.74 0-8.46 4-8.46 9.1s3.72 9.11 8.46 9.11a7.13 7.13 0 005.55-2.53.33.33 0 01.37-.1.34.34 0 01.21.31v1.88zm-9.06-3a5.63 5.63 0 115.44-5.63 5.48 5.48 0 01-5.44 5.59zm41.57 3V90.8h-3.8v1.74a.33.33 0 01-.22.31.31.31 0 01-.36-.1 7 7 0 00-5.55-2.38c-4.75 0-8.46 4-8.46 9.1s3.71 9.11 8.46 9.11a7.11 7.11 0 005.54-2.53.33.33 0 01.37-.1.33.33 0 01.22.31v1.88zm-9.07-3a5.63 5.63 0 115.45-5.63 5.49 5.49 0 01-5.45 5.59zm16 1a.2.2 0 01.11 0 .33.33 0 01.25.12 7.25 7.25 0 005.56 2.4c4.74 0 8.45-4 8.45-9.11a9.44 9.44 0 00-2.44-6.5 8.13 8.13 0 00-6-2.6 7.19 7.19 0 00-5.55 2.5.34.34 0 01-.37.09.32.32 0 01-.22-.31v-9.5h-3.8v24.91h3.83v-1.75a.32.32 0 01.22-.3zm-.4-6.62a5.45 5.45 0 115.45 5.63 5.49 5.49 0 01-5.41-5.68zm20.72 1v7.62h-3.83V90.8h3.8v2.13a.33.33 0 00.24.32.35.35 0 00.37-.15 5.57 5.57 0 014.8-2.66 3.13 3.13 0 01.64.06v3.93a4.73 4.73 0 00-.93-.08c-3.1 0-5.05 2.36-5.05 6.17zm12.3-9.72v17.34H127V90.8zm.36-5.2a2.35 2.35 0 11-2.35-2.35 2.35 2.35 0 012.39 2.35zm18.15 7.51l-2.37 2.3a7.12 7.12 0 00-4.34-1.53 5.59 5.59 0 100 11.18 7.94 7.94 0 004.41-1.53l2.18 2.3c-3.16 2.32-4.84 2.75-7 2.75a8.78 8.78 0 01-9.14-9.11 8.84 8.84 0 019.18-9.1 10.26 10.26 0 017.12 2.74zm6.78 7.37zm-.92.66a.34.34 0 00-.11.25v6.75h-3.84V83.23h3.85v13.65a.35.35 0 00.2.31.32.32 0 00.36-.08L162 90.8h4.68l-7.3 7.3a.32.32 0 000 .44l7.94 9.6h-4.72l-6.14-7.61a.35.35 0 00-.24-.12.31.31 0 00-.22.09zm11.65 3.15l3.11-1.62a4 4 0 003.61 2.65c1.16 0 2.53-.53 2.53-2 0-1-.62-1.58-2.13-2.06l-2.12-.68c-3-.94-4.4-2.57-4.4-5 0-3.05 2.5-5.25 5.94-5.25a6.77 6.77 0 016.21 3.78l-3.08 1.65a3.6 3.6 0 00-3.13-2.28c-1.35 0-2.28.73-2.28 1.77s.68 1.59 2.09 2.06l2.08.68c3.06 1 4.55 2.64 4.55 5 0 3.63-3.19 5.54-6.34 5.54a6.87 6.87 0 01-6.6-4.24zm8.48-6.41zm-111.5 4.45v-8.08a.32.32 0 00-.33-.32h-2.67V90.8h2.67a.33.33 0 00.33-.33v-5h3.81v5a.33.33 0 00.33.33h3.74v3.13H68a.32.32 0 00-.33.32v7.13c0 3.36 1.19 3.63 2.75 3.63a17.21 17.21 0 001.93-.13v3.32a21.23 21.23 0 01-2.92.2c-1.52 0-5.57 0-5.57-6.07z"/>
    <path fill="#fe3b1f" d="M119.31 40.24L98.44 51.98 76.12 39.44l-1.06.58v9.13L98.44 62.3l20.87-11.75v4.85L98.44 67.15 76.13 54.59l-1.07.6v1.54l23.38 13.16 23.37-13.16V47.6l-1.06-.58-22.31 12.54-20.88-11.74V43l20.88 11.73 23.37-13.15v-9l-1.18-.65-22.19 12.48-19.78-11.12 19.78-11.13 16.29 9.17 1.45-.82v-1.1l-17.74-9.99-23.38 13.16v1.41l23.38 13.16 20.87-11.75v4.84z"/>
</svg>
