<svg xmlns="http://www.w3.org/2000/svg" width="200" height="128">
    <path d="M75.59,95.47l5.84,13.43H78.75l-1.7-3.66H72.74l.86-2.16h2.79l-2.2-5L69.76,108.9H67.2l5.71-13.43Zm14.65,0H80v2.16h3.86V108.9h2.5V97.63h3.86Zm-23.1,6.35q0,7.08-6.31,7.08H55V95.47h5.83Q67.15,95.47,67.14,101.82Zm-2.49,0c0-2.8-1.4-4.19-4.19-4.19h-3v9.11h3Q64.65,106.74,64.65,101.82Zm76.32-.57-.84,2.21h2.38v3.14a6.32,6.32,0,0,1-1.55.23c-3.05,0-4.57-1.62-4.57-4.84q0-4.47,4.84-4.47a9.43,9.43,0,0,1,3.77.75V96a11.09,11.09,0,0,0-3.95-.66q-7.26,0-7.25,6.63,0,7,7.12,7a10.07,10.07,0,0,0,4.08-.72v-7Zm-46.3-5.78L89,108.9h2.56L96,98l2.2,5H95.36l-.86,2.16h4.31l1.7,3.66h2.68L97.35,95.47ZM117,101.82q0,7.08-6.31,7.08h-5.83V95.47h5.83Q117,95.47,117,101.82Zm-2.49,0c0-2.8-1.4-4.19-4.19-4.19h-3v9.11h3Q114.49,106.74,114.5,101.82Zm16-47.64,2.87,28L98.17,86.41,97.4,81l-2.13.31c.19,3-.52,5.92-1.86,7.3-1.58,1.62-3.86,2-6.27,1.71a5.4,5.4,0,0,1-3.71-2.83c3.33,2.36,7.46,1.27,8.87-.7a7,7,0,0,0,1.33-5.26L73.88,84.36,66.66,25.79,125.24,19l3.44,35.52Zm1.63,48q0,6.8-6.66,6.8-6.47,0-6.76-6.8,0-6.83,6.76-6.83T132.1,102.2Zm-2.59,0q0-4.62-4.07-4.62t-4.17,4.62q0,4.68,4.17,4.68T129.51,102.15Z" fill="#632ca6"/>
    <path d="M99.75,60.45a31.34,31.34,0,0,1-5.57-4.64c-.17-.13-.14-.7-.14-.7a31.14,31.14,0,0,0,8.71,4.66,7.13,7.13,0,0,0,5.47-.47,14,14,0,0,0,4.21-3.7l.19.33a8.22,8.22,0,0,1-.73,1.7,4.58,4.58,0,0,0,1.25.46l3.32-.52a10.12,10.12,0,0,0,1.14-8c-.52-1.7-3.23-5.08-3.43-5.26-.68-.65.12-3.18-1.23-5.94-1.43-2.92-5.14-6-6.76-7.28.48.35,3.41,1.53,4.77,3.18.13-.17.18-1.06.3-1.28-1.17-1.54-1.27-4.27-1.27-5a8.3,8.3,0,0,0-.67-2.86,4.6,4.6,0,0,1,1.47,2.53,10.47,10.47,0,0,0,2.13,4.65c1.92,2.38,3.64,3.6,4.51,2.72,1-1.06-1.06-5.78-3.74-8.42-3.14-3.08-4-2.68-5.8-2-1.46.53-2.26,4.69-6.08,4.61-.65-.08-2.31-.12-3.14-.11.43-.6.8-1.06.8-1.06a18.09,18.09,0,0,0-2.38,1.17L97,29.08a7.11,7.11,0,0,1,.76-1.27,21.92,21.92,0,0,0-2,1.36,3,3,0,0,1,.8-1.52,6.11,6.11,0,0,0-2.94,2.05,20.24,20.24,0,0,0-3.82,1.51,6.64,6.64,0,0,1-4.67-3c-.83-1.2-2.31-1.38-3.82-.76-2.2.91-5,2.16-5,2.16s.91,0,1.85,0a24.26,24.26,0,0,0-2.54,1.17s.61,0,1.36,0a12.1,12.1,0,0,1-1.3,1,18.06,18.06,0,0,0-2.14,1.86,11.56,11.56,0,0,1,1.52-.57c-.5,1.15-1.5,2-1.32,3.42s1.77,4,3.82,5.6c.18.15,3,2.74,5.09,1.68s3-2,3.3-3.47c.41-1.67.18-2.93-.7-6.55-.29-1.2-1-3.66-1.4-4.84l.08-.06a57.76,57.76,0,0,1,3.17,7.89c1.12,4,.77,6.07.26,6.82-1.53,2.26-5.47,2.56-7.26,1.31a15.13,15.13,0,0,0,1,7.21,9.22,9.22,0,0,0,.56,3.15,3.74,3.74,0,0,1,.41-1.42,9.06,9.06,0,0,0,.64,2.4A4.5,4.5,0,0,1,83,54.7a11,11,0,0,0,1,1.19,6.66,6.66,0,0,0,1,2,6.07,6.07,0,0,1,0-1.28c1.64,1.58,1.93,3.88,2.09,5.64.46,4.86-7.66,8.72-9.23,11.77-1.2,1.8-1.91,4.64.11,6.32,4.88,4.06,3,5.18,5.45,7,3.35,2.44,7.55,1.35,9-.64,2-2.77,1.48-5.38.74-7.83C92.47,77,90.9,73.77,89,72.54a8.53,8.53,0,0,0-5.54-1.32l.15-.17a9.1,9.1,0,0,1,6.58.93A11.74,11.74,0,0,1,95,78.91c1.1-.15,1.25-.22,2.25-.37L95,61Zm11.32-21.94c2.08,1,1.81,2.81,1.86,3.89a3.29,3.29,0,0,1,0,.66,2.88,2.88,0,0,0-1.46-.24,5.87,5.87,0,0,0-.62.07,4.29,4.29,0,0,1-1.64-2.07l-.1-.22,0-.09v0c-.23-.73-.08-.88,0-1.11s.48-.42-.08-.61l-.17,0A2.15,2.15,0,0,1,111.07,38.51Zm-2.56,12.06a11.72,11.72,0,0,1,3.95-1.1,7.56,7.56,0,0,1,2.44,0c.54.3.54,1.22.17,2.08-.54,1.24-1.3,2.6-2.17,2.72-1.4.18-2.73-.58-4.25-1.71A1.24,1.24,0,0,1,108.51,50.57Zm-13.34-9.4c2.23-1.52,5.11-.92,4.63-.47-.92.88.3.62.43,2.23a2.79,2.79,0,0,1-.62,2.22,14.16,14.16,0,0,0-2.57.59,15.74,15.74,0,0,0-1.58.63,3.68,3.68,0,0,1-.41-.31A3.07,3.07,0,0,1,95.17,41.17Zm33.52,15.51L110.56,60a9,9,0,0,1-2.09,1.86,6.53,6.53,0,0,1-5.18.47,11.18,11.18,0,0,1-2.07-.66l-4.43.61,2.69,22.42,31.06-5.6ZM101.05,82.53l-.26-2.44,5.07-7.74L111.62,74l5-8.28,5.93,3.92L127,60.21l1.6,17.24Z" fill="#fff"/>
</svg>
