<svg xmlns="http://www.w3.org/2000/svg" width="128" height="128">
  <path d="M122.56,5.32c3.01,2.89,4.98,6.71,5.44,10.88,0,1.74-.46,2.89-1.5,5.09-1.04,2.2-13.89,24.42-17.71,30.55-2.2,3.59-3.36,7.87-3.36,12.04s1.16,8.45,3.36,12.04c3.82,6.13,16.67,28.47,17.71,30.67,1.04,2.2,1.5,3.24,1.5,4.98-.46,4.17-2.31,7.99-5.32,10.76-2.89,3.01-6.71,4.98-10.76,5.32-1.74,0-2.89-.46-4.98-1.5-2.08-1.04-24.77-13.54-30.9-17.36-.46-.23-.93-.58-1.5-.81l-30.32-17.94c.69,5.79,3.24,11.34,7.41,15.39.81.81,1.62,1.5,2.55,2.2-.69.35-1.5.69-2.2,1.16-6.13,3.82-28.47,16.67-30.67,17.71-2.2,1.04-3.24,1.5-5.09,1.5-4.17-.46-7.99-2.31-10.76-5.32-3.01-2.89-4.98-6.71-5.44-10.88.12-1.74.58-3.47,1.5-4.98,1.04-2.2,13.89-24.54,17.71-30.67,2.2-3.59,3.36-7.75,3.36-12.04s-1.16-8.45-3.36-12.04C15.39,45.71,2.43,23.38,1.5,21.18c-.93-1.5-1.39-3.24-1.5-4.98.46-4.17,2.31-7.99,5.32-10.88C8.22,2.31,12.04.46,16.2,0c1.74.12,3.47.58,5.09,1.5,1.85.81,18.17,10.3,26.85,15.39l1.97,1.16c.69.46,1.27.81,1.74,1.04l.93.58,30.9,18.29c-.69-6.94-4.28-13.31-9.84-17.59.69-.35,1.5-.69,2.2-1.16,6.13-3.82,28.47-16.78,30.67-17.71C108.21.58,109.95.12,111.8,0c4.05.46,7.87,2.31,10.76,5.32ZM65.62,72.22l6.6-6.6c.93-.93.93-2.31,0-3.24l-6.6-6.6c-.93-.93-2.31-.93-3.24,0l-6.6,6.6c-.93.93-.93,2.31,0,3.24l6.6,6.6c.81.81,2.31.81,3.24,0Z" style="fill: #ff694a; stroke-width: 0px;"/>
</svg>