<svg xmlns="http://www.w3.org/2000/svg" width="200" height="128">
  <path d="M119.43,43.95v39.64h-8.03v-4.04c-.84,1.42-2.05,2.57-3.52,3.31-1.57.79-3.36,1.21-5.14,1.21-2.21.05-4.41-.58-6.25-1.84-1.89-1.26-3.36-2.99-4.31-5.04-1.05-2.36-1.57-4.88-1.52-7.45-.05-2.57.47-5.09,1.52-7.4.95-1.99,2.42-3.73,4.25-4.93,1.89-1.21,4.09-1.78,6.3-1.73,1.73,0,3.46.37,4.99,1.15,1.47.73,2.68,1.84,3.52,3.2v-13.39l8.19-2.68ZM109.77,75.76c1.05-1.36,1.63-3.36,1.63-5.93s-.52-4.51-1.63-5.88-2.84-2.15-4.62-2.1c-1.79-.1-3.52.68-4.67,2.05-1.1,1.37-1.68,3.31-1.68,5.83s.58,4.57,1.68,5.98c1.1,1.42,2.89,2.2,4.67,2.15,1.99,0,3.57-.73,4.62-2.1Z" style="fill: #262a38; stroke-width: 0px;"/>
  <path d="M148.15,57.33c1.89,1.21,3.36,2.94,4.25,4.93,1.05,2.31,1.57,4.83,1.52,7.4.05,2.57-.47,5.14-1.52,7.45-.95,2.05-2.41,3.78-4.31,5.04-1.84,1.21-4.04,1.84-6.25,1.78-1.79.05-3.57-.37-5.15-1.21-1.47-.73-2.68-1.89-3.47-3.31v4.1h-8.08v-36.91l8.14-2.68v16.17c.79-1.42,1.99-2.57,3.46-3.31,1.58-.84,3.31-1.26,5.09-1.21,2.2-.05,4.41.58,6.3,1.73ZM144.16,75.71c1.1-1.42,1.63-3.41,1.63-6.04s-.53-4.46-1.63-5.83c-1.1-1.37-2.63-2.05-4.62-2.05-1.78-.11-3.52.68-4.67,2.1-1.1,1.42-1.63,3.36-1.63,5.88s.53,4.57,1.63,5.93c1.1,1.42,2.83,2.2,4.67,2.1,1.79.11,3.52-.68,4.62-2.1Z" style="fill: #262a38; stroke-width: 0px;"/>
  <path d="M165.16,62.37v10.6c0,1.52.42,2.63,1.16,3.31.84.74,1.94,1.1,3.1,1.05.89,0,1.84-.16,2.68-.37v6.3c-1.52.53-3.1.79-4.67.74-3.36,0-5.93-.95-7.72-2.84-1.78-1.89-2.68-4.57-2.68-8.03v-23.26l8.14-2.62v9.03h6.93v6.09h-6.93Z" style="fill: #262a38; stroke-width: 0px;"/>
  <path d="M75.6,37.38c1.36,1.31,2.26,3.04,2.47,4.93,0,.79-.21,1.31-.68,2.31-.47,1-6.3,11.08-8.03,13.86-1,1.63-1.52,3.57-1.52,5.46s.53,3.83,1.52,5.46c1.73,2.78,7.56,12.91,8.03,13.91.47,1,.68,1.47.68,2.26-.21,1.89-1.05,3.62-2.41,4.88-1.31,1.36-3.04,2.26-4.88,2.41-.79,0-1.31-.21-2.26-.68-.95-.47-11.23-6.14-14.02-7.87-.21-.11-.42-.26-.68-.37l-13.75-8.14c.31,2.62,1.47,5.14,3.36,6.98.37.37.74.68,1.16,1-.32.16-.68.32-1,.53-2.78,1.73-12.91,7.56-13.91,8.03-1,.47-1.47.68-2.31.68-1.89-.21-3.62-1.05-4.88-2.41-1.36-1.31-2.26-3.04-2.47-4.93.05-.79.26-1.57.68-2.26.47-1,6.3-11.13,8.03-13.91,1-1.63,1.52-3.52,1.52-5.46s-.53-3.83-1.52-5.46c-1.73-2.89-7.61-13.02-8.03-14.02-.42-.68-.63-1.47-.68-2.26.21-1.89,1.05-3.62,2.41-4.93,1.31-1.36,3.04-2.2,4.93-2.41.79.05,1.57.26,2.31.68.84.37,8.24,4.67,12.18,6.98l.89.52c.31.21.58.37.79.47l.42.26,14.02,8.29c-.31-3.15-1.94-6.04-4.46-7.98.32-.16.68-.32,1-.53,2.78-1.73,12.91-7.61,13.91-8.03.68-.42,1.47-.63,2.31-.68,1.84.21,3.57,1.05,4.88,2.41ZM49.77,67.73l2.99-2.99c.42-.42.42-1.05,0-1.47l-2.99-2.99c-.42-.42-1.05-.42-1.47,0l-2.99,2.99c-.42.42-.42,1.05,0,1.47l2.99,2.99c.37.37,1.05.37,1.47,0Z" style="fill: #ff694a; stroke-width: 0px;"/>
  <path d="M179.41,81.07l-.92,2.6h-.34l-.92-2.6v2.6h-.59v-3.55h.74l.95,2.63.95-2.63h.74v3.55h-.59v-2.6ZM176.1,80.66h-.97v3.01h-.6v-3.01h-.98v-.53h2.55v.53Z" style="fill: #262a38; stroke-width: 0px;"/>
</svg>