<?xml version="1.0" encoding="UTF-8"?>
<svg xmlns="http://www.w3.org/2000/svg" xmlns:xlink="http://www.w3.org/1999/xlink" width="200px" height="128px"
    viewBox="0 0 579 128" version="1.1">
    <g id="surface1">
        <path style=" stroke:none;fill-rule:nonzero;fill:rgb(12.54902%,16.078431%,21.568627%);fill-opacity:1;"
            d="M 187.953125 102.160156 L 164.992188 102.160156 C 163.875 102.160156 163.3125 101.597656 163.3125 100.476562 L 163.3125 37.078125 C 163.3125 35.960938 163.875 35.398438 164.992188 35.398438 L 187.953125 35.398438 C 196.042969 35.398438 202.46875 37.453125 207.226562 41.5625 C 211.988281 45.667969 214.367188 52.296875 214.367188 61.449219 L 214.367188 76.292969 C 214.367188 93.539062 205.5625 102.15625 187.953125 102.15625 Z M 178.339844 49.402344 L 178.339844 88.058594 L 188.140625 88.058594 C 195.359375 88.058594 198.96875 84.355469 198.96875 76.949219 L 198.96875 60.703125 C 198.96875 53.171875 195.359375 49.40625 188.140625 49.40625 L 178.339844 49.40625 Z M 267.972656 72.1875 L 267.972656 81.148438 C 267.972656 82.210938 267.414062 82.738281 266.292969 82.738281 L 239.878906 82.738281 L 239.878906 84.230469 C 239.878906 86.597656 240.59375 88.386719 242.027344 89.601562 C 243.457031 90.8125 245.417969 91.421875 247.90625 91.421875 C 251.949219 91.421875 255.902344 90.300781 259.761719 88.058594 C 260.566406 87.4375 261.285156 87.5625 261.90625 88.433594 L 266.761719 94.875 C 267.382812 95.808594 267.289062 96.589844 266.480469 97.210938 C 261.128906 101.316406 254.78125 103.371094 247.441406 103.371094 C 241.03125 103.371094 235.773438 101.691406 231.667969 98.328125 C 227.558594 94.96875 225.503906 90.175781 225.503906 83.953125 L 225.503906 72.1875 C 225.503906 65.589844 227.527344 60.625 231.574219 57.292969 C 235.617188 53.964844 240.8125 52.296875 247.160156 52.296875 C 253.320312 52.296875 258.328125 53.949219 262.1875 57.246094 C 266.042969 60.546875 267.972656 65.527344 267.972656 72.1875 Z M 254.253906 71.53125 C 254.253906 69.105469 253.601562 67.269531 252.292969 66.023438 C 250.984375 64.78125 249.242188 64.15625 247.066406 64.15625 C 242.273438 64.15625 239.878906 66.617188 239.878906 71.53125 L 239.878906 73.492188 L 254.253906 73.492188 Z M 306.636719 102.160156 L 293.570312 102.160156 C 292.699219 102.160156 292.105469 101.722656 291.796875 100.851562 L 276.117188 55.472656 C 275.617188 54.230469 276.054688 53.605469 277.421875 53.605469 L 289.183594 53.605469 C 290.179688 53.605469 290.769531 54.042969 290.957031 54.914062 L 296.648438 75.359375 C 297.519531 78.101562 298.640625 82.175781 300.011719 87.59375 L 300.289062 87.59375 C 301.160156 84.042969 302.28125 79.96875 303.652344 75.359375 L 309.4375 54.914062 C 309.746094 54.042969 310.371094 53.605469 311.304688 53.605469 L 323.0625 53.605469 C 324.371094 53.605469 324.804688 54.230469 324.371094 55.472656 L 308.503906 100.851562 C 308.128906 101.722656 307.507812 102.160156 306.636719 102.160156 Z M 387.804688 96.648438 C 381.703125 101.195312 374.644531 103.464844 366.617188 103.464844 C 358.214844 103.464844 351.574219 101.304688 346.691406 96.976562 C 341.804688 92.652344 339.363281 86.503906 339.363281 78.535156 L 339.363281 59.019531 C 339.363281 51.054688 341.804688 44.921875 346.691406 40.628906 C 351.574219 36.332031 358.121094 34.183594 366.335938 34.183594 C 373.988281 34.183594 380.648438 36.179688 386.308594 40.160156 C 387.242188 40.722656 387.398438 41.4375 386.777344 42.308594 L 380.898438 51.273438 C 380.273438 52.144531 379.496094 52.296875 378.5625 51.738281 C 375.078125 49.496094 371.097656 48.378906 366.617188 48.378906 C 362.757812 48.378906 359.789062 49.390625 357.703125 51.410156 C 355.617188 53.433594 354.578125 56.160156 354.578125 59.582031 L 354.578125 77.882812 C 354.578125 81.492188 355.632812 84.277344 357.75 86.238281 C 359.863281 88.199219 362.851562 89.179688 366.710938 89.179688 C 371.5 89.179688 375.824219 87.871094 379.683594 85.257812 C 380.617188 84.574219 381.363281 84.699219 381.921875 85.632812 L 387.898438 94.59375 C 388.519531 95.46875 388.488281 96.152344 387.804688 96.648438 Z M 426.414062 87.3125 L 426.414062 55.191406 C 426.414062 54.136719 426.976562 53.605469 428.09375 53.605469 L 439.109375 53.605469 C 440.164062 53.605469 440.695312 54.136719 440.695312 55.191406 L 440.695312 97.488281 C 440.695312 105.644531 438.921875 111.601562 435.375 115.371094 C 431.828125 119.136719 426.226562 121.019531 418.574219 121.019531 C 410.921875 121.019531 404.730469 119.304688 400 115.882812 C 399.066406 115.324219 398.910156 114.578125 399.535156 113.644531 L 404.480469 106.078125 C 405.039062 105.269531 405.753906 105.082031 406.628906 105.519531 C 410.175781 107.636719 413.9375 108.695312 417.921875 108.695312 C 420.90625 108.695312 423.132812 108.007812 424.59375 106.640625 C 426.054688 105.269531 426.757812 102.9375 426.695312 99.636719 C 423.644531 100.511719 420.816406 100.945312 418.199219 100.945312 C 412.414062 100.945312 407.652344 99.15625 403.921875 95.574219 C 400.1875 91.996094 398.320312 87.125 398.320312 80.964844 L 398.320312 55.191406 C 398.320312 54.136719 398.878906 53.605469 400 53.605469 L 411.015625 53.605469 C 412.070312 53.605469 412.601562 54.136719 412.601562 55.191406 L 412.601562 80.683594 C 412.601562 85.976562 415.183594 88.621094 420.347656 88.621094 C 422.773438 88.621094 424.796875 88.183594 426.414062 87.3125 Z M 491.996094 98.238281 C 487.140625 101.660156 481.632812 103.371094 475.472656 103.371094 C 468.503906 103.371094 463.074219 101.550781 459.1875 97.910156 C 455.296875 94.269531 453.351562 89.304688 453.351562 83.015625 L 453.351562 72.464844 C 453.351562 66.242188 455.296875 61.324219 459.1875 57.714844 C 463.074219 54.105469 468.472656 52.296875 475.378906 52.296875 C 480.792969 52.296875 485.894531 53.761719 490.6875 56.6875 C 491.558594 57.308594 491.714844 58.085938 491.152344 59.019531 L 486.207031 66.492188 C 485.707031 67.363281 484.929688 67.550781 483.875 67.050781 C 481.199219 65.621094 478.585938 64.902344 476.035156 64.902344 C 473.480469 64.902344 471.476562 65.574219 470.011719 66.910156 C 468.550781 68.25 467.820312 70.101562 467.820312 72.464844 L 467.820312 83.015625 C 467.820312 85.570312 468.550781 87.5 470.011719 88.804688 C 471.476562 90.113281 473.449219 90.765625 475.941406 90.765625 C 479.050781 90.765625 482.039062 89.867188 484.902344 88.058594 C 485.832031 87.5 486.609375 87.65625 487.234375 88.527344 L 492.273438 95.996094 C 492.894531 96.867188 492.800781 97.617188 491.996094 98.238281 Z M 527.148438 102.8125 C 525.03125 103.183594 522.976562 103.371094 520.988281 103.371094 C 515.511719 103.371094 511.265625 101.785156 508.246094 98.609375 C 505.226562 95.4375 503.71875 90.984375 503.71875 85.257812 L 503.71875 37.078125 C 503.71875 35.960938 504.28125 35.398438 505.402344 35.398438 L 516.414062 35.398438 C 517.472656 35.398438 518 35.960938 518 37.078125 L 518 83.484375 C 518 88.027344 519.835938 90.300781 523.507812 90.300781 C 524.8125 90.300781 525.777344 90.269531 526.402344 90.207031 C 527.582031 90.082031 528.175781 90.613281 528.175781 91.792969 L 528.175781 101.132812 C 528.175781 102.128906 527.832031 102.6875 527.148438 102.8125 Z M 578.996094 72.1875 L 578.996094 81.148438 C 578.996094 82.210938 578.4375 82.738281 577.316406 82.738281 L 550.902344 82.738281 L 550.902344 84.230469 C 550.902344 86.597656 551.617188 88.386719 553.050781 89.601562 C 554.480469 90.8125 556.441406 91.421875 558.929688 91.421875 C 562.972656 91.421875 566.925781 90.300781 570.785156 88.058594 C 571.589844 87.4375 572.308594 87.5625 572.929688 88.433594 L 577.785156 94.875 C 578.40625 95.808594 578.3125 96.589844 577.503906 97.210938 C 572.152344 101.316406 565.804688 103.371094 558.464844 103.371094 C 552.054688 103.371094 546.796875 101.691406 542.691406 98.328125 C 538.582031 94.96875 536.53125 90.175781 536.53125 83.953125 L 536.53125 72.1875 C 536.53125 65.589844 538.550781 60.625 542.597656 57.292969 C 546.640625 53.964844 551.835938 52.296875 558.183594 52.296875 C 564.34375 52.296875 569.351562 53.949219 573.210938 57.246094 C 577.066406 60.546875 578.996094 65.527344 578.996094 72.1875 Z M 565.277344 71.53125 C 565.277344 69.105469 564.625 67.269531 563.316406 66.023438 C 562.011719 64.78125 560.265625 64.15625 558.089844 64.15625 C 553.296875 64.15625 550.902344 66.617188 550.902344 71.53125 L 550.902344 73.492188 L 565.277344 73.492188 Z M 565.277344 71.53125 " />
        <path style=" stroke:none;fill-rule:evenodd;fill:rgb(12.54902%,16.078431%,21.568627%);fill-opacity:1;"
            d="M 41.339844 114.597656 C 42.484375 114.136719 43.976562 113.535156 45.089844 113.117188 C 45.921875 112.78125 46.867188 113.128906 47.28125 113.921875 C 49.515625 117.925781 53.761719 120.460938 58.425781 120.460938 C 63.089844 120.460938 67.335938 117.925781 69.542969 113.910156 C 69.964844 113.101562 70.929688 112.746094 71.773438 113.089844 C 72.875 113.535156 74.367188 114.136719 75.503906 114.621094 C 75.953125 114.800781 76.308594 115.164062 76.480469 115.617188 C 76.65625 116.070312 76.632812 116.574219 76.417969 117.011719 C 72.964844 123.691406 66.046875 127.960938 58.425781 127.960938 C 50.804688 127.960938 43.886719 123.691406 40.414062 117.023438 C 40.195312 116.578125 40.171875 116.066406 40.347656 115.609375 C 40.523438 115.148438 40.882812 114.785156 41.339844 114.597656 Z M 90.441406 68.648438 C 90.441406 63.980469 86.703125 60.242188 82.027344 60.242188 C 77.355469 60.242188 73.617188 63.980469 73.617188 68.648438 C 73.617188 73.320312 77.355469 77.054688 82.027344 77.054688 C 86.703125 77.054688 90.441406 73.320312 90.441406 68.648438 Z M 58.425781 7.585938 C 58.386719 7.585938 58.347656 7.585938 58.308594 7.585938 C 55.972656 7.585938 54.101562 9.453125 54.101562 11.789062 C 54.101562 14.125 55.972656 15.992188 58.308594 15.992188 C 58.347656 15.992188 58.386719 15.992188 58.425781 15.992188 C 58.464844 15.992188 58.503906 15.992188 58.542969 15.992188 C 60.878906 15.992188 62.75 14.125 62.75 11.789062 C 62.75 9.453125 60.878906 7.585938 58.542969 7.585938 C 58.503906 7.585938 58.464844 7.585938 58.425781 7.585938 Z M 26.410156 68.53125 C 26.410156 73.203125 30.148438 76.9375 34.824219 76.9375 C 39.496094 76.9375 43.234375 73.203125 43.234375 68.53125 C 43.234375 63.863281 39.496094 60.125 34.824219 60.125 C 30.148438 60.125 26.410156 63.863281 26.410156 68.53125 Z M 63.332031 41.445312 L 34.472656 41.445312 C 20.566406 41.445312 9 51.953125 7.597656 65.730469 C 6.078125 80.675781 16.945312 93.984375 31.902344 95.503906 C 23.722656 88.964844 18.929688 79.039062 18.929688 68.53125 C 18.929688 59.777344 26.058594 52.652344 34.824219 52.652344 C 43.585938 52.652344 50.714844 59.777344 50.714844 68.53125 C 50.714844 77.289062 43.585938 84.410156 34.824219 84.410156 C 33.652344 84.410156 32.484375 84.292969 31.316406 84.0625 C 36.339844 91.300781 44.636719 95.738281 53.519531 95.738281 L 82.378906 95.738281 C 96.285156 95.738281 107.851562 85.230469 109.253906 71.453125 C 110.773438 56.507812 99.90625 43.195312 84.949219 41.679688 C 93.128906 48.21875 97.921875 58.140625 97.921875 68.648438 C 97.921875 77.40625 90.792969 84.527344 82.027344 84.527344 C 73.265625 84.527344 66.136719 77.40625 66.136719 68.648438 C 66.136719 59.890625 73.265625 52.769531 82.027344 52.769531 C 83.199219 52.769531 84.367188 52.886719 85.535156 53.121094 C 80.511719 45.882812 72.214844 41.445312 63.332031 41.445312 Z M 82.261719 103.210938 L 34.472656 103.210938 C 15.425781 103.09375 -0.117188 87.679688 0 68.648438 C 0 49.5 15.425781 33.972656 34.589844 33.972656 L 54.570312 33.972656 L 54.570312 22.765625 C 48.496094 20.664062 45.222656 14.007812 47.207031 7.9375 C 48.898438 3.0625 53.523438 -0.0078125 58.425781 0 C 63.328125 -0.0078125 67.953125 3.0625 69.644531 7.9375 C 71.628906 14.007812 68.359375 20.664062 62.28125 22.765625 L 62.28125 33.972656 L 82.378906 33.972656 C 101.425781 34.089844 116.96875 49.5 116.851562 68.53125 C 116.851562 87.679688 101.425781 103.210938 82.261719 103.210938 Z M 82.261719 103.210938 " />
    </g>
</svg>