<svg height="128" viewBox="0 0 579 128" width="200" xmlns="http://www.w3.org/2000/svg"><g fill="#202937"><path d="m187.953125 102.160156h-22.960937c-1.117188 0-1.679688-.5625-1.679688-1.683594v-63.398437c0-1.117187.5625-1.679687 1.679688-1.679687h22.960937c8.089844 0 14.515625 2.054687 19.273437 6.164062 4.761719 4.105469 7.140626 10.734375 7.140626 19.886719v14.84375c0 17.246093-8.804688 25.863281-26.414063 25.863281zm-9.613281-52.757812v38.65625h9.800781c7.21875 0 10.828125-3.703125 10.828125-11.109375v-16.246094c0-7.53125-3.609375-11.296875-10.828125-11.296875h-9.800781zm89.632812 22.785156v8.960938c0 1.0625-.558594 1.589843-1.679687 1.589843h-26.414063v1.492188c0 2.367187.714844 4.15625 2.148438 5.371093 1.429687 1.210938 3.390625 1.820313 5.878906 1.820313 4.042969 0 7.996094-1.121094 11.855469-3.363281.804687-.621094 1.523437-.496094 2.144531.375l4.855469 6.441406c.621093.933594.527343 1.714844-.28125 2.335938-5.351563 4.105468-11.699219 6.160156-19.039063 6.160156-6.410156 0-11.667968-1.679688-15.773437-5.042969-4.109375-3.359375-6.164063-8.152344-6.164063-14.375v-11.765625c0-6.597656 2.023438-11.5625 6.070313-14.894531 4.042969-3.328125 9.238281-4.996094 15.585937-4.996094 6.160156 0 11.167969 1.652344 15.027344 4.949219 3.855469 3.300781 5.785156 8.28125 5.785156 14.941406zm-13.71875-.65625c0-2.425781-.652344-4.261719-1.960937-5.507812-1.308594-1.242188-3.050781-1.867188-5.226563-1.867188-4.792968 0-7.1875 2.460938-7.1875 7.375v1.960938h14.375zm52.382813 30.628906h-13.066407c-.871093 0-1.464843-.4375-1.773437-1.308594l-15.679687-45.378906c-.5-1.242187-.0625-1.867187 1.304687-1.867187h11.761719c.996094 0 1.585937.4375 1.773437 1.308593l5.691407 20.445313c.871093 2.742187 1.992187 6.816406 3.363281 12.234375h.277343c.871094-3.550781 1.992188-7.625 3.363282-12.234375l5.785156-20.445313c.308594-.871093.933594-1.308593 1.867188-1.308593h11.757812c1.308594 0 1.742188.625 1.308594 1.867187l-15.867188 45.378906c-.375.871094-.996094 1.308594-1.867187 1.308594zm81.167969-5.511718c-6.101563 4.546874-13.160157 6.816406-21.1875 6.816406-8.402344 0-15.042969-2.160156-19.925782-6.488282-4.886718-4.324218-7.328125-10.472656-7.328125-18.441406v-19.515625c0-7.964843 2.441407-14.097656 7.328125-18.390625 4.882813-4.296875 11.429688-6.445312 19.644532-6.445312 7.652343 0 14.3125 1.996094 19.972656 5.976562.933594.5625 1.089844 1.277344.46875 2.148438l-5.878906 8.964844c-.625.871093-1.402344 1.023437-2.335938.464843-3.484375-2.242187-7.464844-3.359375-11.945312-3.359375-3.859376 0-6.828126 1.011719-8.914063 3.03125-2.085937 2.023438-3.125 4.75-3.125 8.171875v18.300781c0 3.609376 1.054687 6.394532 3.171875 8.355469 2.113281 1.960938 5.101562 2.941407 8.960938 2.941407 4.789062 0 9.113281-1.308594 12.972656-3.921876.933594-.683593 1.679687-.558593 2.238281.375l5.976563 8.960938c.621093.875.589843 1.558594-.09375 2.054688zm38.609374-9.335938v-32.121094c0-1.054687.5625-1.585937 1.679688-1.585937h11.015625c1.054687 0 1.585937.53125 1.585937 1.585937v42.296875c0 8.15625-1.773437 14.113281-5.320312 17.882813-3.546875 3.765625-9.148438 5.648437-16.800781 5.648437-7.652344 0-13.84375-1.714843-18.574219-5.136719-.933594-.558593-1.089844-1.304687-.464844-2.238281l4.945313-7.566406c.558593-.808594 1.273437-.996094 2.148437-.558594 3.546875 2.117188 7.308594 3.175781 11.292969 3.175781 2.984375 0 5.210937-.6875 6.671875-2.054687 1.460938-1.371094 2.164062-3.703125 2.101562-7.003906-3.050781.875-5.878906 1.308593-8.496093 1.308593-5.785157 0-10.546875-1.789062-14.277344-5.371093-3.734375-3.578125-5.601563-8.449219-5.601563-14.609375v-25.773438c0-1.054687.558594-1.585937 1.679688-1.585937h11.015625c1.054687 0 1.585937.53125 1.585937 1.585937v25.492188c0 5.292968 2.582032 7.9375 7.746094 7.9375 2.425782 0 4.449219-.4375 6.066406-1.308594zm65.582032 10.925781c-4.855469 3.421875-10.363282 5.132813-16.523438 5.132813-6.96875 0-12.398437-1.820313-16.285156-5.460938-3.890625-3.640625-5.835938-8.605468-5.835938-14.894531v-10.550781c0-6.222656 1.945313-11.140625 5.835938-14.75 3.886719-3.609375 9.285156-5.417969 16.191406-5.417969 5.414063 0 10.515625 1.464844 15.308594 4.390625.871094.621094 1.027344 1.398438.464844 2.332031l-4.945313 7.472657c-.5.871093-1.277343 1.058593-2.332031.558593-2.675781-1.429687-5.289062-2.148437-7.839844-2.148437-2.554687 0-4.558594.671875-6.023437 2.007812-1.460938 1.339844-2.191407 3.191406-2.191407 5.554688v10.550781c0 2.554687.730469 4.484375 2.191407 5.789063 1.464843 1.308593 3.4375 1.960937 5.929687 1.960937 3.109375 0 6.097656-.898437 8.960938-2.707031.929687-.558594 1.707031-.402344 2.332031.46875l5.039063 7.46875c.621093.871094.527343 1.621094-.277344 2.242187zm35.152344 4.574219c-2.117188.371094-4.171876.558594-6.160157.558594-5.476562 0-9.722656-1.585938-12.742187-4.761719-3.019532-3.171875-4.527344-7.625-4.527344-13.351563v-48.179687c0-1.117187.5625-1.679687 1.683594-1.679687h11.011718c1.058594 0 1.585938.5625 1.585938 1.679687v46.40625c0 4.542969 1.835938 6.816406 5.507812 6.816406 1.304688 0 2.269532-.03125 2.894532-.09375 1.179687-.125 1.773437.40625 1.773437 1.585938v9.339843c0 .996094-.34375 1.554688-1.027343 1.679688zm51.847656-30.625v8.960938c0 1.0625-.558594 1.589843-1.679688 1.589843h-26.414062v1.492188c0 2.367187.714844 4.15625 2.148437 5.371093 1.429688 1.210938 3.390625 1.820313 5.878907 1.820313 4.042968 0 7.996093-1.121094 11.855468-3.363281.804688-.621094 1.523438-.496094 2.144532.375l4.855468 6.441406c.621094.933594.527344 1.714844-.28125 2.335938-5.351562 4.105468-11.699218 6.160156-19.039062 6.160156-6.410156 0-11.667969-1.679688-15.773438-5.042969-4.109375-3.359375-6.160156-8.152344-6.160156-14.375v-11.765625c0-6.597656 2.019531-11.5625 6.066406-14.894531 4.042969-3.328125 9.238282-4.996094 15.585938-4.996094 6.160156 0 11.167968 1.652344 15.027344 4.949219 3.855468 3.300781 5.785156 8.28125 5.785156 14.941406zm-13.71875-.65625c0-2.425781-.652344-4.261719-1.960938-5.507812-1.304687-1.242188-3.050781-1.867188-5.226562-1.867188-4.792969 0-7.1875 2.460938-7.1875 7.375v1.960938h14.375zm0 0"/><path d="m41.339844 114.597656c1.144531-.460937 2.636718-1.0625 3.75-1.480468.832031-.335938 1.777344.011718 2.191406.804687 2.234375 4.003906 6.480469 6.539063 11.144531 6.539063 4.664063 0 8.910157-2.535157 11.117188-6.550782.421875-.808594 1.386719-1.164062 2.230469-.820312 1.101562.445312 2.59375 1.046875 3.730468 1.53125.449219.179687.804688.542968.976563.996094.175781.453124.152343.957031-.0625 1.394531-3.453125 6.679687-10.371094 10.949219-17.992188 10.949219-7.621093 0-14.539062-4.269532-18.011719-10.9375-.21875-.445313-.242187-.957032-.066406-1.414063.175782-.460937.535156-.824219.992188-1.011719zm49.101562-45.949218c0-4.667969-3.738281-8.40625-8.414062-8.40625-4.671875 0-8.410156 3.738281-8.410156 8.40625 0 4.671874 3.738281 8.40625 8.410156 8.40625 4.675781 0 8.414062-3.734376 8.414062-8.40625zm-32.015625-61.0625c-.039062 0-.078125 0-.117187 0-2.335938 0-4.207032 1.867187-4.207032 4.203124 0 2.335938 1.871094 4.203126 4.207032 4.203126h.117187.117188c2.335937 0 4.207031-1.867188 4.207031-4.203126 0-2.335937-1.871094-4.203124-4.207031-4.203124-.039063 0-.078125 0-.117188 0zm-32.015625 60.945312c0 4.671875 3.738282 8.40625 8.414063 8.40625 4.671875 0 8.410156-3.734375 8.410156-8.40625 0-4.667969-3.738281-8.40625-8.410156-8.40625-4.675781 0-8.414063 3.738281-8.414063 8.40625zm36.921875-27.085938h-28.859375c-13.90625 0-25.472656 10.507813-26.875 24.285157-1.519531 14.945312 9.347656 28.253906 24.304688 29.773437-8.179688-6.539062-12.972656-16.464844-12.972656-26.972656 0-8.753906 7.128906-15.878906 15.894531-15.878906 8.761719 0 15.890625 7.125 15.890625 15.878906 0 8.757812-7.128906 15.878906-15.890625 15.878906-1.171875 0-2.339844-.117187-3.507813-.347656 5.023438 7.238281 13.320313 11.675781 22.203125 11.675781h28.859375c13.90625 0 25.472656-10.507812 26.875-24.285156 1.519532-14.945313-9.347656-28.257813-24.304687-29.773437 8.179687 6.539062 12.972656 16.460937 12.972656 26.96875 0 8.757812-7.128906 15.878906-15.894531 15.878906-8.761719 0-15.890625-7.121094-15.890625-15.878906 0-8.757813 7.128906-15.878907 15.890625-15.878907 1.171875 0 2.339844.117188 3.507812.351563-5.023437-7.238282-13.320312-11.675782-22.203125-11.675782zm18.929688 61.765626h-47.789063c-19.046875-.117188-34.589844-15.53125-34.472656-34.5625 0-19.148438 15.425781-34.675782 34.589844-34.675782h19.980468v-11.207031c-6.074218-2.101563-9.347656-8.757813-7.363281-14.828125 1.691407-4.875 6.316407-7.9453125 11.21875-7.9375 4.902344-.0078125 9.527344 3.0625 11.21875 7.9375 1.984375 6.070312-1.285156 12.726562-7.363281 14.828125v11.207031h20.097656c19.046875.117188 34.589844 15.527344 34.472656 34.558594 0 19.148438-15.425781 34.679688-34.589843 34.679688zm0 0" fill-rule="evenodd"/></g></svg>