<svg xmlns="http://www.w3.org/2000/svg" width="128" height="128">
    <defs>
        <clipPath id="a">
            <path d="M33.674 239.192a74.564 74.564 0 0 1-22.561 3.794c7.353 6.131 20.453 17.7 42.049 11.1a33.551 33.551 0 0 1-19.488-14.894z" fill="#fff" clip-rule="evenodd"/>
        </clipPath>
    </defs>
    <g opacity=".5">
        <path d="M33.674 239.192a74.564 74.564 0 0 1-22.561 3.794c7.353 6.131 20.453 17.7 42.049 11.1a33.551 33.551 0 0 1-19.488-14.894z" fill="#fff" fill-rule="evenodd"/>
        <g clip-path="url(#a)">
            <path fill="#fff" d="M-66.858 120.552h245.087v245.087H-66.858z"/>
        </g>
    </g>
    <g fill="#099cec">
        <path d="M10.032 50.644h13.216v12.014H10.032zM25.65 50.644h13.216v12.014H25.65zM41.268 50.644h13.216v12.014H41.268zM56.887 50.644h13.216v12.014H56.887zM72.505 50.644h13.216v12.014H72.505zM25.65 36.227h13.216v12.014H25.65zM41.268 36.227h13.216v12.014H41.268zM56.887 36.227h13.216v12.014H56.887zM56.887 21.81h13.216v12.014H56.887z"/>
        <path d="M125.083 54.353c-2.713-1.826-9.839-2.605-15.02-1.21-.279-5.161-2.94-9.51-7.809-13.3l-1.8-1.209-1.2 1.814a20.7 20.7 0 0 0-3 12.7 15.118 15.118 0 0 0 3 7.862 19.73 19.73 0 0 1-11.413 3.024H1.936C.409 73.1 3.024 107.57 42.784 107.57c29.517 0 53.771-13.275 64.876-41.122 3.654.059 13.3.654 18.021-8.467.115-.153 1.2-2.419 1.2-2.419z" fill-rule="evenodd"/>
    </g>
    <path d="M33.674 91.193a74.585 74.585 0 0 1-22.561 3.793c7.353 6.131 20.453 17.7 42.049 11.1a33.553 33.553 0 0 1-19.488-14.893z" fill="#fff" fill-rule="evenodd"/>
    <path d="M32.579 89.076a32.153 32.153 0 0 1-15.979 4.2 32.482 32.482 0 0 1-8.49-1.123l1.714 2.882a34.955 34.955 0 0 0 23.926-3.842 28.913 28.913 0 0 1-1.171-2.117z" fill="#026fb6" fill-rule="evenodd"/>
    <ellipse cx="41.721" cy="83.303" rx="4.177" ry="4.205" fill="#fff"/>
    <path d="M42.35 82.121a1.188 1.188 0 0 1 .469-.934 2.345 2.345 0 0 0-1.086-.275 2.4 2.4 0 1 0 2.387 2.4c0-.047-.011-.092-.014-.138a1.166 1.166 0 0 1-.555.154 1.206 1.206 0 0 1-1.201-1.207z" fill="#4d5c64"/>
    <path d="M124.736 54.14c-2.7-1.815-10.094-2.664-15.032-1.229l-1.1 1.555C92.5 87.786 72.355 101.873 44.828 102.5 14.808 102.417 7.3 86.589 5.181 65.006H.375c-.618 9.071 1.7 42.43 41.765 42.43 29.554 0 53.883-13.244 65.116-41.061 3.664.06 13.876.06 18.382-9.071l.913-1.935z" fill-rule="evenodd" opacity=".04"/>
    <g fill="#066da5">
        <path d="M12.435 53.047h1.201v7.208h-1.201zM16.039 53.047h1.201v7.208h-1.201zM19.643 53.047h1.201v7.208h-1.201zM28.053 53.047h1.201v7.208h-1.201zM31.657 53.047h1.201v7.208h-1.201zM35.261 53.047h1.201v7.208h-1.201zM43.671 53.047h1.201v7.208h-1.201zM47.275 53.047h1.201v7.208h-1.201zM50.88 53.047h1.201v7.208H50.88zM59.29 53.047h1.201v7.208H59.29zM62.894 53.047h1.201v7.208h-1.201zM66.498 53.047h1.201v7.208h-1.201zM74.908 53.047h1.201v7.208h-1.201zM78.512 53.047h1.201v7.208h-1.201zM82.116 53.047h1.201v7.208h-1.201zM31.657 38.63h1.201v7.208h-1.201zM35.261 38.63h1.201v7.208h-1.201zM43.671 38.63h1.201v7.208h-1.201zM47.275 38.63h1.201v7.208h-1.201zM50.88 38.63h1.201v7.208H50.88zM59.29 38.63h1.201v7.208H59.29zM62.894 38.63h1.201v7.208h-1.201zM66.498 38.63h1.201v7.208h-1.201zM62.894 24.213h1.201v7.208h-1.201zM59.29 24.213h1.201v7.208H59.29zM66.498 24.213h1.201v7.208h-1.201zM28.053 38.63h1.201v7.208h-1.201z"/>
        <path d="M126.954 57.124l.408-.84.184-.382.454-.948-2.669-1.793c-2.886-1.943-9.467-2.675-14.622-1.687-.665-4.86-3.39-9.078-8.173-12.8l-2.837-1.9-1.867 2.821a21.888 21.888 0 0 0-3.2 13.469 17.07 17.07 0 0 0 2.48 7.436 20.129 20.129 0 0 1-8.989 2.12V48.241H72.505V19.407H54.484v14.417H23.247v14.417H7.629v14.392H.5L.332 63.64a38.214 38.214 0 0 0 .143 11.007A43.621 43.621 0 0 0 5.41 89.606c6.664 11.961 18.771 18.987 36.955 18.987 30.941 0 54.642-14.286 65.677-41.106a24.436 24.436 0 0 0 9.222-1.2 15.793 15.793 0 0 0 9.042-7.895c.116-.192.286-.529.648-1.268zm-54.449-6.48h13.216v11.989H72.505zM56.887 21.81H70.1v12.014H56.887zm0 14.417H70.1v12.014H56.887zm0 14.417H70.1v11.989H56.887zM41.268 36.227h13.216v12.014H41.268zm0 14.417h13.216v11.989H41.268zM25.65 36.227h13.216v12.014H25.65zm0 14.417h13.216v11.989H25.65zm-15.618 0h13.215v11.989H10.032zm114.748 5.447c-.148.3-.275.559-.372.751-.052.1-.095.187-.211.394a13.4 13.4 0 0 1-7.725 6.771 22.662 22.662 0 0 1-8.587 1.057l-.624-.012-.827-.013-.308.772c-10.51 26.356-33.461 40.363-63.761 40.363-17.321 0-28.623-6.559-34.859-17.751A41.186 41.186 0 0 1 2.853 74.3a38.383 38.383 0 0 1-.291-9.246h5.067v.009h80.494v-.024c4.759-.053 9.209-1.526 11.442-3.261l.985-.765-.794-.964a13.838 13.838 0 0 1-2.733-7.216 19.445 19.445 0 0 1 2.81-11.9l.533-.8.767.514c4.663 3.644 7.058 7.691 7.311 12.388l.081 1.488 1.429-.385c4.679-1.26 11.529-.645 14.042 1.046l.929.624z"/>
    </g>
</svg>
