<svg xmlns="http://www.w3.org/2000/svg" width="128" height="128">
    <path d="M0 0h128v128H0z" fill="#5b27d9"/>
    <path d="M22.81 81.78a3.18 3.18 0 01-2.3-.91 3 3 0 01-1-2.2 3 3 0 011-2.23 3.16 3.16 0 012.3-.93 3.2 3.2 0 012.33.93 3 3 0 011 2.23 2.94 2.94 0 01-1 2.2 3.22 3.22 0 01-2.33.91M59 48h-5.19v21.44a30.18 30.18 0 00.19 4.47c-.18-.37-.59-1-1.22-2L37.75 48h-6.27v33.27h5.2V59.46a35.34 35.34 0 00-.18-4.57h.14a11.25 11.25 0 001 1.93l15.5 24.45H59zm25.34 28.6H71.51v-9.83h11.15V62.1H71.51v-9.41h12.1V48H66.12v33.27h18.22zM110.22 48h-24v4.69h9.29v28.58h5.39V52.69h9.32z" fill="#fff"/>
</svg>
