<svg xmlns="http://www.w3.org/2000/svg" width="200" height="128">
  <path d="M32.39,64.75c-2.28-4.79-5.75-6.68-10.52-6-.66,1.47-1.26,2.82-1.88,4.19,3.6,3.79,7.76,4.46,12.39,1.8ZM35.42,66.98c-1.04,4.81,1.3,8.57,5.78,9.9,1.48-1.05,2.67-1.88,3.85-2.71-1.36-5.21-4.58-7.63-9.63-7.19ZM27.05,76.87c3.7-.89,6.59-4.24,6.6-7.97,0-1.56-.4-2.43-2.34-2.18-3.97.52-7.3,3.75-7.63,7.43,1.15.92,2.18,1.74,3.38,2.71ZM33.82,63.11c3.93-2.78,4.7-6.27,2.33-10.54-1.38,1.46-4.32-1.56-5.14,2.12-.77,3.5.39,6.08,2.81,8.41ZM47.77,63.08c-.67-1.51-1.21-2.7-1.79-4.01-3.36-.44-6.24.58-8.47,3.27-1.26,1.52-.99,2.58.99,3.09,3.52.9,6.58.04,9.27-2.34Z" fill="#fff" stroke-width="0"/>
  <path d="M108.08,52.57c3.83,1.91,6.26,3.49,7.75,8.46,1.6,5.31-.08,9.79-4.39,13.19-4.59,3.63-9.73,4.11-15.12,1.81-1-.43-1.91-1.03-3.32-1.79v10.33c-1.5.09-2.66.15-4.22.24-.09-1.78-.22-3.36-.24-4.94-.03-3.95.25-7.92-.07-11.84-.65-8.11,2.59-13.13,9.09-15.7,3.22-1.24,7.29-1.15,10.51.24ZM111.91,64.59c.04-5.26-4.18-9.39-9.55-9.36-5.2.03-9.36,4.08-9.43,9.18-.07,5.27,4.09,9.31,9.56,9.29,5.32-.02,9.38-3.95,9.42-9.1Z" stroke-width="0"/>
  <path d="M138.41,52.18c1.42.6,1.65.63,2.88,1.35,6.29,3.66,8.52,10.79,5.29,16.71-3.43,6.28-11.92,8.95-18.58,5.81-.98-.46-1.92-1.03-3.32-1.79v10.3c-1.5.09-2.66.16-4.43.27,0-2.13,0-4.05,0-5.97,0-3.62.28-7.26-.06-10.84-.75-8.14,2.2-12.97,9.18-15.75,2.84-1,6.75-.73,9.03-.07ZM143.56,64.54c.01-5.25-4.23-9.37-9.61-9.3-5.2.06-9.33,4.13-9.37,9.23-.04,5.28,4.13,9.29,9.62,9.23,5.32-.05,9.35-4,9.36-9.16Z" stroke-width="0"/>
  <path d="M76.81,52.23c4.62,2.18,6.84,4.68,7.81,10,.48,2.63.02,3.85-3.08,3.76-5.93-.16-11.88.01-17.81.06-.21,0-.41.15-.83.3-.08,2.94,1.74,4.79,4.12,6.03,5.09,2.67,9.74,1.01,14.37-2.03.67.88,1.3,1.71,1.91,2.51-4.77,4.88-12.86,5.92-18.7,2.56-5.61-3.22-7.99-9.12-5.97-14.95,1.56-4.52,3.44-6.13,7.55-8.04,3.67-1.46,6.64-1.82,10.62-.22ZM80,62.25c-.99-4.48-4.08-7.02-8.22-7.02-4.37,0-7.94,2.83-8.74,7.02h16.96Z" stroke-width="0"/>
  <path d="M179.79,66.91c-1.86,4.68-4.76,8.41-9.92,9.87-7.33,2.09-15.18-1.77-17.43-8.49-2.2-6.55,1.35-13.04,8.7-15.96.4-.16.8-.28,1.41-.45,3.12-.57,4.07-.56,6.47-.15,5.38,1.76,8.96,5.29,10.77,10.56.31,1.56.25,3.03,0,4.62ZM156.22,64.48c.01,5.35,4.15,9.31,9.62,9.22,5.36-.09,9.41-4.06,9.36-9.16-.05-5.3-4.28-9.39-9.63-9.3-5.19.09-9.37,4.21-9.36,9.25Z" stroke-width="0"/>
  <path d="M32.39,64.75c-4.63,2.66-8.8,1.98-12.39-1.8.61-1.37,1.22-2.72,1.88-4.19,4.76-.69,8.24,1.2,10.52,6Z" stroke-width="0"/>
  <path d="M35.42,66.98c5.05-.44,8.28,1.98,9.63,7.19-1.19.84-2.37,1.67-3.85,2.71-4.48-1.33-6.82-5.09-5.78-9.9Z" stroke-width="0"/>
  <path d="M27.05,76.87c-1.2-.97-2.23-1.79-3.38-2.71.33-3.68,3.66-6.91,7.63-7.43,1.95-.26,2.35.62,2.34,2.18,0,3.72-2.89,7.08-6.6,7.97Z" stroke-width="0"/>
  <path d="M33.82,63.11c-2.41-2.34-3.58-4.91-2.81-8.41.81-3.69,3.75-.67,5.14-2.12,2.37,4.26,1.6,7.75-2.33,10.54Z" fill="#7465d2" stroke-width="0"/>
  <path d="M47.77,63.08c-2.69,2.38-5.75,3.24-9.27,2.34-1.98-.5-2.25-1.57-.99-3.09,2.23-2.69,5.11-3.71,8.47-3.27.58,1.31,1.12,2.5,1.79,4.01Z" fill="#7465d2" stroke-width="0"/>
</svg>