<svg width="1112" height="245" viewBox="0 0 1112 245" fill="none" xmlns="http://www.w3.org/2000/svg">
<path d="M116.658 0C136.059 34.9242 124.42 69.8484 101.134 89.2508C73.9714 69.8484 66.2132 31.0436 85.6141 0C97.2568 3.88055 100.111 11.6416 101.134 11.6416C102.161 11.6416 105.015 3.88055 116.658 0Z" fill="#7964D3"/>
<path d="M201.677 81.1172C175.493 111.294 138.693 112.3 112.498 97.0572C121.442 64.8959 155.251 44.3312 191.057 51.9458C191.395 64.2124 185.078 69.5512 185.427 70.5131C185.779 71.475 194.049 71.505 201.677 81.1172Z" fill="#7964D3"/>
<path d="M153.528 189.719C116.216 175.437 102.687 141.201 108.05 111.372C141.329 108.774 172.217 133.512 177.31 169.764C165.897 174.274 158.721 170.166 157.935 170.823C157.153 171.482 159.952 179.263 153.528 189.719Z" fill="black"/>
<path d="M24.9692 169.133C32.5532 129.908 63.9193 110.638 94.229 110.74C102.565 143.064 83.5648 177.778 48.7478 189.088C42.3241 178.632 45.1263 170.851 44.3405 170.193C43.5584 169.534 36.3785 173.643 24.9692 169.133Z" fill="black"/>
<path d="M10.6197 52.1088C50.0738 45.8214 78.9082 68.7052 89.1758 97.2197C61.6535 116.109 22.5368 110.13 0 81.2801C7.6284 71.6679 15.8981 71.6379 16.2502 70.676C16.5986 69.7141 10.2824 64.3754 10.6197 52.1088Z" fill="black"/>
<path d="M451.677 92.5393C451.677 96.543 451.41 100.686 450.874 104.958H296.644C298.512 122.049 305.99 136.202 319.078 147.422C332.165 158.635 347.389 164.245 364.748 164.245C375.962 164.245 387.315 161.842 398.797 157.035C410.546 152.228 420.561 145.821 428.842 137.808L443.262 158.24C422.429 179.073 396.393 189.49 365.144 189.49C338.171 189.49 315.068 180.411 295.841 162.249C276.614 144.087 267 121.787 267 95.35C267 68.9127 276.346 46.4791 295.044 28.0493C313.735 9.34587 336.169 0 362.339 0C388.508 0 409.208 9.07818 426.037 27.2404C443.129 45.1349 451.677 66.8992 451.677 92.5393ZM297.447 80.1208H423.238C420.299 64.0943 413.357 51.0124 402.405 40.8635C391.453 30.4468 378.103 25.2385 362.344 25.2385C346.586 25.2385 332.299 30.4468 320.282 40.8635C308.265 51.2801 300.654 64.3678 297.447 80.1208Z" fill="black"/>
<path d="M1083.36 28.0434C1102.32 46.4733 1111.8 68.773 1111.8 94.9427C1111.8 121.112 1102.32 143.418 1083.36 161.842C1064.39 180.272 1041.82 189.484 1015.65 189.484C989.472 189.484 967.312 180.138 948.346 161.44C929.387 142.749 919.901 120.577 919.901 94.9427C919.901 69.3084 929.381 46.4675 948.346 28.0434C967.317 9.34587 989.751 0 1015.65 0C1041.55 0 1064.66 9.34587 1083.36 28.0434H1083.36ZM967.981 46.0718C954.893 59.9567 948.352 76.2509 948.352 94.9427C948.352 113.634 954.893 129.929 967.981 143.814C981.336 157.437 997.229 164.245 1015.65 164.245C1034.07 164.245 1050.23 157.437 1063.32 143.814C1076.41 129.929 1082.95 113.634 1082.95 94.9427C1082.95 76.2509 1076.41 59.2875 1063.32 45.6702C1050.5 32.0472 1034.61 25.2385 1015.65 25.2385C996.682 25.2385 981.063 32.181 967.981 46.0718Z" fill="black"/>
<path d="M643.273 28.0434C624.581 9.34587 602.014 0 575.571 0C549.128 0 527.23 9.34587 508.27 28.0434C489.311 46.4733 479.825 68.773 479.825 94.9426C479.825 96.7583 479.878 98.5565 479.977 100.343H479.953V244.674H508.107V161.277C508.165 161.33 508.218 161.388 508.27 161.446C527.235 180.138 549.669 189.49 575.571 189.49C601.473 189.49 624.314 180.278 643.273 161.848C662.233 143.418 671.718 121.118 671.718 94.9485C671.718 68.7789 662.238 46.4733 643.273 28.0493V28.0434ZM623.243 143.819C610.155 157.442 594.269 164.251 575.571 164.251C556.873 164.251 541.254 157.442 527.899 143.819C514.811 129.934 508.27 113.64 508.27 94.9485C508.27 76.2567 514.811 59.9626 527.899 46.0776C540.987 32.1926 556.873 25.2443 575.571 25.2443C594.269 25.2443 610.423 32.053 623.243 45.6761C636.331 59.2991 642.872 75.7214 642.872 94.9485C642.872 114.176 636.331 129.934 623.243 143.819Z" fill="black"/>
<path d="M863.315 28.0434C844.623 9.34587 822.056 0 795.613 0C769.17 0 747.272 9.34587 728.312 28.0434C709.353 46.4733 699.867 68.773 699.867 94.9426C699.867 97.3693 699.955 99.7669 700.123 102.13V244.674H728.277V161.411C728.277 161.411 728.301 161.435 728.312 161.446C747.272 180.138 769.705 189.49 795.613 189.49C821.521 189.49 844.356 180.278 863.315 161.848C882.28 143.418 891.76 121.118 891.76 94.9485C891.76 68.7789 882.28 46.4733 863.315 28.0493V28.0434ZM843.285 143.819C830.197 157.442 814.31 164.251 795.613 164.251C776.915 164.251 761.296 157.442 747.941 143.819C734.853 129.934 728.312 113.64 728.312 94.9485C728.312 76.2567 734.853 59.9626 747.941 46.0776C761.029 32.1926 776.915 25.2443 795.613 25.2443C814.31 25.2443 830.465 32.053 843.285 45.6761C856.373 59.2991 862.914 75.7214 862.914 94.9485C862.914 114.176 856.373 129.934 843.285 143.819Z" fill="black"/>
</svg>
