<svg xmlns="http://www.w3.org/2000/svg" width="120" height="60">
    <g fill="#e82c2a">
        <path d="M78.057 17.744v26.093h7.832v-3.984H83.3V13.772h-5.249zM10 39.853h2.665V27.261H10V23.8l2.665-.44v-3.51c0-4.244.923-6.085 6.339-6.085a22.652 22.652 0 0 1 3.767.391l-.719 4.269a9.831 9.831 0 0 0-1.747-.155c-1.909 0-2.392.192-2.392 2.051v3.043h3.96v3.9h-3.96v12.583h2.634v3.984H10v-3.978zM75.386 38.589a10.306 10.306 0 0 1-2.057.167c-2.157.056-1.971-.657-1.971-2.695v-8.8h4.109v-3.9h-4.115v-9.589H66.1v23.379c0 4.592 1.134 6.686 6.072 6.686a22.091 22.091 0 0 0 3.991-.557zM107.986 39.871A1.98 1.98 0 1 1 106 41.854a1.979 1.979 0 0 1 1.989-1.983m0 3.65a1.658 1.658 0 1 0 0-3.315 1.658 1.658 0 0 0 0 3.315m.366-.694l-.4-.588h-.279v.588h-.446v-1.946h.812c.483 0 .78.242.78.676a.586.586 0 0 1-.409.607l.484.669h-.539zm-.676-.979h.353c.2 0 .341-.08.341-.291s-.136-.285-.328-.285h-.366zM59.554 27.255v-.7a22.426 22.426 0 0 0-4.022-.291c-2.441 0-2.739 1.3-2.739 2 0 .992.341 1.531 2.987 2.107 3.867.867 7.752 1.772 7.752 6.568 0 4.549-2.342 6.9-7.269 6.9a36.808 36.808 0 0 1-8.935-1.326v-3.924H51.3v.694a23.544 23.544 0 0 0 4.437.3c2.6 0 3.024-1.4 3.024-2.144 0-1.035-.75-1.53-3.192-2.026-4.6-.787-8.253-2.355-8.253-7.033 0-4.425 2.955-6.16 7.888-6.16a31.871 31.871 0 0 1 8.316 1.141v3.891h-3.966zM35.406 30.7l-.4-.4-2.023 1.77a.966.966 0 0 0-.328-.056 1.017 1.017 0 1 0 .991 1.016 1.231 1.231 0 0 0-.043-.3z"/>
        <path d="M43.443 38.589l-.006-16.334h-5.249v1.53a10.773 10.773 0 0 0-3.569-1.351h.031v-1.809h.638v-1.332H30v1.332h.639v1.809h.037A10.789 10.789 0 1 0 38.2 42.288l.948 1.543H44.7v-5.248h-1.257zm-10.479-.006v-.62h-.625v.613a5.551 5.551 0 0 1-5.218-5.248h.626V32.7h-.62a5.55 5.55 0 0 1 5.212-5.2v.62h.625v-.62a5.556 5.556 0 0 1 5.23 5.05v.18h-.632v.626h.632v.173a5.552 5.552 0 0 1-5.23 5.057zM99.175 23.364H110v3.9h-2.59L100.773 43.6c-1.9 4.585-5.025 8.9-9.784 8.9a18.335 18.335 0 0 1-3.811-.39l.477-4.766a13.41 13.41 0 0 0 2.076.217 5.822 5.822 0 0 0 5.478-3.749l-6.73-16.551h-2.59v-3.9h10.832v3.9h-2.584l3.811 9.376 3.811-9.376h-2.584z"/>
    </g>
</svg>
