<svg xmlns="http://www.w3.org/2000/svg" width="128" height="128">
    <g fill="#e82c2a">
        <path d="M78.416 59.507l-2.068-2.069-10.57 9.213a5.019 5.019 0 0 0-1.713-.291 5.3 5.3 0 1 0 5.172 5.3 6.212 6.212 0 0 0-.227-1.584z"/>
        <path d="M74.246 16.388h.194V6.949h3.33V0H50.23v6.949h3.33v9.439h.194a56.275 56.275 0 1 0 20.492 0zm-8.662 84.2v-3.2h-3.168v3.2A28.958 28.958 0 0 1 35.2 73.212h3.265v-3.265h-3.233A28.945 28.945 0 0 1 62.416 42.8v3.232h3.168V42.8a28.945 28.945 0 0 1 27.184 27.147h-3.233v3.265H92.8a28.958 28.958 0 0 1-27.216 27.378z"/>
    </g>
</svg>
