<svg xmlns="http://www.w3.org/2000/svg" width="200" height="128">
    <path fill="#6633ff" d="M86.15 58.13c0-.31-.12-.39-.41-.39h-4.77l-.06 1.4v.55h-.12l-.36-.34a5.7 5.7 0 00-3.71-1.7 7.53 7.53 0 00-6.67 3 9.43 9.43 0 00.5 12 6.83 6.83 0 0010.09.24 1.14 1.14 0 01.22-.13v2.64A2.71 2.71 0 0179 78.1a5.65 5.65 0 01-1.63.35 10.22 10.22 0 01-4.2-.64l-1.61-.62-.13.24c-.44 1-.87 2.09-1.34 3.11-.18.38-.07.5.27.64a16.85 16.85 0 005.86 1.29 3 3 0 01.59.09h.39q.89-.11 1.77-.18a10 10 0 003.48-.93 5.87 5.87 0 003.65-5.4c.09-5.97.03-11.95.05-17.92zm-5.33 10.79a.79.79 0 01-.22.53 4.25 4.25 0 01-4.47.93A3.94 3.94 0 0173.41 67a4.29 4.29 0 012.21-4.56 4.61 4.61 0 015 .74.78.78 0 01.21.5v2.63c0 .88.01 1.74-.01 2.61zM35.34 59.63h-6.08a14.59 14.59 0 00-2.89.16 7.49 7.49 0 00-6.11 5.76c-.11.4-.17.81-.26 1.21v.77l.12.86a7.72 7.72 0 007 6.6c.37 0 .48-.09.47-.46v-9c0-.51 0-.51.49-.51h7.23c.36 0 .49-.09.49-.47v-4.43c.04-.38-.08-.49-.46-.49zM133.22 59.31a6 6 0 00-5.56-2.05 6.49 6.49 0 00-4.44 2.44c-.31.36-.4.35-.68-.05a4.76 4.76 0 00-1.82-1.65 6.34 6.34 0 00-6.79.53c-.3.21-.59.46-1 .76 0-.54-.09-1-.1-1.39s-.14-.38-.42-.37h-4.37c-.63 0-.75.12-.76.76 0 2.14 0 4.28-.07 6.42s0 4.35-.09 6.53c0 1.17 0 2.34-.08 3.51 0 .24 0 .38.33.38h5c.23 0 .31-.09.31-.31l.15-4.5c.05-1.47.09-2.93.17-4.39 0-.87.09-1.75.21-2.62a2 2 0 011.94-1.86c1.51 0 2.3.46 2.55 1.74a13.05 13.05 0 01.23 2.42c0 1.34 0 2.67-.07 4v.76c0 1.48-.07 3-.12 4.43 0 .22.07.33.31.32H123c.22 0 .29-.08.3-.29 0-.47 0-.94.06-1.41.06-2.52.1-5 .16-7.56a8.16 8.16 0 01.63-3.12 2.14 2.14 0 012.23-1.22 1.84 1.84 0 011.85 1.48 7 7 0 01.28 1.76v5c0 1.69-.08 3.35-.13 5 0 .29.07.41.39.41h4.74c.3 0 .4-.09.4-.39 0-1.72.06-3.44.07-5.16v-8a3.48 3.48 0 00-.76-2.31zM180 64a10.91 10.91 0 00-.16-1.9 5.17 5.17 0 00-3-4 6.25 6.25 0 00-7.53 1.89l-.46.57h-.1V49.61a.55.55 0 00-.17 0l-4.9 1.16c-.28.06-.28.22-.28.44v23.42c0 .32.1.42.42.42h4.47c.4 0 .49-.12.49-.5v-9.82-.46a2.1 2.1 0 01.31-1.34 3.26 3.26 0 014.5-.64 3.33 3.33 0 011.1 2.73v9.59c0 .33.08.44.43.44h4.47c.37 0 .48-.1.48-.47C180 71 180 67.49 180 64zM64 60a7.09 7.09 0 00-5.43-2.47 17.08 17.08 0 00-6.68 1c-.7.25-1.39.53-2.13.82L51.62 63l.67-.26A10.14 10.14 0 0157.8 62a2.4 2.4 0 012 1.47 6.33 6.33 0 01.2 2.4c-.18-.05-.33-.06-.47-.11a10.73 10.73 0 00-6.34-.36c-2.14.51-4 2-4 4.55a4.78 4.78 0 002.11 4.21 6.09 6.09 0 002.91 1 7.07 7.07 0 005.31-1.43l.49-.32v1.16c0 .35.08.42.41.42h4.44c.29 0 .4-.08.4-.39V63.22A5.25 5.25 0 0064 60zm-4.72 11.27a5.7 5.7 0 01-3.94.3 1.64 1.64 0 01-1.29-1.63 1.7 1.7 0 011.36-1.55 7.93 7.93 0 012.66-.13c.54 0 1.07.19 1.61.26.25 0 .32.16.31.39v.84a1.86 1.86 0 000 .41c.12.6-.17.9-.71 1.11zM101 65.08a17.43 17.43 0 00-3.77-.91c-.81-.16-1.63-.3-2.43-.49a1.09 1.09 0 01-.9-.74c-.21-.7.18-1.29 1-1.5a5.93 5.93 0 012.65 0 10.82 10.82 0 013.07 1.14c.26.14.4.11.56-.14s.43-.6.64-.9c.51-.71 1-1.42 1.56-2.19-.54-.26-1-.52-1.55-.74a12.71 12.71 0 00-8.39-.8 5.19 5.19 0 00-4.27 5.31 4.41 4.41 0 002.57 4.09 13 13 0 003.77 1.07c.89.17 1.8.31 2.69.53s1.12.69 1 1.31-.63.95-1.22 1.11a6.42 6.42 0 01-3.17 0 12.93 12.93 0 01-3.33-1.32c-.31-.16-.45-.11-.63.18-.63 1-1.27 1.94-1.92 2.9-.14.21-.12.34.1.45.63.31 1.23.67 1.88.92a15.16 15.16 0 006.57.93 8.09 8.09 0 004.7-1.8 5.06 5.06 0 001.82-5.18 4.51 4.51 0 00-3-3.23zM159.83 57.74h-3.87c-.3 0-.43-.08-.39-.39s0-.5.05-.76l.18-3.77c0-.21-.05-.29-.3-.24l-4.93 1a.39.39 0 00-.38.46v3.28c0 .34-.08.47-.44.46h-2.57c-.28 0-.38.09-.37.38v3.32c0 .31.1.39.4.39h2.48c.39 0 .5.1.5.49 0 2.73 0 5.45.07 8.17a4.51 4.51 0 003.3 4.35 8.29 8.29 0 003.43.36c.9-.1 1.81-.25 2.71-.38.28 0 .38-.17.37-.46v-3.95a11.36 11.36 0 01-1.31.27 9.38 9.38 0 01-1.3 0 1.68 1.68 0 01-1.89-1.58 3.54 3.54 0 010-.46V62.3c0-.39.11-.51.5-.5h3.78c.3 0 .41-.09.4-.39v-3.29c0-.29-.11-.38-.42-.38zM44.75 51c.08-.29 0-.38-.33-.38-5.15 0-10.3 0-15.46.08a13.81 13.81 0 00-5 1 5.78 5.78 0 00-3.43 3.3 6.85 6.85 0 00-.31 3.53c.1.62.24 1.24.38 2 .18-.19.26-.29.35-.37a21.43 21.43 0 012-1.61 10.75 10.75 0 015.71-1.41c3 0 6.07-.09 9.1-.17a7.2 7.2 0 007-5.89zM46.31 53.42c-.26.55-.47 1-.72 1.54a7.37 7.37 0 01-4.39 3.94c-.24.07-.26.23-.26.44v15.39c0 .31.12.39.41.38h4.59c.31 0 .38-.11.38-.4zM143.14 57.74h-4.4c-.5 0-.5 0-.5.5v16.35c0 .34.1.44.44.44h4.48c.32 0 .41-.11.41-.42V58.15c-.01-.31-.11-.41-.43-.41zM140.89 49a3.08 3.08 0 00-3 3 3 3 0 006.06.05 3.07 3.07 0 00-3.06-3.05z"/>
</svg>
