<svg xmlns="http://www.w3.org/2000/svg" width="128" height="128">
  <path fill="#181616" d="M64,1.58C28.66,1.58,0,30.23,0,65.58c0,28.28,18.34,52.27,43.77,60.73,3.2,.59,4.37-1.39,4.37-3.08,0-1.53-.06-6.57-.09-11.92-17.8,3.87-21.56-7.55-21.56-7.55-2.91-7.4-7.11-9.36-7.11-9.36-5.81-3.97,.44-3.89,.44-3.89,6.43,.45,9.81,6.6,9.81,6.6,5.71,9.78,14.97,6.96,18.62,5.32,.57-4.14,2.23-6.96,4.06-8.56-14.22-1.62-29.16-7.11-29.16-31.63,0-6.99,2.5-12.7,6.59-17.18-.66-1.61-2.86-8.12,.62-16.94,0,0,5.37-1.72,17.6,6.56,5.11-1.42,10.58-2.13,16.02-2.15,5.44,.02,10.92,.74,16.03,2.15,12.22-8.28,17.58-6.56,17.58-6.56,3.48,8.82,1.29,15.32,.63,16.94,4.1,4.48,6.59,10.19,6.59,17.18,0,24.58-14.97,29.99-29.22,31.58,2.3,1.99,4.34,5.88,4.34,11.85,0,8.56-.07,15.46-.07,17.56,0,1.7,1.15,3.7,4.4,3.07,25.42-8.47,43.73-32.45,43.73-60.72C128,30.23,99.35,1.58,64,1.58Z"/>
  <path fill="#181616" d="M24.24,93.47c-.14,.32-.64,.41-1.1,.2-.46-.21-.72-.64-.57-.96,.14-.33,.64-.42,1.1-.2,.46,.21,.73,.65,.57,.97h0Zm-.79-.58"/>
  <path fill="#181616" d="M26.83,96.36c-.31,.28-.9,.15-1.31-.3-.42-.45-.5-1.04-.19-1.33,.31-.28,.89-.15,1.31,.3,.42,.45,.5,1.04,.18,1.33h0Zm-.61-.66"/>
  <path fill="#181616" d="M29.36,100.05c-.39,.27-1.03,.02-1.43-.55-.39-.57-.39-1.25,0-1.53,.4-.27,1.03-.03,1.43,.54,.39,.58,.39,1.26,0,1.54h0Zm0,0"/>
  <path fill="#181616" d="M32.81,103.61c-.35,.39-1.1,.28-1.64-.25-.56-.52-.72-1.25-.36-1.64,.36-.39,1.11-.28,1.66,.25,.56,.52,.72,1.25,.35,1.64h0Zm0,0"/>
  <path fill="#181616" d="M37.58,105.68c-.16,.5-.87,.73-1.6,.52-.72-.22-1.2-.81-1.05-1.31,.15-.51,.87-.74,1.6-.51,.72,.22,1.2,.8,1.05,1.31h0Zm0,0"/>
  <path fill="#181616" d="M42.82,106.06c.02,.53-.6,.97-1.36,.97-.76,.02-1.38-.41-1.39-.93,0-.53,.6-.97,1.37-.98,.76-.01,1.38,.41,1.38,.93h0Zm0,0"/>
  <path fill="#181616" d="M47.69,105.23c.09,.51-.44,1.04-1.19,1.18-.74,.14-1.43-.18-1.53-.69-.09-.53,.45-1.06,1.19-1.19,.76-.13,1.43,.18,1.53,.7h0Zm0,0"/>
</svg>