<?xml version="1.0" standalone="no"?>
<!DOCTYPE svg PUBLIC "-//W3C//DTD SVG 20010904//EN"
 "http://www.w3.org/TR/2001/REC-SVG-20010904/DTD/svg10.dtd">
<svg version="1.0" xmlns="http://www.w3.org/2000/svg"
 width="700.000000pt" height="700.000000pt" viewBox="0 0 700.000000 700.000000"
 preserveAspectRatio="xMidYMid meet">
<metadata>
Created by potrace 1.14, written by Peter Selinger 2001-2017
</metadata>
<g transform="translate(0.000000,700.000000) scale(0.100000,-0.100000)"
fill="#000000" stroke="none">
<path d="M5755 6633 c-125 -52 -387 -307 -630 -613 -33 -41 -62 -77 -65 -80
-16 -14 -183 -236 -293 -390 -70 -96 -130 -179 -134 -185 -77 -98 -513 -780
-513 -802 0 -4 -6 -14 -14 -22 -7 -9 -27 -41 -44 -71 -16 -30 -58 -107 -92
-170 -56 -102 -128 -248 -188 -381 -31 -67 -89 -239 -96 -286 -16 -92 -15
-130 2 -149 10 -11 39 -46 66 -79 26 -33 63 -78 81 -100 18 -22 93 -112 166
-200 72 -88 135 -162 138 -165 3 -3 35 -41 71 -85 35 -44 69 -85 75 -91 5 -6
30 -35 55 -64 25 -29 50 -58 55 -64 6 -6 35 -40 65 -76 63 -74 53 -63 145
-165 39 -43 90 -101 115 -129 134 -149 372 -387 501 -500 167 -147 380 -291
503 -342 28 -11 67 -28 86 -36 37 -17 130 -46 170 -53 14 -3 36 -7 50 -10 173
-35 583 -17 611 27 24 38 2 151 -62 312 -49 122 -214 445 -321 626 -166 283
-330 545 -514 821 -68 102 -124 192 -124 200 0 24 318 1148 350 1239 5 14 36
124 69 245 34 121 66 236 71 255 31 106 120 446 133 510 14 68 23 127 33 215
5 41 4 254 0 285 -2 14 -6 43 -9 65 -27 209 -142 416 -267 479 -88 45 -181 56
-245 29z"/>
<path d="M3287 5694 c-1 -1 -36 -5 -78 -8 -72 -6 -92 -9 -164 -21 -159 -27
-290 -74 -500 -181 -188 -95 -398 -238 -610 -414 -139 -115 -488 -470 -576
-585 -13 -16 -26 -32 -30 -35 -26 -22 -264 -334 -375 -495 -137 -198 -339
-525 -465 -755 -65 -120 -237 -461 -284 -565 -15 -33 -38 -84 -51 -113 -13
-28 -35 -80 -50 -115 -14 -34 -31 -75 -39 -92 -7 -16 -25 -60 -40 -96 l-26
-66 4 -794 c3 -793 3 -794 26 -862 86 -261 288 -438 555 -486 40 -7 339 -11
890 -11 l831 0 42 83 c24 45 73 122 110 172 73 97 251 280 373 384 41 35 77
67 80 70 10 13 237 189 370 288 146 108 138 102 476 337 453 315 658 466 762
560 l34 31 -24 18 c-13 10 -34 29 -48 40 -30 26 -198 167 -220 184 -20 16
-156 128 -199 165 -19 15 -53 43 -75 61 -36 29 -217 181 -276 231 -37 31 -168
145 -220 191 -111 98 -324 320 -380 396 -138 186 -157 269 -109 465 55 225
198 501 405 777 133 178 218 260 465 447 46 36 89 68 94 73 6 4 57 44 115 89
189 145 329 269 350 309 8 14 0 23 -43 52 -80 53 -175 103 -257 135 -79 31
-113 43 -117 43 -2 0 -22 6 -45 15 -38 13 -208 51 -268 59 -87 13 -404 27
-413 19z m-1207 -1518 c82 -30 144 -66 196 -114 138 -128 197 -302 164 -483
-11 -62 -58 -179 -71 -179 -5 0 -9 -7 -9 -15 0 -21 -109 -127 -164 -159 -245
-143 -554 -72 -710 164 -134 205 -105 480 69 654 106 107 232 156 385 151 55
-1 114 -10 140 -19z"/>
</g>
</svg>
