<svg xmlns="http://www.w3.org/2000/svg" width="200" height="128">
    <path fill="#7262a0" d="M34 78.247h132.465v30.977H34z"/>
    <g fill="#fff">
        <path d="M48.154 85.606l1.814 12.125h.046l1.93-12.125h3.168l1.93 12.125h.045L58.9 85.606h3.17L59.085 102h-3.7L53.55 90.107h-.05L51.667 102h-3.7l-2.984-16.4zM66.778 97.294a6.892 6.892 0 0 0 .081 1.069 3.372 3.372 0 0 0 .265.918 1.722 1.722 0 0 0 .48.644 1.138 1.138 0 0 0 .736.24 1.291 1.291 0 0 0 1.172-.573 4.265 4.265 0 0 0 .5-1.747h2.848a4.959 4.959 0 0 1-1.148 3.285 4.376 4.376 0 0 1-3.33 1.125 5.276 5.276 0 0 1-2.686-.574 3.548 3.548 0 0 1-1.424-1.516 5.909 5.909 0 0 1-.562-2.113q-.1-1.17-.105-2.342a16.073 16.073 0 0 1 .172-2.388 5.783 5.783 0 0 1 .691-2.045 3.728 3.728 0 0 1 1.481-1.423 5.358 5.358 0 0 1 2.571-.529 5 5 0 0 1 2.263.449 3.418 3.418 0 0 1 1.388 1.263 5.271 5.271 0 0 1 .689 1.974 16.55 16.55 0 0 1 .183 2.584v.712h-6.265zm3.146-4.122a3.251 3.251 0 0 0-.24-.919 1.3 1.3 0 0 0-.484-.573 1.464 1.464 0 0 0-.792-.2 1.344 1.344 0 0 0-.791.219 1.556 1.556 0 0 0-.493.574 2.757 2.757 0 0 0-.265.792 4.773 4.773 0 0 0-.081.872v.483h3.237q-.021-.708-.091-1.248zM79.041 85.606V90.8h.046a3.59 3.59 0 0 1 1.137-1.1 2.985 2.985 0 0 1 1.527-.368 3.111 3.111 0 0 1 2.871 1.529 10.1 10.1 0 0 1 .917 4.971 9.888 9.888 0 0 1-.917 4.937 3.13 3.13 0 0 1-2.871 1.493 3.429 3.429 0 0 1-1.619-.345 3.167 3.167 0 0 1-1.183-1.216H78.9V102h-3.029V85.6zm.31 13.261a1.31 1.31 0 0 0 1.367 1.023 1.3 1.3 0 0 0 1.343-1.023 15.133 15.133 0 0 0 0-6.085 1.3 1.3 0 0 0-1.343-1.022 1.31 1.31 0 0 0-1.367 1.022 15.085 15.085 0 0 0 0 6.085zM91.28 97.364a5.582 5.582 0 0 0 .092 1.045 1.822 1.822 0 0 0 .346.791 1.673 1.673 0 0 0 .677.506 2.693 2.693 0 0 0 1.068.184 2.109 2.109 0 0 0 1.366-.494 1.851 1.851 0 0 0 .61-1.527 2.757 2.757 0 0 0-.15-.954 1.9 1.9 0 0 0-.493-.723 3.506 3.506 0 0 0-.908-.585 13.221 13.221 0 0 0-1.39-.54 11.8 11.8 0 0 1-1.906-.8 5.148 5.148 0 0 1-1.344-1.021 3.668 3.668 0 0 1-.792-1.355 5.716 5.716 0 0 1-.252-1.78 4.586 4.586 0 0 1 1.355-3.628 5.431 5.431 0 0 1 3.721-1.194 8.075 8.075 0 0 1 2.031.24 4.271 4.271 0 0 1 1.609.782 3.667 3.667 0 0 1 1.055 1.377 4.847 4.847 0 0 1 .379 2.009v.46h-3.17a3.3 3.3 0 0 0-.412-1.8 1.523 1.523 0 0 0-1.378-.63 2.292 2.292 0 0 0-.918.161 1.523 1.523 0 0 0-.586.425 1.456 1.456 0 0 0-.3.608 3.1 3.1 0 0 0-.081.712 2.363 2.363 0 0 0 .322 1.274 2.875 2.875 0 0 0 1.377.953l2.55 1.1a7.846 7.846 0 0 1 1.538.861 4.254 4.254 0 0 1 .953.965 3.212 3.212 0 0 1 .493 1.137 6.342 6.342 0 0 1 .139 1.377 4.511 4.511 0 0 1-1.5 3.778 6.621 6.621 0 0 1-4.191 1.183 5.486 5.486 0 0 1-4.007-1.218 4.745 4.745 0 0 1-1.205-3.49v-.665h3.302zM104.646 89.647v1.309h.046a3.493 3.493 0 0 1 1.182-1.252 3.208 3.208 0 0 1 1.621-.379 3.109 3.109 0 0 1 2.869 1.529 10.094 10.094 0 0 1 .918 4.971 9.886 9.886 0 0 1-.918 4.937 3.128 3.128 0 0 1-2.869 1.493 2.925 2.925 0 0 1-2.666-1.4h-.044v5.121h-3.17V89.647zm.448 9.22a1.409 1.409 0 0 0 2.71 0 15.181 15.181 0 0 0 0-6.085 1.409 1.409 0 0 0-2.71 0 15.133 15.133 0 0 0 0 6.085zM117.436 85.606v5.305h.046a3.208 3.208 0 0 1 3.008-1.586 3.121 3.121 0 0 1 2.331.828 3.714 3.714 0 0 1 .815 2.686V102h-3.168v-8.517a2.113 2.113 0 0 0-.322-1.344 1.283 1.283 0 0 0-1.032-.379q-1.675 0-1.678 2.044V102h-3.168V85.6zM129.632 97.294a6.894 6.894 0 0 0 .08 1.069 3.445 3.445 0 0 0 .264.918 1.745 1.745 0 0 0 .481.644 1.144 1.144 0 0 0 .736.24 1.289 1.289 0 0 0 1.171-.573 4.217 4.217 0 0 0 .5-1.747h2.849a4.965 4.965 0 0 1-1.15 3.285 4.373 4.373 0 0 1-3.329 1.125 5.274 5.274 0 0 1-2.686-.574 3.554 3.554 0 0 1-1.424-1.516 5.93 5.93 0 0 1-.563-2.113q-.105-1.17-.1-2.342a16.208 16.208 0 0 1 .172-2.388 5.8 5.8 0 0 1 .69-2.045 3.732 3.732 0 0 1 1.48-1.423 5.364 5.364 0 0 1 2.573-.529 4.991 4.991 0 0 1 2.261.449 3.417 3.417 0 0 1 1.39 1.263 5.342 5.342 0 0 1 .69 1.974 16.8 16.8 0 0 1 .183 2.589v.712h-6.269zm3.146-4.122a3.249 3.249 0 0 0-.242-.919 1.286 1.286 0 0 0-.482-.573 1.463 1.463 0 0 0-.791-.2 1.351 1.351 0 0 0-.793.219 1.558 1.558 0 0 0-.494.574 2.818 2.818 0 0 0-.264.792 4.771 4.771 0 0 0-.08.872v.483h3.237a13.337 13.337 0 0 0-.091-1.248zM141.757 89.647V91.3h.046a4.489 4.489 0 0 1 1.172-1.436 2.638 2.638 0 0 1 1.675-.54c.092 0 .188 0 .286.013s.2.019.287.034V92.4a9.996 9.996 0 0 0-.987-.046 3.047 3.047 0 0 0-.825.115 2.214 2.214 0 0 0-.758.379 1.888 1.888 0 0 0-.552.689 2.358 2.358 0 0 0-.206 1.044V102h-3.17V89.647zM150.253 97.294a6.892 6.892 0 0 0 .081 1.069 3.372 3.372 0 0 0 .264.918 1.724 1.724 0 0 0 .481.644 1.136 1.136 0 0 0 .735.24 1.291 1.291 0 0 0 1.172-.573 4.235 4.235 0 0 0 .5-1.747h2.849a4.959 4.959 0 0 1-1.148 3.285 4.378 4.378 0 0 1-3.331 1.125 5.279 5.279 0 0 1-2.686-.574 3.545 3.545 0 0 1-1.423-1.516 5.868 5.868 0 0 1-.562-2.113q-.1-1.17-.1-2.342a16.21 16.21 0 0 1 .171-2.388 5.8 5.8 0 0 1 .691-2.045 3.734 3.734 0 0 1 1.481-1.423 5.359 5.359 0 0 1 2.572-.529 4.992 4.992 0 0 1 2.262.449 3.412 3.412 0 0 1 1.388 1.263 5.272 5.272 0 0 1 .69 1.974 16.672 16.672 0 0 1 .183 2.584v.712h-6.268zm3.146-4.122a3.25 3.25 0 0 0-.241-.919 1.29 1.29 0 0 0-.484-.573 1.46 1.46 0 0 0-.791-.2 1.34 1.34 0 0 0-.791.219 1.558 1.558 0 0 0-.494.574 2.756 2.756 0 0 0-.264.792 4.773 4.773 0 0 0-.081.872v.483h3.236q-.021-.708-.089-1.248z"/>
    </g>
    <path d="M158.564 99.293a2.3 2.3 0 0 1 1.222-1.222 2.315 2.315 0 0 1 1.79 0 2.3 2.3 0 0 1 1.222 1.222 2.273 2.273 0 0 1-1.222 3 2.4 2.4 0 0 1-1.79 0 2.289 2.289 0 0 1-1.222-3zm.634 1.529a1.622 1.622 0 0 0 .335.524 1.6 1.6 0 0 0 2.3 0 1.622 1.622 0 0 0 .335-.524 1.735 1.735 0 0 0 0-1.268 1.622 1.622 0 0 0-.335-.524 1.6 1.6 0 0 0-2.3 0 1.622 1.622 0 0 0-.335.524 1.721 1.721 0 0 0 0 1.268zm1.551-1.872a1.1 1.1 0 0 1 .718.2.7.7 0 0 1 .235.57.64.64 0 0 1-.176.485.736.736 0 0 1-.437.2l.613 1.021h-.594l-.582-1h-.2v1h-.545V98.95zm-.006 1.05a.678.678 0 0 0 .3-.056c.078-.037.118-.122.118-.253a.274.274 0 0 0-.044-.165.281.281 0 0 0-.114-.089.52.52 0 0 0-.155-.04 1.265 1.265 0 0 0-.158-.01h-.359V100z" fill="#fff"/>
    <path d="M35.407 19.224v3.548h25.229v-3.548zm28.8 0v3.548h35.953a13.69 13.69 0 0 0-8.537-3.548zm43.006 0v3.548h21.751l-1.291-3.548zm37.345 0l-1.291 3.548h21.554v-3.548zm-109.155 6.9v3.546h25.233v-3.547zm28.8 0v3.546h40.125s-.469-2.73-1.286-3.542zm43.006 0v3.546h24.135l-1.194-3.542zm34.763 0l-1.195 3.542h24.04v-3.538zm-99.315 6.897v3.552h10.926v-3.552zm28.8 0v3.552h10.93v-3.552zm21.554 0v3.552h10.926a12.089 12.089 0 0 0 .693-3.552zm21.452 0v3.552h19.371l-1.291-3.552zm25.133 0l-1.3 3.552h19.468v-3.552zm-96.943 6.9v3.547h10.93v-3.543zm28.8 0v3.547h27.916a11.968 11.968 0 0 0 3.078-3.547zm43.006 0v3.547h10.926V41.5l.694 1.975H146.1l.745-1.975v1.975h10.926v-3.55h-20.51l-1.088 3-1.094-3zm-71.81 6.9v3.549h10.934v-3.547zm28.8 0v3.549h30.986a12.055 12.055 0 0 0-3.078-3.547zm43.006 0v3.549h10.926v-3.547zm12.911 0l1.334 3.549h15.007l1.256-3.547zm19.468 0v3.549h10.926v-3.547zm-104.189 6.9v3.547h10.938v-3.546zm28.8 0v3.547h10.942v-3.546zm21.554 0v3.547h11.619a12.063 12.063 0 0 0-.693-3.547zm21.452 0v3.547h10.926v-3.546zm15.392 0l1.281 3.547H141.2l1.291-3.547zm16.987 0v3.547h10.926v-3.546zM35.6 60.62v3.552h25.233V60.62zm28.607 0v3.552h38.843c.817-.813 1.286-3.552 1.286-3.552zm43.2 0v3.552h17.979V60.62zm24.931 0l1.316 3.552h5.119l1.235-3.552zm14.5 0v3.552h18.176V60.62zM35.6 67.523v3.548h25.233v-3.548zm28.607 0v3.543h27.42a13.7 13.7 0 0 0 8.537-3.543zm43.2 0v3.548h17.979v-3.548zm27.427 0l1.266 3.538h.217l1.286-3.543zm12 0v3.548h18.176v-3.548z" fill="#1f70c1"/>
</svg>
