<svg xmlns="http://www.w3.org/2000/svg" width="200" height="128">
    <g fill="#386eba">
        <path d="M20 72.08h9.1v1.3H20z"/>
        <path d="M20 69.58h9.1v1.31H20z"/>
        <path d="M22.6 67.09h3.9v1.3h-3.9z"/>
        <path d="M22.6 64.59h3.9v1.31h-3.9z"/>
        <path d="M22.6 62.1h3.9v1.31h-3.9z"/>
        <path d="M22.6 59.6h3.9v1.31h-3.9z"/>
        <path d="M20 57.11h9.1v1.31H20z"/>
        <path d="M20 54.62h9.1v1.31H20z"/>
        <path d="M30.39 70.89h13.99c.24-.4.41-.84.52-1.31H30.39z"/>
        <path d="M43.3 64.59H33v1.31h11.39c-.3-.5-.66-.94-1.09-1.31"/>
        <path d="M32.99 62.1v1.31h10.3c.44-.37.8-.81 1.09-1.31z"/>
        <path d="M44.39 57.11H30.4v1.31h14.51c-.12-.46-.3-.9-.52-1.31"/>
        <path d="M40.09 54.62H30.4v1.31h13.03a4.9 4.9 0 0 0-3.34-1.31"/>
        <path d="M32.99 59.6h3.9v1.31h-3.9z"/>
        <path d="M40.79 60.91h4.08c.12-.42.18-.86.18-1.31H40.8v1.31Z"/>
        <path d="M32.99 67.09h3.9v1.3h-3.9z"/>
        <path d="M40.79 67.09v1.31h4.25c0-.45-.06-.89-.18-1.31h-4.08Z"/>
        <path d="M30.39 73.37h9.69c1.3.01 2.47-.49 3.35-1.29H30.39z"/>
        <path d="M45.99 72.08h6.5v1.3h-6.5z"/>
        <path d="M45.99 69.58h6.5v1.31h-6.5z"/>
        <path d="M48.59 67.09h3.9v1.3h-3.9z"/>
        <path d="M48.59 64.59h3.9v1.31h-3.9z"/>
        <path d="M54.3 57.11h-8.31v1.31h8.76z"/>
        <path d="M53.44 54.62h-7.45v1.3h7.9z"/>
        <path d="M60.29 72.08h6.5v1.3h-6.5z"/>
        <path d="M60.29 69.58h6.5v1.31h-6.5z"/>
        <path d="M60.29 67.09h3.9v1.3h-3.9z"/>
        <path d="M60.29 64.59h3.9v1.31h-3.9z"/>
        <path d="M60.29 63.41h3.9V62.1h-7.44l-.36 1.06-.37-1.06h-7.43v1.31h3.9v-1.2l.41 1.2h6.97l.42-1.2z"/>
        <path d="M64.19 59.6h-6.57l-.45 1.31h7.02z"/>
        <path d="m59.35 54.62-.45 1.3h7.89v-1.3z"/>
        <path d="m56.39 73.37.45-1.29h-.9z"/>
        <path d="M55.53 70.89h1.72l.46-1.31h-2.64z"/>
        <path d="M54.65 68.39h3.48l.46-1.3h-4.4z"/>
        <path d="M53.78 65.9H59l.45-1.31h-6.12z"/>
        <path d="M48.59 60.91h7.02l-.45-1.31h-6.57z"/>
        <path d="M58.03 58.42h8.76v-1.31h-8.31z"/>
    </g>
    <path d="M85.78 70.89H84v-6.22h-6.79v6.22h-1.78V57.43h1.78v5.79H84v-5.79h1.78z"/>
    <path d="M97.97 58.88h-4.33v12.01h-1.77V58.88h-4.32v-1.45h10.41v1.45Z"/>
    <path d="M109.42 58.88h-4.33v12.01h-1.77V58.88H99v-1.45h10.41v1.45Z"/>
    <path d="M113.19 65.62v5.27h-1.78V57.43h4.97c1.47 0 2.63.38 3.46 1.13s1.25 1.75 1.25 2.99c0 1.31-.41 2.31-1.23 3.02s-1.99 1.06-3.51 1.06h-3.17Zm0-1.45h3.19c.95 0 1.68-.22 2.18-.67s.76-1.09.76-1.94-.25-1.45-.76-1.93-1.2-.73-2.08-.75h-3.29z"/>
    <path d="M132.02 64.89c-1.52-.44-2.63-.98-3.32-1.61-.69-.64-1.04-1.43-1.04-2.36 0-1.06.42-1.94 1.27-2.63s1.95-1.04 3.31-1.04c.92 0 1.75.18 2.47.54s1.29.85 1.68 1.48c.4.63.6 1.32.6 2.06h-1.78q0-1.23-.78-1.92c-.52-.47-1.25-.7-2.19-.7-.88 0-1.56.19-2.05.58s-.73.92-.73 1.61c0 .55.23 1.01.7 1.39s1.26.73 2.38 1.04 1.99.66 2.63 1.04c.63.38 1.1.82 1.41 1.33.3.51.46 1.1.46 1.79 0 1.09-.43 1.96-1.28 2.62s-1.99.98-3.41.98c-.92 0-1.79-.18-2.59-.53s-1.42-.84-1.85-1.46-.65-1.32-.65-2.1h1.78c0 .81.3 1.46.9 1.93s1.4.71 2.41.71c.94 0 1.66-.19 2.15-.57q.75-.57.75-1.56c0-.99-.23-1.17-.69-1.53s-1.3-.72-2.52-1.07Z"/>
    <path d="M143.17 71.07c-1.36 0-2.46-.45-3.31-1.34s-1.28-2.08-1.28-3.57v-.31c0-.99.19-1.88.57-2.66q.57-1.17 1.59-1.83c1.02-.66 1.42-.66 2.21-.66q1.95 0 3.03 1.29c1.08 1.29 1.08 2.08 1.08 3.68v.71h-6.78c.02.99.31 1.78.86 2.39s1.25.91 2.1.91c.6 0 1.12-.12 1.54-.37s.79-.57 1.1-.98l1.04.81c-.84 1.29-2.1 1.93-3.77 1.93Zm-.22-8.97q-1.035 0-1.74.75c-.47.5-.76 1.21-.87 2.11h5.01v-.13c-.05-.87-.28-1.54-.7-2.02s-.99-.72-1.7-.72Z"/>
    <path d="M153.88 62.42q-.39-.06-.84-.06c-1.12 0-1.88.48-2.28 1.43v7.1h-1.71v-10h1.66l.03 1.16c.56-.89 1.36-1.34 2.39-1.34.33 0 .59.04.76.13v1.59Z"/>
    <path d="m158.92 68.57 2.48-7.68h1.75l-3.59 10h-1.3l-3.62-10h1.75l2.54 7.68Z"/>
    <path d="M168.95 71.07c-1.36 0-2.46-.45-3.31-1.34s-1.28-2.08-1.28-3.57v-.31c0-.99.19-1.88.57-2.66q.57-1.17 1.59-1.83c1.02-.66 1.42-.66 2.21-.66q1.95 0 3.03 1.29c1.08 1.29 1.08 2.08 1.08 3.68v.71h-6.78c.02.99.31 1.78.86 2.39s1.25.91 2.1.91c.6 0 1.12-.12 1.54-.37s.79-.57 1.1-.98l1.04.81c-.84 1.29-2.1 1.93-3.77 1.93Zm-.22-8.97q-1.035 0-1.74.75c-.47.5-.76 1.21-.87 2.11h5.01v-.13c-.05-.87-.28-1.54-.7-2.02s-.99-.72-1.7-.72Z"/>
    <path d="M179.66 62.42q-.39-.06-.84-.06c-1.12 0-1.88.48-2.28 1.43v7.1h-1.71v-10h1.66l.03 1.16c.56-.89 1.36-1.34 2.39-1.34.33 0 .59.04.76.13v1.59Z"/>
</svg>
