<svg xmlns="http://www.w3.org/2000/svg" width="200" height="128">
    <path d="M80 109h40a25 25 0 0 0 25-25V44a25 25 0 0 0-25-25H80a25 25 0 0 0-25 25v40a25 25 0 0 0 25 25z" fill="#eceff1"/>
    <path d="M73.871 50.838a1.912 1.912 0 1 1-1.922-1.9 1.915 1.915 0 0 1 1.922 1.9z" fill="#ffc107"/>
    <path d="M79.948 58.526L83.565 57a9.1 9.1 0 0 1 8.325-4.81 10.466 10.466 0 0 1 2.41.281l3.432-1.442A12.905 12.905 0 0 0 91.89 49.7a11.827 11.827 0 0 0-11.942 8.823zM73.245 61.365v-3.927h-2.561v5.007l2.561-1.08z" fill="#ff5722"/>
    <path fill="#f44336" d="M73.245 68.342v-6.977l-2.561 1.08v6.965l2.561-1.068zM81.858 64.374A15.031 15.031 0 0 1 83.565 57l-3.617 1.529a20.123 20.123 0 0 0-.826 5.848c0 .5.065.958.094 1.436l2.662-1.126c0-.113-.02-.206-.02-.31zM116.058 50.248a9.5 9.5 0 0 0-1.939.823zM97.732 51.026L94.3 52.468a8.879 8.879 0 0 1 5.878 4.49l2.56-1.087a11.254 11.254 0 0 0-5.006-4.845z"/>
    <path fill="#e91e63" d="M73.245 75.297v-6.955l-2.561 1.068v6.974l2.561-1.087zM116.058 50.248l-1.939.823a7.236 7.236 0 0 0-3.948 6.442 7.473 7.473 0 0 0 .3 2.061l2.58-1.087a3.658 3.658 0 0 1-.141-1.048c0-3.068 2.793-5.3 6.835-5.3a8.094 8.094 0 0 1 4.894 1.461l2.613-1.116a10.431 10.431 0 0 0-7.423-2.784 12.794 12.794 0 0 0-3.77.545zM81.878 64.684l-2.662 1.126a17.5 17.5 0 0 0 1.5 6.338l2.5-1.061a15.623 15.623 0 0 1-1.341-6.4zM102.738 55.871l-2.56 1.087a14.571 14.571 0 0 1 1.641 6.274l2.652-1.116a16.8 16.8 0 0 0-1.733-6.245z"/>
    <path d="M104.022 69.278a20.671 20.671 0 0 0 .61-4.9c0-.8-.094-1.526-.161-2.268l-2.652 1.126c.019.374.075.739.075 1.142a16.186 16.186 0 0 1-1.2 6.31zM83.219 71.087l-2.5 1.061a11.615 11.615 0 0 0 4.442 5.1l3.139-1.332a9.149 9.149 0 0 1-5.081-4.829zM73.245 75.297l-2.561 1.087v2.09h2.561v-3.177zM113.051 58.487l-2.58 1.087c.61 2.168 2.278 3.684 5.316 4.726l4-1.687-.842-.216c-3.648-.91-5.429-2.081-5.9-3.91zM126.794 57.184h2.7a7.208 7.208 0 0 0-2.242-4.7l-2.614 1.107a5.325 5.325 0 0 1 2.156 3.59z" fill="#9c27b0"/>
    <path d="M104.022 69.278l-3.328 1.406a9.151 9.151 0 0 1-8.8 5.9 10.055 10.055 0 0 1-3.59-.665l-3.142 1.332a12.811 12.811 0 0 0 6.732 1.807c6.365 0 10.659-3.71 12.132-9.777zM112.074 71.152h-2.7a7.685 7.685 0 0 0 .668 2.542l2.464-1.042a4.8 4.8 0 0 1-.432-1.5zM121.742 63.1l-1.961-.487-3.994 1.687q.886.309 1.913.562l3.216.816a12.8 12.8 0 0 1 4.152 1.677l3.01-1.274c-1.323-1.294-3.384-2.249-6.336-2.981z" fill="#3f51b5"/>
    <path d="M112.506 72.662l-2.464 1.038a8.614 8.614 0 0 0 5.409 4.678l4.227-1.781c-3.449-.084-6.14-1.613-7.171-3.938zM129.784 72.335a8.72 8.72 0 0 0 .161-1.5 6.278 6.278 0 0 0-1.867-4.754l-3.01 1.274a4.331 4.331 0 0 1 2.138 3.771 4.549 4.549 0 0 1-.871 2.661z" fill="#03a9f4"/>
    <path d="M129.784 72.335l-3.449 1.452a7.561 7.561 0 0 1-6.377 2.832 2.633 2.633 0 0 1-.28-.019l-4.227 1.781a13.372 13.372 0 0 0 4.275.674c5.522 0 9.309-2.642 10.058-6.72z" fill="#009688"/>
</svg>
