<svg xmlns="http://www.w3.org/2000/svg" width="200" height="128">
    <path fill="#f7df1e" d="M55 19h90v90H55z"/>
    <path d="M115.457 89.314c1.814 2.957 4.172 5.143 8.343 5.143 3.5 0 5.743-1.757 5.743-4.171 0-2.9-2.3-3.929-6.157-5.615l-2.115-.914c-6.1-2.6-10.157-5.857-10.157-12.743 0-6.343 4.829-11.171 12.386-11.171 5.371 0 9.243 1.871 12.029 6.771l-6.586 4.229c-1.443-2.6-3.014-3.629-5.443-3.629-2.471 0-4.043 1.572-4.043 3.629 0 2.543 1.572 3.571 5.2 5.143l2.114.9c7.186 3.085 11.243 6.228 11.243 13.285 0 7.615-5.985 11.786-14.014 11.786-7.857 0-12.929-3.743-15.414-8.643zm-29.871.729c1.328 2.357 2.543 4.357 5.443 4.357 2.785 0 4.528-1.086 4.528-5.314V60.329h8.457V89.2c0 8.757-5.128 12.743-12.628 12.743-6.772 0-10.7-3.5-12.686-7.729z"/>
</svg>
