<svg xmlns="http://www.w3.org/2000/svg" width="128" height="128">
    <path d="M69.954 61.206c6.175 7.095-1.618 13.5-1.618 13.5s15.674-8.095 8.472-18.222c-6.72-9.46-11.884-14.151 16.035-30.342 0 0-43.817 10.945-22.889 35.067" fill="#f8971d"/>
    <path d="M76.809 0s13.3 13.3-12.614 33.76c-20.78 16.409-4.74 25.77-.012 36.459C52.056 59.278 43.155 49.64 49.127 40.667 57.888 27.509 82.177 21.132 76.809 0" fill="#f8971d"/>
    <path d="M47.2 98.991s-4.89 2.836 3.482 3.8c10.143 1.157 15.335.989 26.505-1.123a46.06 46.06 0 0 0 7.045 3.428c-25.064 10.751-56.716-.614-37.032-6.108M44.142 84.976s-5.491 4.057 2.892 4.924c10.834 1.112 19.4 1.2 34.2-1.644a15.124 15.124 0 0 0 5.266 3.211c-30.294 8.864-64.04.7-42.358-6.491" fill="#58839f"/>
    <path d="M103.1 109.356s3.618 2.976-3.994 5.289c-14.458 4.374-60.2 5.7-72.9.177-4.572-1.993 4-4.743 6.687-5.324a17.943 17.943 0 0 1 4.418-.5c-5.08-3.58-32.835 7.028-14.1 10.06 51.088 8.285 93.127-3.725 79.882-9.7M49.552 70.457s-23.264 5.519-8.235 7.531c6.34.847 18.991.648 30.772-.335 9.63-.811 19.3-2.538 19.3-2.538a40.92 40.92 0 0 0-5.854 3.127c-23.624 6.218-69.257 3.326-56.118-3.026 11.108-5.368 20.14-4.759 20.14-4.759M91.287 93.777C115.3 81.3 104.2 69.3 96.445 70.924a18.383 18.383 0 0 0-2.744.738 4.4 4.4 0 0 1 2.052-1.584c15.333-5.388 27.125 15.894-4.949 24.328a2.132 2.132 0 0 0 .483-.629" fill="#58839f"/>
    <path d="M51.914 127.6c23.051 1.47 58.451-.824 59.289-11.734 0 0-1.612 4.131-19.047 7.422-19.678 3.7-43.948 3.267-58.336.892 0 0 2.945 2.442 18.094 3.42" fill="#58839f"/>
</svg>
