<svg xmlns="http://www.w3.org/2000/svg" width="120" height="60">
    <path fill="#4293a1" d="M85.67 31.1h11.11l.05.06v11.15l-.05.05H85.67l-.06-.05V31.16z"/>
    <path fill="#d3722b" d="M110 18.08V29.3h-5.7v-5.54l-.05-.05h-5.54v-5.66h11.2s.05.05.09.04Z"/>
    <path fill="#8caf4a" d="M103.36 35.87h-5.5l-.05-.05v-5.59l-.05-.05h-5.59l-.05-.05v-5.41s.08-.09.09-.09h11.11l.05.05v11.2Z"/>
    <path fill="#010101" d="M76.34 25.55H65.25c-.09.18-.06.49-.06.7.08 1.84.57 3.9 2.35 4.8 1.62.82 4.39.8 6.06.14.65-.25 1.21-.66 1.79-1.03.03 0 .05.02.07.03.06.05.54.69.61.8.02.03.04.06.05.09v.05c-.76.59-1.65 1.07-2.56 1.35-2.05.63-5.29.58-7.15-.59s-2.39-3.31-2.51-5.32c-.15-2.75.05-6.4 2.69-7.95 1.87-1.09 5.48-1.22 7.37-.17 2.49 1.39 2.4 4.6 2.38 7.09Zm-11.06-1.23h9.7c.05-.03.05-.07.06-.12.05-.4-.09-1.37-.15-1.8-.45-3.05-2.57-3.67-5.39-3.38s-4.13 2.23-4.28 4.99c0 .07-.02.29.06.31m-13.22 3.25v4.96l-.05.05h-1.28V18.17l.12-.06c2.35.1 4.8-.12 7.15 0 2.65.14 4.25 1.5 4.38 4.2.16 3.15-1.26 5.08-4.49 5.25h-5.83Zm0-1.34h6.04c1.81-.17 2.8-1.24 2.9-3.05.14-2.47-1.02-3.66-3.45-3.77h-5.5v6.82Zm-33.35-8.15-.06.12c.07 3.2-.1 6.44.04 9.63.07 1.59.22 3.12 1.63 4.1 1.77 1.23 6.44 1.24 8.29.19s1.82-2.88 1.87-4.73c.1-3.06 0-6.13.04-9.2l-.06-.12h-1.23s-.06.04-.08.04v10.26c-.05 3.03-2.84 3.36-5.26 3.23-2.53-.14-3.76-1.01-3.88-3.63-.15-3.22.11-6.55 0-9.78l-.06-.12h-1.26Zm25.85 4.35c-.11-1.6-.46-3.06-1.96-3.88-1.82-1-6.02-1.01-7.86-.06s-1.96 2.92-2.01 4.8v9.29h1.34v-9.76c.06-1.45.28-2.72 1.74-3.34s4.55-.59 5.94.17c1.47.8 1.43 2.35 1.48 3.82v9.11h1.33V22.42Zm2.49 19.93h1.3v-4.49c0-.06.09-.35.12-.42.37-.8 1.63-.75 1.96.06.04.1.12.43.12.53v4.26l.05.05h1.19l.05-.05v-4.55s.13-.34.16-.38c.37-.62 1.36-.67 1.79-.08.15.2.25.59.25.83v4.18l.05.05h1.15l.05-.05v-4.65c0-.11-.15-.57-.2-.7-.6-1.47-2.7-1.69-3.73-.56-.07.08-.14.27-.23.24-.49-.83-1.47-1.06-2.37-.89-1.03.19-1.64 1.06-1.72 2.06v4.56ZM15.1 18.08l-.06.12v12.95c-.09 1.77-.79 2.77-2.56 3.14-.79.17-1.51.1-2.29.16-.07 0-.13.02-.2.04v1.19c.59.06 1.23.05 1.82 0 1.1-.1 2.46-.38 3.3-1.14 1.17-1.04 1.22-2.69 1.3-4.15V18.11s-.07-.04-.09-.04c-.35-.06-.86.04-1.23 0Zm66.68-.1c-2.55.49-3.4 1.95-3.53 4.44v10.16h1.34V22.5c.07-1.55.53-2.65 2.08-3.14 1.17-.37 2.55-.32 3.76-.23v-1.26c-1.19-.11-2.47-.11-3.65.12Zm-6.66 24.38h-1.3v-1.93l-.05-.05h-2.54v1.93l-.05.05h-1.24v-4.2c.1-1.59 1-2.47 2.62-2.47s2.48.9 2.58 2.47v4.2Zm-3.9-4.31c-.03.34.03.73 0 1.08l.05.05h2.49l.05-.05v-1.08c0-.57-.46-1.09-1.03-1.14-.85-.08-1.48.22-1.57 1.14Zm-22.93-5.47.05-.05V18.17l-.05-.05h-1.23l-.05.05v14.41zm11.03 6.02c-.15 1.06.33 1.53 1.32 1.73.33.07 1.41.07 1.49.46.13.68-1.03.76-1.45.51-.2-.12-.2-.26-.33-.42h-1.08c-.1 0-.02.34 0 .4.42 1.6 3.67 1.63 4.06-.07.2-.89-.22-1.48-1.07-1.72-.41-.11-1.17-.11-1.49-.28s-.31-.52-.02-.73c.4-.29 1.19-.19 1.35.34h1.17c-.05-1.99-3.66-2.05-3.92-.23Zm17.02-1.85.05.05h.87v4.51h-.87l-.05.05v.94l.05.05h3.14l.05-.05v-.9s-.08-.09-.09-.09h-.87l-.05-.05v-4.4l.05-.05h.9l.05-.05v-.9l-.05-.05h-3.19v.96Zm-11.69-.92v1.53l-.05.05h-.54c-.05.03-.05.07-.06.12-.01.11-.01.82.02.89.07.14.47-.03.63.07v2.29c0 .77.82 1.68 1.61 1.68h.78v-1.08c-.38 0-.86-.01-1.07-.39a1.7 1.7 0 0 1-.12-.42v-2.06c.03-.05.07-.05.12-.06.2-.02.52 0 .72 0 .06 0 .31.08.31-.02V37.4h-1.1l-.05-.05v-1.53h-1.19ZM44.4 39.58l-.05.05v1.59c0 .12-.21.39-.31.45-.31.2-.79.11-.97-.22-.02-.03-.09-.22-.09-.23v-1.59l-.05-.05h-.63v1.75c0 .07.11.35.15.43.36.73 1.36.9 1.91.28.12.68-.31 1.2-1.01.96-.23-.08-.23-.23-.34-.31-.07-.05-.61-.06-.65 0-.03.24.2.53.38.67.54.43 1.62.38 2.06-.18.07-.09.25-.45.25-.54v-3.05h-.63Zm-23.43.29v-1.52h.63l.05.05v2.78c0 .99-1.23 1.46-2.07 1.16-1.71-.6-.87-3.41.9-2.78.19.07.31.22.48.3Zm-1.02.3c-.84.14-.8 1.61.18 1.65 1.15.04 1.15-1.87-.18-1.65m19.38-.26c1.11-1.01 2.6.02 2.26 1.45s-2.41 1.46-2.86.21c-.01-.04-.09-.29-.09-.31v-2.85l.05-.05h.58l.05.05v1.5Zm.6.26c-.87.15-.81 1.66.21 1.65 1.12 0 1.08-1.87-.21-1.65m16.84-2.75-.05.05v4.83l.05.05h1.08l.05-.05v-4.89h-1.14Zm-23.68 4.15c-.11.48-.66.83-1.14.87-2.33.2-2.28-3.12-.04-2.92.7.06 1.23.6 1.31 1.29.01.12.05.31-.04.4h-2.16l-.05.08c.19.57.8.66 1.29.4.04-.02.12-.12.13-.12zm-.62-.91c-.16-.7-1.34-.74-1.48 0zm4.15-.05s-.11-.36-.13-.41c-.39-.89-1.94-.93-2.43-.12-.04.07-.19.41-.19.46v1.82h.65v-1.5s.07-.28.08-.31c.19-.48.94-.55 1.21-.11.03.05.11.25.11.28v1.64h.69v-1.75Zm-9.7-1.03 1.1 2.78.79-.04 1.06-2.74h-.72l-.78 2.06-.74-2.06h-.72Zm-3.45-.07c-.37.03-.71.18-.89.52-.04.07-.17.39-.17.44v1.89h.69v-1.71c0-.13.08-.31.19-.39.4-.29.99-.02.89.51h.69c.01-.88-.52-1.33-1.39-1.26Zm2.1.07-.05.05v2.72h.69v-2.78h-.63Zm31.2-3.79-.05.05v1.06h1.19v-1.12h-1.14Zm42.26 5.92c.11-.02.06.03.08.08.06.19.07.59.3.57.14-.02.17-.44.2-.56.01-.05 0-.11.07-.13v.63c0 .07.22.07.22 0v-1.06c-.51-.11-.35.3-.52.61l-.2-.61-.34.03v1.03c.02.08.13.06.2.06v-.65Zm-73.46-3.17-.05.05v.58l.05.05h.63v-.69h-.63Zm72.24 2.7v.18s.28-.05.32.05v.83c0 .07.25.07.25 0v-.83c.04-.1.3-.03.32-.05v-.18h-.9Z"/>
</svg>
