<svg xmlns="http://www.w3.org/2000/svg" width="128" height="128">
  <path d="m68.01,128h-8c-.32-.07-.64-.16-.96-.22-3.68-.61-7.4-1.04-11.03-1.87-4.46-1.02-8.74-2.62-12.76-4.85,0-1.33.02-2.66.02-3.99,0-8.32-.01-16.64.01-24.96,0-.55.32-1.1.49-1.65-.09.35-.27.69-.27,1.04-.03,3.54-.05,7.08,0,10.62,0,.46.42,1.09.83,1.32,1.08.6,2.23,1.14,3.42,1.51,10.65,3.41,21.44,3.86,32.24.97,7.08-1.89,12.69-5.97,16.34-12.46,2.88-5.13,3.78-10.73,3.59-16.52-.42-12.35-7.53-21.08-19.45-23.84-6.05-1.4-12.14-1.24-18.24-.22-1.04.17-2.08.3-3.25.46.06-.83.09-1.41.14-1.99.54-5.93,1.09-11.86,1.62-17.79.15-1.72.11-1.74,1.81-1.74,9.66,0,19.33,0,28.99,0,.46,0,.92-.02,1.37-.01.63.01.92-.29.92-.91,0-3.5,0-7,0-10.5,0-.67-.3-1-.98-1-.37,0-.75-.02-1.12-.02-13.83,0-27.66,0-41.48,0-.58,0-1.16.08-1.74.12.78-.09,1.55-.27,2.33-.27,13.61-.02,27.23-.01,40.84-.01,1.91,0,2.05-.15,2.06-2.07,0-4.37,0-8.74,0-13.12.75.24,1.53.41,2.25.72,20.08,8.61,32.89,23.49,38.24,44.68.89,3.52,1.18,7.2,1.75,10.8v7.75c-.28,2.14-.49,4.29-.86,6.41-2.44,14.35-8.98,26.53-19.61,36.46-9.21,8.59-20.06,13.99-32.48,16.14-2.33.4-4.68.66-7.03.98Z" fill="#00a45b" stroke-width="0"/>
  <path d="m35.25,121.06c-4.57-2.11-8.69-4.92-12.49-8.18C10.97,102.78,3.57,90.09.99,74.77c-2.87-17.03.55-32.84,10.39-47.04C21.28,13.41,34.92,4.55,52.01,1.17c11.11-2.2,22.03-1.25,32.72,2.43.35.12.68.31,1.02.46,0,4.37,0,8.74,0,13.12,0,1.92-.15,2.07-2.06,2.07-13.61,0-27.23,0-40.84.01-.78,0-1.55.17-2.33.27-.08,1.2-.15,2.41-.25,3.61-.63,8.09-1.26,16.19-1.9,24.28-.36,4.52-.74,9.05-1.04,13.58-.03.43.26,1.08.61,1.31,1.6,1.05,3.26,2.01,4.94,2.93.4.22.96.29,1.42.22,2.18-.32,4.35-.74,6.53-1.08,5.19-.81,10.37-.91,15.5.4,5.64,1.44,9.64,4.67,10.8,10.65.3,1.54.37,3.14.37,4.72-.02,7.91-4.37,13.32-12.1,15.11-4.61,1.07-9.26.96-13.9.24-5.51-.85-10.83-2.28-15.72-5.05-.17.55-.49,1.1-.49,1.65-.03,8.32-.02,16.64-.01,24.96,0,1.33-.01,2.66-.02,3.99Z" fill="#ee4442" stroke-width="0"/>
</svg>