<svg width="153" height="32" viewBox="0 0 153 32" fill="none" xmlns="http://www.w3.org/2000/svg">
<path fill-rule="evenodd" clip-rule="evenodd" d="M9.30573 17.9825C9.30573 15.8214 11.0416 14.0695 13.1831 14.0695C15.3246 14.0695 17.0605 15.8214 17.0605 17.9825C17.0605 20.1437 15.3246 21.8956 13.1831 21.8956C11.0416 21.8956 9.30573 20.1437 9.30573 17.9825ZM4.65305 17.9825C4.65305 22.7372 8.47209 26.5913 13.1831 26.5913C17.8944 26.5913 21.7134 22.7372 21.7134 17.9825C21.7134 13.2282 17.8944 9.37405 13.1831 9.37405C8.47209 9.37405 4.65305 13.2282 4.65305 17.9825Z" fill="#FE2020"/>
<path fill-rule="evenodd" clip-rule="evenodd" d="M13.183 4.67813V9.37389C8.472 9.37389 4.65296 13.2284 4.65296 17.9827C4.65296 22.737 8.472 26.5915 13.183 26.5915C17.8943 26.5915 21.7133 22.737 21.7133 17.9827H26.3663C26.3663 25.3302 20.4638 31.2869 13.183 31.2869C5.90218 31.2869 0 25.3302 0 17.9827C0 10.6349 5.90218 4.67813 13.183 4.67813Z" fill="#2EE5AC"/>
<path fill-rule="evenodd" clip-rule="evenodd" d="M13.183 4.67813V0.784725C13.183 0.339247 13.5518 -0.0188522 13.9926 0.000769654C23.1992 0.415895 30.5897 7.87466 31.0007 17.1653C31.0208 17.6108 30.6659 17.9827 30.2245 17.9827H26.3663C26.3663 10.6349 20.4641 4.67813 13.183 4.67813Z" fill="#2EE5AC"/>
<path fill-rule="evenodd" clip-rule="evenodd" d="M13.183 9.37401V4.67825C20.4641 4.67825 26.3663 10.6347 26.3663 17.9825H21.7133C21.7133 13.2282 17.8943 9.37401 13.183 9.37401Z" fill="#6363F6"/>
<path fill-rule="evenodd" clip-rule="evenodd" d="M13.183 21.8955C15.3245 21.8955 17.0607 20.1436 17.0607 17.9824C17.0607 15.8213 15.3245 14.0697 13.183 14.0697C11.0415 14.0697 9.30563 15.8213 9.30563 17.9824C9.30563 20.1436 11.0415 21.8955 13.183 21.8955Z" fill="#0A0A0A"/>
<path d="M50.4655 24.6435H46.9675L41.4675 17.4275V24.6435H38.4315V9.24346H41.4675V16.0415L46.7475 9.24346H50.2455L44.5475 16.7235L50.4655 24.6435ZM59.2064 13.6435H62.0444V24.6435H59.2064V23.3455C58.3557 24.4161 57.1604 24.9515 55.6204 24.9515C54.1537 24.9515 52.8924 24.3941 51.8364 23.2795C50.7951 22.1501 50.2744 20.7715 50.2744 19.1435C50.2744 17.5155 50.7951 16.1441 51.8364 15.0295C52.8924 13.9001 54.1537 13.3355 55.6204 13.3355C57.1604 13.3355 58.3557 13.8708 59.2064 14.9415V13.6435ZM53.9704 21.3875C54.5424 21.9595 55.2684 22.2455 56.1484 22.2455C57.0284 22.2455 57.7544 21.9595 58.3264 21.3875C58.9131 20.8008 59.2064 20.0528 59.2064 19.1435C59.2064 18.2341 58.9131 17.4935 58.3264 16.9215C57.7544 16.3348 57.0284 16.0415 56.1484 16.0415C55.2684 16.0415 54.5424 16.3348 53.9704 16.9215C53.3984 17.4935 53.1124 18.2341 53.1124 19.1435C53.1124 20.0528 53.3984 20.8008 53.9704 21.3875ZM76.7839 13.3355C78.0452 13.3355 79.0499 13.7461 79.7979 14.5675C80.5606 15.3888 80.9419 16.4888 80.9419 17.8675V24.6435H78.1039V18.0655C78.1039 17.4055 77.9426 16.8921 77.6199 16.5255C77.2972 16.1588 76.8426 15.9755 76.2559 15.9755C75.6106 15.9755 75.1046 16.1881 74.7379 16.6135C74.3859 17.0388 74.2099 17.6548 74.2099 18.4615V24.6435H71.3719V18.0655C71.3719 17.4055 71.2106 16.8921 70.8879 16.5255C70.5652 16.1588 70.1106 15.9755 69.5239 15.9755C68.8932 15.9755 68.3872 16.1881 68.0059 16.6135C67.6392 17.0388 67.4559 17.6548 67.4559 18.4615V24.6435H64.6179V13.6435H67.4559V14.8095C68.1159 13.8268 69.1352 13.3355 70.5139 13.3355C71.8632 13.3355 72.8606 13.8635 73.5059 14.9195C74.2392 13.8635 75.3319 13.3355 76.7839 13.3355ZM85.7503 20.3095C86.1316 21.6881 87.1656 22.3775 88.8523 22.3775C89.9376 22.3775 90.7589 22.0108 91.3163 21.2775L93.6043 22.5975C92.5189 24.1668 90.9203 24.9515 88.8083 24.9515C86.9896 24.9515 85.5303 24.4015 84.4303 23.3015C83.3303 22.2015 82.7803 20.8155 82.7803 19.1435C82.7803 17.4861 83.3229 16.1075 84.4083 15.0075C85.4936 13.8928 86.8869 13.3355 88.5883 13.3355C90.2016 13.3355 91.5289 13.8928 92.5703 15.0075C93.6263 16.1221 94.1543 17.5008 94.1543 19.1435C94.1543 19.5101 94.1176 19.8988 94.0443 20.3095H85.7503ZM85.7063 18.1095H91.3163C91.1549 17.3615 90.8176 16.8041 90.3043 16.4375C89.8056 16.0708 89.2336 15.8875 88.5883 15.8875C87.8256 15.8875 87.1949 16.0855 86.6963 16.4815C86.1976 16.8628 85.8676 17.4055 85.7063 18.1095ZM96.1355 24.6435V8.58346H98.9735V24.6435H96.1355ZM103.969 20.3095C104.35 21.6881 105.384 22.3775 107.071 22.3775C108.156 22.3775 108.978 22.0108 109.535 21.2775L111.823 22.5975C110.738 24.1668 109.139 24.9515 107.027 24.9515C105.208 24.9515 103.749 24.4015 102.649 23.3015C101.549 22.2015 100.999 20.8155 100.999 19.1435C100.999 17.4861 101.542 16.1075 102.627 15.0075C103.712 13.8928 105.106 13.3355 106.807 13.3355C108.42 13.3355 109.748 13.8928 110.789 15.0075C111.845 16.1221 112.373 17.5008 112.373 19.1435C112.373 19.5101 112.336 19.8988 112.263 20.3095H103.969ZM103.925 18.1095H109.535C109.374 17.3615 109.036 16.8041 108.523 16.4375C108.024 16.0708 107.452 15.8875 106.807 15.8875C106.044 15.8875 105.414 16.0855 104.915 16.4815C104.416 16.8628 104.086 17.4055 103.925 18.1095ZM123.64 23.2795C122.511 24.3941 121.132 24.9515 119.504 24.9515C117.876 24.9515 116.498 24.3941 115.368 23.2795C114.254 22.1501 113.696 20.7715 113.696 19.1435C113.696 17.5155 114.254 16.1441 115.368 15.0295C116.498 13.9001 117.876 13.3355 119.504 13.3355C121.132 13.3355 122.511 13.9001 123.64 15.0295C124.77 16.1441 125.334 17.5155 125.334 19.1435C125.334 20.7715 124.77 22.1501 123.64 23.2795ZM117.37 21.3215C117.942 21.8935 118.654 22.1795 119.504 22.1795C120.355 22.1795 121.066 21.8935 121.638 21.3215C122.21 20.7495 122.496 20.0235 122.496 19.1435C122.496 18.2635 122.21 17.5375 121.638 16.9655C121.066 16.3935 120.355 16.1075 119.504 16.1075C118.654 16.1075 117.942 16.3935 117.37 16.9655C116.813 17.5375 116.534 18.2635 116.534 19.1435C116.534 20.0235 116.813 20.7495 117.37 21.3215ZM136.703 23.2795C135.573 24.3941 134.195 24.9515 132.567 24.9515C130.939 24.9515 129.56 24.3941 128.431 23.2795C127.316 22.1501 126.759 20.7715 126.759 19.1435C126.759 17.5155 127.316 16.1441 128.431 15.0295C129.56 13.9001 130.939 13.3355 132.567 13.3355C134.195 13.3355 135.573 13.9001 136.703 15.0295C137.832 16.1441 138.397 17.5155 138.397 19.1435C138.397 20.7715 137.832 22.1501 136.703 23.2795ZM130.433 21.3215C131.005 21.8935 131.716 22.1795 132.567 22.1795C133.417 22.1795 134.129 21.8935 134.701 21.3215C135.273 20.7495 135.559 20.0235 135.559 19.1435C135.559 18.2635 135.273 17.5375 134.701 16.9655C134.129 16.3935 133.417 16.1075 132.567 16.1075C131.716 16.1075 131.005 16.3935 130.433 16.9655C129.875 17.5375 129.597 18.2635 129.597 19.1435C129.597 20.0235 129.875 20.7495 130.433 21.3215ZM146.509 13.3355C147.712 13.3355 148.702 13.7388 149.479 14.5455C150.271 15.3521 150.667 16.4668 150.667 17.8895V24.6435H147.829V18.2415C147.829 17.5081 147.631 16.9508 147.235 16.5695C146.839 16.1735 146.311 15.9755 145.651 15.9755C144.918 15.9755 144.331 16.2028 143.891 16.6575C143.451 17.1121 143.231 17.7941 143.231 18.7035V24.6435H140.393V13.6435H143.231V14.8755C143.921 13.8488 145.013 13.3355 146.509 13.3355Z" fill="#0A0A0A"/>
</svg>
