<svg xmlns="http://www.w3.org/2000/svg" width="200" height="128" xmlns:xlink="http://www.w3.org/1999/xlink">
  <defs>
    <radialGradient id="b" cx="210.64" cy="127.82" fx="210.64" fy="127.82" r="1.53" gradientTransform="translate(5007.82 -2960.22) rotate(-180) scale(23.51 -23.51)" gradientUnits="userSpaceOnUse">
      <stop offset="0" stop-color="#e44857"/>
      <stop offset=".5" stop-color="#c711e1"/>
      <stop offset="1" stop-color="#7f52ff"/>
    </radialGradient>
  </defs>
  <g>
    <polygon points="68.64 75.28 68.47 75.28 64.58 65.77 60.89 65.77 60.89 79.92 63.79 79.92 63.79 70.67 63.91 70.67 67.57 79.85 69.54 79.85 73.21 70.71 73.32 70.71 73.32 79.92 76.22 79.92 76.22 65.77 72.54 65.77 68.64 75.28" fill="#000" stroke-width="0"/>
    <path d="M84.56,75.4c0,.47-.09.87-.28,1.2-.19.32-.44.57-.75.73-.31.16-.64.24-.99.24-.56,0-1-.18-1.33-.55-.33-.36-.5-.86-.5-1.49v-6.23h-2.94v6.76c0,.83.16,1.54.46,2.13.3.59.73,1.05,1.26,1.37.54.32,1.16.48,1.87.48.8,0,1.47-.19,2.02-.57.56-.38.96-.88,1.2-1.5h.11v1.93h2.83v-10.61h-2.94v6.09Z" fill="#000" stroke-width="0"/>
    <rect x="89.23" y="65.77" width="2.94" height="14.15" fill="#000" stroke-width="0"/>
    <path d="M99.08,77.66c-.14.02-.28.03-.41.03-.2,0-.37-.03-.52-.09-.15-.06-.26-.16-.35-.31-.08-.15-.12-.36-.12-.64v-5.14h2v-2.21h-2v-2.54h-2.94v2.54h-1.45v2.21h1.45v5.53c0,.7.14,1.27.44,1.73.29.46.71.79,1.24,1.01.53.22,1.16.31,1.87.28.38-.01.71-.05.97-.12.27-.06.47-.11.62-.16l-.46-2.19c-.07.01-.18.03-.32.06Z" fill="#000" stroke-width="0"/>
    <rect x="101.09" y="69.31" width="2.94" height="10.61" fill="#000" stroke-width="0"/>
    <path d="M102.56,64.96c-.44,0-.81.15-1.13.44-.31.29-.46.64-.46,1.04s.15.76.46,1.06c.31.29.69.44,1.13.44s.81-.15,1.12-.44c.31-.29.47-.65.47-1.06s-.16-.75-.47-1.04c-.31-.29-.68-.44-1.12-.44Z" fill="#000" stroke-width="0"/>
    <path d="M113.95,69.78c-.65-.41-1.37-.61-2.14-.61-.59,0-1.09.1-1.49.3-.4.2-.72.45-.97.75-.24.29-.43.58-.56.87h-.13v-1.78h-2.9v14.59h2.94v-5.68h.09c.13.29.33.59.58.88.25.29.58.52.97.71.4.19.89.28,1.46.28.81,0,1.53-.21,2.18-.62.65-.42,1.17-1.03,1.55-1.84.38-.82.57-1.81.57-3s-.2-2.23-.59-3.03c-.39-.81-.91-1.42-1.57-1.82ZM112.84,76.25c-.17.47-.42.84-.75,1.11-.33.26-.74.39-1.22.39s-.88-.13-1.21-.39c-.33-.26-.58-.63-.76-1.1-.17-.47-.26-1.02-.26-1.65s.09-1.18.26-1.64c.17-.47.43-.82.75-1.08.33-.25.74-.38,1.22-.38s.89.13,1.22.39c.33.26.58.63.75,1.09.17.47.26,1,.26,1.62s-.09,1.16-.26,1.64Z" fill="#000" stroke-width="0"/>
    <rect x="117.44" y="65.77" width="2.94" height="14.15" fill="#000" stroke-width="0"/>
    <path d="M129.75,70.02c-.42-.29-.9-.5-1.44-.64-.54-.14-1.1-.21-1.69-.21-.85,0-1.59.13-2.24.39-.64.25-1.16.62-1.57,1.09-.41.47-.68,1.03-.82,1.67l2.72.22c.1-.35.31-.64.62-.87.31-.23.73-.35,1.26-.35.5,0,.89.12,1.16.36.28.24.41.58.41,1.02v.04c0,.23-.09.4-.26.51-.17.12-.44.2-.82.26-.38.06-.87.12-1.49.18-.52.05-1.03.14-1.51.26-.47.12-.9.31-1.27.55-.37.24-.67.57-.88.97-.22.4-.32.9-.32,1.49,0,.7.15,1.28.46,1.75.31.47.73.82,1.26,1.06.53.23,1.13.35,1.81.35.52,0,.99-.07,1.39-.21.4-.14.74-.34,1.03-.59.29-.25.51-.55.68-.88h.08v1.47h2.79v-7.16c0-.63-.12-1.17-.37-1.62-.24-.46-.58-.83-1-1.12ZM128.19,76.12c0,.37-.09.71-.28,1-.19.29-.45.53-.78.7-.33.17-.71.26-1.15.26s-.82-.1-1.12-.31c-.29-.21-.44-.52-.44-.92,0-.28.07-.51.21-.69.14-.19.34-.34.6-.45.26-.11.56-.19.9-.24.16-.02.34-.05.54-.08.2-.03.4-.07.59-.1.2-.04.38-.09.53-.13.16-.05.29-.11.38-.17v1.13Z" fill="#000" stroke-width="0"/>
    <path d="M137.83,77.66c-.14.02-.28.03-.41.03-.2,0-.37-.03-.52-.09-.15-.06-.26-.16-.35-.31-.08-.15-.12-.36-.12-.64v-5.14h2v-2.21h-2v-2.54h-2.94v2.54h-1.45v2.21h1.45v5.53c0,.7.14,1.27.44,1.73.29.46.71.79,1.24,1.01.53.22,1.16.31,1.87.28.38-.01.71-.05.97-.12.27-.06.47-.11.62-.16l-.46-2.19c-.07.01-.18.03-.32.06Z" fill="#000" stroke-width="0"/>
    <path d="M143.55,68.6c0-.36.09-.64.26-.84.17-.2.47-.3.91-.3.17,0,.35.02.51.05.17.03.31.07.43.1l.52-2.21c-.18-.06-.47-.12-.84-.19-.37-.07-.79-.1-1.24-.1-.67,0-1.26.13-1.79.38-.52.25-.94.63-1.24,1.14-.3.51-.45,1.14-.45,1.91v.77h-1.5v2.21h1.5v8.4h2.94v-8.4h2.11v-2.21h-2.11v-.71Z" fill="#000" stroke-width="0"/>
    <path d="M153.77,69.86c-.78-.46-1.7-.69-2.78-.69s-2,.23-2.78.69c-.78.46-1.38,1.1-1.8,1.92-.42.82-.64,1.78-.64,2.87s.21,2.04.64,2.87c.42.82,1.02,1.46,1.8,1.92.78.46,1.71.68,2.78.68s2-.23,2.78-.68c.78-.46,1.39-1.1,1.81-1.92.42-.82.64-1.78.64-2.87s-.21-2.05-.64-2.87c-.42-.82-1.03-1.46-1.81-1.92ZM152.97,76.28c-.17.48-.41.87-.74,1.15-.33.28-.73.41-1.22.41s-.91-.14-1.24-.41c-.33-.28-.58-.66-.75-1.15-.17-.48-.25-1.03-.25-1.65s.08-1.17.25-1.65c.17-.48.42-.87.75-1.15.34-.28.75-.42,1.24-.42s.9.14,1.22.42c.33.28.57.66.74,1.15.17.48.26,1.03.26,1.65s-.09,1.17-.26,1.65Z" fill="#000" stroke-width="0"/>
    <path d="M162.76,69.15c-.59,0-1.12.17-1.57.51-.46.34-.78.83-.97,1.49h-.11v-1.85h-2.85v10.61h2.94v-6c0-.43.1-.82.29-1.15.2-.33.47-.59.8-.77.34-.19.73-.28,1.16-.28.2,0,.43.02.67.05.24.03.44.07.57.11v-2.61c-.13-.03-.28-.06-.45-.08-.17-.02-.33-.03-.48-.03Z" fill="#000" stroke-width="0"/>
    <path d="M179.07,70.12c-.62-.63-1.42-.95-2.41-.95-.78,0-1.45.18-2.02.55-.57.36-.96.85-1.17,1.46h-.11c-.17-.62-.51-1.11-1.02-1.46-.51-.36-1.13-.55-1.86-.55s-1.33.18-1.85.54c-.52.36-.88.85-1.11,1.47h-.12v-1.87h-2.81v10.61h2.94v-6.37c0-.39.08-.73.23-1.02.15-.29.36-.52.62-.68.26-.17.56-.25.88-.25.48,0,.87.15,1.17.46.3.31.45.72.45,1.24v6.62h2.85v-6.48c0-.55.15-1,.45-1.33.3-.34.72-.51,1.25-.51.47,0,.86.15,1.17.44.31.29.47.74.47,1.33v6.56h2.93v-7.14c0-1.15-.31-2.04-.93-2.67Z" fill="#000" stroke-width="0"/>
    <path d="M80.86,58.37c.7-.27,1.34-.67,1.88-1.19.54-.52.97-1.14,1.27-1.82.3-.69.45-1.43.46-2.17v-.04c-.08-1.48-.72-2.88-1.8-3.89-1.08-1.02-2.51-1.58-3.99-1.58s-2.91.58-3.98,1.61c-1.07,1.03-1.7,2.43-1.77,3.91v.04c0,.74.16,1.47.45,2.15.29.68.72,1.3,1.26,1.81.54.51,1.17.91,1.86,1.18.69.26,1.43.39,2.17.36.75.03,1.49-.1,2.19-.36ZM76.68,55.25c-.26-.27-.47-.6-.6-.95-.13-.35-.2-.73-.18-1.11v-.04c-.02-.38.03-.75.16-1.11s.33-.68.59-.95c.26-.27.57-.49.92-.63.35-.15.72-.22,1.1-.21.38,0,.75.08,1.1.23.35.15.66.37.92.64.26.27.47.6.6.95.13.35.2.73.18,1.11v.04c.03.38-.03.76-.15,1.11-.13.36-.33.68-.59.96-.26.27-.57.49-.92.64s-.72.22-1.1.21h0c-.38-.02-.75-.1-1.1-.25-.35-.15-.66-.37-.92-.65Z" fill="#000" stroke-width="0"/>
    <polygon points="64.28 54.25 65.89 52.58 70.21 58.5 73.89 58.5 67.96 50.47 73.65 44.56 69.89 44.56 64.28 50.7 64.28 44.58 61.22 44.58 61.22 58.5 64.28 58.5 64.28 54.25" fill="#000" stroke-width="0"/>
    <path d="M108.08,52.56v5.95h3.02v-6.9c0-2.45-1.34-3.96-3.62-3.96-.62,0-1.23.16-1.77.46-.54.3-1.01.73-1.35,1.25v-1.51h-3.02v10.67h3.02v-5.95c0-1.43.74-2.17,1.89-2.17s1.83.74,1.83,2.17Z" fill="#000" stroke-width="0"/>
    <rect x="96.78" y="44" width="3.19" height="2.68" fill="#000" stroke-width="0"/>
    <rect x="92.25" y="44" width="3.02" height="14.49" fill="#000" stroke-width="0"/>
    <rect x="96.86" y="47.84" width="3.03" height="10.67" fill="#000" stroke-width="0"/>
    <path d="M91.23,55.64c-.46.25-.97.38-1.49.38-.67,0-.98-.34-.98-1.03v-4.56h2.5v-2.59h-2.5v-2.73h-3.02v2.73h-1.27v2.59h1.27v5.06c0,2.46,1.25,3.2,3.1,3.2h0c.84,0,1.66-.2,2.38-.62v-2.42Z" fill="#000" stroke-width="0"/>
  </g>
  <path d="M55.85,80.37H20v-35.85h35.85l-18.3,17.66,18.3,18.19Z" fill="url(#b)" stroke-width="0"/>
</svg>