<svg xmlns="http://www.w3.org/2000/svg" width="200" height="128">
    <path d="M83.2 59.64a3.34 3.34 0 00-2.2.76 4.49 4.49 0 00-1.31 2.09v-6.38h-2.57v13.8h2.54v-4.67a4.5 4.5 0 01.34-1.79 2.59 2.59 0 01.92-1.23 2.21 2.21 0 011.37-.43 1.69 1.69 0 011.33.49 2.06 2.06 0 01.47 1.44v6.22h2.56v-6.25a4.32 4.32 0 00-.93-3 3.14 3.14 0 00-2.52-1.05zM72.11 67.85a3.81 3.81 0 01-1.75-.38 2.37 2.37 0 01-1-1.06 3.47 3.47 0 01-.32-1.5 3.53 3.53 0 01.32-1.49 2.58 2.58 0 011-1.06 3.33 3.33 0 011.69-.36 6.2 6.2 0 011.45.16 6.71 6.71 0 011.28.46v-2.5a6.75 6.75 0 00-.84-.27 4.85 4.85 0 00-.93-.16 5.93 5.93 0 00-1.06-.08 6.13 6.13 0 00-3 .7 5.14 5.14 0 00-2 1.91 5.41 5.41 0 00-.68 2.74 5.25 5.25 0 00.73 2.7 4.79 4.79 0 002 1.85 6.45 6.45 0 003 .67 4.93 4.93 0 001-.05 7.08 7.08 0 00.93-.22c.3-.08.55-.19.82-.27v-2.42a5 5 0 01-1.31.46 6.07 6.07 0 01-1.33.17zM22.64 56.11H20v13.8h9.57v-2.33h-6.93V56.11zM38 60.08a5.58 5.58 0 00-2.34-.47 8.69 8.69 0 00-1.45.14 6.85 6.85 0 00-1.31.38 5.78 5.78 0 00-1.11.57l.08 2.37a9.23 9.23 0 011.82-.93 5.75 5.75 0 012-.32 2.1 2.1 0 011.36.4 1.31 1.31 0 01.49 1.06V64h-2.27a5.4 5.4 0 00-3.22.84 2.76 2.76 0 00-1.17 2.37 3.2 3.2 0 00.38 1.52 2.61 2.61 0 001.12 1.06 3.91 3.91 0 003.84-.27 4.14 4.14 0 001.31-1.71v2.14h2.54v-6.69a3.29 3.29 0 00-2-3.18zm-.54 5.73a2.1 2.1 0 01-.27 1 2.49 2.49 0 01-.85.89 2.34 2.34 0 01-1.31.38 1.84 1.84 0 01-1.12-.32 1.12 1.12 0 01-.43-.9 1.15 1.15 0 01.6-1.06 3.35 3.35 0 011.74-.38h1.64zM60.93 59.64a3.43 3.43 0 00-2.24.76 5 5 0 00-1.31 2.09v-2.55h-2.56v10h2.56v-4.7a4.5 4.5 0 01.33-1.79 2.84 2.84 0 01.9-1.23 2.13 2.13 0 011.39-.43 1.78 1.78 0 011.34.49 2.06 2.06 0 01.46 1.44v6.22h2.59v-6.25a4.37 4.37 0 00-.92-3 3.16 3.16 0 00-2.54-1.05zM49.45 64.59a4.54 4.54 0 01-.33 1.79 2.64 2.64 0 01-.93 1.22 2.28 2.28 0 01-1.39.4 1.76 1.76 0 01-1.33-.49 2.09 2.09 0 01-.47-1.4v-6.2h-2.56v6.25a4.29 4.29 0 00.93 3 3.14 3.14 0 002.51 1.06 3.29 3.29 0 002.26-.76 4.44 4.44 0 001.31-2.09v2.55H52v-10h-2.55zM132.39 59.91h-3.21l-3.66 3.54v-7.34h-2.54v13.8h2.51v-3.23l.93-.87 3 4.1h3.05l-4.28-5.84 4.2-4.16zM134.03 56.11h2.56v13.8h-2.56zM98.69 57a7.71 7.71 0 00-3.76-.84h-5.32v13.8h5.32a7.71 7.71 0 003.76-.84 5.69 5.69 0 002.37-2.39 8.49 8.49 0 000-7.28A5.7 5.7 0 0098.69 57zM98 66.38a4.13 4.13 0 01-3.11 1.2h-2.63v-9.13h2.64a4 4 0 013.1 1.19 5.63 5.63 0 010 6.74zM143.6 66.9l-2.78-7h-2.65l4.12 10-.22.51a1.42 1.42 0 01-.54.74 1.82 1.82 0 01-1 .24h-2.13v2.26h2.16a4.2 4.2 0 002.31-.57 4.27 4.27 0 001.5-2l4.61-11.14h-2.68zM110.39 60.08a5.66 5.66 0 00-2.35-.47 8.47 8.47 0 00-1.44.14 6.64 6.64 0 00-1.31.38 5.88 5.88 0 00-1.12.57l.08 2.37a9 9 0 011.83-.93 5.69 5.69 0 012-.32 2.08 2.08 0 011.36.4 1.31 1.31 0 01.49 1.06V64h-2.23a5.4 5.4 0 00-3.22.84 2.76 2.76 0 00-1.17 2.37 3.2 3.2 0 00.38 1.52 2.61 2.61 0 001.12 1.06 3.45 3.45 0 001.69.38 3.37 3.37 0 002.1-.65 4.22 4.22 0 001.31-1.71v2.14h2.53v-6.69a3.5 3.5 0 00-.51-1.91 3.63 3.63 0 00-1.54-1.27zm-.55 5.73a2.1 2.1 0 01-.27 1 2.33 2.33 0 01-.85.89 2.23 2.23 0 01-1.28.36 1.8 1.8 0 01-1.14-.3 1.13 1.13 0 01-.44-.9 1.15 1.15 0 01.6-1.06 3.37 3.37 0 011.75-.38h1.63zM120.26 59.8a2.2 2.2 0 00-1.61.66 4.15 4.15 0 00-1 1.82v-2.39h-2.56v10h2.53v-4.24a4 4 0 01.71-2.53 2.38 2.38 0 011.91-.87 3.27 3.27 0 011.06.16v-2.47a3.88 3.88 0 00-.49-.11 3.08 3.08 0 00-.55-.03zM179.75 62.39l-11.56-11.5a.52.52 0 00-.38-.16.51.51 0 00-.49.3.56.56 0 00.06.54l5.8 8L163 55.43a.54.54 0 00-.21 0 .55.55 0 00-.52.38.5.5 0 00.21.59l8.95 5.25-15.73.89a.55.55 0 000 1.09l15.73.9-8.95 5.24a.54.54 0 00.31 1 .8.8 0 00.21 0l10.17-4.13-5.8 8a.48.48 0 00-.06.54.58.58 0 00.49.3.52.52 0 00.38-.16l11.56-11.52a.94.94 0 00.26-.8.86.86 0 00-.25-.61z"/>
</svg>
