<svg xmlns="http://www.w3.org/2000/svg" width="200" height="128" viewBox="-56 -6 313 201" preserveAspectRatio="xMidYMid meet">
    <path fill="#5b27d9" d="M25.75 93.8a5.68 5.68 0 0 1-4.07-1.59 5.39 5.39 0 0 1 0-7.82 5.6 5.6 0 0 1 4.07-1.64 5.67 5.67 0 0 1 4.11 1.64 5.3 5.3 0 0 1 0 7.82 5.76 5.76 0 0 1-4.11 1.59M89.6 34.2h-9.15V72a54.4 54.4 0 0 0 .4 7.91h-.16c-.32-.66-1-1.86-2.15-3.61L52.1 34.2H41v58.7h9.19V54.42a62 62 0 0 0-.32-8.06h.24a19.2 19.2 0 0 0 1.71 3.39l27.4 43.15H89.6zm44.72 50.47h-22.64V67.32h19.68v-8.23h-19.68V42.47H133V34.2h-30.82v58.7h32.14zM180 34.2h-42.37v8.27H154V92.9h9.51V42.47H180z"/>
    <g transform="translate(15.11, 33.2) scale(0.39)">
        <path d="M 57.431523,218.70863 h 17.093308 l 29.719469,72.56646 h 1.09387 l 29.71973,-72.56646 h 17.09305 v 93.35291 h -13.40094 v -67.55276 h -0.86616 l -27.53146,67.4167 H 99.23034 L 71.69888,244.46257 h -0.866166 v 67.59897 H 57.431523 Z" fill="#5b27d9" />
        <path d="m 177.94725,312.06154 h -14.95099 l 33.59411,-93.35291 h 16.2736 l 33.59411,93.35291 h -14.95125 l -26.39317,-76.39669 h -0.72908 z m 2.50711,-36.55664 h 48.49813 v 11.85011 h -48.49813 z" fill="#5b27d9" />
        <path d="m 317.40209,218.70863 h 14.12976 v 61.39923 c 0,6.53347 -1.53261,12.32246 -4.60296,17.36697 -3.07034,5.0137 -7.3832,8.96459 -12.94628,11.85266 -5.56051,2.85471 -12.07858,4.28463 -19.55421,4.28463 -7.44482,0 -13.94749,-1.42992 -19.508,-4.28463 -5.56051,-2.88807 -9.87594,-6.83896 -12.94628,-11.85266 -3.06778,-5.04451 -4.60296,-10.8335 -4.60296,-17.36697 v -61.39923 h 14.08355 v 60.2594 c 0,4.22558 0.92675,7.97879 2.78026,11.25965 1.88431,3.28085 4.5439,5.866 7.97879,7.74775 3.43232,1.85607 7.50387,2.78282 12.21464,2.78282 4.74158,0 8.82853,-0.92675 12.26085,-2.78282 3.46569,-1.88175 6.10989,-4.4669 7.93259,-7.74775 1.8535,-3.28086 2.78025,-7.03407 2.78025,-11.25965 z" fill="#5b27d9" />
        <path d="m 363.52917,218.70863 v 93.35291 h -14.08611 v -93.35291 z" fill="#5b27d9" />
    </g>
</svg>
