<svg xmlns="http://www.w3.org/2000/svg" width="120" height="60">
    <path d="M45.59 26.35a.773.773 0 0 0-1.545 0v1.624a.773.773 0 1 0 1.545 0zm-4.249-2.131a.777.777 0 0 0-1.554 0v3.755a.777.777 0 0 0 1.554 0zM37.084 21.3a.773.773 0 0 0-1.545 0v8.212a.773.773 0 1 0 1.545 0zm-4.259 2.915a.773.773 0 0 0-1.545 0v3.755a.773.773 0 1 0 1.545 0zm-4.258 2.135a.772.772 0 1 0-1.544 0v1.624a.772.772 0 1 0 1.544 0zm-4.25-2.131a.775.775 0 0 0-1.55 0v3.755a.775.775 0 0 0 1.55 0zM20.061 21.3a.775.775 0 0 0-1.55 0v8.212a.775.775 0 0 0 1.55 0zm-4.256 2.915a.775.775 0 0 0-1.549 0v3.755a.775.775 0 0 0 1.549 0zm-4.256 2.135a.775.775 0 0 0-1.549 0v1.624a.775.775 0 0 0 1.549 0V26.35zm16 6.732a6.647 6.647 0 0 0-1.521-.2c-1.439 0-2.3.777-2.3 1.933 0 1.024.725 1.535 1.594 1.809l.333.108c.387.122.7.3.7.616 0 .351-.357.577-1.133.577a5.905 5.905 0 0 1-1.474-.229v1.423a9.351 9.351 0 0 0 1.684.169c1.194 0 2.561-.522 2.561-2.076a1.861 1.861 0 0 0-1.475-1.769l-.43-.137c-.257-.081-.716-.212-.716-.589 0-.3.34-.507.966-.507a5.368 5.368 0 0 1 1.22.189v-1.32zm13.188 3.006a1.614 1.614 0 1 1-1.614-1.626 1.6 1.6 0 0 1 1.614 1.626m-1.614-3.2a3.2 3.2 0 1 0 3.268 3.2 3.174 3.174 0 0 0-3.268-3.2m-21.2.221a4.762 4.762 0 0 0-1.422-.221 3.2 3.2 0 1 0 0 6.4 4.938 4.938 0 0 0 1.422-.22V37.41a2.722 2.722 0 0 1-1.311.329 1.652 1.652 0 1 1 0-3.3 2.7 2.7 0 0 1 1.311.331zm16.29 0a4.8 4.8 0 0 0-1.422-.221 3.2 3.2 0 1 0 0 6.4 4.988 4.988 0 0 0 1.422-.22V37.41a2.747 2.747 0 0 1-1.313.329 1.652 1.652 0 1 1 0-3.3 2.721 2.721 0 0 1 1.313.331zm-12.587 6.072h-1.56V33h1.56z" fill="#88898d"/>
    <path d="M62.112 39.192l-5.079-11.946v11.946h-1.066V25.9h1.609l5.137 12.187L67.559 25.9h1.552v13.292h-1.047V27.338l-4.789 11.854zm18.214-2.622a4.056 4.056 0 0 1-4.189 2.9c-2.732 0-4.788-1.789-4.788-5.077s2-5.076 4.595-5.076c2.579 0 4.556 1.661 4.556 5.317h-8.084c.1 2.731 1.724 3.988 3.741 3.988a3 3 0 0 0 3.063-2.05zm-7.891-2.77h6.979c-.135-2.457-1.59-3.673-3.47-3.673-1.841 0-3.315 1.271-3.509 3.673m10.511 5.392v-9.6h.854l.156 1.847a2.9 2.9 0 0 1 2.83-2.123 3.75 3.75 0 0 1 1.047.149v.978a4.118 4.118 0 0 0-1.1-.168c-1.474 0-2.734 1.368-2.734 3.675v5.244zm6.2-7.109c.154-1.642 1.686-2.769 3.916-2.769 2.249 0 3.741 1.2 3.741 3.158v6.72h-.853L95.8 37.6a4.008 4.008 0 0 1-3.567 1.863c-1.959 0-3.374-1.014-3.374-2.713 0-1.643 1.047-2.64 3.876-3.083l3.025-.48v-.831c0-1.385-1.027-2.234-2.752-2.234-1.609 0-2.638.792-2.773 1.956zm6.61 3.693v-1.792l-2.713.444c-2.406.387-3.1 1.108-3.1 2.254 0 1.291 1.047 1.937 2.56 1.937a3.114 3.114 0 0 0 3.256-2.843m3.73 3.416V25.9h1.047v7.6l4.827-3.914h1.416l-5.179 4.197 5.816 5.409H106l-5.467-5.077v5.077zm9.25-13.292H110v1.366h-1.261zm.1 3.693h1.047v9.6h-1.047z" fill="#3eb52d"/>
</svg>
