<svg xmlns="http://www.w3.org/2000/svg" width="200" height="128">
  <path fill="#999" d="M138.19,86.84h-1.42v-1.95h3.36v-.87h-4.29v3.69h2.31c.82,0,1.3,.38,1.3,1.07v.75c0,.77-.53,1.2-1.48,1.2s-1.43-.43-1.43-1.2v-.7h-.93v.67c.17,1.31,1.37,2.24,2.69,2.07,1.08-.14,1.93-.99,2.07-2.07v-.71c.01-1.07-.85-1.95-1.92-1.96-.08,0-.17,0-.25,.01"/>
  <polygon fill="#999" points="134.78 84.89 134.78 84.01 130.24 84.01 130.24 91.44 131.17 91.44 131.17 88.45 134.41 88.45 134.41 87.56 131.17 87.56 131.17 84.89 134.78 84.89"/>
  <path fill="#999" d="M126.45,84.18h.46v-.85h-.57c-.98-.07-1.84,.67-1.91,1.66,0,.12,0,.24,.01,.36v.77h-.62v.84h.62v4.48h.89v-4.48h1.48v-.84h-1.48v-.7c0-.89,.35-1.24,1.11-1.24"/>
  <path fill="#999" d="M114.76,90.59c-.73,0-1.09-.34-1.09-1.19v-2.44h1.45v-.84h-1.45v-1.56h-.89v1.56h-.72v.84h.72v2.64c0,1.28,.6,1.84,1.79,1.84h.65v-.85h-.46Z"/>
  <path fill="#999" d="M111.05,86.02c-.61-.02-1.21,.21-1.64,.64l-.18-.55h-.62v5.32h.89v-3.35c-.02-.7,.53-1.27,1.22-1.29,.06,0,.12,0,.18,0,.15,0,.3,.02,.45,.05v-.82c-.1,0-.2-.01-.31-.01"/>
  <path fill="#999" d="M120.8,85.98c-1.11-.14-2.12,.65-2.26,1.76-.02,.15-.02,.29,0,.44v1.18c.03,1.25,1.08,2.24,2.33,2.21,1.21-.03,2.18-1,2.21-2.21v-1.18c.1-1.12-.72-2.11-1.83-2.21-.15-.01-.3-.01-.45,0Zm1.38,3.33c0,.94-.42,1.41-1.38,1.41s-1.37-.47-1.37-1.41v-1.08c0-.94,.42-1.4,1.38-1.4s1.37,.46,1.37,1.4v1.08Z"/>
  <path fill="#999" d="M106.78,86.12l-.17,.54c-.42-.47-1.04-.71-1.67-.67-1.31,0-2.08,.65-2.08,2.24v1.11c0,1.58,.77,2.24,2.08,2.24,.63,.04,1.24-.21,1.67-.67l.17,.54h.62v-5.32h-.62Zm-1.68,4.61c-.9,0-1.34-.44-1.34-1.45v-.99c0-1.01,.44-1.44,1.34-1.44,.69-.08,1.31,.41,1.39,1.1,0,.06,0,.12,0,.17v1.33c.02,.7-.54,1.28-1.23,1.29-.06,0-.11,0-.17,0"/>
  <path fill="#999" d="M99.82,84.01h-2.91v7.43h.93v-2.7h1.99c1.44,0,2.27-.75,2.27-1.96v-.81c0-1.22-.82-1.96-2.28-1.96m1.36,2.77c0,.71-.42,1.08-1.31,1.08h-2.04v-2.97h2.05c.88,0,1.3,.38,1.3,1.09v.81Z"/>
  <path fill="#009639" d="M20.45,81.99c.3,.52,.74,.95,1.26,1.25l25.78,14.88h0c1.06,.62,2.37,.62,3.43,0l25.78-14.88c1.07-.61,1.72-1.74,1.71-2.97v-29.77h0c0-1.23-.65-2.36-1.71-2.97l-25.78-14.88h0c-1.06-.62-2.37-.62-3.42,0h0s-25.78,14.88-25.78,14.88c-1.07,.6-1.72,1.74-1.71,2.97h0v29.77c0,.6,.15,1.2,.45,1.72"/>
  <path fill="#fff" d="M40.95,76.73c0,1.83-1.48,3.32-3.32,3.32s-3.32-1.48-3.32-3.32h0s0-22.76,0-22.76c.12-1.9,1.77-3.35,3.67-3.23,.03,0,.06,0,.09,0,1.73-.02,3.38,.72,4.52,2.02l1,1.2,13.85,16.58v-16.48h0c0-1.83,1.48-3.32,3.31-3.32,1.83,0,3.32,1.48,3.32,3.31h0s0,0,0,0v22.76c-.13,1.91-1.77,3.35-3.67,3.23-.03,0-.06,0-.09,0-1.73,.02-3.38-.72-4.52-2.02l-14.85-17.77v16.48h0Z"/>
  <polygon points="180 54.18 175.63 54.18 170.82 61.81 166.13 54.18 161.6 54.18 168.35 65.2 161.54 76.6 165.84 76.6 170.63 68.91 175.31 76.6 179.84 76.6 173.03 65.49 180 54.18"/>
  <polygon points="155.95 54.18 155.95 69.44 147.15 54.18 143.51 54.18 143.51 76.6 147.15 76.6 147.15 61.43 155.95 76.6 159.63 76.6 159.63 54.18 155.95 54.18"/>
  <rect x="136.62" y="54.18" width="3.9" height="22.42"/>
  <path d="M133.62,62.16v-1.27c0-4.34-3.2-7.16-8.8-7.16s-8.77,2.82-8.77,7.16v8.99c0,4.34,3.23,7.16,8.8,7.16s8.77-2.82,8.77-7.16v-5.26h-8.93v3.61h5.04v1.43c0,2.34-1.77,3.77-4.91,3.77s-4.88-1.43-4.88-3.77v-8.55c0-2.34,1.77-3.77,4.91-3.77s4.88,1.43,4.88,3.77v1.04h3.9Z"/>
  <polygon points="109.35 54.18 109.35 69.44 100.55 54.18 96.91 54.18 96.91 76.6 100.55 76.6 100.55 61.43 109.35 76.6 113.03 76.6 113.03 54.18 109.35 54.18"/>
</svg>