<?xml version="1.0" encoding="utf-8"?>
<!-- Generator: Adobe Illustrator 26.1.0, SVG Export Plug-In . SVG Version: 6.00 Build 0)  -->
<svg version="1.1" id="Layer_1" xmlns="http://www.w3.org/2000/svg" xmlns:xlink="http://www.w3.org/1999/xlink" x="0px" y="0px"
	 viewBox="0 0 136 136" style="enable-background:new 0 0 136 136;" xml:space="preserve">
<style type="text/css">
	.st0{fill:#FFFFFF;}
	.st1{fill:#5A8FFF;}
</style>
<circle class="st0" cx="68" cy="68" r="68"/>
<path class="st1" d="M128.34,99.4c4.9-9.38,7.66-20.05,7.66-31.37s-2.76-21.99-7.66-31.37l-17.27,9.97l-3-5.2l17.27-9.97
	C113.26,12.56,92.1,0.04,68,0.04S22.74,12.56,10.66,31.46l17.27,9.97l-3,5.2L7.66,36.67C2.76,46.05,0,56.71,0,68.04
	S2.76,90.02,7.66,99.4l17.27-9.97l3,5.2l-17.27,9.97c11.58,18.11,31.49,30.37,54.34,31.36v-19.93h6v19.93
	c22.85-0.99,42.76-13.25,54.34-31.36l-17.27-9.97l3-5.2L128.34,99.4z M94.6,86.86L74.75,75.39c-1.78,1.63-4.14,2.64-6.75,2.64
	c-5.52,0-10-4.48-10-10c0-4.48,2.94-8.27,7-9.54V20.04h6v38.46c4.06,1.27,7,5.06,7,9.54c0,0.75-0.09,1.47-0.24,2.17L97.6,81.65
	L94.6,86.86z"/>
</svg>
