<svg xmlns="http://www.w3.org/2000/svg" width="128" height="128">
<circle fill="#FFFFFF" cx="64" cy="64" r="64"/>
<path fill="#5A8FFF" d="m120.791 93.553c4.612-8.828 7.209-18.871 7.209-29.525s-2.598-20.696-7.209-29.525l-16.254 9.384-2.824-4.894 16.254-9.384c-11.369-17.788-31.285-29.572-53.967-29.572s-42.598 11.784-53.967 29.572l16.254 9.384-2.824 4.894-16.254-9.374c-4.612 8.828-7.209 18.861-7.209 29.525s2.598 20.687 7.209 29.515l16.254-9.384 2.824 4.894-16.254 9.384c10.899 17.045 29.638 28.584 51.144 29.515v-18.758h5.647v18.758c21.506-.932 40.245-12.471 51.144-29.515l-16.254-9.384 2.824-4.894 16.254 9.384zm-31.755-11.802-18.682-10.795c-1.675 1.534-3.896 2.485-6.353 2.485-5.195 0-9.412-4.216-9.412-9.412 0-4.216 2.767-7.784 6.588-8.979v-36.188h5.647v36.198c3.821 1.195 6.588 4.762 6.588 8.979 0 .706-.085 1.384-.226 2.042l18.673 10.767-2.824 4.904z"/>
</svg>
