<svg xmlns="http://www.w3.org/2000/svg" width="128" height="128">
  <path d="m118.82,52.39c2.9-8.72,1.9-18.26-2.74-26.19-6.98-12.16-21.02-18.42-34.74-15.47C75.25,3.85,66.48-.06,57.29,0c-14.02-.03-26.45,8.99-30.76,22.33-9,1.84-16.78,7.48-21.32,15.47-7.04,12.13-5.43,27.42,3.97,37.82-2.9,8.72-1.9,18.26,2.74,26.19,6.98,12.16,21.02,18.42,34.74,15.47,6.1,6.87,14.86,10.78,24.05,10.72,14.02.04,26.46-9,30.78-22.34,9-1.84,16.78-7.48,21.32-15.47,7.03-12.13,5.42-27.4-3.98-37.8h0Zm-48.11,67.25c-5.61,0-11.05-1.96-15.36-5.55.2-.1.54-.29.76-.43l25.49-14.72c1.3-.74,2.1-2.13,2.1-3.63v-35.93l10.77,6.22c.12.06.19.17.21.3v29.76c-.02,13.23-10.73,23.96-23.96,23.99h0Zm-51.54-22.01c-2.81-4.86-3.82-10.55-2.86-16.07.19.11.52.32.76.45l25.49,14.72c1.29.76,2.89.76,4.19,0l31.12-17.97v12.44c0,.13-.05.25-.15.33l-25.76,14.88c-11.48,6.61-26.13,2.68-32.77-8.78h0Zm-6.71-55.64c2.8-4.86,7.22-8.58,12.48-10.52,0,.22-.01.61-.01.88v29.44c0,1.5.79,2.88,2.09,3.62l31.12,17.96-10.77,6.22c-.11.07-.24.08-.36.03l-25.77-14.89c-11.45-6.63-15.38-21.28-8.78-32.76h0Zm88.51,20.59l-31.12-17.97,10.77-6.22c.11-.07.24-.08.36-.03l25.77,14.88c11.47,6.63,15.4,21.3,8.78,32.78-2.8,4.86-7.22,8.58-12.48,10.51v-30.32c.01-1.5-.78-2.88-2.08-3.62h0Zm10.72-16.14c-.19-.12-.52-.32-.76-.45l-25.49-14.72c-1.29-.76-2.89-.76-4.19,0l-31.12,17.97v-12.44c0-.13.05-.25.15-.33l25.76-14.86c11.48-6.62,26.15-2.68,32.76,8.8,2.8,4.85,3.81,10.52,2.86,16.04h0Zm-67.41,22.17l-10.78-6.22c-.12-.06-.19-.17-.21-.3v-29.76c0-13.25,10.76-23.98,24-23.98,5.6,0,11.03,1.97,15.34,5.55-.2.1-.53.29-.76.43l-25.49,14.72c-1.3.74-2.1,2.12-2.1,3.62l-.02,35.92h0Zm5.85-12.61l13.86-8,13.86,8v16l-13.86,8-13.86-8v-16Z"/>
</svg>