<svg xmlns="http://www.w3.org/2000/svg" width="120" height="60">
  <path d="m41.45,29.29c0,4.5,2.89,7.64,6.9,7.64s6.9-3.14,6.9-7.64-2.89-7.64-6.9-7.64-6.9,3.14-6.9,7.64Zm11.16,0c0,3.22-1.76,5.31-4.26,5.31s-4.26-2.09-4.26-5.31,1.76-5.31,4.26-5.31,4.26,2.09,4.26,5.31Z"/>
  <path d="m62.7,36.93c3.04,0,4.77-2.56,4.77-5.64s-1.74-5.64-4.77-5.64c-1.41,0-2.44.56-3.12,1.36v-1.16h-2.48v14.57h2.48v-4.86c.68.81,1.71,1.36,3.12,1.36h0Zm-3.18-5.95c0-2.05,1.16-3.16,2.69-3.16,1.8,0,2.77,1.41,2.77,3.47s-.97,3.47-2.77,3.47c-1.53,0-2.69-1.14-2.69-3.14v-.64Z"/>
  <path d="m74.18,36.93c2.17,0,3.88-1.14,4.65-3.04l-2.13-.81c-.33,1.12-1.3,1.74-2.52,1.74-1.59,0-2.71-1.14-2.89-3h7.6v-.83c0-2.98-1.67-5.35-4.81-5.35s-5.17,2.46-5.17,5.64c0,3.35,2.17,5.64,5.27,5.64h0Zm-.12-9.19c1.57,0,2.31,1.03,2.33,2.23h-4.98c.37-1.47,1.36-2.23,2.64-2.23h0Z"/>
  <path d="m80.75,36.7h2.48v-6.36c0-1.55,1.14-2.38,2.25-2.38,1.36,0,1.9.97,1.9,2.31v6.43h2.48v-7.15c0-2.33-1.36-3.91-3.64-3.91-1.41,0-2.38.64-3,1.36v-1.16h-2.48v10.85Z"/>
  <path d="m97.13,21.87l-5.62,14.84h2.62l1.26-3.39h6.41l1.28,3.39h2.67l-5.62-14.84h-3Zm1.45,2.93l2.36,6.2h-4.67l2.31-6.2Z"/>
  <path d="m110,21.91h-2.64v14.84h2.64v-14.84Z"/>
  <path d="m35.39,27.32c.63-1.88.41-3.93-.59-5.64-1.5-2.62-4.52-3.96-7.48-3.33-1.31-1.48-3.2-2.32-5.18-2.31-3.02,0-5.69,1.94-6.62,4.81-1.94.4-3.61,1.61-4.59,3.33-1.51,2.61-1.17,5.9.85,8.14-.63,1.88-.41,3.93.59,5.64,1.5,2.62,4.52,3.96,7.48,3.33,1.31,1.48,3.2,2.32,5.18,2.31,3.02,0,5.7-1.94,6.62-4.81,1.94-.4,3.61-1.61,4.59-3.33,1.51-2.61,1.17-5.9-.86-8.14h0Zm-10.36,14.47c-1.21,0-2.38-.42-3.31-1.19.04-.02.12-.06.16-.09l5.49-3.17c.28-.16.45-.46.45-.78v-7.73l2.32,1.34s.04.04.04.06v6.4c0,2.85-2.31,5.16-5.16,5.16h0Zm-11.09-4.74c-.61-1.05-.82-2.27-.62-3.46.04.02.11.07.16.1l5.49,3.17c.28.16.62.16.9,0l6.7-3.87v2.68s-.01.05-.03.07l-5.55,3.2c-2.47,1.42-5.62.58-7.05-1.89h0Zm-1.44-11.97c.6-1.05,1.55-1.85,2.69-2.26,0,.05,0,.13,0,.19v6.34c0,.32.17.62.45.78l6.7,3.87-2.32,1.34s-.05.02-.08,0l-5.55-3.2c-2.46-1.43-3.31-4.58-1.89-7.05h0Zm19.05,4.43l-6.7-3.87,2.32-1.34s.05-.02.08,0l5.55,3.2c2.47,1.43,3.32,4.59,1.89,7.05-.6,1.05-1.55,1.85-2.69,2.26v-6.53c0-.32-.17-.62-.45-.78h0Zm2.31-3.47s-.11-.07-.16-.1l-5.49-3.17c-.28-.16-.62-.16-.9,0l-6.7,3.87v-2.68s.01-.05.03-.07l5.55-3.2c2.47-1.42,5.63-.58,7.05,1.89.6,1.04.82,2.27.62,3.45h0Zm-14.51,4.77l-2.32-1.34s-.04-.04-.04-.06v-6.4c0-2.85,2.31-5.16,5.17-5.16,1.21,0,2.37.42,3.3,1.19-.04.02-.11.06-.16.09l-5.49,3.17c-.28.16-.45.46-.45.78v7.73s0,0,0,0Zm1.26-2.72l2.98-1.72,2.98,1.72v3.44l-2.98,1.72-2.98-1.72v-3.44Z"/>
</svg>