<svg xmlns="http://www.w3.org/2000/svg" width="200" height="128">
    <path fill="#eaa942" d="M75.61 53a1.88 1.88 0 000-2.81L61.15 35.71a1.89 1.89 0 00-2.86 0q-1.82 1.8-3.62 3.62a1.82 1.82 0 00-.57 1.33 1.9 1.9 0 00.63 1.46q7.27 7.2 14.44 14.42a1.91 1.91 0 002.86 0c1.2-1.17 2.4-2.37 3.58-3.54zM54.17 63.91a6.05 6.05 0 00-6.12 6 6.11 6.11 0 1012.21.09 6 6 0 00-6.09-6.09zm0 9.14a3 3 0 01-3-3 3 3 0 013-3 3.1 3.1 0 013 3.06 3.07 3.07 0 01-3.03 2.94zM30.17 79.14a1.69 1.69 0 00-2.36 0c-.87.86-1.73 1.73-2.59 2.6-.44.44-.86.9-1.36 1.42-.42-.44-.74-.81-1.1-1.15a1.52 1.52 0 10-2.13 2.17l6.47 6.48a1.52 1.52 0 002 .09 1.49 1.49 0 00.34-2 4 4 0 00-.47-.54l-.81-.83.3-.31c1.19-1.19 2.39-2.38 3.58-3.58a1.7 1.7 0 00.06-2.43c-.62-.62-1.27-1.28-1.93-1.92zM69 67.06a3.5 3.5 0 00-4.08.89c0 .06-.11.1-.24.22V67h-2.5v11.64h2.51v-3.81c.27.25.45.43.65.59a3.86 3.86 0 005.47-1 5.42 5.42 0 00.61-4.42A4 4 0 0069 67.06zm-.41 6a2.12 2.12 0 01-3.74-.54 7.77 7.77 0 01-.25-1.06 3.07 3.07 0 01.68-1.83 2.12 2.12 0 013.27.14 2.89 2.89 0 01.01 3.3zM92.51 70.31a5.62 5.62 0 00-.08-1A2.77 2.77 0 0090.7 67a3.24 3.24 0 00-3.65.83l-.27.29h-.09V67h-2.58v9.1h2.58v-.44-4.68a3.05 3.05 0 01.21-1 1.43 1.43 0 011.44-.84 1.36 1.36 0 011.39.91 4.06 4.06 0 01.19 1.14V76.13h2.53v-.31c.07-1.82.07-3.68.06-5.51zM75.81 67.26a4.93 4.93 0 00-1.29 7.32 5 5 0 006 1 4.4 4.4 0 001.32-1.12l-1.4-1.24a6.72 6.72 0 01-1.07.64 3 3 0 01-1.19.24 2.79 2.79 0 01-1.18-.31 1.89 1.89 0 01-1-1.47h6.2a6.89 6.89 0 00-.08-2 4.3 4.3 0 00-6.31-3.06zm3.92 3.45H76a2 2 0 012.12-1.89 1.88 1.88 0 011.61 1.89z"/>
    <path fill="#4e60a5" d="M54.72 46.42a1.91 1.91 0 00-2.86 0l-8.23 8.24a1.91 1.91 0 000 2.72q2.43 2.45 4.88 4.88a2.61 2.61 0 00.25.23 9.4 9.4 0 0112 1c.08-.08.16-.14.22-.21q1.95-1.94 3.88-3.88a1.91 1.91 0 000-2.82zM46.46 64.55c-1-1-2-2-3-2.94a1.52 1.52 0 00-.44-.31 1.84 1.84 0 00-2.23.47q-3.15 3.13-6.29 6.29c-1.43 1.43-2.86 2.84-4.27 4.27a1.82 1.82 0 000 2.65l5.06 5.07a14.09 14.09 0 001.18 1.14 1.86 1.86 0 002.58-.36l6.41-6.4a3.65 3.65 0 00.27-.3 9.43 9.43 0 01.78-9.44zM143.49 69.22a2.6 2.6 0 00-1.66-2.22 3.7 3.7 0 00-3.82.63c-.2.16-.38.34-.58.53a2.82 2.82 0 00-2.59-1.41 3.28 3.28 0 00-2.64 1.36l-.07-.06V67h-2.59v9.16h2.6V71a2.68 2.68 0 01.08-.7 1.46 1.46 0 011.48-1.16 1.39 1.39 0 011.43 1.11 4.42 4.42 0 01.11.89v4.99h2.56v-2.94-2.61a1.49 1.49 0 011.51-1.46 1.44 1.44 0 011.51 1.34 4.93 4.93 0 010 .55v5.1h2.61v-5.8a7.77 7.77 0 00.06-1.09zM177.18 66.78c-.68 2.12-1.35 4.22-2 6.32h-.08c-.71-2.11-1.41-4.22-2.13-6.33h-2.86c.06.16.1.29.15.41l3.42 8.82a.63.63 0 01-.42.88 1.49 1.49 0 01-.63 0c-.31-.07-.61-.19-.95-.3l-.88 1.91.3.17a4.31 4.31 0 002.2.5 2.66 2.66 0 002.56-1.59 8 8 0 00.36-.79q1.62-4.27 3.23-8.56l.55-1.49zM147.13 67.67a4.6 4.6 0 00-1.71 3.18 4.49 4.49 0 001.35 4 4.9 4.9 0 005.12 1 4 4 0 001.89-1.38l-1.44-1.27c-2 1.82-4.32.61-4.35-.86h6.19a6.72 6.72 0 00-.19-2.46 4.32 4.32 0 00-6.86-2.21zm.83 3a1.93 1.93 0 011.88-1.89 1.88 1.88 0 011.85 1.89zM112.58 70.63a4.14 4.14 0 00-3.6-3.82 4.34 4.34 0 00-3.77 1.19 4.8 4.8 0 00-1.36 4.11 4.19 4.19 0 001.38 2.83 4.9 4.9 0 004.43 1.1 4.21 4.21 0 002.55-1.56l-1.47-1.31a3 3 0 01-2.49.91 2 2 0 01-1.84-1.75h6.27c-.04-.62-.03-1.16-.1-1.7zm-6.19.07a1.94 1.94 0 011.84-1.89 1.89 1.89 0 011.89 1.89zM122.26 66.88a4.44 4.44 0 00-3.34 3.73 4.67 4.67 0 001.23 4.2 4.82 4.82 0 004.54 1.19 4.15 4.15 0 002.55-1.57l-1.45-1.29a2.9 2.9 0 01-3.36.64 1.93 1.93 0 01-1-1.49h6.26a5.77 5.77 0 00-.83-3.78 4.22 4.22 0 00-4.6-1.63zm-.86 3.81a2 2 0 012.1-1.86 1.87 1.87 0 011.65 1.86zM93.66 66.38h3.71v9.73h2.7v-9.73h3.71V63.9H93.66zM159 64.35h-2.65v2.34h-1.09V69h1.1v4.72a2.2 2.2 0 001.43 2.28 4.15 4.15 0 003.13-.24c.09 0 .2-.17.2-.25v-2a6.72 6.72 0 01-.64.21 3.07 3.07 0 01-.6.07c-.65 0-.9-.24-.9-.89v-3.57-.38h2.12v-2.26H159zM167 67.13a14.28 14.28 0 00-1.25 1.31v-1.56h-2.63v9.32h2.65v-.42-3.13a5.56 5.56 0 01.23-1.15 2.49 2.49 0 012.5-2h.32v-2.79a2.31 2.31 0 00-1.82.42zM114.48 76.11H117V63.9h-2.53z"/>
</svg>
