<svg xmlns="http://www.w3.org/2000/svg" width="120" height="60" fill="none">
    <path fill="#000" d="M37.025 45.287h-4.402a.635.635 0 0 0-.623.633V52q.708-.018 1.18-.49.47-.472.489-1.188h3.356q.716-.018 1.193-.49.475-.473.495-1.188v-1.669q-.02-.716-.495-1.193-.477-.475-1.193-.495m-3.356 3.568v-1.88h2.944q.025-.012.206.052.18.064.206.36v1.046q.012.026-.052.21-.065.186-.36.212z"/>
    <path fill="#000" d="M46.382 48.231v-1.256q-.018-.716-.49-1.193-.472-.475-1.188-.495h-4.402a.62.62 0 0 0-.44.187.64.64 0 0 0-.183.446V52a1.68 1.68 0 0 0 1.184-.49q.476-.472.494-1.188V49.9h1.909l.968 1.38q.232.336.585.526.352.19.786.194.21 0 .407-.05.196-.048.37-.142l-1.352-1.927a1.686 1.686 0 0 0 1.352-1.65m-5.025.202v-1.458h2.925q.027-.012.21.052.186.064.212.36v.633q.013.026-.053.207-.066.18-.369.206z"/>
    <path fill="#000" d="M52.364 45.287h-3.346q-.715.02-1.188.495-.473.477-.49 1.193v3.347q.017.715.49 1.188.472.472 1.188.49h3.346q.715-.018 1.188-.49t.49-1.188v-3.347q-.017-.716-.49-1.193-.472-.475-1.188-.495m0 4.613q.013.026-.052.21-.066.186-.37.212H49.44q-.026.013-.212-.053-.184-.066-.21-.37v-2.511q-.014-.026.052-.207.066-.18.37-.206h2.502q.027-.012.211.052.185.064.211.36z"/>
    <path fill="#000" d="M62.499 45.767a1.6 1.6 0 0 0-1.132-.47 1.57 1.57 0 0 0-1.17.518l-1.448 1.592-1.457-1.592a1.538 1.538 0 0 0-1.16-.518 1.6 1.6 0 0 0-1.132.47l2.618 2.877L55 51.52a1.574 1.574 0 0 0 2.301-.039l1.448-1.592 1.448 1.592q.218.24.517.378a1.57 1.57 0 0 0 1.276.012q.29-.126.509-.352l-2.618-2.876z"/>
    <path fill="#000" d="M71.223 45.287h-1.055a1.65 1.65 0 0 0-.921.28q-.405.274-.613.727l.01-.019-.988 2.167-.978-2.167v.02a1.68 1.68 0 0 0-1.534-1.008h-1.046a.63.63 0 0 0-.633.633V52a1.68 1.68 0 0 0 1.185-.49q.475-.472.494-1.188v-3.213q0-.065.04-.104a.14.14 0 0 1 .103-.04q.038.002.074.024a.14.14 0 0 1 .051.053l1.86 4.105a.44.44 0 0 0 .384.249.4.4 0 0 0 .224-.066q.1-.065.16-.174l1.86-4.114a.2.2 0 0 1 .056-.053.15.15 0 0 1 .078-.023.13.13 0 0 1 .096.04q.038.038.038.103v3.213q.019.715.494 1.188.475.472 1.185.49v-6.08a.64.64 0 0 0-.183-.446.62.62 0 0 0-.44-.187"/>
    <path fill="#000" d="M77.836 45.287H74.49q-.715.02-1.188.495-.473.477-.49 1.193v3.347q.017.715.49 1.188.472.472 1.188.49h3.346q.715-.018 1.188-.49t.49-1.188v-3.347q-.017-.716-.49-1.193-.472-.475-1.188-.495m0 4.613q.014.026-.052.21-.066.186-.37.212h-2.502q-.027.013-.211-.053-.185-.066-.211-.37v-2.511q-.014-.026.052-.207.066-.18.37-.206h2.502q.027-.012.211.052.186.064.211.36z"/>
    <path fill="#000" d="M87.97 45.767a1.6 1.6 0 0 0-1.13-.47 1.57 1.57 0 0 0-1.17.518l-1.449 1.592-1.457-1.592a1.538 1.538 0 0 0-1.16-.518 1.6 1.6 0 0 0-1.132.47l2.618 2.877-2.618 2.877a1.574 1.574 0 0 0 2.301-.039l1.448-1.592 1.448 1.592q.218.24.517.378a1.57 1.57 0 0 0 1.276.012q.29-.126.509-.352l-2.618-2.876z"/>
    <path fill="#E57000" d="m68.7 22.337 8.96 9.846a5.38 5.38 0 0 1-3.873 1.642c-1.608 0-3.02-.69-4.004-1.773l-4.956-5.448-3.873-4.267 3.873-4.233 4.956-5.449a5.37 5.37 0 0 1 4.004-1.772c1.51 0 2.888.624 3.873 1.608z"/>
    <path fill="#E57000" d="m51.225 22.337-8.96 9.846a5.38 5.38 0 0 0 3.874 1.641c1.608 0 3.019-.689 4.004-1.772l4.955-5.448 3.873-4.267-3.873-4.234-4.955-5.448a5.37 5.37 0 0 0-4.004-1.772c-1.51 0-2.889.624-3.873 1.608z"/>
    <path fill="#000" d="m63.493 27.22-3.535-3.895-3.535 3.894-8.178 8.987a5 5 0 0 0 3.535 1.468c1.468 0 2.696-.6 3.625-1.618l4.553-4.972 4.523 4.972a4.9 4.9 0 0 0 3.655 1.618c1.378 0 2.636-.569 3.535-1.468z"/>
    <path fill="#000" d="m63.493 17.455-3.535 3.894-3.535-3.894-8.178-8.987A5 5 0 0 1 51.78 7c1.468 0 2.696.6 3.624 1.618l4.554 4.972 4.523-4.972A4.9 4.9 0 0 1 68.136 7c1.378 0 2.636.57 3.535 1.468z"/>
</svg>
