<svg xmlns="http://www.w3.org/2000/svg" width="200" height="128">
    <path fill="#61DAFB" d="M88.37 62.51c.83-1.17 1.25-2.62 1.25-4.34 0-2.54-.81-4.47-2.43-5.81-1.62-1.34-3.92-2.01-6.91-2.01h-9.09V76.2h4.49v-9.94h5.01l5.18 9.94h4.81v-.23L84.87 65.2c1.49-.63 2.65-1.53 3.49-2.69zm-8.07.12h-4.62v-8.66h4.74c1.56.02 2.74.41 3.52 1.17.79.76 1.18 1.83 1.18 3.21s-.43 2.37-1.28 3.13c-.85.76-2.04 1.15-3.55 1.15zM101.43 56.63c-1.65 0-3.14.42-4.47 1.26-1.34.84-2.38 2.02-3.12 3.52-.74 1.51-1.11 3.22-1.11 5.14v.53c0 2.86.85 5.16 2.55 6.88s3.92 2.58 6.65 2.58c1.6 0 3.04-.32 4.32-.95 1.28-.63 2.31-1.52 3.08-2.67L107 70.7c-1.24 1.6-2.85 2.4-4.83 2.4-1.41 0-2.58-.46-3.51-1.39-.93-.92-1.46-2.18-1.59-3.76h12.55v-1.74c0-3.05-.71-5.42-2.14-7.08-1.43-1.67-3.45-2.5-6.06-2.5zm3.94 8.17h-8.22c.2-1.48.67-2.63 1.39-3.46.73-.83 1.68-1.24 2.87-1.24s2.13.37 2.81 1.11c.67.74 1.06 1.83 1.15 3.28v.32zM128.14 63.1c-.04-2.05-.72-3.64-2.06-4.77-1.34-1.13-3.13-1.7-5.38-1.7-1.48 0-2.82.26-4.02.78-1.2.52-2.15 1.24-2.85 2.16-.7.92-1.05 1.9-1.05 2.96h4.31c0-.76.31-1.38.94-1.87.63-.49 1.43-.74 2.41-.74 1.14 0 1.98.3 2.54.9s.83 1.39.83 2.39v1.26h-2.65c-2.83 0-5 .55-6.53 1.64-1.52 1.09-2.28 2.67-2.28 4.71 0 1.62.61 2.98 1.83 4.08 1.22 1.1 2.79 1.65 4.72 1.65s3.67-.72 5.04-2.15c.14.83.31 1.43.5 1.79h4.4v-.3c-.49-1.03-.73-2.41-.73-4.14v-8.66zm-4.31 7.71c-.38.7-.94 1.25-1.7 1.67-.75.41-1.55.62-2.41.62-.92 0-1.66-.25-2.21-.74s-.83-1.15-.83-1.98c0-1.02.4-1.81 1.21-2.36.8-.56 2.01-.83 3.6-.83h2.33v3.62zM137.32 61.61c.76-1.01 1.83-1.52 3.23-1.52 1.09 0 1.99.36 2.69 1.07.7.71 1.08 1.62 1.13 2.72h4.07c-.07-2.17-.83-3.92-2.26-5.25-1.44-1.33-3.3-2-5.58-2-2.7 0-4.83.88-6.39 2.64-1.56 1.76-2.34 4.1-2.34 7.02v.44c0 3.07.79 5.47 2.36 7.21 1.57 1.74 3.71 2.61 6.39 2.61 1.39 0 2.68-.3 3.87-.91 1.2-.6 2.14-1.42 2.84-2.46s1.07-2.15 1.12-3.35h-4.07c-.05.92-.43 1.7-1.14 2.33-.71.63-1.6.94-2.68.94-1.42 0-2.51-.51-3.26-1.54s-1.13-2.58-1.13-4.66v-.69c.01-2.06.4-3.6 1.15-4.61zM159.09 72.99c-.75 0-1.26-.16-1.55-.49-.29-.33-.44-.86-.44-1.59V60.19h3.39v-3.2h-3.39v-4.67h-4.31v4.67h-3.16v3.2h3.16v10.88c0 3.66 1.66 5.49 4.97 5.49.91 0 1.86-.14 2.84-.41v-3.34c-.51.12-1.01.18-1.51.18zM40.7 67.66c2.03 0 3.67-1.64 3.67-3.67s-1.64-3.67-3.67-3.67-3.67 1.64-3.67 3.67 1.64 3.67 3.67 3.67z"/>
    <path fill="#61DAFB" d="M52.64 57.1c1.32-5.31.86-9.5-1.64-10.94-2.5-1.44-6.36.24-10.3 4.05-3.94-3.8-7.79-5.49-10.29-4.05-2.08 1.2-2.85 4.25-2.16 8.57.12.76.3 1.56.51 2.37-5.26 1.51-8.64 4.01-8.64 6.89s3.39 5.38 8.64 6.89c-.21.81-.38 1.61-.51 2.37-.69 4.32.07 7.37 2.16 8.57.62.36 1.31.53 2.08.53 1.82 0 4.03-1 6.43-2.95.6-.49 1.2-1.04 1.79-1.62.6.58 1.2 1.13 1.79 1.62 2.4 1.95 4.6 2.95 6.43 2.95.76 0 1.46-.17 2.08-.53 2.08-1.2 2.85-4.25 2.16-8.57-.12-.76-.3-1.56-.51-2.37 5.26-1.51 8.64-4.01 8.64-6.89s-3.39-5.38-8.65-6.89zm-3.71-9.68c.45 0 .84.09 1.18.29 1.62.94 1.96 4.33.81 8.94-1.69-.39-3.52-.67-5.48-.86-1.13-1.6-2.3-3.05-3.48-4.32 2.72-2.63 5.24-4.06 6.98-4.06zM33.42 68.2c.4.7.82 1.38 1.25 2.05-1.31-.17-2.54-.38-3.69-.64.36-1.14.79-2.32 1.29-3.51.36.7.74 1.41 1.15 2.11zm-2.44-9.82c1.15-.26 2.37-.48 3.69-.64-.42.66-.84 1.34-1.25 2.05-.4.7-.78 1.4-1.15 2.11-.5-1.19-.93-2.37-1.29-3.51zm2.24 5.61c.53-1.1 1.12-2.21 1.75-3.31.65-1.12 1.32-2.18 1.99-3.17a50.044 50.044 0 017.49 0 49.4 49.4 0 011.99 3.17c.64 1.1 1.22 2.21 1.75 3.31-.52 1.08-1.1 2.19-1.75 3.32-.64 1.1-1.3 2.16-1.99 3.17a50.112 50.112 0 01-7.5 0c-.69-1.01-1.35-2.07-1.99-3.17-.64-1.1-1.22-2.21-1.75-3.31zM48 68.2c.41-.7.79-1.41 1.15-2.11.5 1.19.93 2.37 1.29 3.51-1.15.26-2.38.48-3.69.64.43-.67.85-1.35 1.25-2.05zm0-8.42c-.41-.7-.83-1.38-1.25-2.05 1.31.17 2.54.38 3.68.64a37.26 37.26 0 01-1.29 3.51c-.36-.7-.74-1.41-1.15-2.11zm-7.29-7.03c.79.86 1.6 1.83 2.39 2.88a47.061 47.061 0 00-4.78 0c.8-1.05 1.6-2.02 2.39-2.88zm-9.4-5.05c.33-.19.73-.29 1.18-.29 1.73 0 4.26 1.43 6.98 4.06a41.712 41.712 0 00-3.48 4.32c-1.96.18-3.8.47-5.48.86-.19-.76-.36-1.5-.47-2.21-.56-3.49-.09-5.94 1.28-6.74zm-2.06 21.45c-4.57-1.31-7.34-3.3-7.34-5.17s2.77-3.86 7.34-5.17c.52 1.67 1.19 3.41 2 5.17-.81 1.76-1.48 3.5-2 5.17zm8.54 8.86c-2.74 2.23-5.1 3.05-6.48 2.26-1.38-.79-1.84-3.25-1.28-6.74.11-.71.28-1.45.47-2.21 1.69.39 3.53.68 5.48.86a42.28 42.28 0 003.48 4.32c-.56.54-1.12 1.06-1.67 1.51zm.53-5.67a47.165 47.165 0 004.8 0c-.78 1.03-1.59 1.99-2.4 2.88-.81-.88-1.61-1.84-2.4-2.88zm11.8 7.93c-1.37.79-3.74-.03-6.48-2.26-.56-.45-1.12-.97-1.67-1.51 1.19-1.29 2.36-2.74 3.48-4.32 1.96-.18 3.8-.47 5.49-.86.19.76.36 1.5.47 2.21.56 3.49.09 5.95-1.29 6.74zm2.06-11.11c-.52-1.67-1.19-3.41-2-5.17.82-1.78 1.49-3.52 2-5.17 4.58 1.31 7.34 3.3 7.34 5.17s-2.77 3.86-7.34 5.17z"/>
</svg>
