<svg xmlns="http://www.w3.org/2000/svg" width="200" height="128">
  <path d="m34.47,70.28h-5.56c-.8,0-1.34.2-1.74.94-1.47,3.08-3.01,6.16-4.56,9.25-.54,1.07-.13,1.61,1.27,1.61h10.25c1.21,0,1.94-.47,2.41-1.47,1.41-3.01,2.81-6.1,4.35-9.11.54-1.07.07-1.27-1-1.27-1.81.07-3.62.07-5.43.07h0Zm34.44-1.47c-1.67-3.82-1.81-7.5-.34-11.26.4-1,0-1.07-.94-1.21-3.68-.54-2.75,4.02-5.76,4.29-.47.07-.6.54-.6,1,.13,1.74-.94,4.02,2.14,4.69.33.07.74.54.87.87.87,2.08,2.48,2.08,4.62,1.61Zm-48.91-14.34c5.56,3.42,11.72,2.68,17.89,2.55-.6-1.94-1.81-2.61-3.68-2.55h-14.2Zm37.12,8.98v-7.3c0-.47.07-1-.67-1.07-.54,0-.74.47-.67.87.13,1.94-.8,3.75-.67,5.76.2,2.88-.07,5.76.6,8.58.13.47-.13,1.27.6,1.34.87.07.8-.74.8-1.34v-6.83Zm2.81-.13v-6.3c0-.47-.07-1.07-.67-1.07s-.67.6-.67,1.14v12.8c0,.47.07,1.07.67,1.07s.67-.6.67-1.14v-6.5h0Zm14.54-2.81h3.75c.47,0,.94-.13.94-.67,0-.34-.33-.6-.74-.6h-7.77c-.47,0-.87.27-.8.74.07.4.47.47.87.47,1.21.07,2.48.07,3.75.07h0Zm2.08,1.21h-3.55c-.54,0-1.14.07-1.07.67.07.54.6.54,1,.54h7.3c.47,0,1-.07,1-.6,0-.47-.4-.67-.94-.67-1.27.07-2.48.07-3.75.07h0Zm-1.61,2.75h-3.55c-.4,0-1,0-1.07.47,0,.54.47.74,1.07.74h7.37c.54,0,.94-.27.94-.67,0-.47-.54-.6-1-.6-1.21.07-2.48.07-3.75.07h0Z" fill="#6ca8d9"/>
  <g>
    <path d="m80.3,61.7h-3.75c-1.21,0-2.34-.07-3.55.07-.54,0-1.14,0-1.07.67,0,.47.54.54,1,.54h7.3c.47,0,1-.07,1-.6,0-.47-.47-.67-.94-.67Z" fill="#6ca8da"/>
    <path d="m74.47,60.5h0c1.27,0,2.48,0,3.75.07.47-.07.94-.2.94-.67.07-.33-.34-.6-.74-.6h-7.77c-.47,0-.87.27-.8.74.07.4.54.47.87.47h3.75Z" fill="#6ca8da"/>
    <path d="m78.69,64.45h-3.75c-1.21,0-2.35,0-3.55.07-.47,0-1.07-.07-1.07.47s.47.74,1.07.74h7.37c.47,0,.94-.27.94-.67,0-.47-.54-.6-1-.6Z" fill="#6ca8da"/>
    <path d="m53.63,53.93h-.87c-.4.67-.47,1.54-.34,2.34.4,1.88-.54,2.14-2.41,2.14-6.9-.13-13.8-.07-20.7-.07-3.75.07-6.43,2.34-6.36,5.49.07,2.95,2.55,5.09,6.16,5.09,6.97,0,13.94.13,20.9,0,2.01-.07,2.68.4,2.41,2.14-.07.54-.27,1.47.74,1.41.74,0,.54-.8.54-1.34,0-5.69-.07-11.19-.07-17.22Z" fill="#6ca8da"/>
    <path d="m90.11,59.94c.49-.51,1.05-.91,1.69-1.2.64-.29,1.33-.44,2.05-.44.8,0,1.45.1,1.93.31.49.21.96.5,1.42.89.22.17.45.24.68.23.23-.02.43-.1.6-.25s.25-.34.25-.57c0-.11,0-.2-.03-.28-.02-.08-.06-.16-.11-.24s-.13-.15-.23-.23c-.69-.56-1.38-.95-2.06-1.2-.68-.24-1.5-.36-2.45-.36-1.01,0-1.95.19-2.81.56-.86.37-1.62.89-2.27,1.55-.65.66-1.15,1.43-1.52,2.3-.36.88-.55,1.82-.55,2.84s.18,1.98.55,2.86c.36.88.87,1.65,1.52,2.31s1.41,1.17,2.28,1.54c.87.37,1.8.55,2.8.55.84,0,1.64-.13,2.4-.4.76-.27,1.47-.66,2.14-1.18.1-.1.17-.2.22-.32.05-.11.07-.23.07-.35,0-.27-.07-.47-.22-.63-.15-.15-.33-.24-.55-.25-.22-.02-.43.05-.66.21-.52.37-1.06.67-1.62.88-.56.21-1.16.32-1.79.32-.73,0-1.41-.14-2.05-.43-.64-.28-1.21-.68-1.69-1.19-.49-.51-.87-1.1-1.14-1.77-.27-.67-.41-1.39-.41-2.17s.14-1.48.41-2.15c.27-.67.65-1.26,1.14-1.77Z" fill="#6ca8da"/>
    <path d="m108.12,61.6c-.77-.43-1.64-.64-2.63-.64s-1.88.21-2.65.64c-.76.43-1.37,1.02-1.8,1.78-.44.76-.66,1.63-.66,2.62s.22,1.85.66,2.6,1.04,1.35,1.8,1.78c.76.43,1.65.64,2.65.64s1.88-.21,2.65-.64c.76-.43,1.36-1.02,1.79-1.78.43-.76.65-1.62.65-2.6s-.22-1.86-.66-2.62c-.44-.76-1.04-1.35-1.8-1.78Zm.23,6.16c-.28.51-.66.91-1.16,1.2-.49.29-1.06.44-1.7.44s-1.21-.14-1.7-.44c-.49-.29-.88-.69-1.17-1.2-.28-.51-.43-1.09-.43-1.76s.14-1.25.43-1.77c.28-.51.67-.92,1.17-1.21.49-.29,1.06-.44,1.7-.44s1.21.15,1.7.44.88.69,1.16,1.21c.28.51.42,1.1.42,1.77s-.14,1.25-.42,1.76Z" fill="#6ca8da"/>
    <path d="m121.71,56.79c-.27,0-.5.08-.68.25-.18.17-.27.39-.27.67v4.9c-.42-.51-.94-.91-1.55-1.21-.62-.3-1.29-.44-2.02-.44-.9,0-1.71.22-2.42.66-.72.44-1.28,1.04-1.69,1.79-.41.76-.62,1.61-.62,2.57s.22,1.81.68,2.57c.45.76,1.06,1.36,1.83,1.8.77.44,1.64.66,2.6.66s1.83-.22,2.59-.66c.76-.44,1.37-1.04,1.82-1.8.45-.76.68-1.62.68-2.57v-8.27c0-.28-.09-.5-.26-.67-.17-.17-.4-.25-.68-.25Zm-1.3,10.93c-.28.52-.67.93-1.17,1.22-.49.3-1.05.44-1.68.44s-1.18-.15-1.67-.44-.89-.7-1.18-1.22c-.29-.52-.43-1.1-.43-1.74s.14-1.23.43-1.74c.29-.51.68-.91,1.18-1.21s1.06-.44,1.67-.44,1.19.15,1.68.44c.49.3.88.7,1.17,1.21.28.51.43,1.09.43,1.74s-.14,1.22-.43,1.74Z" fill="#6ca8da"/>
    <path d="m133.71,66.41c.16-.15.24-.34.24-.57,0-.95-.18-1.8-.55-2.53-.36-.73-.89-1.31-1.58-1.72-.69-.42-1.52-.63-2.48-.63s-1.84.21-2.59.64c-.75.43-1.34,1.02-1.77,1.78-.43.76-.64,1.63-.64,2.62s.22,1.85.68,2.6c.45.76,1.07,1.35,1.87,1.78.8.43,1.71.64,2.73.64.57,0,1.16-.1,1.79-.31.62-.21,1.14-.47,1.56-.8.21-.16.31-.34.3-.56-.01-.22-.12-.42-.33-.6-.16-.13-.35-.2-.56-.19-.22,0-.42.08-.6.21-.25.18-.57.34-.97.48-.4.14-.79.21-1.18.21-.7,0-1.33-.15-1.87-.45-.54-.3-.97-.71-1.28-1.23-.21-.35-.34-.73-.41-1.14h7.03c.25,0,.45-.08.61-.23Zm-7.62-1.22c.06-.35.16-.67.31-.97.26-.53.64-.94,1.14-1.24.5-.3,1.1-.45,1.8-.45.62,0,1.14.14,1.57.42.43.28.76.66,1,1.13.17.34.27.71.33,1.12h-6.15Z" fill="#6ca8da"/>
  </g>
  <g>
    <path d="m59.26,55.94c-.6.07-.67.67-.67,1.14v12.8c0,.47.07,1.07.67,1.07s.67-.67.67-1.14v-12.8c0-.47-.07-1.07-.67-1.07Z" fill="#8dca4f"/>
    <path d="m39.83,70.28h-10.99c-.87,0-1.41.2-1.74.94-1.47,3.08-3.01,6.16-4.56,9.25-.54,1.07-.07,1.61,1.27,1.61h10.25c1.21,0,1.94-.47,2.41-1.41,1.47-3.01,2.88-6.1,4.35-9.11.54-1.14.07-1.27-1-1.27Z" fill="#8dca4f"/>
    <path d="m68.64,57.55c.4-1,0-1.07-.94-1.21-3.75-.54-2.81,4.09-5.76,4.29-.47.07-.67.54-.6,1,.13,1.74-.94,3.95,2.14,4.69.33.07.74.54.87.87.8,2.08,2.41,2.08,4.56,1.61-1.67-3.82-1.81-7.5-.27-11.26Z" fill="#8dca4f"/>
    <path d="m37.89,57.01c-.54-1.94-1.74-2.55-3.68-2.55-4.76.07-9.45,0-14.2,0,5.56,3.42,11.72,2.68,17.89,2.55Z" fill="#8dca4f"/>
    <path d="m57.12,56.21c0-.47.07-1.07-.67-1.07-.54,0-.67.47-.67.87.13,1.94-.8,3.75-.67,5.76.13,2.88-.13,5.76.6,8.58.13.54-.13,1.27.6,1.34.87.07.8-.74.8-1.34v-14.14Z" fill="#8dca4f"/>
    <path d="m144.36,57.39c-.72-.4-1.54-.6-2.46-.6h-3.7c-.27,0-.5.09-.68.26-.18.18-.28.4-.28.68v12.27c0,.27.09.49.28.67.18.18.41.27.68.27s.51-.09.69-.27c.18-.18.27-.4.27-.67v-3.97h2.74c.93,0,1.75-.19,2.46-.58.72-.39,1.27-.92,1.67-1.61.4-.69.6-1.47.6-2.36s-.2-1.73-.6-2.44c-.4-.71-.96-1.26-1.67-1.66Zm.06,5.55c-.25.42-.59.76-1.02,1-.43.24-.93.36-1.5.36h-2.74v-5.77h2.74c.57,0,1.07.13,1.5.38.43.25.77.6,1.02,1.04.25.44.37.95.37,1.53,0,.54-.12,1.03-.37,1.45Z" fill="#8dca4f"/>
    <path d="m156.56,61.01c-.27,0-.5.08-.68.25-.18.17-.27.39-.27.67v5.11c0,.44-.12.83-.37,1.18-.25.35-.58.63-.99.83-.41.21-.89.31-1.42.31s-1.05-.11-1.5-.32c-.44-.21-.8-.54-1.05-.98-.26-.44-.39-1-.39-1.68v-4.46c0-.27-.09-.49-.27-.66s-.4-.26-.68-.26-.5.09-.68.26c-.18.18-.27.4-.27.66v4.46c0,1,.19,1.85.58,2.54s.92,1.21,1.59,1.57c.67.36,1.43.53,2.28.53s1.56-.18,2.21-.53c.35-.19.66-.42.93-.69v.2c0,.27.09.49.27.66.18.18.4.26.68.26s.51-.09.68-.26c.17-.17.26-.4.26-.66v-8.09c0-.28-.09-.5-.26-.67-.17-.17-.4-.25-.68-.25Z" fill="#8dca4f"/>
    <path d="m166.61,65.8c-.54-.28-1.27-.51-2.19-.69-.67-.13-1.17-.27-1.52-.41-.35-.14-.58-.3-.69-.47-.12-.18-.18-.37-.18-.59,0-.35.19-.62.56-.8.38-.18.84-.27,1.38-.27.47,0,.88.05,1.24.16.36.11.69.31,1,.6.18.17.41.28.68.33.27.05.51,0,.7-.13.2-.14.3-.32.31-.53.01-.21-.07-.41-.24-.61-.37-.45-.87-.8-1.5-1.05-.63-.25-1.35-.38-2.16-.38-.63,0-1.23.1-1.81.3-.58.2-1.05.5-1.43.91-.37.41-.56.92-.56,1.53,0,.7.28,1.29.84,1.78.56.48,1.46.85,2.71,1.09.96.17,1.63.39,1.99.65s.54.58.53.94c-.01.36-.21.66-.58.89-.38.23-.92.34-1.64.34-.57,0-1.08-.1-1.55-.3-.46-.2-.8-.41-1.01-.64-.17-.18-.38-.29-.62-.32-.24-.03-.48.05-.73.24-.21.16-.33.36-.36.61-.03.25.05.47.23.66.41.4.98.73,1.71.99.73.26,1.53.39,2.4.39s1.61-.13,2.19-.4,1.03-.62,1.33-1.07c.3-.45.45-.95.45-1.5,0-.48-.12-.91-.35-1.28-.23-.37-.62-.69-1.16-.97Z" fill="#8dca4f"/>
    <path d="m179.42,63.04c-.39-.69-.92-1.21-1.59-1.57-.67-.36-1.43-.53-2.29-.53s-1.55.18-2.2.53c-.36.19-.67.42-.94.69v-4.44c0-.28-.09-.5-.26-.67-.17-.17-.4-.25-.68-.25s-.5.08-.68.25c-.18.17-.27.39-.27.67v12.33c0,.27.09.49.27.66.18.18.4.26.68.26s.51-.09.68-.26.26-.4.26-.66v-5.11c0-.45.12-.84.37-1.19.25-.34.58-.62,1-.82.42-.21.89-.31,1.41-.31.57,0,1.07.11,1.51.32.44.21.79.53,1.05.97s.39,1,.39,1.69v4.46c0,.27.09.49.27.66.18.18.4.26.68.26s.5-.09.68-.26.27-.4.27-.66v-4.46c0-1-.19-1.85-.58-2.54Z" fill="#8dca4f"/>
  </g>
</svg>