<svg xmlns="http://www.w3.org/2000/svg" width="200" height="128">
    <path fill="#000000" d="M76.29 65h-2.68v5.33H71.2V56.42h4.87a5.68 5.68 0 013.71 1.08 3.82 3.82 0 011.3 3.12 3.91 3.91 0 01-.67 2.38 4.34 4.34 0 01-1.87 1.44l3.11 5.77v.13h-2.58zm-2.68-2h2.47a2.77 2.77 0 001.92-.6 2.16 2.16 0 00.68-1.68A2.3 2.3 0 0078 59a2.7 2.7 0 00-1.89-.62h-2.5zm14.07 7.48a4.77 4.77 0 01-3.57-1.39 5 5 0 01-1.36-3.69v-.28a6.29 6.29 0 01.59-2.76A4.59 4.59 0 0185 60.47a4.44 4.44 0 012.4-.68 4 4 0 013.26 1.35 5.69 5.69 0 011.14 3.8v.93h-6.72a3.1 3.1 0 00.85 2 2.59 2.59 0 001.88.74 3.14 3.14 0 002.59-1.28l1.25 1.19A4.17 4.17 0 0190 70a5.17 5.17 0 01-2.32.48zm-.28-8.83a1.92 1.92 0 00-1.53.67 3.45 3.45 0 00-.75 1.85h4.41V64a2.79 2.79 0 00-.62-1.75 1.92 1.92 0 00-1.51-.6zm12.36 8.64a3.51 3.51 0 01-.26-1 3.89 3.89 0 01-5.24.26 2.84 2.84 0 01-1-2.19 2.94 2.94 0 011.22-2.53A6 6 0 0198 64h1.42v-.67A1.78 1.78 0 0099 62a1.76 1.76 0 00-1.36-.48 2 2 0 00-1.29.39 1.22 1.22 0 00-.51 1H93.5a2.59 2.59 0 01.56-1.59 3.78 3.78 0 011.53-1.16 5.34 5.34 0 012.16-.42 4.36 4.36 0 012.88.91 3.25 3.25 0 011.11 2.56v4.65a5.32 5.32 0 00.39 2.22v.16zm-2.54-1.67a2.63 2.63 0 001.29-.33 2.14 2.14 0 00.91-.9v-1.94h-1.25a3.4 3.4 0 00-1.93.45 1.45 1.45 0 00-.65 1.26 1.36 1.36 0 00.41 1.07 1.71 1.71 0 001.22.39zm11.17.01a2.12 2.12 0 001.44-.5 1.77 1.77 0 00.61-1.25h2.18a3.28 3.28 0 01-.6 1.79A3.84 3.84 0 01110.5 70a4.49 4.49 0 01-2.08.49 4.42 4.42 0 01-3.43-1.4 5.57 5.57 0 01-1.26-3.87V65a5.49 5.49 0 011.27-3.79 4.37 4.37 0 013.43-1.42 4.22 4.22 0 013 1.08 3.83 3.83 0 011.21 2.81h-2.18a2.18 2.18 0 00-.6-1.46 2 2 0 00-1.45-.57 2 2 0 00-1.73.81 4.19 4.19 0 00-.62 2.48v.37a4.19 4.19 0 00.61 2.5 2 2 0 001.72.82zm8.88-11.15V60h1.82v1.7h-1.82v5.75a1.29 1.29 0 00.23.85 1.06 1.06 0 00.83.26 3.72 3.72 0 00.81-.09v1.79a5.48 5.48 0 01-1.52.22q-2.67 0-2.67-2.94V61.7h-1.69V60H115v-2.5zm19.66 12.81h-2.41l-6.18-9.84v9.84h-2.41V56.42h2.41l6.2 9.88v-9.88h2.39zm8.78 0a3.51 3.51 0 01-.26-1 3.89 3.89 0 01-5.24.26 2.81 2.81 0 01-1-2.19 2.94 2.94 0 011.22-2.53A6 6 0 01144 64h1.42v-.67a1.62 1.62 0 00-1.81-1.76 2 2 0 00-1.29.39 1.22 1.22 0 00-.51 1h-2.31a2.53 2.53 0 01.56-1.59 3.71 3.71 0 011.53-1.16 5.32 5.32 0 012.15-.42 4.37 4.37 0 012.89.91 3.21 3.21 0 011.1 2.56v4.65a5.32 5.32 0 00.39 2.22v.16zm-2.54-1.67a2.63 2.63 0 001.29-.33 2.19 2.19 0 00.91-.9v-1.94h-1.25a3.4 3.4 0 00-1.93.45 1.45 1.45 0 00-.65 1.26 1.39 1.39 0 00.44 1.07 1.76 1.76 0 001.19.39zM153 57.48V60h1.82v1.7H153v5.75a1.29 1.29 0 00.23.85 1.06 1.06 0 00.83.26 3.72 3.72 0 00.81-.09v1.79a5.48 5.48 0 01-1.52.22q-2.67 0-2.67-2.94V61.7H149V60h1.69v-2.5zm3.6-.17a1.22 1.22 0 01.34-.89 1.27 1.27 0 011-.35 1.29 1.29 0 011 .35 1.23 1.23 0 01.35.89 1.18 1.18 0 01-.35.87 1.29 1.29 0 01-1 .35 1.27 1.27 0 01-1-.35 1.18 1.18 0 01-.34-.87zm2.45 13h-2.31V60h2.31zm6.16-2.95l2.18-7.36h2.39l-3.57 10.31h-2L160.6 60h2.4zm10.55 3.12a4.77 4.77 0 01-3.57-1.39 5 5 0 01-1.37-3.69v-.28a6.15 6.15 0 01.6-2.76 4.52 4.52 0 011.67-1.89 4.44 4.44 0 012.4-.68 4 4 0 013.25 1.35 5.64 5.64 0 011.15 3.8v.93h-6.73a3.1 3.1 0 00.85 2 2.59 2.59 0 001.88.74 3.15 3.15 0 002.59-1.28l1.25 1.19a4.24 4.24 0 01-1.65 1.48 5.2 5.2 0 01-2.32.48zm-.28-8.83a1.94 1.94 0 00-1.54.67 3.37 3.37 0 00-.74 1.85h4.41V64a2.85 2.85 0 00-.62-1.75 2 2 0 00-1.51-.6z"/>
    <circle fill="#61DAFB" cx="40.7" cy="63.99" r="3.67"/>
    <path fill="#61DAFB" d="M40.7 72.41c-11.55 0-20.59-3.7-20.59-8.42s9-8.41 20.59-8.41S61.29 59.27 61.29 64s-9.04 8.41-20.59 8.41zm0-15c-11.08 0-18.8 3.49-18.8 6.62s7.72 6.63 18.8 6.63S59.5 67.12 59.5 64s-7.72-6.63-18.8-6.63z"/>
    <path fill="#61DAFB" d="M48.92 82.36c-1.82 0-4-1-6.43-3a41.52 41.52 0 01-9.08-11.16 41.48 41.48 0 01-5.16-13.47c-.7-4.32.07-7.37 2.16-8.57C34.5 43.81 42.22 49.79 48 59.78a41.33 41.33 0 015.16 13.47c.7 4.33-.07 7.37-2.15 8.57a4.06 4.06 0 01-2.09.54zM32.48 47.42a2.34 2.34 0 00-1.18.29c-1.37.79-1.84 3.29-1.3 6.74a39.51 39.51 0 005 12.85A39.76 39.76 0 0043.62 78c2.74 2.23 5.11 3 6.48 2.25s1.84-3.25 1.29-6.73a39.6 39.6 0 00-5-12.86c-4.81-8.4-10.71-13.24-13.91-13.24z"/>
    <path fill="#61DAFB" d="M32.48 82.36a4 4 0 01-2.07-.54c-2.09-1.2-2.86-4.24-2.16-8.57a41.56 41.56 0 015.16-13.47c5.78-10 13.49-16 17.59-13.62s2.76 12-3 22a41.52 41.52 0 01-9.08 11.21c-2.41 1.98-4.62 2.99-6.44 2.99zm16.45-34.94c-3.21 0-9.11 4.84-14 13.26A39.55 39.55 0 0030 73.54c-.56 3.48-.09 5.94 1.28 6.73s3.74 0 6.48-2.25a39.76 39.76 0 008.68-10.72c5.54-9.59 6.38-18 3.66-19.59a2.33 2.33 0 00-1.17-.29z"/>
</svg>
