<svg xmlns="http://www.w3.org/2000/svg" width="200" height="128"><path d="m61.401,86.798h-14.065l-11.176-15.491h-3.76v15.466h-12.4v-46.474h17.751c10.237,0,18.599,6.965,18.599,15.53,0,5.228-3.205,9.898-8.068,12.751l13.116,18.225m-17.428-30.983c.018-4.292-3.447-7.786-7.739-7.804-.002,0-.004,0-.007,0h-3.824v15.543h3.834c4.266-.018,7.719-3.473,7.733-7.739h.003Zm50.495,12.751c.048,10.516-8.438,19.08-18.954,19.128s-19.08-8.438-19.128-18.954c-.048-10.516,8.438-19.08,18.954-19.128.015,0,.03,0,.045,0,10.489-.05,19.033,8.413,19.083,18.902,0,.017,0,.035,0,.052m-19.083-9.963c-3.285,0-6.061,4.463-6.061,9.963s2.776,9.956,6.061,9.956c3.347,0,6.132-4.454,6.132-9.956s-2.776-9.963-6.132-9.963Zm48.178-8.22l-14.281,14.288v-14.326h-12.403v36.408h12.403v-14.772l14.914,14.772h15.595l-18.945-18.954,15.698-15.691v21.623c0,7.181,4.305,13.794,15.169,13.794,5.164,0,9.885-2.927,12.183-5.57l5.58,4.806h2.64v-36.376h-12.367v23.56c-1.397,2.437-3.347,3.973-6.348,3.973-3.056,0-4.454-1.814-4.454-7.594v-19.939h-25.383Zm53.991,4.325c-1.353,0-2.45-1.097-2.45-2.45,0-1.353,1.097-2.45,2.45-2.45,1.353,0,2.45,1.097,2.45,2.45s-1.097,2.45-2.45,2.45h0Zm0-4.657c-1.219,0-2.208.988-2.208,2.208,0,1.219.988,2.208,2.208,2.208,1.219,0,2.208-.988,2.208-2.208-.002-1.218-.989-2.206-2.208-2.208Zm-1.055.965h1.107c.262-.016.52.074.716.249.137.144.212.337.207.536h0c.012.361-.237.678-.591.752l.671.942h-.516l-.613-.868h-.545v.868h-.436v-2.479Zm1.075,1.233c.323,0,.51-.165.51-.416h0c0-.268-.19-.413-.513-.413h-.645v.836l.649-.006Z" fill="#662d91"/></svg>
