<svg xmlns="http://www.w3.org/2000/svg" width="200" height="128">
  <path d="m42.87,43.86h-1.88c-2.5,0-2.86.57-4.33,2.82-1.52,2.34-16.66,30.49-16.66,31.27,0,1.15.29,2.22,1.33,3.75,1.06,1.55,2.89,2.41,4.22,1.04.35-.36,2.08-3.23,4.33-6.96,3.45-5.72,8.11-13.48,10.95-17.37.36-.53.75-.6,1.07-.6s.85.07,1.21.6c2.83,3.89,7.51,11.65,10.96,17.37,2.25,3.73,3.98,6.6,4.33,6.96,1.33,1.37,3.16.52,4.22-1.04,1.04-1.53,1.33-2.6,1.33-3.75,0-.78-15.13-28.92-16.66-31.27-1.47-2.25-1.94-2.82-4.45-2.82Z"/>
  <polygon points="74.5 80.9 95.55 80.9 95.55 73.89 81.76 73.89 81.76 66.59 94.03 66.59 94.03 59.58 81.76 59.58 81.76 53.36 95.55 53.36 95.55 46.35 74.5 46.35 74.5 80.9"/>
  <polygon points="123.06 56.67 114.81 56.67 110.79 62.39 106.81 56.67 98.47 56.67 106.61 68.41 97.93 80.9 106.17 80.9 110.74 74.34 115.3 80.9 123.64 80.9 114.91 68.36 123.06 56.67"/>
  <path d="m141.2,56.17c-3.34,0-5.94,1.38-7.61,3.9v-3.41h-6.92v32.23h6.92v-11.4c1.67,2.52,4.27,3.9,7.61,3.9,6.23,0,11.19-5.68,11.19-12.64s-4.96-12.59-11.19-12.59Zm-1.57,18.56c-3.39,0-6.04-2.57-6.04-5.97s2.65-5.97,6.04-5.97,6.04,2.67,6.04,5.97-2.7,5.97-6.04,5.97Z"/>
  <path d="m167.49,56.17c-7.12,0-12.51,5.43-12.51,12.64s5.4,12.59,12.51,12.59,12.51-5.38,12.51-12.59-5.45-12.64-12.51-12.64Zm0,18.56c-3.29,0-5.74-2.57-5.74-5.92s2.45-5.97,5.74-5.97,5.74,2.52,5.74,5.97-2.5,5.92-5.74,5.92Z"/>
</svg>