<svg width="200" height="128" fill="none"
  xmlns="http://www.w3.org/2000/svg">
  <path d="M174.764 51.2726H166.887V52.9445C166.887 54.5415 166.033 55.6577 164.063 55.6577V61.7499H165.698V68.473C165.698 74.7881 168.596 76.8329 173.61 76.8329C177.214 76.8329 180 75.719 180 75.719V69.887C180 69.887 178.291 70.2224 176.916 70.2224C175.505 70.2224 174.761 69.5165 174.761 67.8446V61.7523H179.777V55.66H174.761L174.764 51.2726ZM145.376 75.6815C145.376 75.6815 148.683 76.8329 154.329 76.8329C160.757 76.8329 163.693 74.1197 163.693 69.6994C163.693 65.3894 161.017 63.3094 155.296 62.7161C152.993 62.4933 152.472 62.233 152.472 61.6397C152.472 61.0464 153.326 60.7486 155.333 60.7486C158.379 60.7486 162.392 61.2692 162.392 61.2692V56.2533C162.392 56.2533 159.458 55.1394 153.774 55.1394C147.013 55.1394 144.3 58.073 144.3 61.9375C144.3 66.0975 147.421 68.2901 152.585 68.9959C154.925 69.3313 155.446 69.5541 155.446 70.2224C155.446 70.8157 154.963 71.1885 152.77 71.1885C150.022 71.1885 145.376 70.5202 145.376 70.5202V75.6815ZM129.217 55.6577H119.037V61.7499H120.672V67.8422C120.672 74.047 123.197 76.8329 127.247 76.8329C130.591 76.8329 132.336 74.9757 133.525 73.7868V76.3123H143.704V70.22H142.07V55.6577H131.52V61.7499H133.525V67.8422C133.525 69.5142 132.781 70.22 131.37 70.22C129.958 70.22 129.215 69.5142 129.215 67.8422L129.217 55.6577ZM103.249 64.1278C106.332 64.1278 107.596 64.6108 107.596 67.5819V76.3123H119.373V70.22H117.628V67.3591C117.628 64.7586 116.439 63.3469 114.061 62.9764L114.024 62.6059C116.549 61.6397 117.888 59.0391 117.888 55.7702C117.888 49.6404 114.136 47.4104 108.044 47.4104H90.6209V53.5026H92.8486V70.22H90.6209V76.3123H105.704V70.22H103.251C103.249 70.22 103.249 64.1278 103.249 64.1278ZM103.249 59.5949V53.5026H105.254C106.665 53.5026 107.409 54.2085 107.409 55.8805V57.2171C107.409 58.8891 106.665 59.5949 105.254 59.5949H103.249Z" fill="black"/>
  <path fill-rule="evenodd" clip-rule="evenodd" d="M76.8229 65.2682L78.871 64.0009L76.8229 62.7327C76.779 61.7751 76.6857 60.83 76.5454 59.9001L78.3022 58.2585L76.0514 57.4154C75.8219 56.4892 75.5451 55.5814 75.2239 54.6947L76.632 52.736L74.2468 52.3466C73.8422 51.4892 73.3943 50.656 72.9061 49.8497L73.9115 47.6438L71.4843 47.73C70.9242 46.9733 70.3262 46.2462 69.6931 45.5517L70.2506 43.1848L67.8838 43.7424C67.1892 43.1092 66.4622 42.5112 65.7055 41.9512L65.7917 39.524L63.5853 40.5291C62.7789 40.0408 61.9454 39.5929 61.0878 39.1882L60.6995 36.8035L58.7408 38.2116C57.8541 37.8903 56.9463 37.6136 56.0201 37.3841L55.177 35.1333L53.5354 36.8901C52.6055 36.7498 51.6604 36.6565 50.7028 36.6126L49.4345 34.5645L48.1673 36.6125C47.2098 36.6563 46.265 36.7496 45.3352 36.8897L43.694 35.1333L42.8512 37.3833C41.9245 37.6127 41.0162 37.8895 40.1291 38.2109L38.1715 36.8035L37.7824 39.187C36.9242 39.5919 36.0903 40.04 35.2835 40.5285L33.0793 39.524L33.1654 41.9491C32.4079 42.5097 31.6801 43.1083 30.985 43.7421L28.6184 43.1848L29.1759 45.5514C28.5428 46.246 27.9449 46.9732 27.3849 47.73L24.9595 47.6438L25.9642 49.8484C25.4758 50.6551 25.0278 51.4889 24.6231 52.3468L22.239 52.736L23.6463 54.6949C23.3252 55.5815 23.0487 56.4891 22.8193 57.4151L20.5688 58.2585L22.3253 59.9008C22.1852 60.8303 22.0919 61.7749 22.0481 62.7321L20 64.0009L22.048 65.2688C22.0919 66.2257 22.1851 67.17 22.3252 68.0993L20.5688 69.7415L22.8193 70.5849C23.0487 71.5108 23.3254 72.4183 23.6465 73.3048L22.239 75.264L24.6237 75.6533C25.0284 76.5109 25.4763 77.3443 25.9646 78.1506L24.9595 80.3562L27.3862 80.27C27.946 81.0263 28.5437 81.753 29.1764 82.4472L28.6184 84.8171L30.9874 84.2583C31.6819 84.8913 32.4088 85.4893 33.1655 86.0492L33.0793 88.476L35.2848 87.4708C36.0912 87.9591 36.9246 88.407 37.7822 88.8118L38.1715 91.1965L40.1307 89.7889C41.0172 90.1101 41.9247 90.3867 42.8506 90.6161L43.694 92.8667L45.3362 91.1102C46.2654 91.2504 47.2097 91.3436 48.1666 91.3874L49.4345 93.4355L50.7034 91.3874C51.6606 91.3435 52.6051 91.2502 53.5346 91.1101L55.177 92.8667L56.0205 90.6158C56.9462 90.3864 57.8536 90.1098 58.74 89.7887L60.6995 91.1965L61.0878 88.8119C61.9454 88.4072 62.7789 87.9592 63.5854 87.471L65.7917 88.476L65.7055 86.049C66.462 85.4891 67.1888 84.8913 67.8831 84.2584L70.2506 84.8171L69.693 82.4487C70.3263 81.7541 70.9244 81.0269 71.4846 80.27L73.9115 80.3562L72.9063 78.1506C73.3946 77.3442 73.8425 76.5108 74.2472 75.6533L76.632 75.264L75.2241 73.3057C75.5454 72.4188 75.8222 71.5108 76.0517 70.5845L78.3022 69.7415L76.5456 68.1001C76.6858 67.1704 76.7791 66.2256 76.8229 65.2682ZM51.1465 40.8226C51.1465 39.852 50.3635 39.0443 49.3947 39.0197C49.3864 39.0197 49.3781 39.0193 49.3696 39.0188C49.3606 39.0183 49.3514 39.0178 49.3416 39.0178C48.352 39.0178 47.5387 39.833 47.5387 40.8226C47.5387 41.8122 48.352 42.6275 49.3416 42.6275C50.3312 42.6275 51.1465 41.8122 51.1465 40.8226ZM68.7207 52.8118C65.4921 47.1509 59.9298 43.1886 53.5238 41.9886L50.4147 44.9536C49.7606 45.5849 48.7217 45.5565 48.0961 44.9005L45.3168 41.9886C40.5204 42.8948 36.1543 45.3593 32.8992 48.9955H56.4472C57.0387 48.9955 59.2321 49.2571 61.2152 50.5615C62.6238 51.4961 64.694 53.3976 64.694 56.4196C64.694 59.2159 62.3754 61.3089 60.1421 62.7232C60.1854 62.7574 60.2283 62.7913 60.2708 62.8248C61.9939 64.1861 63.0933 65.0547 63.7613 68.8088C63.9243 69.5159 65.2059 70.1358 66.3661 70.0031C67.5832 69.8704 68.9691 69.3301 68.9691 66.8712V65.8266C68.9691 65.6067 69.062 65.455 69.2895 65.455H71.5682C71.6649 64.1735 71.6479 62.8843 71.5208 61.6046L67.4259 59.7884C66.6031 59.4187 66.2258 58.4443 66.5917 57.6139L68.7207 52.8118ZM29.6403 57.1438C29.6403 56.175 28.8573 55.3693 27.8885 55.3408H27.8354C26.8458 55.3408 26.0325 56.1541 26.0325 57.1438C26.0325 58.1334 26.8458 58.9486 27.8354 58.9486C28.8251 58.9486 29.6403 58.1334 29.6403 57.1438ZM72.647 57.2253C72.647 56.2565 71.864 55.4508 70.8952 55.4224C70.8782 55.4205 70.8611 55.4205 70.8421 55.4205C69.8525 55.4205 69.0392 56.2357 69.0392 57.2253C69.0392 58.2149 69.8525 59.0301 70.8421 59.0301C71.8318 59.0301 72.647 58.2149 72.647 57.2253ZM34.431 55.7124H31.2877L32.0878 57.5153C32.4593 58.3457 32.0821 59.3145 31.2517 59.6842L27.3653 61.4132C27.0581 64.2569 27.3008 67.1347 28.0857 69.8875H34.431V55.7124ZM51.8934 55.8622H44.4068L44.4011 60.0444H51.3493C52.8281 60.0444 54.6253 59.523 54.6253 58.067C54.6253 56.3096 52.2821 55.8622 51.8934 55.8622ZM50.1436 66.0484H44.4068L44.4011 70.1131H49.7075C49.9104 70.1131 50.0507 70.1548 50.0507 70.3387V76.7541C50.0507 76.9456 49.9104 76.9797 49.7075 76.9797H31.5702C32.1617 77.7798 32.8044 78.54 33.4964 79.2547L37.2254 78.4528C38.1127 78.2632 38.9829 78.8301 39.1743 79.7173L40.0805 83.9412C45.9386 86.6617 52.7029 86.6939 58.5876 84.0284L59.4919 79.8045C59.6833 78.9173 60.5592 78.3485 61.4465 78.54L65.2571 79.359C65.9964 78.6158 66.6827 77.8215 67.3102 76.9797H57.9487C56.4699 76.9797 55.0841 74.8924 54.7428 73.8478C54.5201 73.2425 54.2296 71.8036 53.9914 70.624C53.8625 69.9859 53.749 69.4236 53.6698 69.1102C52.9437 66.1982 50.6649 66.0484 50.1436 66.0484ZM37.7885 82.5421C37.7885 81.5733 37.0074 80.7676 36.0368 80.7392C36.0282 80.7392 36.0197 80.7387 36.0112 80.7382C36.0026 80.7377 35.9941 80.7373 35.9856 80.7373C34.996 80.7373 34.1807 81.5525 34.1807 82.5421C34.1807 83.5317 34.996 84.3469 35.9856 84.3469C36.9752 84.3469 37.7885 83.5317 37.7885 82.5421ZM64.4968 82.6236C64.4987 81.6529 63.7158 80.8491 62.747 80.8207C62.728 80.8188 62.711 80.8188 62.6939 80.8188C61.7043 80.8188 60.891 81.634 60.891 82.6236C60.891 83.6132 61.7043 84.4284 62.6939 84.4284C63.6835 84.4284 64.4968 83.6132 64.4968 82.6236Z" fill="black"/>
</svg>
