<svg xmlns="http://www.w3.org/2000/svg" width="200" height="128">
  <path d="M58.91,59.48c-1.76,0-3.25.65-4.46,1.58v-1.49h-4.09v15.88h4.27v-10.12c.56-.84,2.04-1.95,3.81-1.95.65,0,1.21.09,1.67.28v-4.09c-.37-.09-.74-.09-1.21-.09" fill-rule="evenodd" stroke-width="0"/>
  <path d="M21.95,70.62c1.11,1.02,2.69,1.58,4.36,1.58,1.11,0,2.04-.56,2.04-1.3,0-2.41-7.61-1.58-7.61-6.69,0-3.06,2.97-4.92,6.04-4.92,2.04,0,4.27.74,5.39,1.58l-1.95,3.06c-.84-.56-1.86-1.11-3.06-1.11s-2.14.46-2.14,1.3c0,2.04,7.61,1.21,7.61,6.78,0,3.06-2.97,4.92-6.31,4.92-2.23,0-4.46-.74-6.31-2.14l1.95-3.06Z" fill-rule="evenodd" stroke-width="0"/>
  <path d="M48.6,67.37c0-4.46-3.06-8.08-7.43-8.08-4.74,0-7.71,3.9-7.71,8.26,0,5.01,3.53,8.26,8.26,8.26,2.41,0,4.92-1.02,6.5-2.88l-2.41-2.41c-.74.84-2.23,1.86-3.99,1.86-2.23,0-4.09-1.58-4.27-3.81h10.96c0-.37.09-.74.09-1.21M37.74,65.51c.19-1.49,1.67-2.79,3.34-2.79,1.76,0,2.97,1.39,3.16,2.79h-6.5Z" fill-rule="evenodd" stroke-width="0"/>
  <polygon points="70.24 69.32 74.6 59.57 78.97 59.57 71.72 75.45 68.75 75.45 61.51 59.57 65.97 59.57 70.24 69.32" fill-rule="evenodd" stroke-width="0"/>
  <path d="M82.59,52.14c1.49,0,2.79,1.21,2.79,2.69s-1.21,2.69-2.79,2.69-2.79-1.21-2.79-2.69,1.21-2.69,2.79-2.69" fill-rule="evenodd" stroke-width="0"/>
  <rect x="80.45" y="59.57" width="4.27" height="15.88" stroke-width="0"/>
  <path d="M102.18,72.2c-1.86,2.51-4.18,3.53-7.15,3.53-4.92,0-8.45-3.71-8.45-8.26s3.71-8.26,8.54-8.26c2.69,0,5.2,1.3,6.69,3.16l-2.97,2.69c-.84-1.11-2.14-1.86-3.62-1.86-2.41,0-4.27,1.95-4.27,4.36s1.76,4.36,4.36,4.36c1.76,0,3.06-1.02,3.81-2.14l3.06,2.41Z" fill-rule="evenodd" stroke-width="0"/>
  <path d="M117.6,72.94c-1.49,1.86-4.09,2.88-6.5,2.88-4.74,0-8.26-3.25-8.26-8.26,0-4.46,2.97-8.26,7.71-8.26,4.36,0,7.43,3.71,7.43,8.08,0,.46,0,.84-.09,1.21h-10.96c.19,2.23,2.04,3.81,4.27,3.81,1.76,0,3.25-1.02,3.99-1.86l2.41,2.41ZM113.6,65.51c-.09-1.39-1.39-2.79-3.16-2.79s-3.16,1.3-3.34,2.79h6.5Z" fill-rule="evenodd" stroke-width="0"/>
  <path d="M119.64,75.45v-15.88h4.09v1.3c1.21-1.02,2.69-1.58,4.46-1.58,2.23,0,4.18,1.02,5.48,2.6,1.02,1.21,1.67,2.88,1.67,5.57v8.08h-4.27v-8.45c0-1.58-.37-2.41-.93-2.97-.56-.56-1.39-.93-2.41-.93-1.76,0-3.25,1.11-3.81,1.95v10.31h-4.27Z" fill-rule="evenodd" stroke-width="0"/>
  <path d="M146.2,59.29c-5.01,0-9.29,4.09-9.29,9.19,0,2.69,1.11,5.11,2.88,6.87.65.65,1.67.65,2.41.09,1.02-.84,2.41-1.3,3.99-1.3s2.88.46,3.99,1.3c.74.56,1.76.46,2.41-.19,1.76-1.67,2.88-4.09,2.88-6.78-.09-5.01-4.18-9.19-9.29-9.19M146.11,73.22c-2.69,0-4.64-2.04-4.64-4.64s1.86-4.64,4.64-4.64,4.64,2.14,4.64,4.64-1.86,4.64-4.64,4.64" fill="#82d562" fill-rule="evenodd" stroke-width="0"/>
  <polygon points="163.75 75.45 160.59 75.45 154.28 59.57 158.55 59.57 161.98 68.67 165.42 59.57 168.95 59.57 172.29 68.67 175.73 59.57 180 59.57 173.69 75.45 170.53 75.45 167.19 66.44 163.75 75.45" fill-rule="evenodd" stroke-width="0"/>
</svg>