<svg xmlns="http://www.w3.org/2000/svg" width="120" height="60">
    <path fill="#000" d="M62.83 42.65l-3.17-4.36h-.61v5.29h.54v-4.49l3.26 4.49h.52v-5.29h-.54v4.36zM65.28 41.1h2.87v-.53h-2.87v-1.75h2.94v-.53h-3.5v5.29h3.53v-.51h-2.97V41.1zM69.07 38.82h1.99v4.76h.56v-4.76h1.99v-.53h-4.54v.53zM79.58 42.67l-1.41-4.38h-.49l-1.42 4.38-1.39-4.38h-.58L76 43.62h.49l1.42-4.41 1.43 4.41h.49l1.7-5.33h-.55l-1.4 4.38zM84.69 38.2C83 38.2 82 39 82 40.93s1 2.74 2.66 2.74 2.67-.85 2.67-2.74a2.39 2.39 0 00-2.64-2.73zm0 4.94c-1.43 0-2.09-.77-2.09-2.2s.66-2.2 2.09-2.2 2.11.77 2.11 2.2-.67 2.2-2.11 2.2zM92.58 39.83c0-1-.55-1.54-1.78-1.54h-2.29v5.29h.55v-2.16h1.59l1.26 2.16h.6l-1.28-2.18a1.41 1.41 0 001.35-1.57zm-1.77 1.08h-1.75v-2.1h1.72c.79 0 1.24.21 1.24 1s-.46 1.1-1.21 1.1zM97.66 38.29h-.65l-2.68 2.92v-2.92h-.55v5.29h.55v-1.65l1.06-1.16 1.89 2.81h.64l-2.16-3.21 1.9-2.08zM100.71 40.58c-.95-.17-1.5-.3-1.5-1s.41-.89 1.36-.89a2.88 2.88 0 011.54.41l.3-.46a3.24 3.24 0 00-1.84-.47c-1.26 0-1.91.4-1.91 1.42s.77 1.27 1.91 1.47c1 .17 1.58.28 1.58 1s-.49 1-1.58 1a3.38 3.38 0 01-1.89-.53l-.29.42a3.77 3.77 0 002.19.61c1.45 0 2.12-.51 2.12-1.56s-.84-1.21-1.99-1.42zM108.23 16.41c-7.44 0-7.75 3.34-7.75 8V36h1.75V24.45c0-3.55-.14-6.39 6-6.39a15.55 15.55 0 011.77.1v-1.67c-.54-.05-1.13-.08-1.77-.08zM35.38 28.34c0 3.55.14 6.39-6 6.39s-6.15-2.84-6.15-6.21V16.8h-1.79v11.68c0 4.57.46 7.9 7.94 7.9s7.75-3.33 7.75-8V16.8h-1.75zM47.86 16.41c-7.44 0-7.76 3.34-7.76 8V36h1.76V24.45c0-3.55-.14-6.39 6-6.39S54 20.9 54 24.27V36h1.79V24.31c0-4.56-.45-7.9-7.93-7.9zM59.05 16.83h1.72v19.16h-1.72zM65.7 29.34h7.23c4.5 0 6.49-2.41 6.49-6.37s-2-6.14-6.47-6.14H64V36h1.7zm0-10.79h7.2c3.06 0 4.72 1.45 4.72 4.5s-1.54 4.56-4.62 4.56h-7.3zM90.27 16.34c-7.23 0-8.85 4.35-8.85 10s1.4 10 9 10a11.28 11.28 0 007.26-2.31l-1-1.3a9.22 9.22 0 01-6.28 2c-6.08 0-7.23-3.47-7.27-8.14H98c0-5.23-.26-10.25-7.73-10.25zM83.18 25c.21-4.17 1.68-7.08 7-7.08 5.58 0 5.83 3.26 6 7.08zM16.67 32.12c0 3.54.14 6.38-6 6.38H10v1.66h.67c7.44 0 7.75-3.33 7.75-8V16.8h-1.75zM106.07 33.66a1.21 1.21 0 101.21 1.21 1.21 1.21 0 00-1.21-1.21zm0 2.26a1.06 1.06 0 010-2.11 1.06 1.06 0 110 2.11z"/>
    <path fill="#000" d="M106.68 34.59c0-.27-.13-.42-.48-.42h-.62v1.39h.18V35h.39l.31.53h.2l-.31-.54a.38.38 0 00.33-.4zm-.49.26h-.43v-.5h.43c.2 0 .3 0 .3.25s-.11.25-.3.25z"/>
</svg>
