<svg xmlns="http://www.w3.org/2000/svg" width="120" height="60">
    <path d="M20.09 26.68a1.47 1.47 0 00.45-1.1v-5.72a1.45 1.45 0 00-2.89 0v3.29l-2.78-1.65a1.45 1.45 0 00-1.55 2.44h.1l5 2.89a1.36 1.36 0 001.69-.2zM18 30.16a1.38 1.38 0 00-.75-1.29l-5-2.89a1.44 1.44 0 10-1.54 2.44h.1l2.83 1.64-2.83 1.64a1.47 1.47 0 00-.6 2 1.42 1.42 0 002 .6h.1l5-2.89a1.42 1.42 0 00.7-1.29zM20.54 34.69v5.77a1.45 1.45 0 01-2.89 0v-3.23l-2.83 1.64a1.45 1.45 0 01-1.55-2.44h.1l5-2.89a1.51 1.51 0 012 .6.84.84 0 01.15.6zM23.13 34.84v5.62a1.44 1.44 0 102.88 0v-3.23l2.79 1.59a1.44 1.44 0 101.54-2.44c-.05 0-.05-.05-.1-.05l-5-2.89a1.48 1.48 0 00-2 .55 1.71 1.71 0 00-.15.85zM25.71 30.16a1.38 1.38 0 01.75-1.29l5-2.89A1.44 1.44 0 1133 28.42h-.1L30 30.11l2.84 1.64a1.47 1.47 0 11-1.39 2.59s0-.05-.1-.05l-5-2.89a1.22 1.22 0 01-.7-1.24zM23.13 25.48v-5.62a1.44 1.44 0 012.88 0v3.24l2.79-1.6a1.44 1.44 0 111.54 2.44h-.1l-5 2.89a1.47 1.47 0 01-2-.55 1.62 1.62 0 01-.15-.85zM24.37 29.56l-1.94-2a.45.45 0 00-.35-.15h-.5a.42.42 0 00-.34.15l-2 2a.45.45 0 00-.15.35v.5a.45.45 0 00.15.35l2 2a.42.42 0 00.34.15h.5a.45.45 0 00.35-.15l2-2a.93.93 0 00.1-.35v-.5a.45.45 0 00-.16-.35zm-1.64.85l-.6.6a.36.36 0 01-.5 0l-.59-.6a.36.36 0 010-.5l.59-.59a.36.36 0 01.5 0l.6.59a.36.36 0 010 .5zM38.13 34a4.5 4.5 0 001.81.4 3.32 3.32 0 002.15-.65 2.18 2.18 0 00.95-1.8c0-1.66-1.45-2-2.95-2.51-1-.35-2.11-.6-2.11-1.45 0-1.05 1.3-1.5 2-1.5 1.7 0 2.1 1.35 2.55.95s-1.2-1.7-2.45-1.7a3.42 3.42 0 00-2.11.55A1.88 1.88 0 0037 28c-.05 1.75 2.1 2 3.06 2.4s2 .71 2 1.56c0 1.2-1.5 1.6-2.15 1.6-1.91 0-2.46-1.1-2.81-.75s0 .7 1 1.15zM51 34a.47.47 0 00.45.4c.2 0 .35-.2.4-.4v-4.72A3.52 3.52 0 0045.59 27v-.85a.39.39 0 00-.4-.4.43.43 0 00-.4.4v8a.51.51 0 00.3.25h.15a.3.3 0 00.3-.15.26.26 0 00.1-.2v-4.77a2.68 2.68 0 015.36 0V34zm2.41-3.91a4.09 4.09 0 104-4.35 4.26 4.26 0 00-4 4.35zm25.79-7.17a1.29 1.29 0 00-1.1.35 2.19 2.19 0 00-.35 1.46v.9h1.2a.44.44 0 01.45.4.45.45 0 01-.45.45H77.7V34a.44.44 0 01-.4.45.41.41 0 01-.45-.4v-7.57h-1.16a.45.45 0 01-.45-.45.39.39 0 01.4-.4h1.16v-.9a3.13 3.13 0 01.55-2 2.22 2.22 0 011.7-.65h.25a.45.45 0 010 .9h-.1zm-25 6.81a3.26 3.26 0 116.51.4 3.37 3.37 0 01-3.36 3.06 3.3 3.3 0 01-3.15-3.46zm11.62 4.66a.38.38 0 00.35-.25l2-4.76 2 4.81a.52.52 0 00.36.3.38.38 0 00.25-.1.69.69 0 00.15-.2l2.9-7.76a.43.43 0 00-.8-.3l-2.5 6.86-2-4.76a.51.51 0 00-.4-.25.45.45 0 00-.4.25l-2 4.76-2.51-6.86a.5.5 0 00-.55-.25.42.42 0 00-.2.55l2.91 7.76a.69.69 0 00.15.2h.2zm15.67-.45a.45.45 0 00.9 0V22.42a.45.45 0 00-.9 0v11.52zm10.32-8.21a.48.48 0 00-.45.4v1.25a4 4 0 00-3.26-1.7 4.34 4.34 0 000 8.66 4 4 0 003.26-1.7v1.3a.47.47 0 00.45.4c.2 0 .35-.2.4-.4v-7.81a.43.43 0 00-.4-.4zm-3.41 7.86a3.44 3.44 0 01-3.65-3.31 3.36 3.36 0 013.1-3.7 3.25 3.25 0 013.51 3.25v.25a3.36 3.36 0 01-3.26 3.46h.3v.05zm5.76.35a.46.46 0 00.91 0v-2l1.75-1.76 3.3 4a.39.39 0 00.35.15.45.45 0 00.46-.4.54.54 0 00-.11-.3l-3.35-4.06 3.35-3.2a.41.41 0 000-.6.39.39 0 00-.55 0l-5.15 5v-8.35a.46.46 0 00-.91 0v11.52zm15.53-1.7a.48.48 0 00-.15-.6.4.4 0 00-.55.15 3.38 3.38 0 01-2.81 1.75h-.4a3.36 3.36 0 01-3.3-3.31h7.11a.39.39 0 00.4-.35v-.1a4.2 4.2 0 10-4.21 4.66h.4a4.45 4.45 0 003.51-2.2zm-3.86-5.46a3.15 3.15 0 013.26 2.6h-6.56a3.2 3.2 0 013.3-2.6z" fill="#31bef0"/>
</svg>
