<svg xmlns="http://www.w3.org/2000/svg" width="128" height="128">
    <path d="M54.67 45.36a7.9 7.9 0 002.42-5.91V8.54a7.8 7.8 0 10-15.59 0v17.74l-15-8.87a7.54 7.54 0 00-10.8 2.42 7.53 7.53 0 002.41 10.75c.27 0 .27.27.54.27l26.88 15.59a7.37 7.37 0 009.14-1.08zM43.11 64.18a7.5 7.5 0 00-4-7L12.2 41.6A7.54 7.54 0 001.45 44a7.54 7.54 0 002.42 10.77c.27 0 .27.27.54.27l15.32 8.87-15.32 8.87a7.93 7.93 0 00-3.23 10.75 7.71 7.71 0 0010.75 3.23h.54l26.88-15.59a7.79 7.79 0 003.76-7zM57.09 88.64v31.18a7.8 7.8 0 01-15.59 0v-17.47l-15.32 8.87a7.54 7.54 0 01-10.75-2.42 7.53 7.53 0 012.42-10.75c.26 0 .26-.27.53-.27l26.88-15.59a8.08 8.08 0 0111 3.22 4.51 4.51 0 01.81 3.23zM71.07 89.45v30.37a7.8 7.8 0 0015.59 0v-17.47l15 8.6A7.79 7.79 0 10110 97.78c-.27 0-.27-.27-.53-.27L82.63 81.92a7.91 7.91 0 00-10.76 3 9.23 9.23 0 00-.8 4.57zM85.05 64.18a7.5 7.5 0 014-7L116 41.6a7.79 7.79 0 018.33 13.17c-.27 0-.27.27-.54.27l-15.32 8.87 15.32 8.87a7.94 7.94 0 11-7.53 14c-.26 0-.26-.27-.53-.27L88.81 70.9a6.66 6.66 0 01-3.76-6.72zM71.07 38.91V8.54a7.8 7.8 0 1115.59 0V26l15-8.6a7.54 7.54 0 0110.75 2.42A7.53 7.53 0 01110 30.58c-.27 0-.27.27-.53.27L82.63 46.44a7.91 7.91 0 01-10.76-3 8.73 8.73 0 01-.8-4.57zM77.79 61L67.3 50.2a2.44 2.44 0 00-1.88-.8h-2.69a2.47 2.47 0 00-1.88.8L50.1 61a2.44 2.44 0 00-.8 1.88v2.69a2.41 2.41 0 00.8 1.88l10.75 10.71a2.47 2.47 0 001.88.8h2.69a2.44 2.44 0 001.88-.8L78.06 67.4a5.07 5.07 0 00.53-1.88v-2.69a2.47 2.47 0 00-.8-1.83zm-8.87 4.57l-3.23 3.23a1.95 1.95 0 01-2.69 0l-3.22-3.23a1.93 1.93 0 010-2.68L63 59.61a2.06 2.06 0 011.35-.54 2 2 0 011.34.54l3.23 3.23a2 2 0 010 2.68z" fill="#31bef0"/>
</svg>
