<svg xmlns="http://www.w3.org/2000/svg" width="200" height="128">
    <defs>
        <linearGradient id="a" x1="169.505" y1="112.673" x2="168.432" y2="111.996" gradientTransform="matrix(19.552 0 0 -17.665 -3237.758 2058.486)" gradientUnits="userSpaceOnUse">
            <stop offset="0" stop-color="#3c9fe6"/>
            <stop offset="1" stop-color="#77cffd"/>
        </linearGradient>
        <linearGradient id="b" x1="168.794" y1="111.796" x2="166.911" y2="112.982" gradientTransform="matrix(19.552 0 0 -17.665 -3246.54 2052.377)" gradientUnits="userSpaceOnUse">
            <stop offset=".36" stop-color="#2285e1"/>
            <stop offset=".79" stop-color="#2581cb"/>
        </linearGradient>
    </defs>
    <path d="M36.532 84.512v12.432l36.806-20.823V63.689z" fill="url(#a)"/>
    <path d="M36.532 54.987L73.338 75.81V63.378L36.532 42.555z" fill="#77cffd"/>
    <path d="M20 64.621l36.806 20.823V73.012L20 52.189z" fill="#3195e3"/>
    <path d="M20 64.621l36.806 20.823V73.012L20 52.189z" fill="url(#b)"/>
    <path d="M56.806 31.056L20 51.879v12.432l36.806-20.823z" fill="#3195e3"/>
    <path d="M56.806 73.042v12.4l-10.962-6.2zM36.532 54.958v-12.4l10.961 6.2z" fill="#2285e1"/>
    <path d="M180 54.9v-4.8h-4.618v-9.409H170.1V50.1h-3.8v4.8h3.8v23.214h5.279V54.9zm-22.585 23.214h5.279V50.1h-5.279zm0-31.253h5.279v-6.17h-5.279zM145.59 78.114h5.278V40.691h-5.278zm-10.354-13.957a9.549 9.549 0 0 1-9.491 9.861c-5.583 0-9.542-4.551-9.542-9.962 0-5.26 3.959-9.913 9.39-9.913a9.906 9.906 0 0 1 9.643 10.014zm5.279.3c0-8.445-5.887-15.125-14.567-15.125a11.909 11.909 0 0 0-10 5.058h-.1V50.1h-4.819v37.37h5.279v-13.4h.1c2.029 3.338 6.14 4.753 9.9 4.753a14.144 14.144 0 0 0 14.207-14.363zm-33.752 5.411c0-5.411-3.857-7.687-8.476-9.1-1.929-.607-4.367-1.163-4.367-3.641a3.041 3.041 0 0 1 3.3-2.984 3.472 3.472 0 0 1 3.6 3.389h5.28c-.1-4.855-3.806-8.193-8.63-8.193-4.618 0-8.831 3.287-8.831 8.092 0 9.911 12.841 6.878 12.841 12.742a3.726 3.726 0 0 1-4.061 3.844c-3.146 0-4.567-2.225-4.771-5.107h-5.273c0 4.4 2.183 7.788 6.342 9.254a11.074 11.074 0 0 0 3.6.658c5.383 0 9.446-3.439 9.446-8.951z"/>
</svg>
