<svg xmlns="http://www.w3.org/2000/svg" width="200" height="128">
    <path fill="#194b7d" d="M49.1 48.1a1.24 1.24 0 00-1.1-.62H30.09a1.22 1.22 0 00-1.09.62l-9 15.53a1.25 1.25 0 000 1.24l9 15.53a1.24 1.24 0 001.07.62H48a1.26 1.26 0 001.08-.62l9-15.53a1.25 1.25 0 000-1.24zm2.08 10.6L48.91 64a.45.45 0 01-.32.25h-.06a.41.41 0 01-.32-.15l-.85-1-5.23 4.59a1.23 1.23 0 01-1.73-.1l-3.53-3.99-4 3.51a2.8 2.8 0 01.07.59 2.64 2.64 0 11-2.64-2.64 2.55 2.55 0 01.95.18l5-4.31a1.24 1.24 0 011.65.07l3.52 4 4.35-3.81-.85-1a.4.4 0 01-.07-.39.38.38 0 01.29-.27l5.57-1.33a.4.4 0 01.41.13.42.42 0 01.06.37zM98.74 55.83H83.22v3.89h5.32v13.44h4.9V59.72h5.3v-3.89zM78.58 63.52a24.13 24.13 0 00-3.28-.91 14 14 0 01-2.55-.71 1.12 1.12 0 01-.79-1 1.29 1.29 0 01.67-1.13 4 4 0 012.13-.43 10.08 10.08 0 014.8 1.33L81.07 57a10.32 10.32 0 00-2.92-1.12 14.71 14.71 0 00-3.37-.39 10.55 10.55 0 00-4.22.75 5.76 5.76 0 00-2.59 2 5 5 0 00-.86 2.86 4.14 4.14 0 00.94 2.9 5.4 5.4 0 002.25 1.55 24.36 24.36 0 003.27.91 14.15 14.15 0 012.58.75 1.17 1.17 0 01.81 1.1q0 1.41-2.82 1.41a10 10 0 01-3-.47A10.16 10.16 0 0168.42 68l-1.61 3.6A10 10 0 0070 73a16.3 16.3 0 004.08.52 10.56 10.56 0 004.21-.76 5.82 5.82 0 002.6-2 4.85 4.85 0 00.87-2.82 4.09 4.09 0 00-1-2.86 5.58 5.58 0 00-2.18-1.56zM106.33 55.83l-7.65 17.33h5l1.32-3.37h7.33l1.36 3.37h5.1l-7.67-17.33zm.15 10.35l2.23-5.55 2.22 5.55zM118.78 59.72h5.32v13.44h4.9V59.72h5.3v-3.89h-15.52v3.89zM175.27 68.88a6.25 6.25 0 01-2.65.57 5.1 5.1 0 01-2.55-.63 4.5 4.5 0 01-1.73-1.76 5.28 5.28 0 01-.62-2.57 4.83 4.83 0 011.36-3.6 4.89 4.89 0 013.59-1.35 5.51 5.51 0 014.21 1.93l3.12-2.82a8.38 8.38 0 00-3.22-2.35 11.18 11.18 0 00-4.36-.82 10.68 10.68 0 00-5 1.15 8.53 8.53 0 00-3.42 3.21 9.36 9.36 0 000 9.31 8.58 8.58 0 003.41 3.21 10.46 10.46 0 004.91 1.15 13.62 13.62 0 003.86-.57 11.35 11.35 0 003.41-1.64v-7.18h-4.33zM154.21 55.83h4.9v17.33h-4.9zM147.7 63.52a24.13 24.13 0 00-3.28-.91 13.53 13.53 0 01-2.55-.71 1.13 1.13 0 01-.8-1 1.31 1.31 0 01.67-1.13 4 4 0 012.13-.43 10.08 10.08 0 014.8 1.33l1.51-3.67a10.21 10.21 0 00-2.92-1.12 14.62 14.62 0 00-3.36-.39 10.6 10.6 0 00-4.23.75 5.73 5.73 0 00-2.58 2 5 5 0 00-.87 2.86 4.14 4.14 0 00.94 2.87 5.53 5.53 0 002.25 1.55 25.25 25.25 0 003.27.91 14.57 14.57 0 012.59.75 1.16 1.16 0 01.8 1.1q0 1.41-2.82 1.41a10 10 0 01-3-.47 10.46 10.46 0 01-2.7-1.23l-1.61 3.61a10.13 10.13 0 003.2 1.4 16.32 16.32 0 004.09.52 10.59 10.59 0 004.21-.76 5.87 5.87 0 002.6-2 4.91 4.91 0 00.86-2.82 4.13 4.13 0 00-1-2.86 5.72 5.72 0 00-2.2-1.56z"/>
</svg>
