<svg xmlns="http://www.w3.org/2000/svg" width="200" height="128">
    <g>
        <path d="M88.566,72.828c.388,3.448,3.677,5.709,8.244,5.709,4.34,0,7.468-2.261,7.468-5.389,0-2.695-1.895-4.34-6.258-5.436l-4.225-1.073c-6.075-1.507-8.816-4.248-8.816-8.77,0-5.572,4.865-9.432,11.785-9.432,6.714,0,11.487,3.882,11.647,9.478h-4.453c-.343-3.426-3.129-5.528-7.308-5.528-4.134,0-7.012,2.124-7.012,5.23,0,2.421,1.782,3.86,6.167,4.979l3.517,.913c6.806,1.668,9.592,4.317,9.592,9.09,0,6.075-4.819,9.889-12.493,9.889-7.125,0-11.99-3.792-12.355-9.661h4.499Z"/>
        <path d="M137.204,81.94h-4.477l-5.23-18.225h-.091l-5.207,18.225h-4.476l-6.623-23.866h4.339l4.613,19.162h.092l5.207-19.162h4.202l5.253,19.162h.092l4.613-19.162h4.293l-6.6,23.866Z"/>
        <path d="M146.695,51.657c0-1.438,1.188-2.603,2.627-2.603,1.462,0,2.649,1.165,2.649,2.603s-1.187,2.627-2.649,2.627c-1.439,0-2.627-1.187-2.627-2.627Zm.457,6.417h4.362v23.866h-4.362v-23.866Z"/>
        <path d="M180,61.592v-3.518h-4.613v-5.709h-4.34v5.709h-8.338v-2.101c.022-2.124,.845-3.015,2.809-3.015,.639,0,1.279,.069,1.804,.16v-3.426c-.777-.114-1.485-.182-2.307-.182-4.659,0-6.623,1.942-6.623,6.395v2.169h-3.334v3.518h3.334v20.349h4.339v-20.349h8.316v14.092c0,4.613,1.759,6.394,6.326,6.394,.982,0,2.101-.068,2.604-.182v-3.562c-.297,.046-1.165,.114-1.645,.114-2.032,0-2.946-.959-2.946-3.106v-13.749h4.613Z"/>
    </g>
    <path d="M43.53,64.3c-2.71-2.25-10.26-13.13-10.26-13.13,6.06,6.13,18.09,14.69,18.09,14.69,3.42-9.47-3.28-17.91-3.28-17.91,16.38,11.14,11.08,23.42,11.08,23.42,0,0,4.66,5.26,2.78,9.86,0,0-1.92-3.22-5.14-3.22-3.11,0-4.93,3.22-11.18,3.22-13.92,0-20.5-11.62-20.5-11.62,12.54,8.24,21.1,2.4,21.1,2.4-5.56-3.23-17.29-18.47-17.65-18.95,10.13,8.62,14.68,11.1,14.96,11.24Z" fill="#fff"/>
    <path d="M28.57,53.06c.36,.48,12.09,15.72,17.65,18.95,0,0-8.56,5.84-21.1-2.4,0,0,6.58,11.62,20.5,11.62,6.25,0,8.07-3.22,11.18-3.22,3.22,0,5.14,3.22,5.14,3.22,1.88-4.6-2.78-9.86-2.78-9.86,0,0,5.3-12.28-11.08-23.42,0,0,6.7,8.44,3.28,17.91,0,0-12.03-8.56-18.09-14.69,0,0,7.55,10.88,10.26,13.13-.28-.14-4.83-2.62-14.96-11.24Zm41.13-1.02v26.84c0,.86-.04,1.73-.21,2.57-.39,1.92-1.3,3.72-2.62,5.18-1.3,1.45-3.01,2.54-4.85,3.12-1.13,.35-2.29,.51-3.48,.51-.52,0-27.57,0-27.98-.02-1.98-.1-3.94-.74-5.59-1.85-1.61-1.08-2.93-2.6-3.79-4.34-.73-1.5-1.1-3.17-1.1-4.84v-15.03l-.08-.09v-12.51c0-5.94,4.7-10.78,10.59-10.99,.12-.01,.24-.02,.37-.02h27.6c1.34,0,2.64,.22,3.9,.66,1.83,.66,3.48,1.83,4.72,3.34,1.26,1.51,2.1,3.38,2.39,5.32,.11,.72,.13,1.43,.13,2.15Z" fill="#f05138"/>
</svg>
