<svg xmlns="http://www.w3.org/2000/svg" width="128" height="128">
    <path d="M60.6,61.11c-6.87-5.72-25.8-32.95-26.4-33.8,15.59,15.78,46.57,37.81,46.57,37.81,8.69-24.09-8.02-45.59-8.44-46.12,42.18,28.69,28.53,60.32,28.53,60.32,0,0,12,13.54,7.15,25.39,0,0-4.95-8.3-13.25-8.3-7.99,0-12.69,8.3-28.79,8.3-35.83,0-52.78-29.94-52.78-29.94,32.29,21.24,54.33,6.2,54.33,6.2-14.54-8.45-45.48-48.83-45.48-48.83,26.1,22.22,37.85,28.6,38.56,28.97Z" fill="#fff"/><path d="M72.33,19c.42,.53,17.13,22.03,8.44,46.12,0,0-30.98-22.03-46.57-37.81,.6,.85,19.53,28.08,26.4,33.8-.71-.37-12.46-6.75-38.56-28.97,0,0,30.94,40.38,45.48,48.83,0,0-22.04,15.04-54.33-6.2,0,0,16.95,29.94,52.78,29.94,16.1,0,20.8-8.3,28.79-8.3,8.3,0,13.25,8.3,13.25,8.3,4.85-11.85-7.15-25.39-7.15-25.39,0,0,13.65-31.63-28.53-60.32Zm55.67,10.54V98.66c0,2.2-.1,4.45-.55,6.6-1,4.95-3.35,9.6-6.75,13.34-3.35,3.75-7.74,6.55-12.49,8.05-2.9,.9-5.9,1.3-8.95,1.3-1.35,0-71.02,0-72.07-.05-5.1-.25-10.15-1.9-14.39-4.75-4.15-2.8-7.55-6.7-9.75-11.19-1.9-3.85-2.85-8.15-2.85-12.45V60.79l-.2-.21V28.34C0,12.94,12.26,.4,27.57,.02c.16-.01,.33-.01,.49-.01,.08,0,.15-.01,.23-.01H99.31c3.45,0,6.8,.55,10.05,1.7,4.7,1.7,8.94,4.7,12.14,8.6,3.25,3.89,5.4,8.69,6.15,13.69,.3,1.85,.35,3.7,.35,5.55Z" fill="#f05138"/>
</svg>
