<svg xmlns="http://www.w3.org/2000/svg" width="128" height="128">
  <circle fill="#FFFFFF" cx="64" cy="64" r="64"/>
  <path fill="#7765FF" d="m28.499 81.233h-26.146c-1.534-5.487-2.353-11.266-2.353-17.233 0-5.769.762-11.36 2.202-16.678h26.221c-.744 5.468-1.129 11.068-1.129 16.678 0 5.798.424 11.595 1.205 17.233z"/>
  <path fill="#7765FF" d="m37.515 111.925c2.833 5.656 6.052 10.296 9.544 13.807-19.708-5.393-35.624-19.972-42.842-38.852h25.205c1.732 9.214 4.489 17.816 8.094 25.045z"/>
  <path fill="#7765FF" d="m29.318 41.675h-25.308c7.115-19.153 23.144-33.967 43.049-39.407-3.492 3.511-6.711 8.151-9.544 13.807-3.68 7.369-6.466 16.179-8.198 25.6z"/>
  <path fill="#7765FF" d="m61.176.301v41.374h-26.118c4.264-22.061 14.485-38.984 26.118-41.374z"/>
  <path fill="#7765FF" d="m34.118 47.322h27.059v33.911h-26.984c-.809-5.534-1.252-11.313-1.252-17.233 0-5.722.414-11.313 1.176-16.678z"/>
  <path fill="#7765FF" d="m35.172 86.88h26.005v40.819c-11.539-2.372-21.685-19.031-26.005-40.819z"/>
  <path fill="#7765FF" d="m92.828 86.88c-4.32 21.788-14.466 38.447-26.005 40.819v-40.819h26.005z"/>
  <path fill="#7765FF" d="m92.941 41.675h-26.118v-41.374c11.633 2.391 21.854 19.313 26.118 41.374z"/>
  <path fill="#7765FF" d="m93.807 81.233h-26.984v-33.911h27.059c.762 5.365 1.176 10.955 1.176 16.678 0 5.92-.442 11.699-1.252 17.233z"/>
  <path fill="#7765FF" d="m98.579 86.88h25.205c-7.219 18.88-23.134 33.459-42.842 38.852 3.492-3.511 6.711-8.151 9.544-13.807 3.605-7.228 6.362-15.831 8.094-25.045z"/>
  <path fill="#7765FF" d="m90.485 16.075c-2.833-5.656-6.052-10.296-9.544-13.807 19.906 5.44 35.934 20.254 43.049 39.407h-25.308c-1.732-9.421-4.518-18.231-8.198-25.6z"/>
  <path fill="#7765FF" d="m128 64c0 5.967-.819 11.746-2.353 17.233h-26.146c.781-5.638 1.205-11.435 1.205-17.233 0-5.609-.386-11.209-1.129-16.678h26.221c1.44 5.318 2.202 10.908 2.202 16.678z"/>
</svg>
