<?xml version="1.0" encoding="utf-8"?>
<!-- Generator: Adobe Illustrator 26.1.0, SVG Export Plug-In . SVG Version: 6.00 Build 0)  -->
<svg version="1.1" id="Layer_1" xmlns="http://www.w3.org/2000/svg" xmlns:xlink="http://www.w3.org/1999/xlink" x="0px" y="0px"
	 viewBox="0 0 136 136" style="enable-background:new 0 0 136 136;" xml:space="preserve">
<style type="text/css">
	.st0{fill:#FFFFFF;}
	.st1{fill:#7765FF;}
</style>
<g>
	<circle class="st0" cx="68" cy="68" r="68"/>
	<g>
		<path class="st1" d="M30.28,86.31H2.5C0.87,80.48,0,74.34,0,68c0-6.13,0.81-12.07,2.34-17.72H30.2C29.41,56.09,29,62.04,29,68
			C29,74.16,29.45,80.32,30.28,86.31z"/>
		<path class="st1" d="M39.86,118.92c3.01,6.01,6.43,10.94,10.14,14.67c-20.94-5.73-37.85-21.22-45.52-41.28h26.78
			C33.1,102.1,36.03,111.24,39.86,118.92z"/>
		<path class="st1" d="M31.15,44.28H4.26C11.82,23.93,28.85,8.19,50,2.41c-3.71,3.73-7.13,8.66-10.14,14.67
			C35.95,24.91,32.99,34.27,31.15,44.28z"/>
		<path class="st1" d="M65,0.32v43.96H37.25C41.78,20.84,52.64,2.86,65,0.32z"/>
		<path class="st1" d="M36.25,50.28H65v36.03H36.33C35.47,80.43,35,74.29,35,68C35,61.92,35.44,55.98,36.25,50.28z"/>
		<path class="st1" d="M37.37,92.31H65v43.37C52.74,133.16,41.96,115.46,37.37,92.31z"/>
		<path class="st1" d="M98.63,92.31c-4.59,23.15-15.37,40.85-27.63,43.37V92.31H98.63z"/>
		<path class="st1" d="M98.75,44.28H71V0.32C83.36,2.86,94.22,20.84,98.75,44.28z"/>
		<path class="st1" d="M99.67,86.31H71V50.28h28.75C100.56,55.98,101,61.92,101,68C101,74.29,100.53,80.43,99.67,86.31z"/>
		<path class="st1" d="M104.74,92.31h26.78c-7.67,20.06-24.58,35.55-45.52,41.28c3.71-3.73,7.13-8.66,10.14-14.67
			C99.97,111.24,102.9,102.1,104.74,92.31z"/>
		<path class="st1" d="M96.14,17.08C93.13,11.07,89.71,6.14,86,2.41c21.15,5.78,38.18,21.52,45.74,41.87h-26.89
			C103.01,34.27,100.05,24.91,96.14,17.08z"/>
		<path class="st1" d="M136,68c0,6.34-0.87,12.48-2.5,18.31h-27.78C106.55,80.32,107,74.16,107,68c0-5.96-0.41-11.91-1.2-17.72
			h27.86C135.19,55.93,136,61.87,136,68z"/>
	</g>
</g>
</svg>
