<svg xmlns="http://www.w3.org/2000/svg" width="120" height="60">
    <path d="M31.731 24.438h-4.319v-2.885h11.757v2.885H34.85v11.307h-3.119z"/>
    <path d="M35.934 30.375v-.033a5.4 5.4 0 0 1 5.37-5.654c3.619 0 5.287 2.819 5.287 5.9 0 .25-.017.534-.033.817H39a2.524 2.524 0 0 0 2.651 2.135 3.528 3.528 0 0 0 2.636-1.117l1.767 1.567a5.74 5.74 0 0 1-10.123-3.619zm7.672-.917a2.338 2.338 0 0 0-2.285-2.318c-1.284 0-2.1.917-2.352 2.318zM46.808 32.627v-.034c0-2.368 1.8-3.469 4.369-3.469a7.57 7.57 0 0 1 2.652.451v-.184c0-1.284-.784-1.984-2.335-1.984a8.023 8.023 0 0 0-3 .583l-.767-2.351a9.5 9.5 0 0 1 4.22-.867 5.022 5.022 0 0 1 3.669 1.217 4.709 4.709 0 0 1 1.167 3.469v6.3H53.8V34.6a4.176 4.176 0 0 1-3.286 1.384c-2.038-.038-3.706-1.206-3.706-3.357zm7.071-.717v-.551a4.7 4.7 0 0 0-1.968-.4c-1.317 0-2.134.534-2.134 1.5v.033c0 .834.683 1.318 1.684 1.318 1.439.018 2.418-.783 2.418-1.9zM57.415 24.888H60.5v1.535a3.862 3.862 0 0 1 3.2-1.735 3.252 3.252 0 0 1 3.052 1.718 4.458 4.458 0 0 1 3.57-1.718c2.284 0 3.669 1.384 3.669 3.986v7.071h-3.084v-6.054c0-1.451-.65-2.2-1.8-2.2s-1.868.75-1.868 2.2v6.054h-3.086v-6.054c0-1.451-.651-2.2-1.8-2.2s-1.868.75-1.868 2.2v6.054H57.4V24.888zM74.343 28.691v-.034a7.2 7.2 0 0 1 7.388-7.338 7.3 7.3 0 0 1 5.587 2.181l-1.968 2.289a5.2 5.2 0 0 0-3.619-1.6 4.21 4.21 0 0 0-4.119 4.419v.034a4.209 4.209 0 0 0 4.119 4.453 5.138 5.138 0 0 0 3.736-1.668l1.985 2a7.229 7.229 0 0 1-5.821 2.535 7.126 7.126 0 0 1-7.288-7.271zM87.752 20.952h3.235v2.735h-3.235zm.083 3.936h3.086v10.857h-3.086zM92.738 32.66v-5.137h-1.3v-2.635h1.3V22.1h3.086v2.769h2.552v2.635h-2.552v4.636c0 .717.3 1.051 1 1.051a3.24 3.24 0 0 0 1.517-.384V35.3a4.565 4.565 0 0 1-2.435.634c-1.883-.005-3.168-.756-3.168-3.274zM106.8 24.888h3.2l-4.169 11.124c-.834 2.2-1.718 3.036-3.569 3.036a5.068 5.068 0 0 1-2.736-.751l1.034-2.235a2.736 2.736 0 0 0 1.318.434 1.01 1.01 0 0 0 1.067-.717l-4.253-10.907h3.269l2.469 7.388z"/>
    <g>
        <path d="M10 21.569h14.176v14.176H10z"/>
        <path fill="#fff" d="M12.402 24.054h-1.084v-.717h2.935v.717h-1.084v2.819h-.767v-2.819zM14.3 25.122a1.911 1.911 0 0 1 3.252-1.3l-.5.567a1.284 1.284 0 0 0-.9-.4 1.055 1.055 0 0 0-1.034 1.1v.017a1.059 1.059 0 0 0 1.034 1.117 1.314 1.314 0 0 0 .934-.416l.5.5a1.832 1.832 0 0 1-1.451.634 1.785 1.785 0 0 1-1.835-1.819M11.318 33.094h5.32v.884h-5.32z"/>
    </g>
</svg>
