<svg xmlns="http://www.w3.org/2000/svg" width="200" height="128">
    <path d="M109.81 35.75C94.56 35.75 85 46.68 85 64s9.6 28.23 24.86 28.23S134.7 81.36 134.7 64s-9.64-28.25-24.89-28.25zm0 51.68c-12 0-19.54-9.07-19.54-23.41s7.54-23.45 19.54-23.45 19.58 9.07 19.57 23.43-7.59 23.43-19.57 23.43zM38.86 91.34a25.14 25.14 0 01-3.72.23c-6.6 0-9.26-2.81-9.26-9.9V56.09H20v-4.17h5.88v-9.87h5v9.87h7.78v4.17h-7.77V81.4c0 4.1 1.59 5.8 5.23 5.8.53 0 2.43-.07 2.74-.11v4.25zM63.67 91.38h-5.35L43.64 51.92h5.31l11.99 34.19h.11l12.03-34.19h5.24L63.67 91.38zM160.16 92.25c-11.46 0-19.5-6.34-20.07-15.75h5.19c.57 6.57 6.76 11 15.33 11 8.2 0 14.08-4.47 14.08-10.62 0-5.13-3.53-8.16-11.65-10.21L156.25 65c-10.13-2.57-14.65-6.86-14.65-14.07 0-8.84 8-15.14 18.74-15.14s18.48 6.3 18.79 15h-5.2c-.5-6.18-6-10.28-13.74-10.28-7.59 0-13.2 4.21-13.2 10.24 0 4.71 3.41 7.47 11.46 9.52l5.92 1.52c11 2.77 15.63 7 15.63 14.61 0 9.6-7.74 15.85-19.84 15.85z"/>
</svg>
