<svg xmlns="http://www.w3.org/2000/svg" width="128" height="128">
  <path d="M61.44,48.21c0,7.25-5.97,13.23-13.23,13.23s-13.23-5.97-13.23-13.23,5.97-13.23,13.23-13.23,13.23,5.97,13.23,13.23ZM48.21,66.56c-7.25,0-13.23,5.97-13.23,13.23s5.97,13.23,13.23,13.23,13.23-5.97,13.23-13.23-5.97-13.23-13.23-13.23ZM128,64c0,35.41-28.59,64-64,64S0,99.41,0,64,28.59,0,64,0s64,28.59,64,64ZM110.93,64c0-26.03-20.91-46.93-46.93-46.93s-46.93,20.91-46.93,46.93,20.91,46.93,46.93,46.93,46.93-20.91,46.93-46.93ZM79.79,66.56c-7.25,0-13.23,5.97-13.23,13.23s5.97,13.23,13.23,13.23,13.23-5.97,13.23-13.23-5.97-13.23-13.23-13.23ZM79.79,34.99c-7.25,0-13.23,5.97-13.23,13.23s5.97,13.23,13.23,13.23,13.23-5.97,13.23-13.23-5.97-13.23-13.23-13.23Z" fill="#f22f46" stroke-width="0"/>
</svg>