<svg xmlns="http://www.w3.org/2000/svg" viewBox="55 19 90 90">
    <path d="M145 109H55V19h90z" fill="#007acc"/>
    <path d="M136.053 83.336a13.042 13.042 0 0 1 1.037 10.969c-1.424 3.744-4.975 6.293-9.949 7.136a27.989 27.989 0 0 1-6.856-.07 16.567 16.567 0 0 1-9.158-4.764 15.628 15.628 0 0 1-2.338-3.48 8.053 8.053 0 0 1 .826-.527c.405-.229 1.916-1.108 3.34-1.934l2.584-1.494.545.791a11.957 11.957 0 0 0 3.41 3.269c2.865 1.512 6.82 1.3 8.754-.439a3.335 3.335 0 0 0 1.178-2.707 3.3 3.3 0 0 0-.668-2.285c-.7-1-2.127-1.846-6.188-3.6-4.64-2-6.644-3.252-8.472-5.22a12.017 12.017 0 0 1-2.479-4.5 18.535 18.535 0 0 1-.158-5.748c.949-4.483 4.342-7.612 9.228-8.543a22.731 22.731 0 0 1 6.821.193 11.15 11.15 0 0 1 5.625 3.234A15.014 15.014 0 0 1 135.3 66.5c.035.106-3.885 2.742-6.258 4.219-.088.053-.422-.317-.809-.879a5.139 5.139 0 0 0-4.236-2.549c-2.724-.193-4.482 1.248-4.465 3.621a3.372 3.372 0 0 0 .387 1.688c.6 1.248 1.723 1.986 5.221 3.5 6.448 2.824 9.208 4.634 10.913 7.236zM106.363 60.5l-15.732-.035c-8.649-.018-15.768.017-15.82.07a35.693 35.693 0 0 0-.106 3.709v3.621h11.707v33.295h8.3V67.867h11.707l-.035-3.691z" fill="#fff"/>
</svg>
