<svg version="1.2" xmlns="http://www.w3.org/2000/svg" viewBox="0 0 120 60" width="120" height="60">
	<defs>
		<linearGradient id="g1" x2="1" gradientUnits="userSpaceOnUse" gradientTransform="matrix(15.028,0,0,22.526,11.989,22.742)">
			<stop offset="0" stop-color="#62ba46"/>
			<stop offset="1" stop-color="#a6cf54"/>
		</linearGradient>
		<linearGradient id="g2" x2="1" gradientUnits="userSpaceOnUse" gradientTransform="matrix(13.645,0,0,25.796,23.865,15.977)">
			<stop offset="0" stop-color="#0071bb"/>
			<stop offset="1" stop-color="#009bdf"/>
		</linearGradient>
	</defs>
	<style>
		.s0 { fill: #020000 } 
		.s1 { fill: url(#g1) } 
		.s2 { fill: url(#g2) } 
	</style>
	<g id="Layer 2">
		<g id="&lt;Group&gt;">
			<g id="&lt;Group&gt;">
				<g id="&lt;Group&gt;">
					<path id="&lt;Compound Path&gt;" class="s0" d="m56.65 22.74h10.03v2.12h-7.65v3.52h6.78v2.12h-6.78v3.64h7.75v2.12h-10.13z"/>
					<path id="&lt;Compound Path&gt;" fill-rule="evenodd" class="s0" d="m68.97 22.74h6.03c1.7 0 3.03 0.5 3.9 1.35 0.72 0.73 1.12 1.74 1.12 2.92v0.04c0 2.22-1.33 3.55-3.2 4.09l3.65 5.12h-2.82l-3.33-4.71h-2.98v4.71h-2.37zm5.85 6.7c1.71 0 2.79-0.88 2.79-2.26v-0.04c0-1.44-1.05-2.24-2.81-2.24h-3.46v4.54z"/>
					<path id="&lt;Compound Path&gt;" class="s0" d="m81.49 34.29l1.43-1.7c1.3 1.12 2.61 1.76 4.27 1.76 1.47 0 2.4-0.7 2.4-1.7v-0.04c0-0.97-0.54-1.49-3.05-2.07-2.88-0.69-4.51-1.54-4.51-4.04v-0.03c0-2.32 1.94-3.93 4.62-3.93 1.98 0 3.54 0.6 4.91 1.7l-1.27 1.8q-1.82-1.37-3.67-1.39c-1.4 0-2.21 0.71-2.21 1.6v0.04c0 1.05 0.62 1.51 3.23 2.13 2.86 0.69 4.33 1.72 4.33 3.96v0.04c0 2.53-1.99 4.03-4.83 4.03-2.07 0-4.02-0.71-5.65-2.16z"/>
				</g>
				<path id="&lt;Compound Path&gt;" fill-rule="evenodd" class="s0" d="m98.11 23.5c0.25-0.56 0.82-0.95 1.48-0.95 0.65 0 1.22 0.39 1.47 0.95l5.58 12.76h-2.51l-1.37-3.26h-6.4l-1.4 3.26h-2.43zm3.76 7.39l-2.29-5.45-2.32 5.45z"/>
				<path id="&lt;Path&gt;" class="s0" d="m47.22 35.51c0.23 0.56 0.77 0.95 1.4 0.95 0.63 0 1.17-0.38 1.4-0.93l5.26-12.79h-2.58l-4.09 10.64-4.08-10.64h-2.59z"/>
			</g>
			<g id="&lt;Group&gt;">
				<path id="&lt;Path&gt;" class="s1" d="m26.44 25.9c-1.57 1.65-6.62-1.05-11.02-3.02-0.7-0.32-1.35-0.03-1.64 0.28-0.78 0.84-0.23 1.73-0.23 1.73l9.92 17.17c0 0 0.47 0.96 1.62 0.96 0.53 0 1.21-0.22 1.63-0.96l0.17-0.29v-16.98c0 0.5-0.21 0.86-0.45 1.11z"/>
				<path id="&lt;Path&gt;" class="s2" d="m36.35 19.59c-2.49-2.9-8.5-4.2-10.74-3.36-1.72 0.64-2.83 2.51-0.45 5.54 1.25 1.59 1.73 2.32 1.73 3.02v16.98l9.8-16.96c1.2-2.31 0.86-3.83-0.34-5.22z"/>
			</g>
		</g>
	</g>
</svg>