<svg xmlns="http://www.w3.org/2000/svg" width="128" height="128" xmlns:xlink="http://www.w3.org/1999/xlink">
  <defs>
    <linearGradient id="b" x1="64" y1="-73.42" x2="64" y2="53.92" gradientTransform="translate(0 73.75)" gradientUnits="userSpaceOnUse">
      <stop offset="0" stop-color="#fff"/>
      <stop offset="1" stop-color="#fff" stop-opacity="0"/>
    </linearGradient>
  </defs>
  <path d="m18.49,100.53c-1.53,1.31-3.66,1.64-5.52.87l-9.69-4.07c-1.98-.82-3.27-2.75-3.28-4.89v-56.88c.01-2.14,1.3-4.07,3.28-4.89l9.69-4c1.86-.78,3.99-.44,5.52.87l2.17,1.8c-1.32-.95-3.16-.65-4.11.67-.36.5-.56,1.11-.55,1.73v64.53c0,1.63,1.31,2.95,2.94,2.95.62,0,1.22-.19,1.73-.55l-2.17,1.87Z" fill="#52218a"/>
  <path d="m3.28,97.33c-1.98-.82-3.27-2.75-3.28-4.89v-.44c.02,1.7,1.41,3.07,3.11,3.05.84,0,1.65-.36,2.22-.98L88,2.67c2.4-2.39,6.04-3.01,9.09-1.55l26.37,12.69c2.77,1.33,4.53,4.14,4.53,7.21v.31c0-2.79-2.27-5.05-5.06-5.05-1.17,0-2.29.4-3.2,1.14L20.67,98.67l-2.17,1.87c-1.53,1.31-3.66,1.64-5.52.87l-9.69-4.07Z" fill="#6c33af"/>
  <path d="m3.28,30.67c-1.98.82-3.27,2.75-3.28,4.89v.44c.02-1.7,1.41-3.07,3.11-3.05.84,0,1.65.36,2.22.98l82.67,91.4c2.4,2.39,6.04,3.01,9.09,1.55l26.37-12.69c2.77-1.33,4.53-4.14,4.53-7.21v-.31c0,2.79-2.27,5.05-5.06,5.05-1.17,0-2.29-.4-3.2-1.14L20.67,29.33l-2.17-1.87c-1.54-1.28-3.68-1.59-5.52-.8l-9.69,4Z" fill="#854cc7"/>
  <path d="m97.09,126.88c-3.05,1.46-6.69.84-9.09-1.55,1.84,1.83,4.81,1.82,6.64-.02.87-.88,1.36-2.06,1.36-3.3V6.01c0-2.59-2.09-4.7-4.68-4.71-1.24,0-2.44.49-3.32,1.36,2.4-2.39,6.04-3.01,9.09-1.55l26.37,12.68c2.77,1.33,4.53,4.14,4.53,7.21v85.97c0,3.08-1.76,5.88-4.53,7.21l-26.37,12.68Z" fill="#b179f1"/>
  <g opacity=".25">
    <path d="m91.85,127.47c1.76.4,3.61.2,5.24-.59l26.37-12.68c2.77-1.33,4.53-4.14,4.53-7.21V21.01c0-3.08-1.76-5.88-4.53-7.21L97.09,1.12c-1.87-.9-4.01-1.04-5.97-.39-1.18.39-2.24,1.06-3.12,1.93l-42.51,47.01-24.83-20.35-2.17-1.87c-1.33-1.13-3.12-1.55-4.81-1.11-.24.05-.48.13-.71.24l-9.69,4.07c-1.85.76-3.12,2.5-3.28,4.49v57.68c.16,1.99,1.43,3.73,3.28,4.49l9.69,4c.23.11.46.19.71.24,1.69.44,3.49.03,4.81-1.11l2.17-1.8,24.83-20.35,42.51,47.01c1.06,1.06,2.39,1.8,3.85,2.13Zm4.15-90.56l-33.05,27.09,33.05,27.09v-54.19ZM16,45.69l16.55,18.31-16.55,18.31v-36.61Z" fill="url(#b)" fill-rule="evenodd"/>
  </g>
</svg>