<svg xmlns="http://www.w3.org/2000/svg" xmlns:xlink="http://www.w3.org/1999/xlink" width="128" height="128"><defs><mask id="mask" x="0" y="0.369" width="128" height="127.263" maskUnits="userSpaceOnUse"><g id="mask0"><path d="M90.79,127.087a7.964,7.964,0,0,0,6.346-.243l26.337-12.673A8,8,0,0,0,128,106.965V21.035a8,8,0,0,0-4.527-7.2L97.136,1.157A7.959,7.959,0,0,0,88.049,2.7l-50.42,46L15.668,32.032a5.325,5.325,0,0,0-6.8.3L1.821,38.742a5.332,5.332,0,0,0,0,7.882L20.861,64,1.816,81.376a5.333,5.333,0,0,0,0,7.883l7.044,6.407a5.325,5.325,0,0,0,6.8.3L37.629,79.3l50.42,46A7.943,7.943,0,0,0,90.79,127.087ZM96.039,34.96,57.782,64,96.039,93.04Z" style="fill:#fff;fill-rule:evenodd"/></g></mask><linearGradient id="linear-gradient" x1="63.961" y1="107.631" x2="63.961" y2="-19.631" gradientTransform="matrix(1, 0, 0, -1, 0, 108)" gradientUnits="userSpaceOnUse"><stop offset="0" stop-color="#fff"/><stop offset="1" stop-color="#fff" stop-opacity="0"/></linearGradient></defs><g style="mask:url(#mask)"><path d="M123.473,13.85,97.116,1.159A7.97,7.97,0,0,0,88.024,2.7L1.739,81.376a5.329,5.329,0,0,0,.006,7.882l7.048,6.408a5.33,5.33,0,0,0,6.807.3L119.507,17.142A5.294,5.294,0,0,1,128,21.359v-.306A7.993,7.993,0,0,0,123.473,13.85Z" style="fill:#0065a9"/><path d="M123.473,114.15,97.116,126.841a7.97,7.97,0,0,1-9.092-1.545L1.739,46.624a5.33,5.33,0,0,1,.006-7.883l7.048-6.407a5.33,5.33,0,0,1,6.807-.3l103.907,78.826A5.294,5.294,0,0,0,128,106.641v.306A7.993,7.993,0,0,1,123.473,114.15Z" style="fill:#007acc"/><path d="M97.117,126.843a7.972,7.972,0,0,1-9.093-1.547,4.683,4.683,0,0,0,8-3.312V6.016a4.683,4.683,0,0,0-8-3.312,7.974,7.974,0,0,1,9.093-1.548L123.47,13.83A7.994,7.994,0,0,1,128,21.035v85.93a8,8,0,0,1-4.53,7.206Z" style="fill:#1f9cf0"/><g style="opacity:0.25"><path d="M90.712,127.087a7.964,7.964,0,0,0,6.346-.243L123.4,114.171a8,8,0,0,0,4.527-7.206V21.035a8,8,0,0,0-4.527-7.2L97.058,1.156A7.961,7.961,0,0,0,87.971,2.7l-50.419,46L15.59,32.032a5.325,5.325,0,0,0-6.8.3L1.744,38.741a5.332,5.332,0,0,0-.006,7.883L20.784,64,1.738,81.376a5.331,5.331,0,0,0,.006,7.882l7.043,6.408a5.325,5.325,0,0,0,6.8.3L37.552,79.3l50.419,46A7.943,7.943,0,0,0,90.712,127.087ZM95.961,34.96,57.705,64,95.961,93.04Z" style="fill-rule:evenodd;fill:url(#linear-gradient)"/></g></g></svg>
