<svg xmlns="http://www.w3.org/2000/svg" width="200" height="128">
    <path fill="#0078d4" d="M42.48 40.89h21.79v21.79H42.48zM66.46 40.89h21.79v21.79H66.46zM42.48 64.87h21.79v21.79H42.48zM66.46 64.87h21.79v21.79H66.46zM115.49 48.68h-2.1l-2.18 9c-.11.47-.18.84-.2 1.13h-.03c-.04-.42-.1-.79-.18-1.09l-2.32-9.04h-2.09l-2.51 8.97c-.14.5-.22.89-.24 1.18h-.04c-.02-.41-.08-.8-.17-1.18l-2.22-8.97h-2.23l3.43 12.25h2.35l2.34-8.59c.11-.38.18-.77.21-1.18h.03c.02.43.08.83.18 1.2l2.33 8.57h2.3l3.36-12.25zM116.97 52.18h1.98v8.75h-1.98zM117.97 48.09c-.32 0-.6.11-.83.32-.23.22-.35.49-.35.81s.12.59.35.8c.23.21.51.32.83.32s.62-.11.85-.33c.23-.22.35-.48.35-.79 0-.32-.12-.6-.35-.81-.23-.22-.52-.32-.85-.32zM126.4 51.97c-1.24 0-2.18.55-2.84 1.66h-.03v-1.45h-1.99v8.75h1.99v-4.99c0-.69.2-1.26.59-1.71.39-.45.89-.68 1.49-.68 1.16 0 1.73.82 1.73 2.45v4.93h1.98v-5.35c0-1.17-.25-2.06-.75-2.68-.5-.62-1.23-.93-2.18-.93zM137.72 53.39h-.03c-.54-.95-1.39-1.42-2.57-1.42s-2.14.44-2.86 1.31c-.71.87-1.07 2.03-1.07 3.48 0 1.35.32 2.42.97 3.2s1.51 1.17 2.58 1.17c1.33 0 2.31-.56 2.95-1.69h.03v1.49h1.98V47.98h-1.98v5.42zm.03 3.54c0 .76-.21 1.39-.63 1.88s-.97.75-1.65.75-1.24-.26-1.64-.77c-.41-.52-.61-1.22-.61-2.11 0-.98.21-1.75.64-2.3.42-.55 1.01-.83 1.75-.83.63 0 1.14.22 1.55.65.4.43.61.96.61 1.58v1.14zM146.38 51.97c-1.42 0-2.56.41-3.4 1.24-.84.83-1.26 1.97-1.26 3.44 0 1.35.4 2.43 1.21 3.25.81.82 1.88 1.23 3.23 1.23s2.5-.42 3.32-1.26c.82-.84 1.23-1.96 1.23-3.35s-.38-2.54-1.14-3.34c-.76-.8-1.83-1.2-3.2-1.2zm1.68 6.81c-.42.52-1.02.78-1.8.78s-1.37-.26-1.83-.79c-.46-.53-.68-1.25-.68-2.17s.22-1.7.67-2.24c.45-.54 1.06-.81 1.84-.81s1.38.26 1.8.79c.42.52.63 1.27.63 2.23s-.21 1.69-.63 2.21zM161.06 58.51c-.07.29-.12.54-.13.75h-.06c-.02-.3-.06-.55-.11-.75l-1.57-6.33h-1.86l-1.77 6.29c-.07.27-.12.53-.14.77h-.06a4.14 4.14 0 00-.1-.75l-1.59-6.3h-2.05l2.57 8.75h2.03l1.73-5.95c.09-.31.14-.56.15-.75h.03c.02.29.06.54.12.77l1.59 5.93h2.08l2.58-8.75h-1.89l-1.55 6.33zM171.46 57.57c-.11-.27-.28-.5-.49-.7-.21-.2-.47-.38-.76-.54-.3-.16-.64-.32-1.01-.47-.28-.1-.54-.19-.76-.27-.22-.08-.41-.17-.56-.27s-.27-.21-.35-.35-.12-.29-.12-.48c0-.15.04-.29.12-.42s.19-.24.33-.33c.14-.09.31-.16.52-.21s.43-.08.68-.08c.8 0 1.5.21 2.12.63v-1.73c-.64-.25-1.36-.37-2.17-.37-.46 0-.9.06-1.32.17-.43.11-.81.28-1.14.5-.34.22-.6.49-.8.81s-.3.69-.3 1.12c0 .34.05.64.15.9.1.26.24.49.43.69.19.2.43.38.72.54s.61.31.97.45c.29.11.55.21.79.29.24.09.44.18.62.29.17.11.31.23.41.37s.15.31.15.51c0 .71-.6 1.06-1.79 1.06-.89 0-1.71-.28-2.45-.85v1.84c.7.32 1.53.48 2.49.48.5 0 .97-.05 1.41-.16s.84-.27 1.18-.48.62-.49.82-.82.31-.72.31-1.16c0-.36-.06-.68-.17-.94zM100.28 67.1h2.09v12.25h-2.09zM105.38 67.1h2.09v12.25h-2.09zM116.83 73.96c-.29-.3-.62-.57-1-.81-.38-.25-.78-.48-1.21-.7-.42-.18-.78-.35-1.1-.51-.32-.16-.58-.32-.8-.48s-.39-.35-.5-.55c-.11-.2-.17-.44-.17-.71 0-.29.07-.54.22-.74.15-.21.34-.37.58-.5s.5-.23.8-.28.6-.08.9-.08c1.09 0 1.99.25 2.68.75v-2.01c-.59-.29-1.52-.44-2.8-.44-.56 0-1.12.07-1.66.2-.54.13-1.02.34-1.45.62s-.77.63-1.02 1.05c-.26.42-.39.92-.39 1.5 0 .47.08.87.23 1.22s.36.66.62.94c.27.28.58.53.94.76.36.23.75.45 1.16.67.39.18.75.35 1.09.51s.63.33.88.51.45.37.59.59c.14.21.21.46.21.76 0 .54-.21.95-.63 1.24-.42.29-1.05.43-1.91.43-.25 0-.51-.03-.8-.08-.29-.05-.58-.12-.87-.22s-.57-.21-.82-.35c-.26-.14-.48-.29-.67-.46v2.09c.17.11.4.21.67.29a10.257 10.257 0 002.57.41c.62 0 1.2-.06 1.75-.18a4.42 4.42 0 001.46-.58c.42-.27.76-.61 1.01-1.04.25-.43.38-.95.38-1.57 0-.46-.08-.87-.25-1.24-.17-.36-.4-.69-.68-.99z"/>
</svg>
