<svg width="18" height="18" viewBox="0 0 18 18" fill="none" xmlns="http://www.w3.org/2000/svg">
<path fill-rule="evenodd" clip-rule="evenodd" d="M9.00002 18C13.9706 18 18 13.9706 18 9C18 4.02944 13.9706 0 9.00002 0C4.02945 0 0 4.02944 0 9C0 13.9706 4.02945 18 9.00002 18ZM10.6921 14.4994V12.6352C10.6856 12.4948 10.6236 12.3618 10.5183 12.2623C10.4666 12.2134 10.4049 12.1749 10.3368 12.1492C10.2688 12.1236 10.1959 12.1113 10.1226 12.1132H7.85949C7.71178 12.1032 7.57987 12.1529 7.46377 12.2623C7.34768 12.3717 7.28963 12.496 7.28963 12.6352V14.4994C7.28963 14.6386 7.34768 14.7629 7.46377 14.8723C7.57987 14.9817 7.71178 15.0364 7.85949 15.0364H10.1226C10.2706 15.0264 10.4103 14.9684 10.5179 14.8723C10.5741 14.8259 10.6187 14.7684 10.6488 14.704C10.6789 14.6396 10.6937 14.5698 10.6921 14.4994ZM10.708 10.2494L10.9611 3.85131C10.972 3.71211 10.9194 3.5878 10.8033 3.47839C10.6872 3.36899 10.5553 3.31428 10.4076 3.31428H7.57445C7.43738 3.31428 7.31084 3.36899 7.19484 3.47839C7.07883 3.5878 7.02608 3.71211 7.03657 3.85131L7.2733 10.2494C7.2771 10.3203 7.29587 10.3899 7.32851 10.4539C7.36115 10.5179 7.407 10.5752 7.46339 10.6223C7.57005 10.7181 7.71176 10.7715 7.8591 10.7715H10.1222C10.2698 10.7816 10.4017 10.7318 10.5179 10.6223C10.6283 10.5246 10.696 10.3916 10.708 10.2494Z" fill="url(#paint0_linear2)"/>
<defs>
<linearGradient id="paint0_linear2" x1="4.90515e-07" y1="18" x2="18.0421" y2="0.042219" gradientUnits="userSpaceOnUse">
<stop stop-color="#AE25B4"/>
<stop offset="1" stop-color="#632CA6"/>
</linearGradient>
</defs>
</svg>
