<svg width="17" height="17" viewBox="0 0 17 17" fill="none" xmlns="http://www.w3.org/2000/svg">
<path d="M16.0271 6.87919L14.5503 6.75328C14.4248 6.31454 14.2496 5.89158 14.0281 5.49262L14.9827 4.35802C15.361 3.97976 15.4153 3.40335 15.0906 3.07921L13.9022 1.90871C13.5781 1.58465 13.0198 1.63884 12.6415 2.01656L11.5248 2.95316C11.1307 2.73479 10.7141 2.55972 10.2823 2.43101L10.1563 0.972192C10.1569 0.432591 9.79669 0 9.32814 0H7.67118C7.20315 0 6.84297 0.432591 6.84297 0.972723L6.699 2.43101C6.24904 2.55692 5.83467 2.75508 5.43836 2.97129L4.32206 2.03523C3.94381 1.67504 3.38547 1.62085 3.06141 1.94545L1.87264 3.11542C1.54858 3.43948 1.60277 4.01589 1.98048 4.39422L2.93513 5.52882C2.73698 5.92513 2.55688 6.32145 2.44904 6.75336L0.972179 6.87926C0.432585 6.87919 0 7.25744 0 7.70741V9.38245C0 9.83242 0.432585 10.2107 0.97271 10.2107L2.46779 10.3366C2.58897 10.7424 2.75187 11.1346 2.95388 11.5069L2.01729 12.6415C1.63904 13.0198 1.5847 13.5962 1.90945 13.9203L3.07978 15.0907C3.40384 15.4147 3.98024 15.3606 4.35856 14.9828L5.49315 14.0462C5.87895 14.251 6.28281 14.4198 6.69961 14.5504L6.82551 16.0273C6.82551 16.5676 7.20376 17 7.67171 17H9.32867C9.79669 17 10.1569 16.5674 10.1569 16.0273L10.2828 14.5504C10.6886 14.4292 11.0808 14.2663 11.4531 14.0643L12.6054 15.019C12.9836 15.3972 13.542 15.4516 13.866 15.1268L15.0544 13.9384C15.3785 13.6143 15.3243 13.056 14.9466 12.6777L14.01 11.561C14.2282 11.1732 14.4033 10.7626 14.5322 10.3367L16.0273 10.2107C16.5676 10.2107 17 9.8325 17 9.38253V7.70741C16.9998 7.25744 16.5673 6.87919 16.0271 6.87919V6.87919ZM8.49992 11.2015C7.96564 11.2015 7.44336 11.043 6.99912 10.7462C6.55488 10.4494 6.20863 10.0274 6.00417 9.53383C5.79971 9.04021 5.74622 8.49704 5.85045 7.97302C5.95468 7.44899 6.21196 6.96765 6.58976 6.58985C6.96755 6.21205 7.44889 5.95476 7.97291 5.85053C8.49693 5.74629 9.04008 5.79979 9.5337 6.00425C10.0273 6.20872 10.4492 6.55496 10.746 6.99921C11.0429 7.44346 11.2013 7.96575 11.2013 8.50004C11.2018 8.85494 11.1323 9.20644 10.9967 9.53442C10.8611 9.8624 10.6622 10.1604 10.4112 10.4114C10.1603 10.6623 9.86227 10.8613 9.5343 10.9969C9.20632 11.1324 8.85482 11.202 8.49992 11.2015V11.2015Z" fill="url(#paint0_linear4)"/>
<defs>
<linearGradient id="paint0_linear4" x1="4.63262e-07" y1="17" x2="17.0397" y2="0.0399205" gradientUnits="userSpaceOnUse">
<stop stop-color="#AE25B4"/>
<stop offset="1" stop-color="#632CA6"/>
</linearGradient>
</defs>
</svg>
