<svg width="18" height="18" viewBox="0 0 512 512" fill="none" xmlns="http://www.w3.org/2000/svg">
    <path d="M56.72 375.833l-39.712 16.5a1.9 1.9 0 0 1-.512-1.552l-1.552-3.088c-2.576-8.256-5.664-17.008-7.728-26.816a43.215 43.215 0 0 1-2.064-7.728v-2.064a1.9 1.9 0 0 1-.512-1.552c-.512-1.552-.512-3.088-1.024-4.128a11.445 11.445 0 0 0-.512-4.128v-2.064l44.864-2.064v1.551c0 1.024.512 2.064.512 3.088v1.552c0 .528.512 1.024.512 1.552.512 2.064.512 4.128 1.024 6.192a212.4 212.4 0 0 0 5.664 22.688c.528.509.528 1.549 1.04 2.061zM199.536 117a3.121 3.121 0 0 0 2.064-.512 246.282 246.282 0 0 1 39.184-4.64 258.72 258.72 0 0 1 34.544 2.576h.512l10.832-60.848c-15.984-2.064-32.48-3.088-48.464-2.064a278.328 278.328 0 0 0-50.528 8.256c-3.088 1.024-6.192 1.552-9.28 2.576zM46.4 303.129v-3.616a3.948 3.948 0 0 1 .512-2.064V295.9c0-2.576.512-5.152.512-7.728a3.121 3.121 0 0 1 .512-2.064v-2.064a8.826 8.826 0 0 0 .512-3.616c.512-1.552.512-2.576 1.024-4.128 0-1.024.512-2.576.512-3.616.512-1.552.512-2.576 1.024-4.128v-2.064c.512-.512.512-1.024.512-2.064.512-1.552 1.024-3.088 1.552-5.152L7.184 243.8a.5.5 0 0 1-.512.512 71.381 71.381 0 0 1-2.064 10.32 5.626 5.626 0 0 1-.512 2.576 3.121 3.121 0 0 1-.512 2.064 15.938 15.938 0 0 1-.512 5.152c-.512 1.536-.512 3.088-1.024 4.64a17.578 17.578 0 0 1-.512 5.152 14.368 14.368 0 0 1-.512 4.64v5.152a56.418 56.418 0 0 0-.512 9.28L0 294.361v12.88l46.4-2.576zm17.536-74.24A201.6 201.6 0 0 1 78.9 201.561c4.128-6.192 8.768-12.368 13.408-18.048l-38.692-35.584a265.228 265.228 0 0 0-18.048 26.3A268.583 268.583 0 0 0 16.5 212.905zm19.6 203.152a26.088 26.088 0 0 0-2.576-6.7h-.528v-.512c-.512 0-.512-1.024-1.024-1.552a11.933 11.933 0 0 1-1.552-2.576c-.512-.512-1.024-1.024-1.024-1.552-.512-.512-1.024-1.552-1.552-2.064-1.552-3.088-3.616-6.7-6.192-11.344l-38.672 15.98c1.024 1.552 2.064 3.616 3.088 5.152.512 1.024 1.552 2.576 2.064 3.616.512 1.024 1.552 2.064 2.064 3.088 1.024 2.064 2.576 3.616 3.616 5.152.512 1.024 1.024 1.552 1.024 2.576a7.233 7.233 0 0 1 1.552 2.064 10.84 10.84 0 0 1 2.064 3.088l1.552 1.552v.512h.512a19.87 19.87 0 0 0 5.664 5.664c.512.512 1.552.512 2.064 1.024.512 0 1.024.512 1.552.512a33.448 33.448 0 0 1 3.616 1.024 20.718 20.718 0 0 0 14.96-4.64 25.518 25.518 0 0 0 7.728-13.405zm31.44-271.728c5.152-4.128 10.32-8.256 15.984-12.368a194.025 194.025 0 0 1 33.52-19.072 15.123 15.123 0 0 0 4.128-2.064L148.5 73.689c-3.088 1.536-5.68 2.576-8.256 4.128a245.012 245.012 0 0 0-41.76 25.776 299.336 299.336 0 0 0-23.2 20.624zm285.648-102.1a10.342 10.342 0 0 0-6.7-2.064 12.926 12.926 0 0 0-11.344 6.192L220.16 264.969c-4.128 4.128-7.728 8.256-10.32 13.408-15.472 26.3-6.192 60.32 20.112 75.792a58.952 58.952 0 0 0 27.84 7.216 54.963 54.963 0 0 0 47.952-27.84 81.352 81.352 0 0 0 6.192-15.472l94.352-241.824c3.104-6.688 1.04-14.416-5.664-18.032zM512 303.641v-4.128a14.368 14.368 0 0 1-.512-4.64V292.3a3.121 3.121 0 0 0-.512-2.064c0-3.616-.512-6.7-.512-9.792q-.823-4.888-1.552-9.792-.823-4.889-1.552-9.792c-1.024-3.088-1.552-6.7-2.576-9.792a18.294 18.294 0 0 0-1.024-5.152c0-1.024-.512-1.552-.512-2.576-.512-.512-.512-1.552-1.024-2.576-1.024-3.088-2.064-6.7-3.088-9.792a213.71 213.71 0 0 0-17.008-40.736 276.788 276.788 0 0 0-17.008-28.352l-54.656 44.336c3.088 5.664 5.664 10.832 8.256 15.984a174.073 174.073 0 0 1 10.832 29.9 38.229 38.229 0 0 1 2.064 7.216c0 .512.512 1.024.512 2.064a1.929 1.929 0 0 0 .512 1.552c0 1.552.512 2.576.512 3.616a40.643 40.643 0 0 1 1.024 7.216 35.022 35.022 0 0 1 1.024 7.216c.512 2.576.512 4.64 1.024 6.7v8.768a1.9 1.9 0 0 1 .512 1.552v9.28l-.512.512v8.256c0 .528-.512 1.024-.512 1.552v3.096c0 1.024-.512 2.064-.512 3.088v2.576a26.085 26.085 0 0 0-1.024 6.192c-2.576 14.96-6.192 27.84-10.32 37.632q-6.192 15.48-10.832 23.2a20.833 20.833 0 0 0-3.088 5.664c-.512.512-1.024 1.024-1.024 1.552l-.512.512c-1.024 1.552-1.552 3.616-2.576 5.664 0 1.024-.512 2.064-.512 3.088-.512.512-.512 2.064-.512 3.088v6.176a35.022 35.022 0 0 0 1.024 7.216c.512 1.024.512 2.064 1.024 3.088s.512 2.576 1.024 3.616a41.679 41.679 0 0 0 3.616 6.7 38.614 38.614 0 0 0 10.32 12.368 45 45 0 0 0 13.92 7.216 20.806 20.806 0 0 0 7.728 1.552h3.616a10.142 10.142 0 0 0 4.128-.512 41.9 41.9 0 0 0 7.728-2.064c1.024-.512 2.576-1.024 3.616-1.552a22.064 22.064 0 0 0 3.616-2.576c1.024-.512 2.064-1.552 3.616-2.576a13.734 13.734 0 0 0 3.088-2.576c1.552-2.576 3.616-4.64 5.152-7.216a1.586 1.586 0 0 1 .512-1.024c0-.512.512-1.024 1.024-2.064 1.024-2.064 2.576-4.64 4.64-8.256a317.013 317.013 0 0 0 13.92-33.52 339.816 339.816 0 0 0 12.368-54.144c0-3.088.512-5.664.512-8.256v-2.064c0-1.024.512-1.552.512-2.064v-8.768a3.047 3.047 0 0 0 .5-2.032z" fill="url(#paint0_linear1)"/>
<defs>
<linearGradient id="paint0_linear1" x1="4.90513e-07" y1="18" x2="18.0421" y2="0.0422687" gradientUnits="userSpaceOnUse">
<stop stop-color="#AE25B4"/>
<stop offset="1" stop-color="#632CA6"/>
</linearGradient>
</defs>
</svg>
