<svg width="18" height="18" viewBox="0 0 22 18" fill="none" xmlns="http://www.w3.org/2000/svg">
<path d="M11.1848 10.2137H15.8125C16.1605 8.86016 17.3937 7.85469 18.8547 7.85469C20.5906 7.85469 21.9957 9.25977 21.9957 10.9957C21.9957 12.7316 20.5906 14.1367 18.8547 14.1367C17.3895 14.1367 16.1605 13.1355 15.8125 11.7777H11.1848C11.7863 12.6199 11.9754 13.6984 12.1258 14.575C12.1387 14.648 12.1516 14.7168 12.1645 14.7855C12.3449 15.7953 12.5211 16.5602 12.998 17.1102C13.4148 17.5914 14.1797 18.0254 15.8125 18.0641C16.1605 16.7105 17.3937 15.7094 18.8547 15.7094C20.5906 15.7094 21.9957 17.1145 21.9957 18.8504C21.9957 20.5863 20.5949 22 18.859 22C17.3937 22 16.1605 20.9988 15.8125 19.641C13.8875 19.6023 12.6199 19.0781 11.8121 18.1457C11.0129 17.2219 10.7852 16.023 10.6176 15.0691L10.6004 14.9832C10.4199 13.9777 10.291 13.2344 9.8957 12.693C9.56055 12.2246 8.92461 11.7906 7.37773 11.7906H6.1875C5.83945 13.1441 4.60625 14.1496 3.14531 14.1496C1.40508 14.141 0 12.7359 0 11C0 9.26406 1.40508 7.85898 3.14102 7.85898C4.60625 7.85898 5.83516 8.86016 6.1832 10.218H7.37773C8.92461 10.218 9.55625 9.78398 9.8957 9.31563C10.2867 8.77422 10.4199 8.03086 10.6004 7.02539L10.6176 6.93945C10.7895 5.98125 11.0129 4.78672 11.8121 3.86289C12.6199 2.92188 13.8875 2.39766 15.8125 2.35898C16.1605 1.00117 17.3937 0 18.859 0C20.5949 0 22 1.40508 22 3.14102C22 4.87695 20.5949 6.28203 18.859 6.28203C17.3937 6.28203 16.1648 5.28086 15.8168 3.92734C14.1797 3.96602 13.4191 4.4 13.0023 4.88125C12.5254 5.43125 12.3449 6.19609 12.1688 7.20586C12.1559 7.27461 12.143 7.34336 12.1301 7.41641C11.9754 8.29297 11.7863 9.37148 11.1848 10.2137ZM17.4969 3.92734C17.7676 4.3957 18.2746 4.71367 18.859 4.71367C19.727 4.71367 20.4316 4.00898 20.4316 3.14102C20.4316 2.27305 19.727 1.56836 18.859 1.56836C18.2789 1.56836 17.7676 1.88633 17.4969 2.35469C17.3637 2.58672 17.2863 2.85312 17.2863 3.14102C17.2863 3.42891 17.3637 3.69531 17.4969 3.92734V3.92734ZM4.50313 11.7863C4.63633 11.5543 4.71367 11.2879 4.71367 11C4.71367 10.7121 4.63633 10.4457 4.50313 10.2137C4.23242 9.74531 3.72539 9.42734 3.14102 9.42734C2.27305 9.42734 1.56836 10.132 1.56836 11C1.56836 11.868 2.27305 12.5727 3.14102 12.5727C3.72539 12.5727 4.23242 12.2547 4.50313 11.7863V11.7863ZM17.4969 18.0727C17.3637 18.3047 17.2863 18.5711 17.2863 18.859C17.2863 19.1469 17.3637 19.4133 17.4969 19.6453C17.7676 20.1137 18.2746 20.4316 18.859 20.4316C19.727 20.4316 20.4316 19.727 20.4316 18.859C20.4316 17.991 19.727 17.2863 18.859 17.2863C18.2746 17.2863 17.7676 17.6 17.4969 18.0727ZM17.4969 10.2137C17.3637 10.4457 17.2863 10.7121 17.2863 11C17.2863 11.2879 17.3637 11.5543 17.4969 11.7863C17.7676 12.2547 18.2746 12.5727 18.859 12.5727C19.727 12.5727 20.4316 11.868 20.4316 11C20.4316 10.132 19.727 9.42734 18.859 9.42734C18.2746 9.42734 17.7676 9.74531 17.4969 10.2137Z" fill="url(#paint0_linear9)" />
<defs>
<linearGradient id="paint0_linear9" x1="1.98047" y1="16.3584" x2="16.713" y2="2.37005" gradientUnits="userSpaceOnUse">
<stop stop-color="#AE25B4"/>
<stop offset="1" stop-color="#632CA6"/>
</linearGradient>
</defs>
</svg>
