<svg xmlns="http://www.w3.org/2000/svg" viewBox="0 0 448 512">
    <path d="M447.15 89.389l-.181-10.771c-157.39-89.12-288.548-89.12-445.938 0L.85 89.389C-2.836 308.3-4.619 414.216 224 500.222 452.619 414.216 450.836 308.3 447.15 89.389zM224.005 451.482C42.726 383.005 44.14 298.673 47.063 124.385l.143-8.576c124.8-70.955 228.8-70.955 353.6 0l.143 8.576c2.921 174.288 4.336 258.62-176.944 327.097zM92.142 156.977C89.963 285.718 88.909 348.011 224 398.593v-287.26c-42.622 0-85.254 13.1-131.756 39.309z" fill="url(#gradient)"/>
    <defs>
        <linearGradient id="gradient" x1="2967.385" y1="-14502.582" x2="13539.457" y2="600.376" gradientTransform="matrix(.035 0 0 -.035 -78.032 -29.207)" gradientUnits="userSpaceOnUse">
            <stop stop-color="#ae25b4"/>
            <stop offset="1" stop-color="#632ca6"/>
        </linearGradient>
    </defs>
</svg>
