<svg width="20" height="16" viewBox="0 0 20 16" fill="white" xmlns="http://www.w3.org/2000/svg">
<path d="M19.2403 1.84386C18.5188 2.16454 17.7973 2.40504 16.9956 2.48521C17.7973 2.0042 18.4386 1.20252 18.7593 0.320672C17.9576 0.80168 17.156 1.12235 16.2741 1.28269C15.5526 0.481008 14.5104 0 13.3881 0C11.2235 0 9.45982 1.7637 9.45982 3.92823C9.45982 4.2489 9.45982 4.56958 9.53999 4.81008C6.17294 4.64974 3.28689 3.04638 1.36286 0.641344C0.962016 1.28269 0.80168 1.92403 0.80168 2.64554C0.80168 4.0084 1.52319 5.21092 2.56538 5.93243C1.92403 5.93243 1.28269 5.7721 0.80168 5.45143C0.80168 5.45143 0.80168 5.45142 0.80168 5.53159C0.80168 7.45562 2.16454 9.05898 3.92823 9.37966C3.60756 9.45982 3.28689 9.53999 2.88605 9.53999C2.64554 9.53999 2.40504 9.53999 2.16454 9.45982C2.64554 11.0632 4.08857 12.1855 5.85226 12.1855C4.48941 13.2277 2.80588 13.8691 0.962016 13.8691C0.641344 13.8691 0.320672 13.8691 0 13.7889C1.7637 14.9112 3.84806 15.5526 6.0126 15.5526C13.3079 15.5526 17.2361 9.53999 17.2361 4.32907C17.2361 4.16874 17.2361 4.0084 17.2361 3.84806C18.0378 3.28689 18.6791 2.56538 19.2403 1.84386Z" fill="white"/>
</svg>
