<svg width="18" height="18" viewBox="0 0 18 18" fill="none" xmlns="http://www.w3.org/2000/svg">
<path fill-rule="evenodd" clip-rule="evenodd" d="M7.288 3.864V10.712C7.288 10.872 7.22933 11.0053 7.112 11.112C6.99467 11.2187 6.86133 11.2773 6.712 11.288V16.424C6.712 16.584 6.65867 16.7173 6.552 16.824C6.44533 16.9307 6.30667 16.9893 6.136 17H1.576C1.416 17 1.28267 16.9413 1.176 16.824C1.06933 16.7067 1.01067 16.5733 1 16.424V11.864L3.224 4.056C3.26667 3.928 3.35733 3.864 3.496 3.864H7.288ZM10.136 3.864V10.136H7.86401V3.864H10.136ZM17 11.864V16.424C17 16.584 16.9413 16.7173 16.824 16.824C16.7067 16.9307 16.5733 16.9893 16.424 17H11.864C11.704 17 11.5707 16.9413 11.464 16.824C11.3573 16.7067 11.2987 16.5733 11.288 16.424V11.288C11.128 11.288 10.9947 11.2293 10.888 11.112C10.7813 10.9947 10.7227 10.8613 10.712 10.712V3.864H14.504C14.6427 3.864 14.7333 3.928 14.776 4.056L17 11.864ZM7.57601 1.288V3.288H4.42401V1.288C4.42401 1.20267 4.45068 1.13333 4.50401 1.08C4.55734 1.02667 4.62668 1 4.71201 1H7.28801C7.37334 1 7.44267 1.02667 7.49601 1.08C7.54934 1.13333 7.57601 1.20267 7.57601 1.288ZM13.576 1.288V3.288H10.424V1.288C10.424 1.20267 10.4507 1.13333 10.504 1.08C10.5573 1.02667 10.6267 1 10.712 1H13.288C13.3733 1 13.4427 1.02667 13.496 1.08C13.5493 1.13333 13.576 1.20267 13.576 1.288Z" fill="url(#paint0_linear13)"/>
<defs>
<linearGradient id="paint0_linear13" x1="1" y1="17" x2="17.0374" y2="1.03756" gradientUnits="userSpaceOnUse">
<stop stop-color="#AE25B4"/>
<stop offset="1" stop-color="#632CA6"/>
</linearGradient>
</defs>
</svg>
