<svg width="default-size" height="default-size" viewBox="0 0 48 48" version="1.1" xmlns="http://www.w3.org/2000/svg" xmlns:xlink="http://www.w3.org/1999/xlink">
    <!-- Generator: Sketch 52.6 (67491) - http://www.bohemiancoding.com/sketch -->
    <title>Icon/world</title>
    <desc>Created with Sketch.</desc>
    <g stroke="none" stroke-width="1" fill="none" fill-rule="evenodd">
        <path d="M23,18.7142857 L15.1972484,18.7142857 C14.8808707,20.3582799 14.7142857,22.1185995 14.7142857,24 C14.7142857,26.101197 14.9220672,28.0513698 15.3142384,29.8571429 L23,29.8571429 L23,18.7142857 Z M25,18.7142857 L25,29.8571429 L32.6856474,29.8571429 C33.0778185,28.0513698 33.2856,26.101197 33.2856,24 C33.2856,22.1185995 33.119015,20.3582799 32.8026373,18.7142857 L25,18.7142857 Z M23,31.8571429 L15.8410328,31.8571429 C16.6874013,34.5709824 17.9826731,36.9218861 19.6311425,38.9369568 C20.7014808,40.2453264 21.8466701,41.314437 22.9882288,42.1603531 C22.9921555,42.1632629 22.9960793,42.1661678 23,42.1690678 L23,31.8571429 Z M25,31.8571429 L25,42.1689833 C25.0038827,42.1661114 25.0077683,42.1632346 25.0116569,42.1603531 C26.1532156,41.314437 27.298405,40.2453264 28.3687432,38.9369568 C30.0172126,36.9218861 31.3124844,34.5709824 32.1588529,31.8571429 L25,31.8571429 Z M23,16.7142857 L23,5.83093215 C22.9960793,5.83383218 22.9921555,5.83673708 22.9882288,5.83964686 C21.8466701,6.68556302 20.7014808,7.75467359 19.6311425,9.06304321 C17.8680399,11.2182402 16.508965,13.7576013 15.67101,16.7142857 L23,16.7142857 Z M25,16.7142857 L32.3288757,16.7142857 C31.4909207,13.7576013 30.1318458,11.2182402 28.3687432,9.06304321 C27.298405,7.75467359 26.1532156,6.68556302 25.0116569,5.83964686 C25.0077683,5.83676535 25.0038827,5.83388863 25,5.83101669 L25,16.7142857 Z M13.1635581,18.7142857 L5.74490713,18.7142857 C5.25990904,20.3922708 5,22.1657822 5,24 C5,26.043811 5.32270158,28.0122495 5.91993233,29.8571429 L13.2714898,29.8571429 C12.906587,28.0336164 12.7142857,26.0823166 12.7142857,24 C12.7142857,22.1336211 12.8687714,20.3724948 13.1635581,18.7142857 Z M20.4443338,42.6678567 C19.6363334,41.950688 18.8419739,41.130915 18.0831432,40.2033289 C16.1536635,37.8447543 14.6685687,35.0696382 13.7544275,31.8571429 L6.69559884,31.8571429 C9.21247658,37.3914264 14.3062352,41.5058446 20.4443338,42.6678567 Z M20.4443338,5.33214327 C14.0967882,6.53380609 8.86606956,10.8927992 6.44701478,16.7142857 L13.5990681,16.7142857 C14.4953973,13.2582719 16.04017,10.2939789 18.0831432,7.79667107 C18.8419739,6.86908497 19.6363334,6.04931197 20.4443338,5.33214327 Z M34.8363276,18.7142857 C35.1311143,20.3724948 35.2856,22.1336211 35.2856,24 C35.2856,26.0823166 35.0932987,28.0336164 34.7283959,29.8571429 L42.0800677,29.8571429 C42.6772984,28.0122495 43,26.043811 43,24 C43,22.1657822 42.740091,20.3922708 42.2550929,18.7142857 L34.8363276,18.7142857 Z M27.5555209,42.6678842 C33.6936845,41.5059095 38.7875036,37.39147 41.3044012,31.8571429 L34.2454582,31.8571429 C33.3313171,35.0696382 31.8462222,37.8447543 29.9167425,40.2033289 C29.1579022,41.1309269 28.363532,41.950709 27.5555209,42.6678842 Z M27.5555209,5.33211577 C28.363532,6.04929101 29.1579022,6.86907311 29.9167425,7.79667107 C31.9597158,10.2939789 33.5044884,13.2582719 34.4008176,16.7142857 L41.5529852,16.7142857 C39.133912,10.8927548 33.9031319,6.53373958 27.5555209,5.33211577 Z M45,24 C45,35.597999 35.597999,45 24,45 C12.402001,45 3,35.597999 3,24 C3,12.402001 12.402001,3 24,3 C35.597999,3 45,12.402001 45,24 Z"  fill="default-fill" fill-rule="nonzero"></path>
    </g>
</svg>