<svg width="26" height="31" viewBox="0 0 26 31" fill="none" xmlns="http://www.w3.org/2000/svg">
<path d="M20.8866 16.3001C20.9017 15.1253 21.2147 13.9734 21.7962 12.9516C22.3778 11.9297 23.2091 11.0712 24.2129 10.4559C23.5752 9.54776 22.734 8.80043 21.7561 8.27322C20.7782 7.74602 19.6904 7.45346 18.5793 7.4188C16.209 7.1707 13.9112 8.83315 12.7033 8.83315C11.4721 8.83315 9.61244 7.44343 7.60989 7.48452C6.31458 7.52625 5.05221 7.90186 3.94575 8.57475C2.8393 9.24765 1.92651 10.1949 1.29632 11.3242C-1.43354 16.0372 0.602689 22.9639 3.21767 26.7736C4.52599 28.6391 6.05506 30.723 8.0558 30.6491C10.0136 30.5681 10.7449 29.4041 13.1082 29.4041C15.4495 29.4041 16.1355 30.6491 18.1769 30.6021C20.2778 30.5681 21.6014 28.7283 22.8638 26.8451C23.8039 25.5159 24.5272 24.0468 25.0071 22.4922C23.7865 21.9774 22.745 21.1158 22.0122 20.0146C21.2795 18.9135 20.888 17.6216 20.8866 16.3001Z" fill="white"/>
<path d="M17.0298 4.91325C18.1753 3.542 18.7396 1.77948 18.603 0C16.8529 0.183293 15.2364 1.01735 14.0754 2.336C13.5078 2.98019 13.0731 3.72962 12.7961 4.54146C12.5191 5.3533 12.4052 6.21162 12.4611 7.06735C13.3364 7.07634 14.2024 6.88714 14.9938 6.51402C15.7851 6.14089 16.4813 5.59356 17.0298 4.91325Z" fill="white"/>
</svg>
