<svg width="17" height="17" viewBox="0 0 17 17" fill="none" xmlns="http://www.w3.org/2000/svg">
<path d="M2.9631 8.21674C3.91643 8.12539 4.70477 7.79652 4.70477 6.26177V3.19228C4.70477 2.35183 4.90643 1.91333 5.6581 1.91333C6.1531 1.91333 6.40977 2.00469 6.8131 2.22394L7.17977 0.689192C6.5931 0.360318 5.95143 0.232422 5.12643 0.232422C3.21977 0.232422 2.65143 1.34694 2.65143 2.84514V6.02425C2.65143 7.19358 2.0831 7.4311 1.38643 7.4311H0.634766V9.09374H1.38643C2.0831 9.09374 2.65143 9.31299 2.65143 10.5006V13.6614C2.65143 15.1596 3.21977 16.2924 5.12643 16.2924C5.95143 16.2924 6.5931 16.1463 7.17977 15.8357L6.8131 14.3009C6.40977 14.5202 6.1531 14.6115 5.6581 14.6115C4.90643 14.6115 4.70477 14.173 4.70477 13.3143V10.2448C4.70477 8.78314 3.91643 8.39945 2.9631 8.28983V8.21674Z" fill="url(#paint0_linear3)"/>
<path d="M14.0181 8.28983C13.0831 8.39945 12.2764 8.78314 12.2764 10.2448V13.3143C12.2764 14.173 12.0748 14.6115 11.3414 14.6115C10.8464 14.6115 10.5714 14.5202 10.1864 14.3009L9.81977 15.8357C10.3881 16.1463 11.0481 16.2924 11.8731 16.2924C13.7798 16.2924 14.3481 15.1596 14.3481 13.6614V10.5006C14.3481 9.31299 14.9164 9.09374 15.6131 9.09374H16.3648V7.4311H15.6131C14.9164 7.4311 14.3481 7.19358 14.3481 6.02425V2.84514C14.3481 1.34694 13.7798 0.232422 11.8731 0.232422C11.0481 0.232422 10.3881 0.360318 9.81977 0.689192L10.1864 2.22394C10.5714 2.00469 10.8464 1.91333 11.3414 1.91333C12.0748 1.91333 12.2764 2.35183 12.2764 3.19228V6.26177C12.2764 7.79652 13.0831 8.12539 14.0181 8.21674V8.28983Z" fill="url(#paint1_linear3)"/>
<defs>
<linearGradient id="paint0_linear3" x1="0.634766" y1="16.2924" x2="16.7273" y2="0.604268" gradientUnits="userSpaceOnUse">
<stop stop-color="#AE25B4"/>
<stop offset="1" stop-color="#632CA6"/>
</linearGradient>
<linearGradient id="paint1_linear3" x1="0.634766" y1="16.2924" x2="16.7273" y2="0.604268" gradientUnits="userSpaceOnUse">
<stop stop-color="#AE25B4"/>
<stop offset="1" stop-color="#632CA6"/>
</linearGradient>
</defs>
</svg>
