<svg width="42" height="42" viewBox="0 0 42 42" fill="none" xmlns="http://www.w3.org/2000/svg">
<path d="M21.0172 18.3908C24.2512 18.3908 27.2769 18.0968 30.0943 17.5088C32.912 16.9208 35.1291 16.051 36.7461 14.8995V18.3908C36.7461 19.3213 36.0478 20.1911 34.6513 21C33.2548 21.8089 31.3317 22.446 28.8816 22.9113C26.4311 23.3773 23.8097 23.61 21.0172 23.6096C18.3675 23.6226 15.7223 23.3889 13.1159 22.9113C10.6419 22.4452 8.73083 21.8081 7.38278 21C6.03474 20.1919 5.32429 19.3222 5.25144 18.3908V14.8995C6.86844 16.0506 9.0857 16.9203 11.9032 17.5088C14.7207 18.0972 17.7587 18.3912 21.0172 18.3908ZM21.0172 34.1198C24.2512 34.1198 27.2769 33.8257 30.0943 33.2377C32.912 32.6497 35.1291 31.7801 36.7461 30.6285V34.1198C36.7461 35.0753 36.0478 35.9572 34.6513 36.7657C33.2548 37.5742 31.3317 38.2113 28.8816 38.677C26.4311 39.143 23.8097 39.3758 21.0172 39.3753C18.3675 39.3884 15.7223 39.1548 13.1159 38.677C10.6419 38.2111 8.73088 37.574 7.38294 36.7657C6.035 35.9575 5.3245 35.0755 5.25144 34.1198V30.6285C6.86844 31.7796 9.0857 32.6492 11.9032 33.2377C14.7207 33.8263 17.7587 34.1203 21.0172 34.1198ZM21.0172 26.2552C24.2512 26.2552 27.2769 25.9613 30.0943 25.3733C32.912 24.7853 35.1291 23.9154 36.7461 22.7637V26.255C36.7461 27.1855 36.0478 28.0552 34.6513 28.8642C33.2548 29.673 31.3317 30.3101 28.8816 30.7755C26.2873 31.2546 23.6554 31.5005 21.0172 31.5105C18.2242 31.5354 15.5904 31.2905 13.1159 30.7755C10.6414 30.2605 8.73038 29.6237 7.38278 28.8645C6.03495 28.1046 5.3245 27.2349 5.25144 26.2552V22.7637C6.86844 23.9147 9.0857 24.7845 11.9032 25.3729C14.7207 25.9614 17.7587 26.2555 21.0172 26.2552ZM21.0172 2.625C23.8588 2.625 26.4802 2.85776 28.8816 3.32325C31.2824 3.78919 33.2057 4.4263 34.6513 5.23459C36.0964 6.04309 36.7946 6.92509 36.7461 7.88059V10.4898C36.7461 11.4453 36.0478 12.3273 34.6513 13.1358C33.2548 13.9443 31.3317 14.5814 28.8816 15.0472C26.4311 15.5131 23.8097 15.7459 21.0172 15.7454C18.3675 15.7585 15.7223 15.5247 13.1159 15.0472C10.6419 14.5806 8.73083 13.9433 7.38278 13.1355C6.03474 12.3277 5.32429 11.4457 5.25144 10.4895V7.88025C5.25144 6.92475 5.9619 6.04275 7.38278 5.23425C8.80367 4.42575 10.7147 3.78864 13.1158 3.32294C15.5165 2.85721 18.1502 2.62456 21.0172 2.625Z" fill="url(#paint0_linear)"/>
<defs>
<linearGradient id="paint0_linear" x1="41.5" y1="3" x2="-1" y2="39" gradientUnits="userSpaceOnUse">
<stop stop-color="#AE25B4"/>
<stop offset="1" stop-color="#632CA6"/>
</linearGradient>
</defs>
</svg>
