<svg id="Layer_1" data-name="Layer 1" xmlns="http://www.w3.org/2000/svg" xmlns:xlink="http://www.w3.org/1999/xlink" viewBox="0 0 25.1 17.5"><defs><style>.cls-1{fill:url(#linear-gradient);}</style><linearGradient id="linear-gradient" x1="0.2" y1="8.74" x2="24.8" y2="8.74" gradientUnits="userSpaceOnUse"><stop offset="0" stop-color="#ae25b4"/><stop offset="1" stop-color="#632ca6"/></linearGradient></defs><title>Developers_ICN_Thick</title><path class="cls-1" d="M7.92,14.3c-.25.22-.49.45-.73.68a.68.68,0,0,1-.48.23h0A.69.69,0,0,1,6.21,15L2.05,10.76.88,9.59.36,9.08A.56.56,0,0,1,.2,8.67a.56.56,0,0,1,.15-.35L.48,8.2.66,8,6.1,2.6a.81.81,0,0,1,1.26-.06c.15.13.29.27.43.41l.1.11a.9.9,0,0,1,.35.63.88.88,0,0,1-.34.62L3.52,8.69a.23.23,0,0,1-.07.07l.07.07L7,12.3l1,.95a.72.72,0,0,1,.26.54A.7.7,0,0,1,7.92,14.3ZM24.77,8.55,24.22,8,23.15,7,18.72,2.54a.67.67,0,0,0-1.1,0,4.17,4.17,0,0,1-.36.37l-.19.19c-.48.48-.48.75,0,1.23q2.19,2.22,4.41,4.41h0l-.88.85-.29.3L17,13.21a.73.73,0,0,0-.24.5.68.68,0,0,0,.23.48l.36.39.26.28c.2.21.35.36.58.37h0c.23,0,.37-.15.58-.35l5.59-5.53.19-.17.09-.07a.46.46,0,0,0,.17-.33ZM15.8.62a.73.73,0,0,0-.52-.3,4.6,4.6,0,0,1-.5-.13L14.52.12c-.63-.16-.82-.06-1,.57L9,16l-.11.5v.07a.71.71,0,0,0,.54.49,6.48,6.48,0,0,0,.7.21l.1,0a2.09,2.09,0,0,0,.52.09c.34,0,.48-.2.64-.73L14.47,6q.67-2.39,1.36-4.75A.73.73,0,0,0,15.8.62Z"/></svg>