<svg xmlns="http://www.w3.org/2000/svg" viewBox="0 0 192 192" width="192" height="192">
<path d="M30.7338 180H139.314C146.677 180 153.383 175.552 156.404 168.663C156.404 168.663 176.047 113.074 179.416 103.131C181.505 96.9567 178.056 83.8471 168.011 83.8093C164.381 83.7966 120.846 83.8093 120.846 83.8093C125.789 71.7497 128.771 60.0598 128.771 43.0143C128.771 42.9765 128.745 42.9513 128.745 42.9135C128.745 42.8757 128.771 42.8505 128.771 42.8127C128.771 32.2359 121.382 23.0452 114.8 16.3623C109.484 10.9689 101.606 10.5194 96.0704 15.3332C90.7541 19.9621 90.6897 26.3048 90.6768 31.4252C90.6683 32.7609 92.0199 38.6416 90.1619 41.4433C84.3779 50.1761 55.9811 83.8093 55.9811 83.8093L30.7381 83.7714C20.4058 83.7546 12 92.5378 12 103.131V160.783C12 171.381 20.4058 180 30.7338 180ZM68.8279 88.8036C68.8279 88.8036 95.8559 56.4138 101.709 45.774C105.085 39.6371 103.069 25.7209 103.94 24.9691C104.498 24.5028 105.12 24.1962 106.072 25.1791C108.93 28.1488 116.508 36.0331 116.508 43.0101C116.508 43.972 116.495 44.8919 116.478 45.774C116.207 58.2494 114.006 63.6218 109.544 74.5262L106.398 83.8093C105.862 85.1408 105.313 89.3875 105.39 92.7562C105.437 94.8985 107.27 96.1208 109.458 96.1208H109.544L169.44 95.9906L145.226 163.496C144.188 165.878 141.871 167.42 139.326 167.42H68.8279V88.8036ZM24.2589 167.399V95.9906H55.9811V167.42L30.7338 167.399C27.1638 167.407 24.2589 167.399 24.2589 167.399Z"/>
</svg>
