<svg width="100" height="100" viewBox="0 0 192 192" xmlns="http://www.w3.org/2000/svg" xmlns:xlink="http://www.w3.org/1999/xlink"><linearGradient id="a" gradientUnits="userSpaceOnUse" x1="96" x2="96" y1="148" y2="44"><stop offset="0" stop-color="#d4ccff"/><stop offset="1" stop-color="#d4ccff" stop-opacity="0"/></linearGradient><linearGradient id="b" gradientUnits="userSpaceOnUse" x1="68" x2="124" y1="96" y2="96"><stop offset="0" stop-color="#60f"/><stop offset="1" stop-color="#e566ff"/></linearGradient><g fill="#60f"><path d="m40 136h-20c-4.41 0-8-3.59-8-8v-64c0-4.41 3.59-8 8-8h20v-4h-20c-6.63 0-12 5.37-12 12v64c0 6.63 5.37 12 12 12h20z"/><path d="m172 52h-20v4h20c4.41 0 8 3.59 8 8v64c0 4.41-3.59 8-8 8h-20v4h20c6.63 0 12-5.37 12-12v-64c0-6.63-5.37-12-12-12z"/><path d="m132 36c4.41 0 8 3.59 8 8v104c0 4.41-3.59 8-8 8h-72c-4.41 0-8-3.59-8-8v-104c0-4.41 3.59-8 8-8zm0-4h-72c-6.63 0-12 5.37-12 12v104c0 6.63 5.37 12 12 12h72c6.63 0 12-5.37 12-12v-104c0-6.63-5.37-12-12-12z"/></g><path d="m20 124v-56c0-2.21 1.79-4 4-4h16v64h-16c-2.21 0-4-1.79-4-4zm148 4c2.21 0 4-1.79 4-4v-56c0-2.21-1.79-4-4-4h-16v64zm-108-80v96c0 2.21 1.79 4 4 4h64c2.21 0 4-1.79 4-4v-96c0-2.21-1.79-4-4-4h-64c-2.21 0-4 1.79-4 4z" fill="url(#a)"/><path d="m121 92h-18.07l9.04-15.65c.83-1.44.34-3.27-1.1-4.1l-1.73-1c-1.43-.83-3.27-.34-4.1 1.1l-9.04 15.65-9.04-15.65c-.83-1.44-2.66-1.93-4.1-1.1l-1.73 1c-1.43.83-1.93 2.66-1.1 4.1l9.04 15.65h-18.07c-1.66 0-3 1.34-3 3v2c0 1.66 1.34 3 3 3h18.07l-9.04 15.65c-.83 1.44-.34 3.27 1.1 4.1l1.73 1c1.43.83 3.27.34 4.1-1.1l9.04-15.65 9.04 15.65c.83 1.44 2.66 1.93 4.1 1.1l1.73-1c1.43-.83 1.93-2.66 1.1-4.1l-9.04-15.65h18.07c1.66 0 3-1.34 3-3v-2c0-1.66-1.34-3-3-3z" fill="url(#b)"/></svg>